<svg xmlns="http://www.w3.org/2000/svg" viewBox="0 0 1700 1200" width="1700" height="1200" font-family="Arial, Helvetica, sans-serif">
<defs>

  <!-- bathroom floor tile hatch -->
  <pattern id="tileHatch" patternUnits="userSpaceOnUse" width="6" height="6">
    <rect width="6" height="6" fill="#ffffff"/>
    <path d="M 0 6 L 6 0" stroke="#777" stroke-width="0.4"/>
    <path d="M 0 0 L 6 6" stroke="#777" stroke-width="0.4"/>
  </pattern>
  <!-- bedroom rug hatch -->
  <pattern id="bedHatch" patternUnits="userSpaceOnUse" width="4" height="4">
    <rect width="4" height="4" fill="#ffffff"/>
    <line x1="0" y1="4" x2="4" y2="0" stroke="#999" stroke-width="0.35"/>
  </pattern>
  <!-- deck timber planks -->
  <pattern id="deckHatch" patternUnits="userSpaceOnUse" width="14" height="14">
    <rect width="14" height="14" fill="#ffffff"/>
    <line x1="0" y1="6" x2="14" y2="6" stroke="#666" stroke-width="0.5"/>
    <line x1="0" y1="14" x2="14" y2="14" stroke="#666" stroke-width="0.5"/>
  </pattern>
  <!-- courtyard stone paver -->
  <pattern id="courtHatch" patternUnits="userSpaceOnUse" width="20" height="20">
    <rect width="20" height="20" fill="#ffffff"/>
    <rect x="0" y="0" width="20" height="20" fill="none" stroke="#999" stroke-width="0.3"/>
    <rect x="10" y="0" width="0.3" height="10" fill="#999"/>
    <rect x="0" y="10" width="10" height="0.3" fill="#999"/>
  </pattern>
  <!-- pool water ripple -->
  <pattern id="waterHatch" patternUnits="userSpaceOnUse" width="10" height="10">
    <rect width="10" height="10" fill="#ffffff"/>
    <path d="M 0 3 Q 2.5 1 5 3 T 10 3" stroke="#666" stroke-width="0.3" fill="none"/>
    <path d="M 0 7 Q 2.5 5 5 7 T 10 7" stroke="#666" stroke-width="0.3" fill="none"/>
  </pattern>
  <!-- arrow head for dimensions -->
  <marker id="arrL" markerWidth="8" markerHeight="8" refX="6" refY="4" orient="auto">
    <path d="M 0 0 L 8 4 L 0 8" fill="none" stroke="#000" stroke-width="0.8"/>
  </marker>
  <marker id="arrR" markerWidth="8" markerHeight="8" refX="2" refY="4" orient="auto">
    <path d="M 8 0 L 0 4 L 8 8" fill="none" stroke="#000" stroke-width="0.8"/>
  </marker>

</defs>
<rect width="1700" height="1200" fill="#ffffff"/>
<rect x="10" y="10" width="1680" height="1180" fill="none" stroke="#000" stroke-width="1.4"/>
<rect x="18" y="18" width="1664" height="1164" fill="none" stroke="#000" stroke-width="0.4"/>
<text x="850.0" y="50" text-anchor="middle" fill="#000" font-size="18" font-weight="700" letter-spacing="4">RESERVE VARDE · 2BHK COMPACT MODULAR ECO ESTATE</text>
<text x="850.0" y="72" text-anchor="middle" fill="#000" font-size="11" letter-spacing="3">U-SHAPE COURTYARD FLOOR PLAN · 2500 SQ.FT · GROUND-LEVEL · SCALE 1:100</text>
<line x1="60" y1="86" x2="1640" y2="86" stroke="#000" stroke-width="0.6"/>
<path d="M 220.0 130.0 L 1074.0 130.0 L 1074.0 1325.6000000000001 L 732.4000000000001 1325.6000000000001 L 732.4000000000001 471.6 L 561.6 471.6 L 561.6 1325.6000000000001 L 220.0 1325.6000000000001 L 220.0 130.0" fill="#ffffff" stroke="#000" stroke-width="3.0"/>
<path d="M 234.0 144.0 L 1060.0 144.0 L 1060.0 1311.6000000000001 L 746.4000000000001 1311.6000000000001 L 746.4000000000001 457.6 L 547.6 457.6 L 547.6 1311.6000000000001 L 234.0 1311.6000000000001 L 234.0 144.0" fill="none" stroke="#000" stroke-width="0.6"/>
<rect x="220.0" y="130.0" width="854.0000000000001" height="170.8" fill="none" stroke="#888" stroke-width="0.5" stroke-dasharray="5,3"/>
<rect x="220.0" y="300.8" width="854.0000000000001" height="170.8" fill="none" stroke="#888" stroke-width="0.5" stroke-dasharray="5,3"/>
<rect x="220.0" y="471.6" width="170.8" height="854.0000000000001" fill="none" stroke="#888" stroke-width="0.5" stroke-dasharray="5,3"/>
<rect x="390.8" y="471.6" width="170.8" height="854.0000000000001" fill="none" stroke="#888" stroke-width="0.5" stroke-dasharray="5,3"/>
<rect x="903.2" y="471.6" width="170.8" height="854.0000000000001" fill="none" stroke="#888" stroke-width="0.5" stroke-dasharray="5,3"/>
<rect x="732.4000000000001" y="471.6" width="170.8" height="854.0000000000001" fill="none" stroke="#888" stroke-width="0.5" stroke-dasharray="5,3"/>
<rect x="1179.0" y="611.6" width="170.8" height="427.00000000000006" fill="none" stroke="#888" stroke-width="0.5" stroke-dasharray="5,3"/>
<rect x="224.0" y="134.0" width="32" height="16" fill="#000"/>
<text x="240.0" y="145.0" fill="#fff" font-size="10" font-weight="700" text-anchor="middle">C-1</text>
<rect x="224.0" y="304.8" width="32" height="16" fill="#000"/>
<text x="240.0" y="315.8" fill="#fff" font-size="10" font-weight="700" text-anchor="middle">C-2</text>
<rect x="224.0" y="475.6" width="32" height="16" fill="#000"/>
<text x="240.0" y="486.6" fill="#fff" font-size="10" font-weight="700" text-anchor="middle">C-3</text>
<rect x="394.8" y="475.6" width="32" height="16" fill="#000"/>
<text x="410.8" y="486.6" fill="#fff" font-size="10" font-weight="700" text-anchor="middle">C-4</text>
<rect x="907.2" y="475.6" width="32" height="16" fill="#000"/>
<text x="923.2" y="486.6" fill="#fff" font-size="10" font-weight="700" text-anchor="middle">C-5</text>
<rect x="736.4000000000001" y="475.6" width="32" height="16" fill="#000"/>
<text x="752.4000000000001" y="486.6" fill="#fff" font-size="10" font-weight="700" text-anchor="middle">C-6</text>
<rect x="1183.0" y="615.6" width="32" height="16" fill="#000"/>
<text x="1199.0" y="626.6" fill="#fff" font-size="10" font-weight="700" text-anchor="middle">C-7</text>
<line x1="430.0" y1="130.0" x2="430.0" y2="300.8" stroke="#000" stroke-width="1.4"/>
<line x1="430.0" y1="241.02" x2="378.76" y2="241.02" stroke="#000" stroke-width="1.2"/>
<path d="M 378.76 241.02 A 51.24 51.24 0 0 1 430.0 292.26" fill="none" stroke="#000" stroke-width="0.4"/>
<line x1="430.0" y1="300.8" x2="1060.0" y2="300.8" stroke="#000" stroke-width="1.4"/>
<line x1="675.0" y1="300.8" x2="675.0" y2="457.6" stroke="#000" stroke-width="1.4"/>
<line x1="390.8" y1="485.6" x2="390.8" y2="1311.6000000000001" stroke="#000" stroke-width="1.4"/>
<line x1="390.8" y1="555.6" x2="327.8" y2="555.6" stroke="#000" stroke-width="1.2"/>
<path d="M 327.8 555.6 A 63.00000000000001 63.00000000000001 0 0 1 390.8 618.6" fill="none" stroke="#000" stroke-width="0.4"/>
<line x1="404.8" y1="685.1" x2="547.6" y2="685.1" stroke="#000" stroke-width="1.4"/>
<line x1="404.8" y1="941.3000000000001" x2="547.6" y2="941.3000000000001" stroke="#000" stroke-width="1.4"/>
<line x1="460.8" y1="685.1" x2="523.8" y2="685.1" stroke="#000" stroke-width="1.2"/>
<path d="M 523.8 685.1 A 63.00000000000001 63.00000000000001 0 0 1 460.8 622.1" fill="none" stroke="#000" stroke-width="0.4"/>
<line x1="460.8" y1="941.3000000000001" x2="523.8" y2="941.3000000000001" stroke="#000" stroke-width="1.2"/>
<path d="M 523.8 941.3000000000001 A 63.00000000000001 63.00000000000001 0 0 1 460.8 878.3000000000001" fill="none" stroke="#000" stroke-width="0.4"/>
<line x1="903.2" y1="485.6" x2="903.2" y2="1311.6000000000001" stroke="#000" stroke-width="1.4"/>
<line x1="903.2" y1="555.6" x2="840.2" y2="555.6" stroke="#000" stroke-width="1.2"/>
<path d="M 840.2 555.6 A 63.00000000000001 63.00000000000001 0 0 1 903.2 618.6" fill="none" stroke="#000" stroke-width="0.4"/>
<line x1="746.4000000000001" y1="727.8000000000001" x2="889.2" y2="727.8000000000001" stroke="#000" stroke-width="1.4"/>
<line x1="746.4000000000001" y1="1112.8000000000002" x2="889.2" y2="1112.8000000000002" stroke="#000" stroke-width="1.4"/>
<line x1="802.4000000000001" y1="727.8000000000001" x2="865.4000000000001" y2="727.8000000000001" stroke="#000" stroke-width="1.2"/>
<path d="M 865.4000000000001 727.8000000000001 A 63.00000000000001 63.00000000000001 0 0 1 802.4000000000001 664.8000000000001" fill="none" stroke="#000" stroke-width="0.4"/>
<line x1="802.4000000000001" y1="1112.8000000000002" x2="865.4000000000001" y2="1112.8000000000002" stroke="#000" stroke-width="1.2"/>
<path d="M 865.4000000000001 1112.8000000000002 A 63.00000000000001 63.00000000000001 0 0 1 802.4000000000001 1049.8000000000002" fill="none" stroke="#000" stroke-width="0.4"/>
<line x1="561.6" y1="471.6" x2="732.4000000000001" y2="471.6" stroke="#000" stroke-width="0.4"/>
<line x1="561.6" y1="457.6" x2="732.4000000000001" y2="457.6" stroke="#000" stroke-width="0.4" stroke-dasharray="2,2"/>
<line x1="732.4000000000001" y1="471.6" x2="732.4000000000001" y2="1325.6000000000001" stroke="#000" stroke-width="0.4"/>
<line x1="746.4000000000001" y1="471.6" x2="746.4000000000001" y2="1325.6000000000001" stroke="#000" stroke-width="0.4" stroke-dasharray="2,2"/>
<line x1="561.6" y1="471.6" x2="561.6" y2="1325.6000000000001" stroke="#000" stroke-width="0.4"/>
<line x1="547.6" y1="471.6" x2="547.6" y2="1325.6000000000001" stroke="#000" stroke-width="0.4" stroke-dasharray="2,2"/>
<rect x="561.6" y="471.6" width="170.8" height="854.0000000000001" fill="url(#courtHatch)" stroke="#000" stroke-width="0.6"/>
<rect x="604.3" y="813.2" width="85.4" height="170.8" fill="url(#waterHatch)" stroke="#000" stroke-width="0.5"/>
<circle cx="694.8240000000001" cy="659.48" r="49.00000000000001" fill="none" stroke="#000" stroke-width="0.6"/>
<text x="694.8240000000001" y="663.48" text-anchor="middle" font-size="6">⊕</text>
<text x="647.0" y="1265.8200000000002" fill="#000" font-size="11" font-weight="700" text-anchor="middle" font-family="Arial">COURTYARD</text>
<text x="647.0" y="1299.98" fill="#000" font-size="8" font-weight="400" text-anchor="middle" font-family="Arial">8.0 × 5.0 m · open-to-sky · 260 sq.ft</text>
<rect x="185.0" y="1353.6000000000001" width="924.0000000000001" height="210.00000000000003" fill="url(#deckHatch)" stroke="#000" stroke-width="0.8"/>
<text x="647.0" y="1451.6000000000001" fill="#000" font-size="11" font-weight="700" text-anchor="middle" font-family="Arial">FOREST-FACING DECK</text>
<text x="647.0" y="1464.2" fill="#000" font-size="8" font-weight="400" text-anchor="middle" font-family="Arial">covered pergola · IPE timber · 200 sq.ft</text>
<rect x="739.4000000000001" y="1598.6000000000001" width="420.00000000000006" height="175.00000000000003" fill="url(#waterHatch)" stroke="#000" stroke-width="0.8" stroke-dasharray="4,3"/>
<text x="949.4000000000001" y="1682.6000000000001" fill="#000" font-size="10" font-weight="700" text-anchor="middle" font-family="Arial">PLUNGE POOL</text>
<text x="949.4000000000001" y="1693.1000000000001" fill="#000" font-size="7" font-weight="400" text-anchor="middle" font-family="Arial">6.0 × 2.5 m · optional</text>
<rect x="220.0" y="1598.6000000000001" width="350.00000000000006" height="175.00000000000003" fill="url(#deckHatch)" stroke="#000" stroke-width="0.6" stroke-dasharray="3,2"/>
<text x="395.0" y="1682.6000000000001" fill="#000" font-size="10" font-weight="700" text-anchor="middle" font-family="Arial">OUTDOOR DINING</text>
<text x="395.0" y="1693.1000000000001" fill="#000" font-size="7" font-weight="400" text-anchor="middle" font-family="Arial">pergola roof</text>
<rect x="307.5" y="1651.1000000000001" width="168.00000000000003" height="70.0" fill="none" stroke="#000" stroke-width="0.7" rx="4"/>
<rect x="311.7" y="1655.3000000000002" width="159.60000000000002" height="61.60000000000001" fill="none" stroke="#000" stroke-width="0.3" rx="2"/>
<rect x="334.8" y="1628.0000000000002" width="29.400000000000002" height="17.5" fill="none" stroke="#000" stroke-width="0.5" rx="3"/>
<rect x="376.8" y="1628.0000000000002" width="29.400000000000002" height="17.5" fill="none" stroke="#000" stroke-width="0.5" rx="3"/>
<rect x="418.8" y="1628.0000000000002" width="29.400000000000002" height="17.5" fill="none" stroke="#000" stroke-width="0.5" rx="3"/>
<rect x="334.8" y="1726.7" width="29.400000000000002" height="17.5" fill="none" stroke="#000" stroke-width="0.5" rx="3"/>
<rect x="376.8" y="1726.7" width="29.400000000000002" height="17.5" fill="none" stroke="#000" stroke-width="0.5" rx="3"/>
<rect x="418.8" y="1726.7" width="29.400000000000002" height="17.5" fill="none" stroke="#000" stroke-width="0.5" rx="3"/>
<text x="325.0" y="206.86" fill="#000" font-size="10" font-weight="700" text-anchor="middle" font-family="Arial">ENTRY FOYER</text>
<text x="325.0" y="215.96" fill="#000" font-size="8" font-weight="400" text-anchor="middle" font-family="Arial">100 sq.ft</text>
<text x="766.0" y="206.86" fill="#000" font-size="12" font-weight="700" text-anchor="middle" font-family="Arial">LIVING</text>
<text x="766.0" y="215.96" fill="#000" font-size="10" font-weight="400" text-anchor="middle" font-family="Arial">280 sq.ft</text>
<text x="465.0" y="377.66" fill="#000" font-size="12" font-weight="700" text-anchor="middle" font-family="Arial">DINING</text>
<text x="465.0" y="386.76000000000005" fill="#000" font-size="10" font-weight="400" text-anchor="middle" font-family="Arial">200 sq.ft</text>
<text x="864.0000000000001" y="377.66" fill="#000" font-size="12" font-weight="700" text-anchor="middle" font-family="Arial">OPEN KITCHEN</text>
<text x="864.0000000000001" y="386.76000000000005" fill="#000" font-size="10" font-weight="400" text-anchor="middle" font-family="Arial">200 sq.ft</text>
<text x="305.4" y="898.6" fill="#000" font-size="12" font-weight="700" text-anchor="middle" font-family="Arial" transform="rotate(-90 305.4 898.6)">MASTER BEDROOM</text>
<text x="306.66" y="898.6" fill="#000" font-size="9" font-weight="400" text-anchor="middle" font-family="Arial" transform="rotate(-90 306.66 898.6)">300 sq.ft</text>
<text x="476.20000000000005" y="576.6" fill="#000" font-size="9" font-weight="700" text-anchor="middle" font-family="Arial" transform="rotate(-90 476.20000000000005 576.6)">M.WR</text>
<text x="477.18" y="576.6" fill="#000" font-size="7" font-weight="400" text-anchor="middle" font-family="Arial" transform="rotate(-90 477.18 576.6)">70 sf</text>
<text x="476.20000000000005" y="821.6" fill="#000" font-size="10" font-weight="700" text-anchor="middle" font-family="Arial" transform="rotate(-90 476.20000000000005 821.6)">MASTER BATH</text>
<text x="477.32000000000005" y="821.6" fill="#000" font-size="8" font-weight="400" text-anchor="middle" font-family="Arial" transform="rotate(-90 477.32000000000005 821.6)">140 sq.ft</text>
<text x="476.20000000000005" y="1122.6000000000001" fill="#000" font-size="10" font-weight="700" text-anchor="middle" font-family="Arial" transform="rotate(-90 476.20000000000005 1122.6000000000001)">MASTER LOUNGE</text>
<text x="477.32000000000005" y="1122.6000000000001" fill="#000" font-size="8" font-weight="400" text-anchor="middle" font-family="Arial" transform="rotate(-90 477.32000000000005 1122.6000000000001)">110 sq.ft</text>
<text x="988.6" y="898.6" fill="#000" font-size="12" font-weight="700" text-anchor="middle" font-family="Arial" transform="rotate(-90 988.6 898.6)">BEDROOM 2</text>
<text x="989.8600000000001" y="898.6" fill="#000" font-size="9" font-weight="400" text-anchor="middle" font-family="Arial" transform="rotate(-90 989.8600000000001 898.6)">280 sq.ft</text>
<text x="817.8000000000001" y="597.6" fill="#000" font-size="9" font-weight="700" text-anchor="middle" font-family="Arial" transform="rotate(-90 817.8000000000001 597.6)">BR2 BATH</text>
<text x="818.7800000000001" y="597.6" fill="#000" font-size="7" font-weight="400" text-anchor="middle" font-family="Arial" transform="rotate(-90 818.7800000000001 597.6)">110 sf</text>
<text x="817.8000000000001" y="926.6" fill="#000" font-size="10" font-weight="700" text-anchor="middle" font-family="Arial" transform="rotate(-90 817.8000000000001 926.6)">STUDY / LOUNGE</text>
<text x="818.9200000000001" y="926.6" fill="#000" font-size="8" font-weight="400" text-anchor="middle" font-family="Arial" transform="rotate(-90 818.9200000000001 926.6)">140 sq.ft</text>
<text x="817.8000000000001" y="1206.6000000000001" fill="#000" font-size="8" font-weight="700" text-anchor="middle" font-family="Arial" transform="rotate(-90 817.8000000000001 1206.6000000000001)">PWD</text>
<text x="818.6400000000001" y="1206.6000000000001" fill="#000" font-size="6" font-weight="400" text-anchor="middle" font-family="Arial" transform="rotate(-90 818.6400000000001 1206.6000000000001)">50 sf</text>
<text x="1264.4" y="716.6" fill="#000" font-size="9" font-weight="700" text-anchor="middle" font-family="Arial" transform="rotate(-90 1264.4 716.6)">UTILITY</text>
<text x="1265.38" y="716.6" fill="#000" font-size="7" font-weight="400" text-anchor="middle" font-family="Arial" transform="rotate(-90 1265.38 716.6)">90 sf</text>
<line x1="1179.0" y1="821.6" x2="1349.8000000000002" y2="821.6" stroke="#000" stroke-width="1.4"/>
<text x="1264.4" y="926.6" fill="#000" font-size="9" font-weight="700" text-anchor="middle" font-family="Arial" transform="rotate(-90 1264.4 926.6)">STORE</text>
<text x="1265.24" y="926.6" fill="#000" font-size="7" font-weight="400" text-anchor="middle" font-family="Arial" transform="rotate(-90 1265.24 926.6)">70 sf</text>
<rect x="661.0" y="144.0" width="210.00000000000003" height="15.750000000000002" fill="none" stroke="#000" stroke-width="0.7" rx="3"/>
<rect x="661.0" y="159.75" width="210.00000000000003" height="47.25000000000001" fill="none" stroke="#000" stroke-width="0.7" rx="3"/>
<line x1="731.0" y1="161.85" x2="731.0" y2="204.9" stroke="#000" stroke-width="0.4"/>
<line x1="801.0" y1="161.85" x2="801.0" y2="204.9" stroke="#000" stroke-width="0.4"/>
<rect x="661.0" y="159.75" width="10.500000000000002" height="47.25000000000001" fill="none" stroke="#000" stroke-width="0.5" rx="3"/>
<rect x="860.5000000000001" y="159.75" width="10.500000000000002" height="47.25000000000001" fill="none" stroke="#000" stroke-width="0.5" rx="3"/>
<rect x="696.0" y="221.0" width="126.00000000000001" height="49.00000000000001" fill="none" stroke="#000" stroke-width="0.6" rx="3"/>
<rect x="701.6" y="224.5" width="114.80000000000001" height="42.00000000000001" fill="none" stroke="#000" stroke-width="0.3" rx="2"/>
<circle cx="836.0000000000001" cy="215.4" r="28.000000000000004" fill="none" stroke="#000" stroke-width="0.3" stroke-dasharray="4,3"/>
<circle cx="836.0000000000001" cy="215.4" r="5.6000000000000005" fill="none" stroke="#000" stroke-width="0.4"/>
<line x1="816.4000000000001" y1="215.4" x2="855.6" y2="215.4" stroke="#000" stroke-width="0.3"/>
<line x1="836.0000000000001" y1="195.8" x2="836.0000000000001" y2="235.0" stroke="#000" stroke-width="0.3"/>
<rect x="388.0" y="342.8" width="168.00000000000003" height="70.0" fill="none" stroke="#000" stroke-width="0.7" rx="4"/>
<rect x="392.20000000000005" y="347.0" width="159.60000000000002" height="61.60000000000001" fill="none" stroke="#000" stroke-width="0.3" rx="2"/>
<rect x="415.3" y="319.70000000000005" width="29.400000000000002" height="17.5" fill="none" stroke="#000" stroke-width="0.5" rx="3"/>
<rect x="457.3" y="319.70000000000005" width="29.400000000000002" height="17.5" fill="none" stroke="#000" stroke-width="0.5" rx="3"/>
<rect x="499.3" y="319.70000000000005" width="29.400000000000002" height="17.5" fill="none" stroke="#000" stroke-width="0.5" rx="3"/>
<rect x="415.3" y="418.40000000000003" width="29.400000000000002" height="17.5" fill="none" stroke="#000" stroke-width="0.5" rx="3"/>
<rect x="457.3" y="418.40000000000003" width="29.400000000000002" height="17.5" fill="none" stroke="#000" stroke-width="0.5" rx="3"/>
<rect x="499.3" y="418.40000000000003" width="29.400000000000002" height="17.5" fill="none" stroke="#000" stroke-width="0.5" rx="3"/>
<rect x="976.0000000000001" y="314.8" width="77.00000000000001" height="154.00000000000003" fill="none" stroke="#000" stroke-width="0.7"/>
<rect x="1026.0500000000002" y="345.6" width="35.0" height="28.000000000000004" fill="none" stroke="#000" stroke-width="0.5" rx="3"/>
<rect x="1029.5500000000002" y="348.40000000000003" width="28.000000000000004" height="22.400000000000002" fill="none" stroke="#000" stroke-width="0.3" rx="2"/>
<circle cx="1043.5500000000002" cy="342.1" r="3" fill="#000"/>
<rect x="738.0" y="415.6" width="224.00000000000003" height="49.00000000000001" fill="none" stroke="#000" stroke-width="0.7"/>
<rect x="771.6" y="425.40000000000003" width="42.00000000000001" height="35.0" fill="none" stroke="#000" stroke-width="0.5"/>
<circle cx="782.1" cy="434.15000000000003" r="5.6000000000000005" fill="none" stroke="#000" stroke-width="0.5"/>
<circle cx="782.1" cy="434.15000000000003" r="2.8000000000000003" fill="none" stroke="#000" stroke-width="0.3"/>
<circle cx="803.1" cy="434.15000000000003" r="5.6000000000000005" fill="none" stroke="#000" stroke-width="0.5"/>
<circle cx="803.1" cy="434.15000000000003" r="2.8000000000000003" fill="none" stroke="#000" stroke-width="0.3"/>
<circle cx="782.1" cy="451.65000000000003" r="5.6000000000000005" fill="none" stroke="#000" stroke-width="0.5"/>
<circle cx="782.1" cy="451.65000000000003" r="2.8000000000000003" fill="none" stroke="#000" stroke-width="0.3"/>
<circle cx="803.1" cy="451.65000000000003" r="5.6000000000000005" fill="none" stroke="#000" stroke-width="0.5"/>
<circle cx="803.1" cy="451.65000000000003" r="2.8000000000000003" fill="none" stroke="#000" stroke-width="0.3"/>
<rect x="766.0" y="349.8" width="126.00000000000001" height="63.00000000000001" fill="none" stroke="#000" stroke-width="0.7"/>
<rect x="770.2" y="354.0" width="117.60000000000001" height="54.60000000000001" fill="none" stroke="#000" stroke-width="0.3"/>
<circle cx="797.5" cy="426.8" r="12.600000000000001" fill="none" stroke="#000" stroke-width="0.5"/>
<circle cx="829.0000000000001" cy="426.8" r="12.600000000000001" fill="none" stroke="#000" stroke-width="0.5"/>
<circle cx="860.5000000000001" cy="426.8" r="12.600000000000001" fill="none" stroke="#000" stroke-width="0.5"/>
<rect x="241.0" y="597.6" width="126.00000000000001" height="154.00000000000003" fill="url(#bedHatch)" stroke="#000" stroke-width="0.8" rx="3"/>
<rect x="249.4" y="603.2" width="50.400000000000006" height="19.040000000000003" fill="none" stroke="#000" stroke-width="0.5" rx="2"/>
<rect x="308.2" y="603.2" width="50.400000000000006" height="19.040000000000003" fill="none" stroke="#000" stroke-width="0.5" rx="2"/>
<rect x="200.4" y="597.6" width="35.0" height="31.500000000000004" fill="none" stroke="#000" stroke-width="0.5"/>
<rect x="372.6" y="597.6" width="35.0" height="31.500000000000004" fill="none" stroke="#000" stroke-width="0.5"/>
<circle cx="305.4" cy="926.6" r="28.000000000000004" fill="none" stroke="#000" stroke-width="0.3" stroke-dasharray="4,3"/>
<circle cx="305.4" cy="926.6" r="5.6000000000000005" fill="none" stroke="#000" stroke-width="0.4"/>
<line x1="285.8" y1="926.6" x2="325.0" y2="926.6" stroke="#000" stroke-width="0.3"/>
<line x1="305.4" y1="907.0000000000001" x2="305.4" y2="946.2" stroke="#000" stroke-width="0.3"/>
<rect x="404.8" y="726.4000000000001" width="26.6" height="14.700000000000001" fill="none" stroke="#000" stroke-width="0.7" rx="2"/>
<ellipse cx="418.1" cy="711.7" rx="10.64" ry="13.440000000000001" fill="none" stroke="#000" stroke-width="0.7"/>
<rect x="408.3" y="762.1" width="42.00000000000001" height="31.500000000000004" fill="none" stroke="#000" stroke-width="0.7"/>
<ellipse cx="429.3" cy="779.4250000000001" rx="14.700000000000001" ry="9.450000000000001" fill="none" stroke="#000" stroke-width="0.5"/>
<circle cx="429.3" cy="767.7700000000001" r="2" fill="#000"/>
<rect x="481.8" y="699.1" width="77.00000000000001" height="77.00000000000001" fill="url(#tileHatch)" stroke="#000" stroke-width="0.7"/>
<line x1="543.05" y1="760.35" x2="551.45" y2="768.7500000000001" stroke="#000" stroke-width="0.5"/>
<line x1="543.05" y1="768.7500000000001" x2="551.45" y2="760.35" stroke="#000" stroke-width="0.5"/>
<rect x="439.8" y="1101.6000000000001" width="49.00000000000001" height="56.00000000000001" fill="none" stroke="#000" stroke-width="0.5" rx="3"/>
<rect x="442.6" y="1104.4" width="43.400000000000006" height="47.6" fill="none" stroke="#000" stroke-width="0.3" rx="2"/>
<rect x="495.8" y="1115.6000000000001" width="35.0" height="35.0" fill="none" stroke="#000" stroke-width="0.5"/>
<rect x="411.8" y="520.6" width="140.0" height="49.00000000000001" fill="none" stroke="#000" stroke-width="0.7"/>
<line x1="458.4666666666667" y1="520.6" x2="458.4666666666667" y2="569.6" stroke="#000" stroke-width="0.3" stroke-dasharray="3,2"/>
<line x1="505.1333333333333" y1="520.6" x2="505.1333333333333" y2="569.6" stroke="#000" stroke-width="0.3" stroke-dasharray="3,2"/>
<line x1="418.8" y1="545.1" x2="544.8" y2="545.1" stroke="#000" stroke-width="0.3"/>
<rect x="924.2" y="597.6" width="112.00000000000001" height="147.0" fill="url(#bedHatch)" stroke="#000" stroke-width="0.8" rx="3"/>
<rect x="931.6666666666667" y="603.2" width="44.800000000000004" height="17.92" fill="none" stroke="#000" stroke-width="0.5" rx="2"/>
<rect x="983.9333333333334" y="603.2" width="44.800000000000004" height="17.92" fill="none" stroke="#000" stroke-width="0.5" rx="2"/>
<rect x="883.6" y="597.6" width="35.0" height="31.500000000000004" fill="none" stroke="#000" stroke-width="0.5"/>
<rect x="1041.8000000000002" y="597.6" width="35.0" height="31.500000000000004" fill="none" stroke="#000" stroke-width="0.5"/>
<circle cx="988.6" cy="926.6" r="28.000000000000004" fill="none" stroke="#000" stroke-width="0.3" stroke-dasharray="4,3"/>
<circle cx="988.6" cy="926.6" r="5.6000000000000005" fill="none" stroke="#000" stroke-width="0.4"/>
<line x1="969.0000000000001" y1="926.6" x2="1008.2" y2="926.6" stroke="#000" stroke-width="0.3"/>
<line x1="988.6" y1="907.0000000000001" x2="988.6" y2="946.2" stroke="#000" stroke-width="0.3"/>
<rect x="746.4000000000001" y="499.6" width="26.6" height="14.700000000000001" fill="none" stroke="#000" stroke-width="0.7" rx="2"/>
<ellipse cx="759.7" cy="529.0" rx="10.64" ry="13.440000000000001" fill="none" stroke="#000" stroke-width="0.7"/>
<rect x="749.9000000000001" y="562.6" width="42.00000000000001" height="31.500000000000004" fill="none" stroke="#000" stroke-width="0.7"/>
<ellipse cx="770.9000000000001" cy="579.9250000000001" rx="14.700000000000001" ry="9.450000000000001" fill="none" stroke="#000" stroke-width="0.5"/>
<circle cx="770.9000000000001" cy="568.27" r="2" fill="#000"/>
<rect x="746.4000000000001" y="625.6" width="84.00000000000001" height="84.00000000000001" fill="url(#tileHatch)" stroke="#000" stroke-width="0.7"/>
<line x1="813.6" y1="692.8000000000001" x2="822.0000000000001" y2="701.2" stroke="#000" stroke-width="0.5"/>
<line x1="813.6" y1="701.2" x2="822.0000000000001" y2="692.8000000000001" stroke="#000" stroke-width="0.5"/>
<rect x="749.9000000000001" y="786.6" width="105.00000000000001" height="42.00000000000001" fill="none" stroke="#000" stroke-width="0.6"/>
<rect x="784.9000000000001" y="834.2" width="35.0" height="35.0" fill="none" stroke="#000" stroke-width="0.5" rx="6"/>
<rect x="749.9000000000001" y="781.0000000000001" width="105.00000000000001" height="4.2" fill="none" stroke="#000" stroke-width="0.4" stroke-dasharray="3,2"/>
<rect x="746.4000000000001" y="1164.6000000000001" width="26.6" height="14.700000000000001" fill="none" stroke="#000" stroke-width="0.7" rx="2"/>
<ellipse cx="759.7" cy="1194.0" rx="10.64" ry="13.440000000000001" fill="none" stroke="#000" stroke-width="0.7"/>
<rect x="749.9000000000001" y="1220.6000000000001" width="35.0" height="24.500000000000004" fill="none" stroke="#000" stroke-width="0.7"/>
<ellipse cx="767.4000000000001" cy="1234.075" rx="12.250000000000002" ry="7.3500000000000005" fill="none" stroke="#000" stroke-width="0.5"/>
<circle cx="767.4000000000001" cy="1225.01" r="2" fill="#000"/>
<line x1="346.0" y1="300.8" x2="419.5" y2="300.8" stroke="#000" stroke-width="1.2"/>
<path d="M 419.5 300.8 A 73.5 73.5 0 0 1 346.0 227.3" fill="none" stroke="#000" stroke-width="0.4"/>
<text x="346.0" y="320.4" fill="#000" font-size="8" font-weight="700" text-anchor="middle" font-family="Arial">D-01</text>
<line x1="710.0" y1="130.0" x2="878.0000000000001" y2="130.0" stroke="#000" stroke-width="0.6"/>
<line x1="710.0" y1="134.2" x2="878.0000000000001" y2="134.2" stroke="#000" stroke-width="1.5"/>
<line x1="710.0" y1="138.4" x2="878.0000000000001" y2="138.4" stroke="#000" stroke-width="0.6"/>
<circle cx="794.0" cy="134.2" r="2.5" fill="none" stroke="#000" stroke-width="0.5"/>
<text x="794.0" y="116.0" fill="#000" font-size="8" font-weight="700" text-anchor="middle" font-family="Arial">SD-01</text>
<line x1="500.0" y1="471.6" x2="668.0" y2="471.6" stroke="#000" stroke-width="0.6"/>
<line x1="500.0" y1="475.8" x2="668.0" y2="475.8" stroke="#000" stroke-width="1.5"/>
<line x1="500.0" y1="480.00000000000006" x2="668.0" y2="480.00000000000006" stroke="#000" stroke-width="0.6"/>
<circle cx="584.0" cy="475.8" r="2.5" fill="none" stroke="#000" stroke-width="0.5"/>
<text x="584.0" y="498.20000000000005" fill="#000" font-size="8" font-weight="700" text-anchor="middle" font-family="Arial">SD-02</text>
<line x1="1074.0" y1="356.8" x2="1074.0" y2="454.8" stroke="#000" stroke-width="0.6"/>
<line x1="1068.4" y1="356.8" x2="1068.4" y2="454.8" stroke="#000" stroke-width="0.4"/>
<line x1="1079.6000000000001" y1="356.8" x2="1079.6000000000001" y2="454.8" stroke="#000" stroke-width="0.4"/>
<text x="1102.0" y="405.8" fill="#000" font-size="8" font-weight="400" text-anchor="middle" font-family="Arial">W-03</text>
<line x1="220.0" y1="646.6" x2="220.0" y2="821.6" stroke="#000" stroke-width="0.6"/>
<line x1="214.4" y1="646.6" x2="214.4" y2="821.6" stroke="#000" stroke-width="0.4"/>
<line x1="225.6" y1="646.6" x2="225.6" y2="821.6" stroke="#000" stroke-width="0.4"/>
<text x="199.0" y="730.6" fill="#000" font-size="8" font-weight="400" text-anchor="middle" font-family="Arial" transform="rotate(-90 199.0 730.6)">W-04</text>
<line x1="390.8" y1="996.6000000000001" x2="390.8" y2="1136.6000000000001" stroke="#000" stroke-width="0.6"/>
<line x1="386.6" y1="996.6000000000001" x2="386.6" y2="1136.6000000000001" stroke="#000" stroke-width="1.5"/>
<line x1="382.4" y1="996.6000000000001" x2="382.4" y2="1136.6000000000001" stroke="#000" stroke-width="0.6"/>
<circle cx="386.6" cy="1066.6000000000001" r="2.5" fill="none" stroke="#000" stroke-width="0.5"/>
<text x="418.8" y="1066.6000000000001" fill="#000" font-size="8" font-weight="700" text-anchor="middle" font-family="Arial" transform="rotate(-90 418.8 1066.6000000000001)">SD-04</text>
<line x1="390.8" y1="716.6" x2="390.8" y2="765.6" stroke="#000" stroke-width="0.6"/>
<line x1="385.20000000000005" y1="716.6" x2="385.20000000000005" y2="765.6" stroke="#000" stroke-width="0.4"/>
<line x1="396.4" y1="716.6" x2="396.4" y2="765.6" stroke="#000" stroke-width="0.4"/>
<line x1="220.0" y1="926.6" x2="220.0" y2="968.6000000000001" stroke="#000" stroke-width="0.6"/>
<line x1="214.4" y1="926.6" x2="214.4" y2="968.6000000000001" stroke="#000" stroke-width="0.4"/>
<line x1="225.6" y1="926.6" x2="225.6" y2="968.6000000000001" stroke="#000" stroke-width="0.4"/>
<text x="199.0" y="947.6" fill="#000" font-size="7" font-weight="400" text-anchor="middle" font-family="Arial" transform="rotate(-90 199.0 947.6)">W-06</text>
<line x1="1074.0" y1="646.6" x2="1074.0" y2="821.6" stroke="#000" stroke-width="0.6"/>
<line x1="1068.4" y1="646.6" x2="1068.4" y2="821.6" stroke="#000" stroke-width="0.4"/>
<line x1="1079.6000000000001" y1="646.6" x2="1079.6000000000001" y2="821.6" stroke="#000" stroke-width="0.4"/>
<text x="1095.0" y="730.6" fill="#000" font-size="8" font-weight="400" text-anchor="middle" font-family="Arial" transform="rotate(-90 1095.0 730.6)">W-07</text>
<line x1="903.2" y1="996.6000000000001" x2="903.2" y2="1136.6000000000001" stroke="#000" stroke-width="0.6"/>
<line x1="899.0000000000001" y1="996.6000000000001" x2="899.0000000000001" y2="1136.6000000000001" stroke="#000" stroke-width="1.5"/>
<line x1="894.8000000000001" y1="996.6000000000001" x2="894.8000000000001" y2="1136.6000000000001" stroke="#000" stroke-width="0.6"/>
<circle cx="899.0000000000001" cy="1066.6000000000001" r="2.5" fill="none" stroke="#000" stroke-width="0.5"/>
<text x="875.2" y="1066.6000000000001" fill="#000" font-size="8" font-weight="700" text-anchor="middle" font-family="Arial" transform="rotate(-90 875.2 1066.6000000000001)">SD-05</text>
<line x1="1074.0" y1="926.6" x2="1074.0" y2="996.6000000000001" stroke="#000" stroke-width="0.6"/>
<line x1="1068.4" y1="926.6" x2="1068.4" y2="996.6000000000001" stroke="#000" stroke-width="0.4"/>
<line x1="1079.6000000000001" y1="926.6" x2="1079.6000000000001" y2="996.6000000000001" stroke="#000" stroke-width="0.4"/>
<text x="1095.0" y="961.6" fill="#000" font-size="8" font-weight="400" text-anchor="middle" font-family="Arial" transform="rotate(-90 1095.0 961.6)">W-09</text>
<line x1="241.0" y1="1325.6000000000001" x2="346.0" y2="1325.6000000000001" stroke="#000" stroke-width="0.6"/>
<line x1="241.0" y1="1329.8000000000002" x2="346.0" y2="1329.8000000000002" stroke="#000" stroke-width="1.5"/>
<line x1="241.0" y1="1334.0000000000002" x2="346.0" y2="1334.0000000000002" stroke="#000" stroke-width="0.6"/>
<circle cx="293.5" cy="1329.8000000000002" r="2.5" fill="none" stroke="#000" stroke-width="0.5"/>
<line x1="917.2" y1="1325.6000000000001" x2="1022.2" y2="1325.6000000000001" stroke="#000" stroke-width="0.6"/>
<line x1="917.2" y1="1329.8000000000002" x2="1022.2" y2="1329.8000000000002" stroke="#000" stroke-width="1.5"/>
<line x1="917.2" y1="1334.0000000000002" x2="1022.2" y2="1334.0000000000002" stroke="#000" stroke-width="0.6"/>
<circle cx="969.7" cy="1329.8000000000002" r="2.5" fill="none" stroke="#000" stroke-width="0.5"/>
<line x1="1179.0" y1="646.6" x2="1179.0" y2="583.6" stroke="#000" stroke-width="1.2"/>
<path d="M 1179.0 583.6 A 63.00000000000001 63.00000000000001 0 0 1 1116.0 646.6" fill="none" stroke="#000" stroke-width="0.4"/>
<text x="1144.0" y="636.1" fill="#000" font-size="7" font-weight="400" text-anchor="middle" font-family="Arial">D-13</text>
<line x1="220.0" y1="3.999999999999986" x2="1074.0" y2="3.999999999999986" stroke="#000" stroke-width="0.4"/>
<line x1="220.0" y1="-1.6000000000000227" x2="220.0" y2="9.599999999999994" stroke="#000" stroke-width="0.4"/>
<line x1="1074.0" y1="-1.6000000000000227" x2="1074.0" y2="9.599999999999994" stroke="#000" stroke-width="0.4"/>
<line x1="220.0" y1="3.999999999999986" x2="234.0" y2="-1.6000000000000227" stroke="#000" stroke-width="0.4"/>
<line x1="220.0" y1="3.999999999999986" x2="234.0" y2="9.599999999999994" stroke="#000" stroke-width="0.4"/>
<line x1="1074.0" y1="3.999999999999986" x2="1060.0" y2="-1.6000000000000227" stroke="#000" stroke-width="0.4"/>
<line x1="1074.0" y1="3.999999999999986" x2="1060.0" y2="9.599999999999994" stroke="#000" stroke-width="0.4"/>
<text x="647.0" y="-6.5" fill="#000" font-size="9" font-weight="600" text-anchor="middle" font-family="Arial">12,200 mm (40 ft) · C-1+C-2 long axis</text>
<line x1="220.0" y1="-87.00000000000003" x2="1074.0" y2="-87.00000000000003" stroke="#000" stroke-width="0.4"/>
<line x1="220.0" y1="-92.60000000000002" x2="220.0" y2="-81.40000000000003" stroke="#000" stroke-width="0.4"/>
<line x1="1074.0" y1="-92.60000000000002" x2="1074.0" y2="-81.40000000000003" stroke="#000" stroke-width="0.4"/>
<line x1="220.0" y1="-87.00000000000003" x2="234.0" y2="-92.60000000000002" stroke="#000" stroke-width="0.4"/>
<line x1="220.0" y1="-87.00000000000003" x2="234.0" y2="-81.40000000000003" stroke="#000" stroke-width="0.4"/>
<line x1="1074.0" y1="-87.00000000000003" x2="1060.0" y2="-92.60000000000002" stroke="#000" stroke-width="0.4"/>
<line x1="1074.0" y1="-87.00000000000003" x2="1060.0" y2="-81.40000000000003" stroke="#000" stroke-width="0.4"/>
<text x="647.0" y="-97.50000000000003" fill="#000" font-size="9" font-weight="600" text-anchor="middle" font-family="Arial">Overall E-W · 12,200 mm</text>
<line x1="185.0" y1="471.6" x2="185.0" y2="1325.6000000000001" stroke="#000" stroke-width="0.4"/>
<line x1="179.4" y1="471.6" x2="190.6" y2="471.6" stroke="#000" stroke-width="0.4"/>
<line x1="179.4" y1="1325.6000000000001" x2="190.6" y2="1325.6000000000001" stroke="#000" stroke-width="0.4"/>
<g transform="translate(173.0,898.6) rotate(-90)"><text x="0" y="0" text-anchor="middle" fill="#000" font-size="9" font-weight="600">12,200 mm (40 ft) · C-3 long axis</text></g>
<line x1="100.99999999999999" y1="130.0" x2="100.99999999999999" y2="1325.6000000000001" stroke="#000" stroke-width="0.4"/>
<line x1="95.39999999999999" y1="130.0" x2="106.6" y2="130.0" stroke="#000" stroke-width="0.4"/>
<line x1="95.39999999999999" y1="1325.6000000000001" x2="106.6" y2="1325.6000000000001" stroke="#000" stroke-width="0.4"/>
<g transform="translate(88.99999999999999,727.8000000000001) rotate(-90)"><text x="0" y="0" text-anchor="middle" fill="#000" font-size="9" font-weight="600">Overall N-S · 17,080 mm</text></g>
<line x1="561.6" y1="492.6" x2="732.4000000000001" y2="492.6" stroke="#000" stroke-width="0.4"/>
<line x1="561.6" y1="487.00000000000006" x2="561.6" y2="498.20000000000005" stroke="#000" stroke-width="0.4"/>
<line x1="732.4000000000001" y1="487.00000000000006" x2="732.4000000000001" y2="498.20000000000005" stroke="#000" stroke-width="0.4"/>
<line x1="561.6" y1="492.6" x2="575.6" y2="487.00000000000006" stroke="#000" stroke-width="0.4"/>
<line x1="561.6" y1="492.6" x2="575.6" y2="498.20000000000005" stroke="#000" stroke-width="0.4"/>
<line x1="732.4000000000001" y1="492.6" x2="718.4000000000001" y2="487.00000000000006" stroke="#000" stroke-width="0.4"/>
<line x1="732.4000000000001" y1="492.6" x2="718.4000000000001" y2="498.20000000000005" stroke="#000" stroke-width="0.4"/>
<text x="647.0" y="482.1" fill="#000" font-size="9" font-weight="600" text-anchor="middle" font-family="Arial">Courtyard · 7,320 mm</text>
<line x1="767.4000000000001" y1="471.6" x2="767.4000000000001" y2="1325.6000000000001" stroke="#000" stroke-width="0.4"/>
<line x1="761.8000000000001" y1="471.6" x2="773.0" y2="471.6" stroke="#000" stroke-width="0.4"/>
<line x1="761.8000000000001" y1="1325.6000000000001" x2="773.0" y2="1325.6000000000001" stroke="#000" stroke-width="0.4"/>
<g transform="translate(755.4000000000001,898.6) rotate(-90)"><text x="0" y="0" text-anchor="middle" fill="#000" font-size="9" font-weight="600">CY · 12,200 mm</text></g>
<line x1="220.0" y1="1444.6000000000001" x2="390.8" y2="1444.6000000000001" stroke="#000" stroke-width="0.4"/>
<line x1="220.0" y1="1439.0000000000002" x2="220.0" y2="1450.2" stroke="#000" stroke-width="0.4"/>
<line x1="390.8" y1="1439.0000000000002" x2="390.8" y2="1450.2" stroke="#000" stroke-width="0.4"/>
<line x1="220.0" y1="1444.6000000000001" x2="234.0" y2="1439.0000000000002" stroke="#000" stroke-width="0.4"/>
<line x1="220.0" y1="1444.6000000000001" x2="234.0" y2="1450.2" stroke="#000" stroke-width="0.4"/>
<line x1="390.8" y1="1444.6000000000001" x2="376.8" y2="1439.0000000000002" stroke="#000" stroke-width="0.4"/>
<line x1="390.8" y1="1444.6000000000001" x2="376.8" y2="1450.2" stroke="#000" stroke-width="0.4"/>
<text x="305.4" y="1434.1000000000001" fill="#000" font-size="9" font-weight="600" text-anchor="middle" font-family="Arial">8 ft · 2,440 mm</text>
<line x1="390.8" y1="1444.6000000000001" x2="561.6" y2="1444.6000000000001" stroke="#000" stroke-width="0.4"/>
<line x1="390.8" y1="1439.0000000000002" x2="390.8" y2="1450.2" stroke="#000" stroke-width="0.4"/>
<line x1="561.6" y1="1439.0000000000002" x2="561.6" y2="1450.2" stroke="#000" stroke-width="0.4"/>
<line x1="390.8" y1="1444.6000000000001" x2="404.8" y2="1439.0000000000002" stroke="#000" stroke-width="0.4"/>
<line x1="390.8" y1="1444.6000000000001" x2="404.8" y2="1450.2" stroke="#000" stroke-width="0.4"/>
<line x1="561.6" y1="1444.6000000000001" x2="547.6" y2="1439.0000000000002" stroke="#000" stroke-width="0.4"/>
<line x1="561.6" y1="1444.6000000000001" x2="547.6" y2="1450.2" stroke="#000" stroke-width="0.4"/>
<text x="476.20000000000005" y="1434.1000000000001" fill="#000" font-size="9" font-weight="600" text-anchor="middle" font-family="Arial">8 ft</text>
<rect x="1280" y="130" width="380" height="280" fill="#fff" stroke="#000" stroke-width="0.8"/>
<rect x="1286" y="136" width="368" height="268" fill="none" stroke="#000" stroke-width="0.3"/>
<text x="1470" y="156" text-anchor="middle" font-size="12" font-weight="700">CONTAINER MODULE SCHEDULE</text>
<line x1="1300" y1="166" x2="1640" y2="166" stroke="#000" stroke-width="0.5"/>
<text x="1310" y="186" font-size="9" font-weight="700">ID</text>
<text x="1370" y="186" font-size="9" font-weight="700">SIZE</text>
<text x="1460" y="186" font-size="9" font-weight="700">PROGRAM</text>
<line x1="1300" y1="192" x2="1640" y2="192" stroke="#000" stroke-width="0.3"/>
<text x="1310" y="208" font-size="9" font-weight="700">C-1</text>
<text x="1370" y="208" font-size="9">40 ft HC</text>
<text x="1460" y="208" font-size="9">Entry Foyer + Living</text>
<line x1="1300" y1="214" x2="1640" y2="214" stroke="#000" stroke-width="0.15"/>
<text x="1310" y="230" font-size="9" font-weight="700">C-2</text>
<text x="1370" y="230" font-size="9">40 ft HC</text>
<text x="1460" y="230" font-size="9">Dining + Open Kitchen</text>
<line x1="1300" y1="236" x2="1640" y2="236" stroke="#000" stroke-width="0.15"/>
<text x="1310" y="252" font-size="9" font-weight="700">C-3</text>
<text x="1370" y="252" font-size="9">40 ft HC</text>
<text x="1460" y="252" font-size="9">Master Bedroom</text>
<line x1="1300" y1="258" x2="1640" y2="258" stroke="#000" stroke-width="0.15"/>
<text x="1310" y="274" font-size="9" font-weight="700">C-4</text>
<text x="1370" y="274" font-size="9">40 ft HC</text>
<text x="1460" y="274" font-size="9">M.WR + M.Bath + M.Lounge</text>
<line x1="1300" y1="280" x2="1640" y2="280" stroke="#000" stroke-width="0.15"/>
<text x="1310" y="296" font-size="9" font-weight="700">C-5</text>
<text x="1370" y="296" font-size="9">40 ft HC</text>
<text x="1460" y="296" font-size="9">Bedroom 2</text>
<line x1="1300" y1="302" x2="1640" y2="302" stroke="#000" stroke-width="0.15"/>
<text x="1310" y="318" font-size="9" font-weight="700">C-6</text>
<text x="1370" y="318" font-size="9">40 ft HC</text>
<text x="1460" y="318" font-size="9">BR2 Bath + Study + Powder</text>
<line x1="1300" y1="324" x2="1640" y2="324" stroke="#000" stroke-width="0.15"/>
<text x="1310" y="340" font-size="9" font-weight="700">C-7</text>
<text x="1370" y="340" font-size="9">20 ft HC</text>
<text x="1460" y="340" font-size="9">Utility + Store</text>
<rect x="1280" y="430" width="380" height="359" fill="#fff" stroke="#000" stroke-width="0.8"/>
<rect x="1286" y="436" width="368" height="347" fill="none" stroke="#000" stroke-width="0.3"/>
<text x="1470" y="456" text-anchor="middle" font-size="12" font-weight="700">ROOM AREA SCHEDULE</text>
<line x1="1300" y1="466" x2="1640" y2="466" stroke="#000" stroke-width="0.5"/>
<text x="1310" y="482" font-size="9">ENTRY FOYER</text>
<text x="1620" y="482" font-size="9" text-anchor="end" font-weight="600">100 sq.ft</text>
<text x="1310" y="499" font-size="9">LIVING ROOM</text>
<text x="1620" y="499" font-size="9" text-anchor="end" font-weight="600">280 sq.ft</text>
<text x="1310" y="516" font-size="9">DINING</text>
<text x="1620" y="516" font-size="9" text-anchor="end" font-weight="600">200 sq.ft</text>
<text x="1310" y="533" font-size="9">OPEN KITCHEN</text>
<text x="1620" y="533" font-size="9" text-anchor="end" font-weight="600">200 sq.ft</text>
<text x="1310" y="550" font-size="9">MASTER BEDROOM</text>
<text x="1620" y="550" font-size="9" text-anchor="end" font-weight="600">300 sq.ft</text>
<text x="1310" y="567" font-size="9">MASTER WARDROBE</text>
<text x="1620" y="567" font-size="9" text-anchor="end" font-weight="600">70 sq.ft</text>
<text x="1310" y="584" font-size="9">MASTER BATH</text>
<text x="1620" y="584" font-size="9" text-anchor="end" font-weight="600">140 sq.ft</text>
<text x="1310" y="601" font-size="9">MASTER LOUNGE</text>
<text x="1620" y="601" font-size="9" text-anchor="end" font-weight="600">110 sq.ft</text>
<text x="1310" y="618" font-size="9">BEDROOM 2</text>
<text x="1620" y="618" font-size="9" text-anchor="end" font-weight="600">280 sq.ft</text>
<text x="1310" y="635" font-size="9">BR2 BATH</text>
<text x="1620" y="635" font-size="9" text-anchor="end" font-weight="600">110 sq.ft</text>
<text x="1310" y="652" font-size="9">STUDY / LOUNGE</text>
<text x="1620" y="652" font-size="9" text-anchor="end" font-weight="600">140 sq.ft</text>
<text x="1310" y="669" font-size="9">POWDER</text>
<text x="1620" y="669" font-size="9" text-anchor="end" font-weight="600">50 sq.ft</text>
<text x="1310" y="686" font-size="9">UTILITY</text>
<text x="1620" y="686" font-size="9" text-anchor="end" font-weight="600">90 sq.ft</text>
<text x="1310" y="703" font-size="9">STORE</text>
<text x="1620" y="703" font-size="9" text-anchor="end" font-weight="600">70 sq.ft</text>
<text x="1310" y="720" font-size="9">GLASS LINKS</text>
<text x="1620" y="720" font-size="9" text-anchor="end" font-weight="600">180 sq.ft</text>
<text x="1310" y="737" font-size="9">VERANDAH</text>
<text x="1620" y="737" font-size="9" text-anchor="end" font-weight="600">200 sq.ft</text>
<text x="1310" y="754" font-size="9">COURTYARD T.</text>
<text x="1620" y="754" font-size="9" text-anchor="end" font-weight="600">100 sq.ft</text>
<line x1="1300" y1="767" x2="1640" y2="767" stroke="#000" stroke-width="0.5"/>
<text x="1310" y="779" font-size="10" font-weight="700">TOTAL (approx.)</text>
<text x="1620" y="779" font-size="10" font-weight="700" text-anchor="end">~ 2,500 sq.ft</text>
<circle cx="90" cy="130" r="32" fill="none" stroke="#000" stroke-width="0.8"/>
<polygon points="90,102 99,138 90,133 81,138" fill="#000"/>
<text x="90" y="94" text-anchor="middle" font-size="11" font-weight="700">N</text>
<text x="90" y="180" text-anchor="middle" font-size="8">TRUE NORTH</text>
<g transform="translate(80,1110)">
<rect x="0" y="0" width="70" height="8" fill="#000" stroke="#000" stroke-width="0.5"/>
<rect x="70" y="0" width="70" height="8" fill="#fff" stroke="#000" stroke-width="0.5"/>
<rect x="140" y="0" width="70" height="8" fill="#000" stroke="#000" stroke-width="0.5"/>
<rect x="210" y="0" width="70" height="8" fill="#fff" stroke="#000" stroke-width="0.5"/>
<text x="0" y="24" font-size="8">0</text>
<text x="70" y="24" font-size="8">1m</text>
<text x="140" y="24" font-size="8">2m</text>
<text x="210" y="24" font-size="8">3m</text>
<text x="280" y="24" font-size="8">4m</text>
<text x="140" y="-6" font-size="8" font-weight="700" text-anchor="middle">SCALE 1:100</text>
</g>
<rect x="1290" y="960" width="400" height="220" fill="#fff" stroke="#000" stroke-width="1.4"/>
<rect x="1298" y="968" width="384" height="204" fill="none" stroke="#000" stroke-width="0.4"/>
<line x1="1290" y1="1004" x2="1690" y2="1004" stroke="#000" stroke-width="0.5"/>
<line x1="1290" y1="1130" x2="1690" y2="1130" stroke="#000" stroke-width="0.5"/>
<text x="1308" y="988" font-size="16" font-weight="700" letter-spacing="3">RESERVE VARDE</text>
<text x="1308" y="1030" font-size="11" font-weight="700">2BHK COMPACT MODULAR ECO ESTATE</text>
<text x="1308" y="1048" font-size="9">2500 sq.ft Ground-Level Container Home</text>
<text x="1308" y="1064" font-size="9">6 × 40 ft HC + 1 × 20 ft Service Module</text>
<text x="1308" y="1080" font-size="9">U-Shape Courtyard Plan · Concept Floor Plan</text>
<text x="1308" y="1144" font-size="9"><tspan font-weight="700">SCALE</tspan> 1:100   ·   <tspan font-weight="700">SHEET</tspan> 04 of 26</text>
<text x="1308" y="1160" font-size="9"><tspan font-weight="700">DWG NO.</tspan> RV-2BHK-FP-01   ·   <tspan font-weight="700">REV</tspan> v1.0</text>
<text x="850.0" y="1160" text-anchor="middle" font-size="7.5" font-style="italic">Concept-stage drawing for architectural discussion only. Final design, dimensions, structural details, MEP, environmental compliance, and construction feasibility must be verified by licensed architects, engineers, and authorities.</text>
</svg>