  0
SECTION
  2
HEADER
  9
$ACADVER
  1
AC1032
  9
$ACADMAINTVER
 90
4
  9
$DWGCODEPAGE
  3
ANSI_1252
  9
$LASTSAVEDBY
  1
ezdxf
  9
$REQUIREDVERSIONS
160
0
  9
$INSBASE
 10
0.0
 20
0.0
 30
0.0
  9
$EXTMIN
 10
1e+20
 20
1e+20
 30
1e+20
  9
$EXTMAX
 10
-1e+20
 20
-1e+20
 30
-1e+20
  9
$LIMMIN
 10
0.0
 20
0.0
  9
$LIMMAX
 10
420.0
 20
297.0
  9
$ORTHOMODE
 70
0
  9
$REGENMODE
 70
1
  9
$FILLMODE
 70
1
  9
$QTEXTMODE
 70
0
  9
$MIRRTEXT
 70
1
  9
$LTSCALE
 40
1.0
  9
$ATTMODE
 70
1
  9
$TEXTSIZE
 40
2.5
  9
$TRACEWID
 40
1.0
  9
$TEXTSTYLE
  7
OpenSans
  9
$CLAYER
  8
0
  9
$CELTYPE
  6
ByLayer
  9
$CECOLOR
 62
256
  9
$CELTSCALE
 40
1.0
  9
$DISPSILH
 70
0
  9
$DIMSCALE
 40
1.0
  9
$DIMASZ
 40
0.175
  9
$DIMEXO
 40
0.125
  9
$DIMDLI
 40
3.75
  9
$DIMRND
 40
0.0
  9
$DIMDLE
 40
0.0
  9
$DIMEXE
 40
0.375
  9
$DIMTP
 40
0.0
  9
$DIMTM
 40
0.0
  9
$DIMTXT
 40
0.25
  9
$DIMCEN
 40
2.5
  9
$DIMTSZ
 40
0.0
  9
$DIMTOL
 70
0
  9
$DIMLIM
 70
0
  9
$DIMTIH
 70
0
  9
$DIMTOH
 70
0
  9
$DIMSE1
 70
0
  9
$DIMSE2
 70
0
  9
$DIMTAD
 70
1
  9
$DIMZIN
 70
12
  9
$DIMBLK
  1
ARCHTICK
  9
$DIMASO
 70
1
  9
$DIMSHO
 70
1
  9
$DIMPOST
  1

  9
$DIMAPOST
  1

  9
$DIMALT
 70
0
  9
$DIMALTD
 70
3
  9
$DIMALTF
 40
0.03937007874
  9
$DIMLFAC
 40
100.0
  9
$DIMTOFL
 70
1
  9
$DIMTVP
 40
0.0
  9
$DIMTIX
 70
0
  9
$DIMSOXD
 70
0
  9
$DIMSAH
 70
0
  9
$DIMBLK1
  1

  9
$DIMBLK2
  1

  9
$DIMSTYLE
  2
EZDXF
  9
$DIMCLRD
 70
0
  9
$DIMCLRE
 70
0
  9
$DIMCLRT
 70
0
  9
$DIMTFAC
 40
0.5
  9
$DIMGAP
 40
0.1
  9
$DIMJUST
 70
0
  9
$DIMSD1
 70
0
  9
$DIMSD2
 70
0
  9
$DIMTOLJ
 70
0
  9
$DIMTZIN
 70
8
  9
$DIMALTZ
 70
0
  9
$DIMALTTZ
 70
0
  9
$DIMUPT
 70
1
  9
$DIMDEC
 70
2
  9
$DIMTDEC
 70
2
  9
$DIMALTU
 70
2
  9
$DIMALTTD
 70
3
  9
$DIMTXSTY
  7
OpenSansCondensed-Light
  9
$DIMAUNIT
 70
0
  9
$DIMADEC
 70
2
  9
$DIMALTRND
 40
0.0
  9
$DIMAZIN
 70
3
  9
$DIMDSEP
 70
46
  9
$DIMATFIT
 70
3
  9
$DIMFRAC
 70
0
  9
$DIMLDRBLK
  1

  9
$DIMLUNIT
 70
2
  9
$DIMLWD
 70
-2
  9
$DIMLWE
 70
-2
  9
$DIMTMOVE
 70
2
  9
$DIMFXL
 40
1.0
  9
$DIMFXLON
 70
0
  9
$DIMJOGANG
 40
0.785398163397
  9
$DIMTFILL
 70
0
  9
$DIMTFILLCLR
 70
0
  9
$DIMARCSYM
 70
0
  9
$DIMLTYPE
  6

  9
$DIMLTEX1
  6

  9
$DIMLTEX2
  6

  9
$DIMTXTDIRECTION
 70
0
  9
$LUNITS
 70
2
  9
$LUPREC
 70
4
  9
$SKETCHINC
 40
1.0
  9
$FILLETRAD
 40
10.0
  9
$AUNITS
 70
0
  9
$AUPREC
 70
2
  9
$MENU
  1
.
  9
$ELEVATION
 40
0.0
  9
$PELEVATION
 40
0.0
  9
$THICKNESS
 40
0.0
  9
$LIMCHECK
 70
0
  9
$CHAMFERA
 40
0.0
  9
$CHAMFERB
 40
0.0
  9
$CHAMFERC
 40
0.0
  9
$CHAMFERD
 40
0.0
  9
$SKPOLY
 70
0
  9
$TDCREATE
 40
2461181.294201389
  9
$TDUCREATE
 40
2458532.153996898
  9
$TDUPDATE
 40
2461181.294201389
  9
$TDUUPDATE
 40
2458532.1544311
  9
$TDINDWG
 40
0.0
  9
$TDUSRTIMER
 40
0.0
  9
$USRTIMER
 70
1
  9
$ANGBASE
 50
0.0
  9
$ANGDIR
 70
0
  9
$PDMODE
 70
0
  9
$PDSIZE
 40
0.0
  9
$PLINEWID
 40
0.0
  9
$SPLFRAME
 70
0
  9
$SPLINETYPE
 70
6
  9
$SPLINESEGS
 70
8
  9
$HANDSEED
  5
3C5
  9
$SURFTAB1
 70
6
  9
$SURFTAB2
 70
6
  9
$SURFTYPE
 70
6
  9
$SURFU
 70
6
  9
$SURFV
 70
6
  9
$UCSBASE
  2

  9
$UCSNAME
  2

  9
$UCSORG
 10
0.0
 20
0.0
 30
0.0
  9
$UCSXDIR
 10
1.0
 20
0.0
 30
0.0
  9
$UCSYDIR
 10
0.0
 20
1.0
 30
0.0
  9
$UCSORTHOREF
  2

  9
$UCSORTHOVIEW
 70
0
  9
$UCSORGTOP
 10
0.0
 20
0.0
 30
0.0
  9
$UCSORGBOTTOM
 10
0.0
 20
0.0
 30
0.0
  9
$UCSORGLEFT
 10
0.0
 20
0.0
 30
0.0
  9
$UCSORGRIGHT
 10
0.0
 20
0.0
 30
0.0
  9
$UCSORGFRONT
 10
0.0
 20
0.0
 30
0.0
  9
$UCSORGBACK
 10
0.0
 20
0.0
 30
0.0
  9
$PUCSBASE
  2

  9
$PUCSNAME
  2

  9
$PUCSORG
 10
0.0
 20
0.0
 30
0.0
  9
$PUCSXDIR
 10
1.0
 20
0.0
 30
0.0
  9
$PUCSYDIR
 10
0.0
 20
1.0
 30
0.0
  9
$PUCSORTHOREF
  2

  9
$PUCSORTHOVIEW
 70
0
  9
$PUCSORGTOP
 10
0.0
 20
0.0
 30
0.0
  9
$PUCSORGBOTTOM
 10
0.0
 20
0.0
 30
0.0
  9
$PUCSORGLEFT
 10
0.0
 20
0.0
 30
0.0
  9
$PUCSORGRIGHT
 10
0.0
 20
0.0
 30
0.0
  9
$PUCSORGFRONT
 10
0.0
 20
0.0
 30
0.0
  9
$PUCSORGBACK
 10
0.0
 20
0.0
 30
0.0
  9
$USERI1
 70
0
  9
$USERI2
 70
0
  9
$USERI3
 70
0
  9
$USERI4
 70
0
  9
$USERI5
 70
0
  9
$USERR1
 40
0.0
  9
$USERR2
 40
0.0
  9
$USERR3
 40
0.0
  9
$USERR4
 40
0.0
  9
$USERR5
 40
0.0
  9
$WORLDVIEW
 70
1
  9
$SHADEDGE
 70
3
  9
$SHADEDIF
 70
70
  9
$TILEMODE
 70
1
  9
$MAXACTVP
 70
64
  9
$PINSBASE
 10
0.0
 20
0.0
 30
0.0
  9
$PLIMCHECK
 70
0
  9
$PEXTMIN
 10
1e+20
 20
1e+20
 30
1e+20
  9
$PEXTMAX
 10
-1e+20
 20
-1e+20
 30
-1e+20
  9
$PLIMMIN
 10
0.0
 20
0.0
  9
$PLIMMAX
 10
420.0
 20
297.0
  9
$UNITMODE
 70
0
  9
$VISRETAIN
 70
1
  9
$PLINEGEN
 70
0
  9
$PSLTSCALE
 70
1
  9
$TREEDEPTH
 70
3020
  9
$CMLSTYLE
  2
Standard
  9
$CMLJUST
 70
0
  9
$CMLSCALE
 40
20.0
  9
$PROXYGRAPHICS
 70
1
  9
$MEASUREMENT
 70
1
  9
$CELWEIGHT
370
-1
  9
$ENDCAPS
280
0
  9
$JOINSTYLE
280
0
  9
$LWDISPLAY
290
1
  9
$INSUNITS
 70
4
  9
$HYPERLINKBASE
  1

  9
$STYLESHEET
  1

  9
$XEDIT
290
1
  9
$CEPSNTYPE
380
0
  9
$PSTYLEMODE
290
1
  9
$FINGERPRINTGUID
  2
{01EE68C1-DE25-45A0-9E66-9471C4D6C649}
  9
$VERSIONGUID
  2
{520F1F72-3E65-4695-A51B-07A9739226D2}
  9
$EXTNAMES
290
1
  9
$PSVPSCALE
 40
0.0
  9
$OLESTARTUP
290
0
  9
$SORTENTS
280
127
  9
$INDEXCTL
280
0
  9
$HIDETEXT
280
1
  9
$XCLIPFRAME
280
1
  9
$HALOGAP
280
0
  9
$OBSCOLOR
 70
257
  9
$OBSLTYPE
280
0
  9
$INTERSECTIONDISPLAY
280
0
  9
$INTERSECTIONCOLOR
 70
257
  9
$DIMASSOC
280
2
  9
$PROJECTNAME
  1

  9
$CAMERADISPLAY
290
0
  9
$LENSLENGTH
 40
50.0
  9
$CAMERAHEIGHT
 40
0.0
  9
$STEPSPERSEC
 40
24.0
  9
$STEPSIZE
 40
100.0
  9
$3DDWFPREC
 40
2.0
  9
$PSOLWIDTH
 40
0.005
  9
$PSOLHEIGHT
 40
0.08
  9
$LOFTANG1
 40
1.570796326795
  9
$LOFTANG2
 40
1.570796326795
  9
$LOFTMAG1
 40
0.0
  9
$LOFTMAG2
 40
0.0
  9
$LOFTPARAM
 70
7
  9
$LOFTNORMALS
280
1
  9
$LATITUDE
 40
37.795
  9
$LONGITUDE
 40
-122.394
  9
$NORTHDIRECTION
 40
0.0
  9
$TIMEZONE
 70
-8000
  9
$LIGHTGLYPHDISPLAY
280
1
  9
$TILEMODELIGHTSYNCH
280
1
  9
$CMATERIAL
347
20
  9
$SOLIDHIST
280
0
  9
$SHOWHIST
280
1
  9
$DWFFRAME
280
2
  9
$DGNFRAME
280
2
  9
$REALWORLDSCALE
290
1
  9
$INTERFERECOLOR
 62
256
  9
$CSHADOW
280
0
  9
$SHADOWPLANELOCATION
 40
0.0
  0
ENDSEC
  0
SECTION
  2
CLASSES
  0
CLASS
  1
ACDBDICTIONARYWDFLT
  2
AcDbDictionaryWithDefault
  3
ObjectDBX Classes
 90
0
 91
0
280
0
281
0
  0
CLASS
  1
SUN
  2
AcDbSun
  3
SCENEOE
 90
1153
 91
0
280
0
281
0
  0
CLASS
  1
VISUALSTYLE
  2
AcDbVisualStyle
  3
ObjectDBX Classes
 90
4095
 91
0
280
0
281
0
  0
CLASS
  1
MATERIAL
  2
AcDbMaterial
  3
ObjectDBX Classes
 90
1153
 91
0
280
0
281
0
  0
CLASS
  1
SCALE
  2
AcDbScale
  3
ObjectDBX Classes
 90
1153
 91
0
280
0
281
0
  0
CLASS
  1
TABLESTYLE
  2
AcDbTableStyle
  3
ObjectDBX Classes
 90
4095
 91
0
280
0
281
0
  0
CLASS
  1
MLEADERSTYLE
  2
AcDbMLeaderStyle
  3
ACDB_MLEADERSTYLE_CLASS
 90
4095
 91
0
280
0
281
0
  0
CLASS
  1
DICTIONARYVAR
  2
AcDbDictionaryVar
  3
ObjectDBX Classes
 90
0
 91
0
280
0
281
0
  0
CLASS
  1
CELLSTYLEMAP
  2
AcDbCellStyleMap
  3
ObjectDBX Classes
 90
1152
 91
0
280
0
281
0
  0
CLASS
  1
MENTALRAYRENDERSETTINGS
  2
AcDbMentalRayRenderSettings
  3
SCENEOE
 90
1024
 91
0
280
0
281
0
  0
CLASS
  1
ACDBDETAILVIEWSTYLE
  2
AcDbDetailViewStyle
  3
ObjectDBX Classes
 90
1025
 91
0
280
0
281
0
  0
CLASS
  1
ACDBSECTIONVIEWSTYLE
  2
AcDbSectionViewStyle
  3
ObjectDBX Classes
 90
1025
 91
0
280
0
281
0
  0
CLASS
  1
RASTERVARIABLES
  2
AcDbRasterVariables
  3
ISM
 90
0
 91
0
280
0
281
0
  0
CLASS
  1
LAYOUT
  2
AcDbLayout
  3
ObjectDBX Classes
 90
0
 91
0
280
0
281
0
  0
CLASS
  1
ACDBPLACEHOLDER
  2
AcDbPlaceHolder
  3
ObjectDBX Classes
 90
0
 91
0
280
0
281
0
  0
ENDSEC
  0
SECTION
  2
TABLES
  0
TABLE
  2
VPORT
  5
8
330
0
100
AcDbSymbolTable
 70
1
  0
VPORT
  5
3C1
330
8
100
AcDbSymbolTableRecord
100
AcDbViewportTableRecord
  2
*Active
 70
0
 10
0.0
 20
0.0
 11
1.0
 21
1.0
 12
32050.0
 22
17700.0
 13
0.0
 23
0.0
 14
0.5
 24
0.5
 15
0.5
 25
0.5
 16
0.0
 26
0.0
 36
1.0
 17
0.0
 27
0.0
 37
0.0
 40
30000.0
 41
1.34
 42
50.0
 43
0.0
 44
0.0
 50
0.0
 51
0.0
 71
0
 72
1000
 73
1
 74
3
 75
0
 76
0
 77
0
 78
0
281
0
 65
1
110
0.0
120
0.0
130
0.0
111
1.0
121
0.0
131
0.0
112
0.0
122
1.0
132
0.0
 79
0
146
0.0
  0
ENDTAB
  0
TABLE
  2
LTYPE
  5
2
330
0
100
AcDbSymbolTable
 70
22
  0
LTYPE
  5
24
330
2
100
AcDbSymbolTableRecord
100
AcDbLinetypeTableRecord
  2
ByBlock
 70
0
  3

 72
65
 73
0
 40
0.0
  0
LTYPE
  5
25
330
2
100
AcDbSymbolTableRecord
100
AcDbLinetypeTableRecord
  2
ByLayer
 70
0
  3

 72
65
 73
0
 40
0.0
  0
LTYPE
  5
26
330
2
100
AcDbSymbolTableRecord
100
AcDbLinetypeTableRecord
  2
Continuous
 70
0
  3

 72
65
 73
0
 40
0.0
  0
LTYPE
  5
2F
330
2
100
AcDbSymbolTableRecord
100
AcDbLinetypeTableRecord
  2
CENTER
 70
0
  3
Center ____ _ ____ _ ____ _ ____ _ ____ _ ____
 72
65
 73
4
 40
5.08
 49
3.175
 74
0
 49
-0.635
 74
0
 49
0.635
 74
0
 49
-0.635
 74
0
  0
LTYPE
  5
30
330
2
100
AcDbSymbolTableRecord
100
AcDbLinetypeTableRecord
  2
CENTERX2
 70
0
  3
Center (2x) ________  __  ________  __  ________
 72
65
 73
4
 40
8.89
 49
6.35
 74
0
 49
-0.635
 74
0
 49
1.27
 74
0
 49
-0.635
 74
0
  0
LTYPE
  5
31
330
2
100
AcDbSymbolTableRecord
100
AcDbLinetypeTableRecord
  2
CENTER2
 70
0
  3
Center (.5x) ____ _ ____ _ ____ _ ____ _ ____
 72
65
 73
4
 40
2.54
 49
1.587
 74
0
 49
-0.318
 74
0
 49
0.318
 74
0
 49
-0.318
 74
0
  0
LTYPE
  5
32
330
2
100
AcDbSymbolTableRecord
100
AcDbLinetypeTableRecord
  2
DASHED
 70
0
  3
Dashed __ __ __ __ __ __ __ __ __ __ __ __ __ _
 72
65
 73
2
 40
1.524
 49
1.27
 74
0
 49
-0.254
 74
0
  0
LTYPE
  5
33
330
2
100
AcDbSymbolTableRecord
100
AcDbLinetypeTableRecord
  2
DASHEDX2
 70
0
  3
Dashed (2x) ____  ____  ____  ____  ____  ____
 72
65
 73
2
 40
3.048
 49
2.54
 74
0
 49
-0.508
 74
0
  0
LTYPE
  5
34
330
2
100
AcDbSymbolTableRecord
100
AcDbLinetypeTableRecord
  2
DASHED2
 70
0
  3
Dashed (.5x) _ _ _ _ _ _ _ _ _ _ _ _ _ _
 72
65
 73
2
 40
0.762
 49
0.635
 74
0
 49
-0.127
 74
0
  0
LTYPE
  5
35
330
2
100
AcDbSymbolTableRecord
100
AcDbLinetypeTableRecord
  2
PHANTOM
 70
0
  3
Phantom ______  __  __  ______  __  __  ______
 72
65
 73
6
 40
6.35
 49
3.175
 74
0
 49
-0.635
 74
0
 49
0.635
 74
0
 49
-0.635
 74
0
 49
0.635
 74
0
 49
-0.635
 74
0
  0
LTYPE
  5
36
330
2
100
AcDbSymbolTableRecord
100
AcDbLinetypeTableRecord
  2
PHANTOMX2
 70
0
  3
Phantom (2x)____________    ____    ____    ____________
 72
65
 73
6
 40
10.795
 49
6.35
 74
0
 49
-0.635
 74
0
 49
1.27
 74
0
 49
-0.635
 74
0
 49
1.27
 74
0
 49
-0.635
 74
0
  0
LTYPE
  5
37
330
2
100
AcDbSymbolTableRecord
100
AcDbLinetypeTableRecord
  2
PHANTOM2
 70
0
  3
Phantom (.5x) ___ _ _ ___ _ _ ___ _ _ ___ _ _ ___
 72
65
 73
6
 40
3.175
 49
1.587
 74
0
 49
-0.318
 74
0
 49
0.318
 74
0
 49
-0.318
 74
0
 49
0.318
 74
0
 49
-0.318
 74
0
  0
LTYPE
  5
38
330
2
100
AcDbSymbolTableRecord
100
AcDbLinetypeTableRecord
  2
DASHDOT
 70
0
  3
Dash dot __ . __ . __ . __ . __ . __ . __ . __
 72
65
 73
4
 40
3.556
 49
2.54
 74
0
 49
-0.508
 74
0
 49
0.0
 74
0
 49
-0.508
 74
0
  0
LTYPE
  5
39
330
2
100
AcDbSymbolTableRecord
100
AcDbLinetypeTableRecord
  2
DASHDOTX2
 70
0
  3
Dash dot (2x) ____  .  ____  .  ____  .  ____
 72
65
 73
4
 40
6.096
 49
5.08
 74
0
 49
-0.508
 74
0
 49
0.0
 74
0
 49
-0.508
 74
0
  0
LTYPE
  5
3A
330
2
100
AcDbSymbolTableRecord
100
AcDbLinetypeTableRecord
  2
DASHDOT2
 70
0
  3
Dash dot (.5x) _ . _ . _ . _ . _ . _ . _ . _
 72
65
 73
4
 40
1.778
 49
1.27
 74
0
 49
-0.254
 74
0
 49
0.0
 74
0
 49
-0.254
 74
0
  0
LTYPE
  5
3B
330
2
100
AcDbSymbolTableRecord
100
AcDbLinetypeTableRecord
  2
DOT
 70
0
  3
Dot .  .  .  .  .  .  .  .  .  .  .  .  .  .  .  .
 72
65
 73
2
 40
0.508
 49
0.0
 74
0
 49
-0.508
 74
0
  0
LTYPE
  5
3C
330
2
100
AcDbSymbolTableRecord
100
AcDbLinetypeTableRecord
  2
DOTX2
 70
0
  3
Dot (2x) .    .    .    .    .    .    .    . 
 72
65
 73
2
 40
1.016
 49
0.0
 74
0
 49
-1.016
 74
0
  0
LTYPE
  5
3D
330
2
100
AcDbSymbolTableRecord
100
AcDbLinetypeTableRecord
  2
DOT2
 70
0
  3
Dot (.5) . . . . . . . . . . . . . . . . . . . 
 72
65
 73
2
 40
0.254
 49
0.0
 74
0
 49
-0.254
 74
0
  0
LTYPE
  5
3E
330
2
100
AcDbSymbolTableRecord
100
AcDbLinetypeTableRecord
  2
DIVIDE
 70
0
  3
Divide __ . . __ . . __ . . __ . . __ . . __
 72
65
 73
6
 40
4.064
 49
2.54
 74
0
 49
-0.508
 74
0
 49
0.0
 74
0
 49
-0.508
 74
0
 49
0.0
 74
0
 49
-0.508
 74
0
  0
LTYPE
  5
3F
330
2
100
AcDbSymbolTableRecord
100
AcDbLinetypeTableRecord
  2
DIVIDEX2
 70
0
  3
Divide (2x) ____  . .  ____  . .  ____  . .  ____
 72
65
 73
6
 40
6.604
 49
5.08
 74
0
 49
-0.508
 74
0
 49
0.0
 74
0
 49
-0.508
 74
0
 49
0.0
 74
0
 49
-0.508
 74
0
  0
LTYPE
  5
40
330
2
100
AcDbSymbolTableRecord
100
AcDbLinetypeTableRecord
  2
DIVIDE2
 70
0
  3
Divide(.5x) _ . _ . _ . _ . _ . _ . _ . _
 72
65
 73
6
 40
2.032
 49
1.27
 74
0
 49
-0.254
 74
0
 49
0.0
 74
0
 49
-0.254
 74
0
 49
0.0
 74
0
 49
-0.254
 74
0
  0
LTYPE
  5
8A
330
2
100
AcDbSymbolTableRecord
100
AcDbLinetypeTableRecord
  2
HIDDEN
 70
0
  3
HIDDEN
 72
65
 73
2
 40
8.0
 49
6.0
 74
0
 49
-2.0
 74
0
  0
ENDTAB
  0
TABLE
  2
LAYER
  5
1
330
0
100
AcDbSymbolTable
 70
30
  0
LAYER
  5
27
330
1
100
AcDbSymbolTableRecord
100
AcDbLayerTableRecord
  2
0
 70
0
 62
7
  6
Continuous
370
25
390
13
347
21
  0
LAYER
  5
28
330
1
100
AcDbSymbolTableRecord
100
AcDbLayerTableRecord
  2
Defpoints
 70
0
 62
7
  6
Continuous
290
0
370
-3
390
13
347
21
  0
LAYER
  5
8B
330
1
100
AcDbSymbolTableRecord
100
AcDbLayerTableRecord
  2
A-WALL-EXT
 70
0
 62
7
  6
Continuous
370
60
390
13
347
21
  0
LAYER
  5
8C
330
1
100
AcDbSymbolTableRecord
100
AcDbLayerTableRecord
  2
A-WALL-INT
 70
0
 62
7
  6
Continuous
370
25
390
13
347
21
  0
LAYER
  5
8D
330
1
100
AcDbSymbolTableRecord
100
AcDbLayerTableRecord
  2
A-CONT-MOD
 70
0
 62
7
  6
DASHED
370
13
390
13
347
21
  0
LAYER
  5
8E
330
1
100
AcDbSymbolTableRecord
100
AcDbLayerTableRecord
  2
A-DOOR
 70
0
 62
7
  6
Continuous
370
18
390
13
347
21
  0
LAYER
  5
8F
330
1
100
AcDbSymbolTableRecord
100
AcDbLayerTableRecord
  2
A-WINDOW
 70
0
 62
7
  6
Continuous
370
18
390
13
347
21
  0
LAYER
  5
90
330
1
100
AcDbSymbolTableRecord
100
AcDbLayerTableRecord
  2
A-GLAZE
 70
0
 62
7
  6
Continuous
370
18
390
13
347
21
  0
LAYER
  5
91
330
1
100
AcDbSymbolTableRecord
100
AcDbLayerTableRecord
  2
A-FIX-WC
 70
0
 62
7
  6
Continuous
370
18
390
13
347
21
  0
LAYER
  5
92
330
1
100
AcDbSymbolTableRecord
100
AcDbLayerTableRecord
  2
A-FIX-KIT
 70
0
 62
7
  6
Continuous
370
18
390
13
347
21
  0
LAYER
  5
93
330
1
100
AcDbSymbolTableRecord
100
AcDbLayerTableRecord
  2
A-FURN
 70
0
 62
7
  6
Continuous
370
13
390
13
347
21
  0
LAYER
  5
94
330
1
100
AcDbSymbolTableRecord
100
AcDbLayerTableRecord
  2
A-COURT
 70
0
 62
7
  6
Continuous
370
18
390
13
347
21
  0
LAYER
  5
95
330
1
100
AcDbSymbolTableRecord
100
AcDbLayerTableRecord
  2
A-DECK
 70
0
 62
7
  6
Continuous
370
18
390
13
347
21
  0
LAYER
  5
96
330
1
100
AcDbSymbolTableRecord
100
AcDbLayerTableRecord
  2
A-WATER
 70
0
 62
7
  6
DASHED
370
18
390
13
347
21
  0
LAYER
  5
97
330
1
100
AcDbSymbolTableRecord
100
AcDbLayerTableRecord
  2
A-HATCH-WALL
 70
0
 62
7
  6
Continuous
370
9
390
13
347
21
  0
LAYER
  5
98
330
1
100
AcDbSymbolTableRecord
100
AcDbLayerTableRecord
  2
A-HATCH-BATH
 70
0
 62
7
  6
Continuous
370
9
390
13
347
21
  0
LAYER
  5
99
330
1
100
AcDbSymbolTableRecord
100
AcDbLayerTableRecord
  2
A-HATCH-DECK
 70
0
 62
7
  6
Continuous
370
9
390
13
347
21
  0
LAYER
  5
9A
330
1
100
AcDbSymbolTableRecord
100
AcDbLayerTableRecord
  2
A-HATCH-COURT
 70
0
 62
7
  6
Continuous
370
9
390
13
347
21
  0
LAYER
  5
9B
330
1
100
AcDbSymbolTableRecord
100
AcDbLayerTableRecord
  2
A-HATCH-KIT
 70
0
 62
7
  6
Continuous
370
9
390
13
347
21
  0
LAYER
  5
9C
330
1
100
AcDbSymbolTableRecord
100
AcDbLayerTableRecord
  2
A-DIM
 70
0
 62
7
  6
Continuous
370
13
390
13
347
21
  0
LAYER
  5
9D
330
1
100
AcDbSymbolTableRecord
100
AcDbLayerTableRecord
  2
A-TEXT-LRG
 70
0
 62
7
  6
Continuous
370
25
390
13
347
21
  0
LAYER
  5
9E
330
1
100
AcDbSymbolTableRecord
100
AcDbLayerTableRecord
  2
A-TEXT-MED
 70
0
 62
7
  6
Continuous
370
18
390
13
347
21
  0
LAYER
  5
9F
330
1
100
AcDbSymbolTableRecord
100
AcDbLayerTableRecord
  2
A-TEXT-SML
 70
0
 62
7
  6
Continuous
370
13
390
13
347
21
  0
LAYER
  5
A0
330
1
100
AcDbSymbolTableRecord
100
AcDbLayerTableRecord
  2
A-ANNO
 70
0
 62
7
  6
Continuous
370
13
390
13
347
21
  0
LAYER
  5
A1
330
1
100
AcDbSymbolTableRecord
100
AcDbLayerTableRecord
  2
A-TAG
 70
0
 62
7
  6
Continuous
370
18
390
13
347
21
  0
LAYER
  5
A2
330
1
100
AcDbSymbolTableRecord
100
AcDbLayerTableRecord
  2
A-NORTH
 70
0
 62
7
  6
Continuous
370
35
390
13
347
21
  0
LAYER
  5
A3
330
1
100
AcDbSymbolTableRecord
100
AcDbLayerTableRecord
  2
A-SCALE
 70
0
 62
7
  6
Continuous
370
25
390
13
347
21
  0
LAYER
  5
A4
330
1
100
AcDbSymbolTableRecord
100
AcDbLayerTableRecord
  2
A-TITLE
 70
0
 62
7
  6
Continuous
370
35
390
13
347
21
  0
LAYER
  5
A5
330
1
100
AcDbSymbolTableRecord
100
AcDbLayerTableRecord
  2
A-SHEET
 70
0
 62
7
  6
Continuous
370
50
390
13
347
21
  0
LAYER
  5
A6
330
1
100
AcDbSymbolTableRecord
100
AcDbLayerTableRecord
  2
A-GRID
 70
0
 62
7
  6
CENTER
370
9
390
13
347
21
  0
ENDTAB
  0
TABLE
  2
STYLE
  5
5
330
0
100
AcDbSymbolTable
 70
29
  0
STYLE
  5
29
330
5
100
AcDbSymbolTableRecord
100
AcDbTextStyleTableRecord
  2
Standard
 70
0
 40
0.0
 41
1.0
 50
0.0
 71
0
 42
2.5
  3
txt
  4

  0
STYLE
  5
41
330
5
100
AcDbSymbolTableRecord
100
AcDbTextStyleTableRecord
  2
OpenSans-Light
 70
0
 40
0.0
 41
1.0
 50
0.0
 71
0
 42
2.5
  3
OpenSans-Light.ttf
  4

  0
STYLE
  5
42
330
5
100
AcDbSymbolTableRecord
100
AcDbTextStyleTableRecord
  2
OpenSans-Light-Italic
 70
0
 40
0.0
 41
1.0
 50
0.0
 71
0
 42
2.5
  3
OpenSans-LightItalic.ttf
  4

  0
STYLE
  5
43
330
5
100
AcDbSymbolTableRecord
100
AcDbTextStyleTableRecord
  2
OpenSans
 70
0
 40
0.0
 41
1.0
 50
0.0
 71
0
 42
2.5
  3
OpenSans-Regular.ttf
  4

  0
STYLE
  5
44
330
5
100
AcDbSymbolTableRecord
100
AcDbTextStyleTableRecord
  2
OpenSans-Italic
 70
0
 40
0.0
 41
1.0
 50
0.0
 71
0
 42
2.5
  3
OpenSans-Italic.ttf
  4

  0
STYLE
  5
45
330
5
100
AcDbSymbolTableRecord
100
AcDbTextStyleTableRecord
  2
OpenSans-SemiBold
 70
0
 40
0.0
 41
1.0
 50
0.0
 71
0
 42
2.5
  3
OpenSans-SemiBold.ttf
  4

  0
STYLE
  5
46
330
5
100
AcDbSymbolTableRecord
100
AcDbTextStyleTableRecord
  2
OpenSans-SemiBoldItalic
 70
0
 40
0.0
 41
1.0
 50
0.0
 71
0
 42
2.5
  3
OpenSans-SemiBoldItalic.ttf
  4

  0
STYLE
  5
47
330
5
100
AcDbSymbolTableRecord
100
AcDbTextStyleTableRecord
  2
OpenSans-Bold
 70
0
 40
0.0
 41
1.0
 50
0.0
 71
0
 42
2.5
  3
OpenSans-Bold.ttf
  4

  0
STYLE
  5
48
330
5
100
AcDbSymbolTableRecord
100
AcDbTextStyleTableRecord
  2
OpenSans-BoldItalic
 70
0
 40
0.0
 41
1.0
 50
0.0
 71
0
 42
2.5
  3
OpenSans-BoldItalic.ttf
  4

  0
STYLE
  5
49
330
5
100
AcDbSymbolTableRecord
100
AcDbTextStyleTableRecord
  2
OpenSans-ExtraBold
 70
0
 40
0.0
 41
1.0
 50
0.0
 71
0
 42
2.5
  3
OpenSans-ExtraBold.ttf
  4

  0
STYLE
  5
4A
330
5
100
AcDbSymbolTableRecord
100
AcDbTextStyleTableRecord
  2
OpenSans-ExtraBoldItalic
 70
0
 40
0.0
 41
1.0
 50
0.0
 71
0
 42
2.5
  3
OpenSans-ExtraBoldItalic.ttf
  4

  0
STYLE
  5
4B
330
5
100
AcDbSymbolTableRecord
100
AcDbTextStyleTableRecord
  2
OpenSansCondensed-Bold
 70
0
 40
0.0
 41
1.0
 50
0.0
 71
0
 42
2.5
  3
OpenSansCondensed-Bold.ttf
  4

  0
STYLE
  5
4C
330
5
100
AcDbSymbolTableRecord
100
AcDbTextStyleTableRecord
  2
OpenSansCondensed-Light
 70
0
 40
0.0
 41
1.0
 50
0.0
 71
0
 42
2.5
  3
OpenSansCondensed-Light.ttf
  4

  0
STYLE
  5
4D
330
5
100
AcDbSymbolTableRecord
100
AcDbTextStyleTableRecord
  2
OpenSansCondensed-Italic
 70
0
 40
0.0
 41
1.0
 50
0.0
 71
0
 42
2.5
  3
OpenSansCondensed-LightItalic.ttf
  4

  0
STYLE
  5
4E
330
5
100
AcDbSymbolTableRecord
100
AcDbTextStyleTableRecord
  2
LiberationSans
 70
0
 40
0.0
 41
1.0
 50
0.0
 71
0
 42
2.5
  3
LiberationSans-Regular.ttf
  4

  0
STYLE
  5
4F
330
5
100
AcDbSymbolTableRecord
100
AcDbTextStyleTableRecord
  2
LiberationSans-Bold
 70
0
 40
0.0
 41
1.0
 50
0.0
 71
0
 42
2.5
  3
LiberationSans-Bold.ttf
  4

  0
STYLE
  5
50
330
5
100
AcDbSymbolTableRecord
100
AcDbTextStyleTableRecord
  2
LiberationSans-BoldItalic
 70
0
 40
0.0
 41
1.0
 50
0.0
 71
0
 42
2.5
  3
LiberationSans-BoldItalic.ttf
  4

  0
STYLE
  5
51
330
5
100
AcDbSymbolTableRecord
100
AcDbTextStyleTableRecord
  2
LiberationSans-Italic
 70
0
 40
0.0
 41
1.0
 50
0.0
 71
0
 42
2.5
  3
LiberationSans-Italic.ttf
  4

  0
STYLE
  5
52
330
5
100
AcDbSymbolTableRecord
100
AcDbTextStyleTableRecord
  2
LiberationSerif
 70
0
 40
0.0
 41
1.0
 50
0.0
 71
0
 42
2.5
  3
LiberationSerif-Regular.ttf
  4

  0
STYLE
  5
53
330
5
100
AcDbSymbolTableRecord
100
AcDbTextStyleTableRecord
  2
LiberationSerif-Bold
 70
0
 40
0.0
 41
1.0
 50
0.0
 71
0
 42
2.5
  3
LiberationSerif-Bold.ttf
  4

  0
STYLE
  5
54
330
5
100
AcDbSymbolTableRecord
100
AcDbTextStyleTableRecord
  2
LiberationSerif-BoldItalic
 70
0
 40
0.0
 41
1.0
 50
0.0
 71
0
 42
2.5
  3
LiberationSerif-BoldItalic.ttf
  4

  0
STYLE
  5
55
330
5
100
AcDbSymbolTableRecord
100
AcDbTextStyleTableRecord
  2
LiberationSerif-Italic
 70
0
 40
0.0
 41
1.0
 50
0.0
 71
0
 42
2.5
  3
LiberationSerif-Italic.ttf
  4

  0
STYLE
  5
56
330
5
100
AcDbSymbolTableRecord
100
AcDbTextStyleTableRecord
  2
LiberationMono
 70
0
 40
0.0
 41
1.0
 50
0.0
 71
0
 42
2.5
  3
LiberationMono-Regular.ttf
  4

  0
STYLE
  5
57
330
5
100
AcDbSymbolTableRecord
100
AcDbTextStyleTableRecord
  2
LiberationMono-Bold
 70
0
 40
0.0
 41
1.0
 50
0.0
 71
0
 42
2.5
  3
LiberationMono-Bold.ttf
  4

  0
STYLE
  5
58
330
5
100
AcDbSymbolTableRecord
100
AcDbTextStyleTableRecord
  2
LiberationMono-BoldItalic
 70
0
 40
0.0
 41
1.0
 50
0.0
 71
0
 42
2.5
  3
LiberationMono-BoldItalic.ttf
  4

  0
STYLE
  5
59
330
5
100
AcDbSymbolTableRecord
100
AcDbTextStyleTableRecord
  2
LiberationMono-Italic
 70
0
 40
0.0
 41
1.0
 50
0.0
 71
0
 42
2.5
  3
LiberationMono-Italic.ttf
  4

  0
STYLE
  5
A7
330
5
100
AcDbSymbolTableRecord
100
AcDbTextStyleTableRecord
  2
RV-ARCH
 70
0
 40
0.0
 41
1.0
 50
0.0
 71
0
 42
2.5
  3
arial.ttf
  4

  0
STYLE
  5
A8
330
5
100
AcDbSymbolTableRecord
100
AcDbTextStyleTableRecord
  2
RV-TITLE
 70
0
 40
0.0
 41
1.0
 50
0.0
 71
0
 42
2.5
  3
arialbd.ttf
  4

  0
STYLE
  5
A9
330
5
100
AcDbSymbolTableRecord
100
AcDbTextStyleTableRecord
  2
RV-TAG
 70
0
 40
0.0
 41
1.0
 50
0.0
 71
0
 42
2.5
  3
arial.ttf
  4

  0
ENDTAB
  0
TABLE
  2
VIEW
  5
7
330
0
100
AcDbSymbolTable
 70
0
  0
ENDTAB
  0
TABLE
  2
UCS
  5
6
330
0
100
AcDbSymbolTable
 70
0
  0
ENDTAB
  0
TABLE
  2
APPID
  5
3
330
0
100
AcDbSymbolTable
 70
3
  0
APPID
  5
2A
330
3
100
AcDbSymbolTableRecord
100
AcDbRegAppTableRecord
  2
ACAD
 70
0
  0
APPID
  5
3C2
330
3
100
AcDbSymbolTableRecord
100
AcDbRegAppTableRecord
  2
HATCHBACKGROUNDCOLOR
 70
0
  0
APPID
  5
3C3
330
3
100
AcDbSymbolTableRecord
100
AcDbRegAppTableRecord
  2
EZDXF
 70
0
  0
ENDTAB
  0
TABLE
  2
DIMSTYLE
  5
4
330
0
100
AcDbSymbolTable
 70
13
100
AcDbDimStyleTable
  0
DIMSTYLE
105
2B
330
4
100
AcDbSymbolTableRecord
100
AcDbDimStyleTableRecord
  2
Standard
 70
0
 40
1.0
 41
2.5
 42
0.625
 43
3.75
 44
1.25
 45
0.0
 46
0.0
 47
0.0
 48
0.0
 49
2.5
140
2.5
141
2.5
142
0.0
143
0.03937007874
144
1.0
145
0.0
146
1.0
147
0.625
148
0.0
 69
0
 70
0
 71
0
 72
0
 73
0
 74
0
 75
0
 76
0
 77
1
 78
8
 79
3
170
0
171
3
172
1
173
0
174
0
175
0
176
0
177
0
178
0
179
2
271
2
272
2
273
2
274
3
275
0
276
0
277
2
278
44
279
0
280
0
281
0
282
0
283
0
284
8
285
0
286
0
288
0
289
3
290
0
371
-2
372
-2
  0
DIMSTYLE
105
73
330
4
100
AcDbSymbolTableRecord
100
AcDbDimStyleTableRecord
  2
EZDXF
 70
0
 40
1.0
 41
0.175
 42
0.125
 43
3.75
 44
0.375
 45
0.0
 46
0.0
 47
0.0
 48
0.0
 49
2.5
140
0.25
141
2.5
142
0.0
143
0.03937007874
144
100.0
145
0.0
146
0.5
147
0.1
148
0.0
 69
0
 70
0
 71
0
 72
0
 73
0
 74
0
 75
0
 76
0
 77
1
 78
12
 79
3
170
0
171
3
172
1
173
0
174
0
175
0
176
0
177
0
178
0
179
2
271
2
272
2
273
2
274
3
275
0
276
0
277
2
278
46
279
2
280
0
281
0
282
0
283
0
284
8
285
0
286
0
288
1
289
3
290
0
340
4C
342
74
371
-2
372
-2
  0
DIMSTYLE
105
7C
330
4
100
AcDbSymbolTableRecord
100
AcDbDimStyleTableRecord
  2
EZ_M_100_H25_CM
 70
0
 40
1.0
 41
0.25
 42
0.125
 43
3.75
 44
0.375
 45
0.0
 46
0.0
 47
0.0
 48
0.0
 49
2.5
140
0.25
141
2.5
142
0.125
143
0.03937007874
144
100.0
145
0.0
146
0.5
147
0.1
148
0.0
 69
0
 70
0
 71
0
 72
0
 73
0
 74
0
 75
0
 76
0
 77
1
 78
12
 79
3
170
0
171
3
172
1
173
0
174
0
175
0
176
0
177
0
178
0
179
2
271
2
272
2
273
2
274
3
275
0
276
0
277
2
278
46
279
2
280
0
281
0
282
0
283
0
284
8
285
0
286
0
288
1
289
3
290
0
340
4C
371
-2
372
-2
  0
DIMSTYLE
105
7D
330
4
100
AcDbSymbolTableRecord
100
AcDbDimStyleTableRecord
  2
EZ_M_50_H25_CM
 70
0
 40
1.0
 41
0.125
 42
0.0625
 43
3.75
 44
0.1875
 45
0.0
 46
0.0
 47
0.0
 48
0.0
 49
2.5
140
0.125
141
2.5
142
0.0625
143
0.03937007874
144
100.0
145
0.0
146
0.5
147
0.05
148
0.0
 69
0
 70
0
 71
0
 72
0
 73
0
 74
0
 75
0
 76
0
 77
1
 78
12
 79
3
170
0
171
3
172
1
173
0
174
0
175
0
176
0
177
0
178
0
179
2
271
2
272
2
273
2
274
3
275
0
276
0
277
2
278
46
279
2
280
0
281
0
282
0
283
0
284
8
285
0
286
0
288
1
289
3
290
0
340
4C
371
-2
372
-2
  0
DIMSTYLE
105
7E
330
4
100
AcDbSymbolTableRecord
100
AcDbDimStyleTableRecord
  2
EZ_M_25_H25_CM
 70
0
 40
1.0
 41
0.0625
 42
0.03125
 43
3.75
 44
0.09375
 45
0.0
 46
0.0
 47
0.0
 48
0.0
 49
2.5
140
0.0625
141
2.5
142
0.03125
143
0.03937007874
144
100.0
145
0.0
146
0.5
147
0.025
148
0.0
 69
0
 70
0
 71
0
 72
0
 73
0
 74
0
 75
0
 76
0
 77
1
 78
12
 79
3
170
0
171
3
172
1
173
0
174
0
175
0
176
0
177
0
178
0
179
2
271
2
272
2
273
2
274
3
275
0
276
0
277
2
278
46
279
2
280
0
281
0
282
0
283
0
284
8
285
0
286
0
288
1
289
3
290
0
340
4C
371
-2
372
-2
  0
DIMSTYLE
105
7F
330
4
100
AcDbSymbolTableRecord
100
AcDbDimStyleTableRecord
  2
EZ_M_20_H25_CM
 70
0
 40
1.0
 41
0.05
 42
0.025
 43
3.75
 44
0.07500000000000001
 45
0.0
 46
0.0
 47
0.0
 48
0.0
 49
2.5
140
0.05
141
2.5
142
0.025
143
0.03937007874
144
100.0
145
0.0
146
0.5
147
0.020000000000000004
148
0.0
 69
0
 70
0
 71
0
 72
0
 73
0
 74
0
 75
0
 76
0
 77
1
 78
12
 79
3
170
0
171
3
172
1
173
0
174
0
175
0
176
0
177
0
178
0
179
2
271
2
272
2
273
2
274
3
275
0
276
0
277
2
278
46
279
2
280
0
281
0
282
0
283
0
284
8
285
0
286
0
288
1
289
3
290
0
340
4C
371
-2
372
-2
  0
DIMSTYLE
105
80
330
4
100
AcDbSymbolTableRecord
100
AcDbDimStyleTableRecord
  2
EZ_M_10_H25_CM
 70
0
 40
1.0
 41
0.025
 42
0.0125
 43
3.75
 44
0.037500000000000006
 45
0.0
 46
0.0
 47
0.0
 48
0.0
 49
2.5
140
0.025
141
2.5
142
0.0125
143
0.03937007874
144
100.0
145
0.0
146
0.5
147
0.010000000000000002
148
0.0
 69
0
 70
0
 71
0
 72
0
 73
0
 74
0
 75
0
 76
0
 77
1
 78
12
 79
3
170
0
171
3
172
1
173
0
174
0
175
0
176
0
177
0
178
0
179
2
271
2
272
2
273
2
274
3
275
0
276
0
277
2
278
46
279
2
280
0
281
0
282
0
283
0
284
8
285
0
286
0
288
1
289
3
290
0
340
4C
371
-2
372
-2
  0
DIMSTYLE
105
81
330
4
100
AcDbSymbolTableRecord
100
AcDbDimStyleTableRecord
  2
EZ_M_5_H25_CM
 70
0
 40
1.0
 41
0.0125
 42
0.00625
 43
3.75
 44
0.018750000000000003
 45
0.0
 46
0.0
 47
0.0
 48
0.0
 49
2.5
140
0.0125
141
2.5
142
0.00625
143
0.03937007874
144
100.0
145
0.0
146
0.5
147
0.005000000000000001
148
0.0
 69
0
 70
0
 71
0
 72
0
 73
0
 74
0
 75
0
 76
0
 77
1
 78
12
 79
3
170
0
171
3
172
1
173
0
174
0
175
0
176
0
177
0
178
0
179
2
271
2
272
2
273
2
274
3
275
0
276
0
277
2
278
46
279
2
280
0
281
0
282
0
283
0
284
8
285
0
286
0
288
1
289
3
290
0
340
4C
371
-2
372
-2
  0
DIMSTYLE
105
82
330
4
100
AcDbSymbolTableRecord
100
AcDbDimStyleTableRecord
  2
EZ_M_1_H25_CM
 70
0
 40
1.0
 41
0.0025
 42
0.00125
 43
3.75
 44
0.00375
 45
0.0
 46
0.0
 47
0.0
 48
0.0
 49
2.5
140
0.0025
141
2.5
142
0.00125
143
0.03937007874
144
100.0
145
0.0
146
0.5
147
0.001
148
0.0
 69
0
 70
0
 71
0
 72
0
 73
0
 74
0
 75
0
 76
0
 77
1
 78
12
 79
3
170
0
171
3
172
1
173
0
174
0
175
0
176
0
177
0
178
0
179
2
271
2
272
2
273
2
274
3
275
0
276
0
277
2
278
46
279
2
280
0
281
0
282
0
283
0
284
8
285
0
286
0
288
1
289
3
290
0
340
4C
371
-2
372
-2
  0
DIMSTYLE
105
83
330
4
100
AcDbSymbolTableRecord
100
AcDbDimStyleTableRecord
  2
EZ_RADIUS
 70
0
 40
1.0
 41
0.25
 42
0.125
 43
3.75
 44
0.375
 45
0.0
 46
0.0
 47
0.0
 48
0.0
 49
2.5
140
0.25
141
0.0
142
0.0
143
0.03937007874
144
100.0
145
0.0
146
0.5
147
0.1
148
0.0
 69
0
 70
0
 71
0
 72
0
 73
0
 74
0
 75
0
 76
0
 77
1
 78
12
 79
3
170
0
171
3
172
0
173
0
174
0
175
0
176
0
177
0
178
0
179
2
271
2
272
2
273
2
274
3
275
0
276
0
277
2
278
46
279
1
280
0
281
0
282
0
283
0
284
8
285
0
286
0
288
1
289
3
290
0
340
4C
342
84
371
-2
372
-2
  0
DIMSTYLE
105
88
330
4
100
AcDbSymbolTableRecord
100
AcDbDimStyleTableRecord
  2
EZ_RADIUS_INSIDE
 70
0
 40
1.0
 41
0.25
 42
0.125
 43
3.75
 44
0.375
 45
0.0
 46
0.0
 47
0.0
 48
0.0
 49
2.5
140
0.25
141
0.0
142
0.0
143
0.03937007874
144
100.0
145
0.0
146
0.5
147
0.1
148
0.0
 69
0
 70
0
 71
0
 72
0
 73
0
 74
0
 75
0
 76
0
 77
0
 78
12
 79
3
170
0
171
3
172
0
173
0
174
1
175
0
176
0
177
0
178
0
179
2
271
2
272
2
273
2
274
3
275
0
276
0
277
2
278
46
279
0
280
0
281
0
282
0
283
0
284
8
285
0
286
0
288
1
289
0
290
0
340
4C
342
84
371
-2
372
-2
  0
DIMSTYLE
105
89
330
4
100
AcDbSymbolTableRecord
100
AcDbDimStyleTableRecord
  2
EZ_CURVED
 70
0
 40
1.0
 41
0.25
 42
0.125
 43
3.75
 44
0.375
 45
0.0
 46
0.0
 47
0.0
 48
0.0
 49
2.5
140
0.25
141
2.5
142
0.0
143
0.03937007874
144
100.0
145
0.0
146
0.5
147
0.1
148
0.0
 69
0
 70
0
 71
0
 72
0
 73
0
 74
0
 75
0
 76
0
 77
1
 78
12
 79
2
 90
2
170
0
171
3
172
1
173
0
174
0
175
0
176
0
177
0
178
0
179
2
271
2
272
2
273
2
274
3
275
0
276
0
277
2
278
46
279
2
280
0
281
0
282
0
283
0
284
8
285
0
286
0
288
1
289
3
290
0
340
4C
371
-2
372
-2
  0
DIMSTYLE
105
AA
330
4
100
AcDbSymbolTableRecord
100
AcDbDimStyleTableRecord
  2
RV-DIM
 70
0
 40
1.0
 41
140.0
 42
60.0
 43
3.75
 44
100.0
 45
0.0
 46
0.0
 47
0.0
 48
0.0
 49
2.5
140
160.0
141
2.5
142
0.0
143
0.03937007874
144
1.0
145
0.0
146
1.0
147
50.0
148
0.0
 69
0
 70
0
 71
0
 72
0
 73
0
 74
0
 75
0
 76
0
 77
1
 78
8
 79
3
170
0
171
3
172
1
173
0
174
0
175
0
176
7
177
7
178
7
179
2
271
0
272
2
273
2
274
3
275
0
276
0
277
2
278
44
279
0
280
0
281
0
282
0
283
0
284
8
285
0
286
0
288
0
289
3
290
0
340
A7
342
74
343
74
344
74
371
-2
372
-2
  0
ENDTAB
  0
TABLE
  2
BLOCK_RECORD
  5
9
330
0
100
AcDbSymbolTable
 70
18
  0
BLOCK_RECORD
  5
17
330
9
100
AcDbSymbolTableRecord
100
AcDbBlockTableRecord
  2
*Model_Space
340
1A
 70
0
280
1
281
0
  0
BLOCK_RECORD
  5
1B
330
9
100
AcDbSymbolTableRecord
100
AcDbBlockTableRecord
  2
*Paper_Space
340
1E
 70
0
280
1
281
0
  0
BLOCK_RECORD
  5
74
330
9
100
AcDbSymbolTableRecord
100
AcDbBlockTableRecord
  2
_ARCHTICK
340
0
 70
0
280
1
281
0
  0
BLOCK_RECORD
  5
78
330
9
100
AcDbSymbolTableRecord
100
AcDbBlockTableRecord
  2
_CLOSEDFILLED
340
0
 70
0
280
1
281
0
  0
BLOCK_RECORD
  5
84
330
9
100
AcDbSymbolTableRecord
100
AcDbBlockTableRecord
  2
_CLOSEDBLANK
340
0
 70
0
280
1
281
0
  0
BLOCK_RECORD
  5
24A
330
9
100
AcDbSymbolTableRecord
100
AcDbBlockTableRecord
  2
*D1
340
0
 70
0
280
1
281
0
  0
BLOCK_RECORD
  5
259
330
9
100
AcDbSymbolTableRecord
100
AcDbBlockTableRecord
  2
*D2
340
0
 70
0
280
1
281
0
  0
BLOCK_RECORD
  5
268
330
9
100
AcDbSymbolTableRecord
100
AcDbBlockTableRecord
  2
*D3
340
0
 70
0
280
1
281
0
  0
BLOCK_RECORD
  5
277
330
9
100
AcDbSymbolTableRecord
100
AcDbBlockTableRecord
  2
*D4
340
0
 70
0
280
1
281
0
  0
BLOCK_RECORD
  5
286
330
9
100
AcDbSymbolTableRecord
100
AcDbBlockTableRecord
  2
*D5
340
0
 70
0
280
1
281
0
  0
BLOCK_RECORD
  5
295
330
9
100
AcDbSymbolTableRecord
100
AcDbBlockTableRecord
  2
*D6
340
0
 70
0
280
1
281
0
  0
BLOCK_RECORD
  5
2A4
330
9
100
AcDbSymbolTableRecord
100
AcDbBlockTableRecord
  2
*D7
340
0
 70
0
280
1
281
0
  0
BLOCK_RECORD
  5
2B3
330
9
100
AcDbSymbolTableRecord
100
AcDbBlockTableRecord
  2
*D8
340
0
 70
0
280
1
281
0
  0
BLOCK_RECORD
  5
2C2
330
9
100
AcDbSymbolTableRecord
100
AcDbBlockTableRecord
  2
*D9
340
0
 70
0
280
1
281
0
  0
BLOCK_RECORD
  5
2D1
330
9
100
AcDbSymbolTableRecord
100
AcDbBlockTableRecord
  2
*D10
340
0
 70
0
280
1
281
0
  0
BLOCK_RECORD
  5
2E0
330
9
100
AcDbSymbolTableRecord
100
AcDbBlockTableRecord
  2
*D11
340
0
 70
0
280
1
281
0
  0
BLOCK_RECORD
  5
2EF
330
9
100
AcDbSymbolTableRecord
100
AcDbBlockTableRecord
  2
*D12
340
0
 70
0
280
1
281
0
  0
BLOCK_RECORD
  5
2FE
330
9
100
AcDbSymbolTableRecord
100
AcDbBlockTableRecord
  2
*D13
340
0
 70
0
280
1
281
0
  0
ENDTAB
  0
ENDSEC
  0
SECTION
  2
BLOCKS
  0
BLOCK
  5
18
330
17
100
AcDbEntity
  8
0
100
AcDbBlockBegin
  2
*Model_Space
 70
0
 10
0.0
 20
0.0
 30
0.0
  3
*Model_Space
  1

  0
ENDBLK
  5
19
330
17
100
AcDbEntity
  8
0
100
AcDbBlockEnd
  0
BLOCK
  5
1C
330
1B
100
AcDbEntity
  8
0
100
AcDbBlockBegin
  2
*Paper_Space
 70
0
 10
0.0
 20
0.0
 30
0.0
  3
*Paper_Space
  1

  0
ENDBLK
  5
1D
330
1B
100
AcDbEntity
  8
0
100
AcDbBlockEnd
  0
BLOCK
  5
75
330
74
100
AcDbEntity
  8
0
100
AcDbBlockBegin
  2
_ARCHTICK
 70
0
 10
0.0
 20
0.0
 30
0.0
  3
_ARCHTICK
  1

  0
LWPOLYLINE
  5
77
330
74
100
AcDbEntity
  8
0
  6
BYBLOCK
 62
0
100
AcDbPolyline
 90
2
 70
0
 43
0.15
 10
-0.5
 20
-0.5
 10
0.5
 20
0.5
  0
ENDBLK
  5
76
330
74
100
AcDbEntity
  8
0
100
AcDbBlockEnd
  0
BLOCK
  5
79
330
78
100
AcDbEntity
  8
0
100
AcDbBlockBegin
  2
_CLOSEDFILLED
 70
0
 10
0.0
 20
0.0
 30
0.0
  3
_CLOSEDFILLED
  1

  0
SOLID
  5
7B
330
78
100
AcDbEntity
  8
0
  6
BYBLOCK
 62
0
100
AcDbTrace
 10
-1.0
 20
0.16439898372402537
 30
0.0
 11
0.0
 21
0.0
 31
0.0
 12
-1.0
 22
-0.16439898372402537
 32
0.0
 13
-1.0
 23
-0.16439898372402537
 33
0.0
  0
ENDBLK
  5
7A
330
78
100
AcDbEntity
  8
0
100
AcDbBlockEnd
  0
BLOCK
  5
85
330
84
100
AcDbEntity
  8
0
100
AcDbBlockBegin
  2
_CLOSEDBLANK
 70
0
 10
0.0
 20
0.0
 30
0.0
  3
_CLOSEDBLANK
  1

  0
LWPOLYLINE
  5
87
330
84
100
AcDbEntity
  8
0
  6
BYBLOCK
 62
0
100
AcDbPolyline
 90
3
 70
1
 10
-1.0
 20
0.16439898372402537
 10
0.0
 20
0.0
 10
-1.0
 20
-0.16439898372402537
  0
ENDBLK
  5
86
330
84
100
AcDbEntity
  8
0
100
AcDbBlockEnd
  0
BLOCK
  5
24B
330
24A
100
AcDbEntity
  8
0
100
AcDbBlockBegin
  2
*D1
 70
1
 10
0.0
 20
0.0
 30
0.0
  3
*D1
  1

  0
LINE
  5
24D
330
24A
100
AcDbEntity
  8
0
 62
7
100
AcDbLine
 10
0.0
 20
-290.0
 30
0.0
 11
0.0
 21
-3300.0
 31
0.0
  0
LINE
  5
24E
330
24A
100
AcDbEntity
  8
0
 62
7
100
AcDbLine
 10
12200.0
 20
-290.0
 30
0.0
 11
12200.0
 21
-3300.0
 31
0.0
  0
INSERT
  5
24F
330
24A
100
AcDbEntity
  8
A-DIM
 62
7
100
AcDbBlockReference
  2
_ARCHTICK
 10
0.0
 20
-3200.0
 30
0.0
 41
140.0
 42
140.0
 50
180.0
  0
INSERT
  5
251
330
24A
100
AcDbEntity
  8
A-DIM
 62
7
100
AcDbBlockReference
  2
_ARCHTICK
 10
12200.0
 20
-3200.0
 30
0.0
 41
140.0
 42
140.0
  0
LINE
  5
253
330
24A
100
AcDbEntity
  8
0
 62
7
100
AcDbLine
 10
0.0
 20
-3200.0
 30
0.0
 11
12200.0
 21
-3200.0
 31
0.0
  0
MTEXT
  5
254
330
24A
100
AcDbEntity
  8
A-DIM
 62
7
100
AcDbMText
 10
6100.0
 20
-3070.0
 30
0.0
 40
160.0
 71
5
  1
12200
  7
RV-ARCH
  0
POINT
  5
255
330
24A
100
AcDbEntity
  8
Defpoints
100
AcDbPoint
 10
0.0
 20
-3200.0
 30
0.0
  0
POINT
  5
256
330
24A
100
AcDbEntity
  8
Defpoints
100
AcDbPoint
 10
0.0
 20
-230.0
 30
0.0
  0
POINT
  5
257
330
24A
100
AcDbEntity
  8
Defpoints
100
AcDbPoint
 10
12200.0
 20
-230.0
 30
0.0
  0
ENDBLK
  5
24C
330
24A
100
AcDbEntity
  8
0
100
AcDbBlockEnd
  0
BLOCK
  5
25A
330
259
100
AcDbEntity
  8
0
100
AcDbBlockBegin
  2
*D2
 70
1
 10
0.0
 20
0.0
 30
0.0
  3
*D2
  1

  0
LINE
  5
25C
330
259
100
AcDbEntity
  8
0
 62
7
100
AcDbLine
 10
0.0
 20
-290.0
 30
0.0
 11
0.0
 21
-2100.0
 31
0.0
  0
LINE
  5
25D
330
259
100
AcDbEntity
  8
0
 62
7
100
AcDbLine
 10
3000.0
 20
-290.0
 30
0.0
 11
3000.0
 21
-2100.0
 31
0.0
  0
INSERT
  5
25E
330
259
100
AcDbEntity
  8
A-DIM
 62
7
100
AcDbBlockReference
  2
_ARCHTICK
 10
0.0
 20
-2000.0
 30
0.0
 41
140.0
 42
140.0
 50
180.0
  0
INSERT
  5
260
330
259
100
AcDbEntity
  8
A-DIM
 62
7
100
AcDbBlockReference
  2
_ARCHTICK
 10
3000.0
 20
-2000.0
 30
0.0
 41
140.0
 42
140.0
  0
LINE
  5
262
330
259
100
AcDbEntity
  8
0
 62
7
100
AcDbLine
 10
0.0
 20
-2000.0
 30
0.0
 11
3000.0
 21
-2000.0
 31
0.0
  0
MTEXT
  5
263
330
259
100
AcDbEntity
  8
A-DIM
 62
7
100
AcDbMText
 10
1500.0
 20
-1870.0
 30
0.0
 40
160.0
 71
5
  1
3000
  7
RV-ARCH
  0
POINT
  5
264
330
259
100
AcDbEntity
  8
Defpoints
100
AcDbPoint
 10
0.0
 20
-2000.0
 30
0.0
  0
POINT
  5
265
330
259
100
AcDbEntity
  8
Defpoints
100
AcDbPoint
 10
0.0
 20
-230.0
 30
0.0
  0
POINT
  5
266
330
259
100
AcDbEntity
  8
Defpoints
100
AcDbPoint
 10
3000.0
 20
-230.0
 30
0.0
  0
ENDBLK
  5
25B
330
259
100
AcDbEntity
  8
0
100
AcDbBlockEnd
  0
BLOCK
  5
269
330
268
100
AcDbEntity
  8
0
100
AcDbBlockBegin
  2
*D3
 70
1
 10
0.0
 20
0.0
 30
0.0
  3
*D3
  1

  0
LINE
  5
26B
330
268
100
AcDbEntity
  8
0
 62
7
100
AcDbLine
 10
3000.0
 20
-290.0
 30
0.0
 11
3000.0
 21
-2100.0
 31
0.0
  0
LINE
  5
26C
330
268
100
AcDbEntity
  8
0
 62
7
100
AcDbLine
 10
12200.0
 20
-290.0
 30
0.0
 11
12200.0
 21
-2100.0
 31
0.0
  0
INSERT
  5
26D
330
268
100
AcDbEntity
  8
A-DIM
 62
7
100
AcDbBlockReference
  2
_ARCHTICK
 10
3000.0
 20
-2000.0
 30
0.0
 41
140.0
 42
140.0
 50
180.0
  0
INSERT
  5
26F
330
268
100
AcDbEntity
  8
A-DIM
 62
7
100
AcDbBlockReference
  2
_ARCHTICK
 10
12200.0
 20
-2000.0
 30
0.0
 41
140.0
 42
140.0
  0
LINE
  5
271
330
268
100
AcDbEntity
  8
0
 62
7
100
AcDbLine
 10
3000.0
 20
-2000.0
 30
0.0
 11
12200.0
 21
-2000.0
 31
0.0
  0
MTEXT
  5
272
330
268
100
AcDbEntity
  8
A-DIM
 62
7
100
AcDbMText
 10
7600.0
 20
-1870.0
 30
0.0
 40
160.0
 71
5
  1
9200
  7
RV-ARCH
  0
POINT
  5
273
330
268
100
AcDbEntity
  8
Defpoints
100
AcDbPoint
 10
3000.0
 20
-2000.0
 30
0.0
  0
POINT
  5
274
330
268
100
AcDbEntity
  8
Defpoints
100
AcDbPoint
 10
3000.0
 20
-230.0
 30
0.0
  0
POINT
  5
275
330
268
100
AcDbEntity
  8
Defpoints
100
AcDbPoint
 10
12200.0
 20
-230.0
 30
0.0
  0
ENDBLK
  5
26A
330
268
100
AcDbEntity
  8
0
100
AcDbBlockEnd
  0
BLOCK
  5
278
330
277
100
AcDbEntity
  8
0
100
AcDbBlockBegin
  2
*D4
 70
1
 10
0.0
 20
0.0
 30
0.0
  3
*D4
  1

  0
LINE
  5
27A
330
277
100
AcDbEntity
  8
0
 62
7
100
AcDbLine
 10
-290.0
 20
0.0
 30
0.0
 11
-3300.0
 21
0.0
 31
0.0
  0
LINE
  5
27B
330
277
100
AcDbEntity
  8
0
 62
7
100
AcDbLine
 10
-290.0
 20
17080.0
 30
0.0
 11
-3300.0
 21
17080.0
 31
0.0
  0
INSERT
  5
27C
330
277
100
AcDbEntity
  8
A-DIM
 62
7
100
AcDbBlockReference
  2
_ARCHTICK
 10
-3200.0
 20
0.0
 30
0.0
 41
140.0
 42
140.0
 50
270.0
  0
INSERT
  5
27E
330
277
100
AcDbEntity
  8
A-DIM
 62
7
100
AcDbBlockReference
  2
_ARCHTICK
 10
-3200.0
 20
17080.0
 30
0.0
 41
140.0
 42
140.0
 50
90.0
  0
LINE
  5
280
330
277
100
AcDbEntity
  8
0
 62
7
100
AcDbLine
 10
-3200.0
 20
0.0
 30
0.0
 11
-3200.0
 21
17080.0
 31
0.0
  0
MTEXT
  5
281
330
277
100
AcDbEntity
  8
A-DIM
 62
7
100
AcDbMText
 10
-3330.0
 20
8540.0
 30
0.0
 40
160.0
 71
5
  1
17080
  7
RV-ARCH
 50
90.0
  0
POINT
  5
282
330
277
100
AcDbEntity
  8
Defpoints
100
AcDbPoint
 10
-3200.0
 20
0.0
 30
0.0
  0
POINT
  5
283
330
277
100
AcDbEntity
  8
Defpoints
100
AcDbPoint
 10
-230.0
 20
0.0
 30
0.0
  0
POINT
  5
284
330
277
100
AcDbEntity
  8
Defpoints
100
AcDbPoint
 10
-230.0
 20
17080.0
 30
0.0
  0
ENDBLK
  5
279
330
277
100
AcDbEntity
  8
0
100
AcDbBlockEnd
  0
BLOCK
  5
287
330
286
100
AcDbEntity
  8
0
100
AcDbBlockBegin
  2
*D5
 70
1
 10
0.0
 20
0.0
 30
0.0
  3
*D5
  1

  0
LINE
  5
289
330
286
100
AcDbEntity
  8
0
 62
7
100
AcDbLine
 10
-290.0
 20
0.0
 30
0.0
 11
-2100.0
 21
0.0
 31
0.0
  0
LINE
  5
28A
330
286
100
AcDbEntity
  8
0
 62
7
100
AcDbLine
 10
-290.0
 20
2440.0
 30
0.0
 11
-2100.0
 21
2440.0
 31
0.0
  0
INSERT
  5
28B
330
286
100
AcDbEntity
  8
A-DIM
 62
7
100
AcDbBlockReference
  2
_ARCHTICK
 10
-2000.0
 20
0.0
 30
0.0
 41
140.0
 42
140.0
 50
270.0
  0
INSERT
  5
28D
330
286
100
AcDbEntity
  8
A-DIM
 62
7
100
AcDbBlockReference
  2
_ARCHTICK
 10
-2000.0
 20
2440.0
 30
0.0
 41
140.0
 42
140.0
 50
90.0
  0
LINE
  5
28F
330
286
100
AcDbEntity
  8
0
 62
7
100
AcDbLine
 10
-2000.0
 20
0.0
 30
0.0
 11
-2000.0
 21
2440.0
 31
0.0
  0
MTEXT
  5
290
330
286
100
AcDbEntity
  8
A-DIM
 62
7
100
AcDbMText
 10
-2130.0
 20
1220.0
 30
0.0
 40
160.0
 71
5
  1
2440
  7
RV-ARCH
 50
90.0
  0
POINT
  5
291
330
286
100
AcDbEntity
  8
Defpoints
100
AcDbPoint
 10
-2000.0
 20
0.0
 30
0.0
  0
POINT
  5
292
330
286
100
AcDbEntity
  8
Defpoints
100
AcDbPoint
 10
-230.0
 20
0.0
 30
0.0
  0
POINT
  5
293
330
286
100
AcDbEntity
  8
Defpoints
100
AcDbPoint
 10
-230.0
 20
2440.0
 30
0.0
  0
ENDBLK
  5
288
330
286
100
AcDbEntity
  8
0
100
AcDbBlockEnd
  0
BLOCK
  5
296
330
295
100
AcDbEntity
  8
0
100
AcDbBlockBegin
  2
*D6
 70
1
 10
0.0
 20
0.0
 30
0.0
  3
*D6
  1

  0
LINE
  5
298
330
295
100
AcDbEntity
  8
0
 62
7
100
AcDbLine
 10
-290.0
 20
2440.0
 30
0.0
 11
-2100.0
 21
2440.0
 31
0.0
  0
LINE
  5
299
330
295
100
AcDbEntity
  8
0
 62
7
100
AcDbLine
 10
-290.0
 20
4880.0
 30
0.0
 11
-2100.0
 21
4880.0
 31
0.0
  0
INSERT
  5
29A
330
295
100
AcDbEntity
  8
A-DIM
 62
7
100
AcDbBlockReference
  2
_ARCHTICK
 10
-2000.0
 20
2440.0
 30
0.0
 41
140.0
 42
140.0
 50
270.0
  0
INSERT
  5
29C
330
295
100
AcDbEntity
  8
A-DIM
 62
7
100
AcDbBlockReference
  2
_ARCHTICK
 10
-2000.0
 20
4880.0
 30
0.0
 41
140.0
 42
140.0
 50
90.0
  0
LINE
  5
29E
330
295
100
AcDbEntity
  8
0
 62
7
100
AcDbLine
 10
-2000.0
 20
2440.0
 30
0.0
 11
-2000.0
 21
4880.0
 31
0.0
  0
MTEXT
  5
29F
330
295
100
AcDbEntity
  8
A-DIM
 62
7
100
AcDbMText
 10
-2130.0
 20
3660.0
 30
0.0
 40
160.0
 71
5
  1
2440
  7
RV-ARCH
 50
90.0
  0
POINT
  5
2A0
330
295
100
AcDbEntity
  8
Defpoints
100
AcDbPoint
 10
-2000.0
 20
2440.0
 30
0.0
  0
POINT
  5
2A1
330
295
100
AcDbEntity
  8
Defpoints
100
AcDbPoint
 10
-230.0
 20
2440.0
 30
0.0
  0
POINT
  5
2A2
330
295
100
AcDbEntity
  8
Defpoints
100
AcDbPoint
 10
-230.0
 20
4880.0
 30
0.0
  0
ENDBLK
  5
297
330
295
100
AcDbEntity
  8
0
100
AcDbBlockEnd
  0
BLOCK
  5
2A5
330
2A4
100
AcDbEntity
  8
0
100
AcDbBlockBegin
  2
*D7
 70
1
 10
0.0
 20
0.0
 30
0.0
  3
*D7
  1

  0
LINE
  5
2A7
330
2A4
100
AcDbEntity
  8
0
 62
7
100
AcDbLine
 10
-290.0
 20
4880.0
 30
0.0
 11
-2100.0
 21
4880.0
 31
0.0
  0
LINE
  5
2A8
330
2A4
100
AcDbEntity
  8
0
 62
7
100
AcDbLine
 10
-290.0
 20
9980.0
 30
0.0
 11
-2100.0
 21
9980.0
 31
0.0
  0
INSERT
  5
2A9
330
2A4
100
AcDbEntity
  8
A-DIM
 62
7
100
AcDbBlockReference
  2
_ARCHTICK
 10
-2000.0
 20
4880.0
 30
0.0
 41
140.0
 42
140.0
 50
270.0
  0
INSERT
  5
2AB
330
2A4
100
AcDbEntity
  8
A-DIM
 62
7
100
AcDbBlockReference
  2
_ARCHTICK
 10
-2000.0
 20
9980.0
 30
0.0
 41
140.0
 42
140.0
 50
90.0
  0
LINE
  5
2AD
330
2A4
100
AcDbEntity
  8
0
 62
7
100
AcDbLine
 10
-2000.0
 20
4880.0
 30
0.0
 11
-2000.0
 21
9980.0
 31
0.0
  0
MTEXT
  5
2AE
330
2A4
100
AcDbEntity
  8
A-DIM
 62
7
100
AcDbMText
 10
-2130.0
 20
7430.0
 30
0.0
 40
160.0
 71
5
  1
5100
  7
RV-ARCH
 50
90.0
  0
POINT
  5
2AF
330
2A4
100
AcDbEntity
  8
Defpoints
100
AcDbPoint
 10
-2000.0
 20
4880.0
 30
0.0
  0
POINT
  5
2B0
330
2A4
100
AcDbEntity
  8
Defpoints
100
AcDbPoint
 10
-230.0
 20
4880.0
 30
0.0
  0
POINT
  5
2B1
330
2A4
100
AcDbEntity
  8
Defpoints
100
AcDbPoint
 10
-230.0
 20
9980.0
 30
0.0
  0
ENDBLK
  5
2A6
330
2A4
100
AcDbEntity
  8
0
100
AcDbBlockEnd
  0
BLOCK
  5
2B4
330
2B3
100
AcDbEntity
  8
0
100
AcDbBlockBegin
  2
*D8
 70
1
 10
0.0
 20
0.0
 30
0.0
  3
*D8
  1

  0
LINE
  5
2B6
330
2B3
100
AcDbEntity
  8
0
 62
7
100
AcDbLine
 10
-290.0
 20
9980.0
 30
0.0
 11
-2100.0
 21
9980.0
 31
0.0
  0
LINE
  5
2B7
330
2B3
100
AcDbEntity
  8
0
 62
7
100
AcDbLine
 10
-290.0
 20
17080.0
 30
0.0
 11
-2100.0
 21
17080.0
 31
0.0
  0
INSERT
  5
2B8
330
2B3
100
AcDbEntity
  8
A-DIM
 62
7
100
AcDbBlockReference
  2
_ARCHTICK
 10
-2000.0
 20
9980.0
 30
0.0
 41
140.0
 42
140.0
 50
270.0
  0
INSERT
  5
2BA
330
2B3
100
AcDbEntity
  8
A-DIM
 62
7
100
AcDbBlockReference
  2
_ARCHTICK
 10
-2000.0
 20
17080.0
 30
0.0
 41
140.0
 42
140.0
 50
90.0
  0
LINE
  5
2BC
330
2B3
100
AcDbEntity
  8
0
 62
7
100
AcDbLine
 10
-2000.0
 20
9980.0
 30
0.0
 11
-2000.0
 21
17080.0
 31
0.0
  0
MTEXT
  5
2BD
330
2B3
100
AcDbEntity
  8
A-DIM
 62
7
100
AcDbMText
 10
-2130.0
 20
13530.0
 30
0.0
 40
160.0
 71
5
  1
7100
  7
RV-ARCH
 50
90.0
  0
POINT
  5
2BE
330
2B3
100
AcDbEntity
  8
Defpoints
100
AcDbPoint
 10
-2000.0
 20
9980.0
 30
0.0
  0
POINT
  5
2BF
330
2B3
100
AcDbEntity
  8
Defpoints
100
AcDbPoint
 10
-230.0
 20
9980.0
 30
0.0
  0
POINT
  5
2C0
330
2B3
100
AcDbEntity
  8
Defpoints
100
AcDbPoint
 10
-230.0
 20
17080.0
 30
0.0
  0
ENDBLK
  5
2B5
330
2B3
100
AcDbEntity
  8
0
100
AcDbBlockEnd
  0
BLOCK
  5
2C3
330
2C2
100
AcDbEntity
  8
0
100
AcDbBlockBegin
  2
*D9
 70
1
 10
0.0
 20
0.0
 30
0.0
  3
*D9
  1

  0
LINE
  5
2C5
330
2C2
100
AcDbEntity
  8
0
 62
7
100
AcDbLine
 10
4880.0
 20
17250.0
 30
0.0
 11
4880.0
 21
1900.0
 31
0.0
  0
LINE
  5
2C6
330
2C2
100
AcDbEntity
  8
0
 62
7
100
AcDbLine
 10
7320.0
 20
17250.0
 30
0.0
 11
7320.0
 21
1900.0
 31
0.0
  0
INSERT
  5
2C7
330
2C2
100
AcDbEntity
  8
A-DIM
 62
7
100
AcDbBlockReference
  2
_ARCHTICK
 10
4880.0
 20
2000.0
 30
0.0
 41
140.0
 42
140.0
 50
180.0
  0
INSERT
  5
2C9
330
2C2
100
AcDbEntity
  8
A-DIM
 62
7
100
AcDbBlockReference
  2
_ARCHTICK
 10
7320.0
 20
2000.0
 30
0.0
 41
140.0
 42
140.0
  0
LINE
  5
2CB
330
2C2
100
AcDbEntity
  8
0
 62
7
100
AcDbLine
 10
4880.0
 20
2000.0
 30
0.0
 11
7320.0
 21
2000.0
 31
0.0
  0
MTEXT
  5
2CC
330
2C2
100
AcDbEntity
  8
A-DIM
 62
7
100
AcDbMText
 10
6100.0
 20
2230.0
 30
0.0
 40
160.0
 71
5
  1
2440 (COURTYARD)
  7
RV-ARCH
  0
POINT
  5
2CD
330
2C2
100
AcDbEntity
  8
Defpoints
100
AcDbPoint
 10
4880.0
 20
2000.0
 30
0.0
  0
POINT
  5
2CE
330
2C2
100
AcDbEntity
  8
Defpoints
100
AcDbPoint
 10
4880.0
 20
17310.0
 30
0.0
  0
POINT
  5
2CF
330
2C2
100
AcDbEntity
  8
Defpoints
100
AcDbPoint
 10
7320.0
 20
17310.0
 30
0.0
  0
ENDBLK
  5
2C4
330
2C2
100
AcDbEntity
  8
0
100
AcDbBlockEnd
  0
BLOCK
  5
2D2
330
2D1
100
AcDbEntity
  8
0
100
AcDbBlockBegin
  2
*D10
 70
1
 10
0.0
 20
0.0
 30
0.0
  3
*D10
  1

  0
LINE
  5
2D4
330
2D1
100
AcDbEntity
  8
0
 62
7
100
AcDbLine
 10
12370.0
 20
0.0
 30
0.0
 11
1900.0
 21
0.0
 31
0.0
  0
LINE
  5
2D5
330
2D1
100
AcDbEntity
  8
0
 62
7
100
AcDbLine
 10
12370.0
 20
17080.0
 30
0.0
 11
1900.0
 21
17080.0
 31
0.0
  0
INSERT
  5
2D6
330
2D1
100
AcDbEntity
  8
A-DIM
 62
7
100
AcDbBlockReference
  2
_ARCHTICK
 10
2000.0
 20
0.0
 30
0.0
 41
140.0
 42
140.0
 50
270.0
  0
INSERT
  5
2D8
330
2D1
100
AcDbEntity
  8
A-DIM
 62
7
100
AcDbBlockReference
  2
_ARCHTICK
 10
2000.0
 20
17080.0
 30
0.0
 41
140.0
 42
140.0
 50
90.0
  0
LINE
  5
2DA
330
2D1
100
AcDbEntity
  8
0
 62
7
100
AcDbLine
 10
2000.0
 20
0.0
 30
0.0
 11
2000.0
 21
17080.0
 31
0.0
  0
MTEXT
  5
2DB
330
2D1
100
AcDbEntity
  8
A-DIM
 62
7
100
AcDbMText
 10
1870.0
 20
8540.0
 30
0.0
 40
160.0
 71
5
  1
17080
  7
RV-ARCH
 50
90.0
  0
POINT
  5
2DC
330
2D1
100
AcDbEntity
  8
Defpoints
100
AcDbPoint
 10
2000.0
 20
0.0
 30
0.0
  0
POINT
  5
2DD
330
2D1
100
AcDbEntity
  8
Defpoints
100
AcDbPoint
 10
12430.0
 20
0.0
 30
0.0
  0
POINT
  5
2DE
330
2D1
100
AcDbEntity
  8
Defpoints
100
AcDbPoint
 10
12430.0
 20
17080.0
 30
0.0
  0
ENDBLK
  5
2D3
330
2D1
100
AcDbEntity
  8
0
100
AcDbBlockEnd
  0
BLOCK
  5
2E1
330
2E0
100
AcDbEntity
  8
0
100
AcDbBlockBegin
  2
*D11
 70
1
 10
0.0
 20
0.0
 30
0.0
  3
*D11
  1

  0
LINE
  5
2E3
330
2E0
100
AcDbEntity
  8
0
 62
7
100
AcDbLine
 10
4820.0
 20
4880.0
 30
0.0
 11
1100.0
 21
4880.0
 31
0.0
  0
LINE
  5
2E4
330
2E0
100
AcDbEntity
  8
0
 62
7
100
AcDbLine
 10
4820.0
 20
17080.0
 30
0.0
 11
1100.0
 21
17080.0
 31
0.0
  0
INSERT
  5
2E5
330
2E0
100
AcDbEntity
  8
A-DIM
 62
7
100
AcDbBlockReference
  2
_ARCHTICK
 10
1200.0
 20
4880.0
 30
0.0
 41
140.0
 42
140.0
 50
270.0
  0
INSERT
  5
2E7
330
2E0
100
AcDbEntity
  8
A-DIM
 62
7
100
AcDbBlockReference
  2
_ARCHTICK
 10
1200.0
 20
17080.0
 30
0.0
 41
140.0
 42
140.0
 50
90.0
  0
LINE
  5
2E9
330
2E0
100
AcDbEntity
  8
0
 62
7
100
AcDbLine
 10
1200.0
 20
4880.0
 30
0.0
 11
1200.0
 21
17080.0
 31
0.0
  0
MTEXT
  5
2EA
330
2E0
100
AcDbEntity
  8
A-DIM
 62
7
100
AcDbMText
 10
1070.0
 20
10980.0
 30
0.0
 40
160.0
 71
5
  1
12200
  7
RV-ARCH
 50
90.0
  0
POINT
  5
2EB
330
2E0
100
AcDbEntity
  8
Defpoints
100
AcDbPoint
 10
1200.0
 20
4880.0
 30
0.0
  0
POINT
  5
2EC
330
2E0
100
AcDbEntity
  8
Defpoints
100
AcDbPoint
 10
4880.0
 20
4880.0
 30
0.0
  0
POINT
  5
2ED
330
2E0
100
AcDbEntity
  8
Defpoints
100
AcDbPoint
 10
4880.0
 20
17080.0
 30
0.0
  0
ENDBLK
  5
2E2
330
2E0
100
AcDbEntity
  8
0
100
AcDbBlockEnd
  0
BLOCK
  5
2F0
330
2EF
100
AcDbEntity
  8
0
100
AcDbBlockBegin
  2
*D12
 70
1
 10
0.0
 20
0.0
 30
0.0
  3
*D12
  1

  0
LINE
  5
2F2
330
2EF
100
AcDbEntity
  8
0
 62
7
100
AcDbLine
 10
13700.0
 20
6820.0
 30
0.0
 11
13700.0
 21
-1600.0
 31
0.0
  0
LINE
  5
2F3
330
2EF
100
AcDbEntity
  8
0
 62
7
100
AcDbLine
 10
16140.0
 20
6820.0
 30
0.0
 11
16140.0
 21
-1600.0
 31
0.0
  0
INSERT
  5
2F4
330
2EF
100
AcDbEntity
  8
A-DIM
 62
7
100
AcDbBlockReference
  2
_ARCHTICK
 10
13700.0
 20
-1500.0
 30
0.0
 41
140.0
 42
140.0
 50
180.0
  0
INSERT
  5
2F6
330
2EF
100
AcDbEntity
  8
A-DIM
 62
7
100
AcDbBlockReference
  2
_ARCHTICK
 10
16140.0
 20
-1500.0
 30
0.0
 41
140.0
 42
140.0
  0
LINE
  5
2F8
330
2EF
100
AcDbEntity
  8
0
 62
7
100
AcDbLine
 10
13700.0
 20
-1500.0
 30
0.0
 11
16140.0
 21
-1500.0
 31
0.0
  0
MTEXT
  5
2F9
330
2EF
100
AcDbEntity
  8
A-DIM
 62
7
100
AcDbMText
 10
14920.0
 20
-1370.0
 30
0.0
 40
160.0
 71
5
  1
2440
  7
RV-ARCH
  0
POINT
  5
2FA
330
2EF
100
AcDbEntity
  8
Defpoints
100
AcDbPoint
 10
13700.0
 20
-1500.0
 30
0.0
  0
POINT
  5
2FB
330
2EF
100
AcDbEntity
  8
Defpoints
100
AcDbPoint
 10
13700.0
 20
6880.0
 30
0.0
  0
POINT
  5
2FC
330
2EF
100
AcDbEntity
  8
Defpoints
100
AcDbPoint
 10
16140.0
 20
6880.0
 30
0.0
  0
ENDBLK
  5
2F1
330
2EF
100
AcDbEntity
  8
0
100
AcDbBlockEnd
  0
BLOCK
  5
2FF
330
2FE
100
AcDbEntity
  8
0
100
AcDbBlockBegin
  2
*D13
 70
1
 10
0.0
 20
0.0
 30
0.0
  3
*D13
  1

  0
LINE
  5
301
330
2FE
100
AcDbEntity
  8
0
 62
7
100
AcDbLine
 10
16080.0
 20
6880.0
 30
0.0
 11
1400.0
 21
6880.0
 31
0.0
  0
LINE
  5
302
330
2FE
100
AcDbEntity
  8
0
 62
7
100
AcDbLine
 10
16080.0
 20
12980.0
 30
0.0
 11
1400.0
 21
12980.0
 31
0.0
  0
INSERT
  5
303
330
2FE
100
AcDbEntity
  8
A-DIM
 62
7
100
AcDbBlockReference
  2
_ARCHTICK
 10
1500.0
 20
6880.0
 30
0.0
 41
140.0
 42
140.0
 50
270.0
  0
INSERT
  5
305
330
2FE
100
AcDbEntity
  8
A-DIM
 62
7
100
AcDbBlockReference
  2
_ARCHTICK
 10
1500.0
 20
12980.0
 30
0.0
 41
140.0
 42
140.0
 50
90.0
  0
LINE
  5
307
330
2FE
100
AcDbEntity
  8
0
 62
7
100
AcDbLine
 10
1500.0
 20
6880.0
 30
0.0
 11
1500.0
 21
12980.0
 31
0.0
  0
MTEXT
  5
308
330
2FE
100
AcDbEntity
  8
A-DIM
 62
7
100
AcDbMText
 10
1370.0
 20
9930.0
 30
0.0
 40
160.0
 71
5
  1
6100
  7
RV-ARCH
 50
90.0
  0
POINT
  5
309
330
2FE
100
AcDbEntity
  8
Defpoints
100
AcDbPoint
 10
1500.0
 20
6880.0
 30
0.0
  0
POINT
  5
30A
330
2FE
100
AcDbEntity
  8
Defpoints
100
AcDbPoint
 10
16140.0
 20
6880.0
 30
0.0
  0
POINT
  5
30B
330
2FE
100
AcDbEntity
  8
Defpoints
100
AcDbPoint
 10
16140.0
 20
12980.0
 30
0.0
  0
ENDBLK
  5
300
330
2FE
100
AcDbEntity
  8
0
100
AcDbBlockEnd
  0
ENDSEC
  0
SECTION
  2
ENTITIES
  0
LWPOLYLINE
  5
AB
330
17
100
AcDbEntity
  8
A-SHEET
100
AcDbPolyline
 90
4
 70
1
 10
-10000.0
 20
-12000.0
 10
74100.0
 20
-12000.0
 10
74100.0
 20
47400.0
 10
-10000.0
 20
47400.0
  0
LWPOLYLINE
  5
AC
330
17
100
AcDbEntity
  8
A-SHEET
100
AcDbPolyline
 90
4
 70
1
 10
-7500.0
 20
-10500.0
 10
72600.0
 20
-10500.0
 10
72600.0
 20
45900.0
 10
-7500.0
 20
45900.0
  0
LWPOLYLINE
  5
AD
330
17
100
AcDbEntity
  8
A-CONT-MOD
100
AcDbPolyline
 90
4
 70
1
 10
0.0
 20
0.0
 10
12200.0
 20
0.0
 10
12200.0
 20
2440.0
 10
0.0
 20
2440.0
  0
LWPOLYLINE
  5
AE
330
17
100
AcDbEntity
  8
A-CONT-MOD
100
AcDbPolyline
 90
4
 70
1
 10
750.0
 20
1650.0
 10
1450.0
 20
1650.0
 10
1450.0
 20
2150.0
 10
750.0
 20
2150.0
  0
TEXT
  5
AF
330
17
100
AcDbEntity
  8
A-TEXT-MED
100
AcDbText
 10
1100.0
 20
1900.0
 30
0.0
 40
260.0
  1
C1
  7
RV-TITLE
 72
1
 11
1100.0
 21
1900.0
 31
0.0
100
AcDbText
 73
2
  0
LWPOLYLINE
  5
B0
330
17
100
AcDbEntity
  8
A-CONT-MOD
100
AcDbPolyline
 90
4
 70
1
 10
0.0
 20
2440.0
 10
12200.0
 20
2440.0
 10
12200.0
 20
4880.0
 10
0.0
 20
4880.0
  0
LWPOLYLINE
  5
B1
330
17
100
AcDbEntity
  8
A-CONT-MOD
100
AcDbPolyline
 90
4
 70
1
 10
750.0
 20
4250.0
 10
1450.0
 20
4250.0
 10
1450.0
 20
4750.0
 10
750.0
 20
4750.0
  0
TEXT
  5
B2
330
17
100
AcDbEntity
  8
A-TEXT-MED
100
AcDbText
 10
1100.0
 20
4500.0
 30
0.0
 40
260.0
  1
C2
  7
RV-TITLE
 72
1
 11
1100.0
 21
4500.0
 31
0.0
100
AcDbText
 73
2
  0
LWPOLYLINE
  5
B3
330
17
100
AcDbEntity
  8
A-CONT-MOD
100
AcDbPolyline
 90
4
 70
1
 10
0.0
 20
4880.0
 10
2440.0
 20
4880.0
 10
2440.0
 20
17080.0
 10
0.0
 20
17080.0
  0
LWPOLYLINE
  5
B4
330
17
100
AcDbEntity
  8
A-CONT-MOD
100
AcDbPolyline
 90
4
 70
1
 10
850.0
 20
16250.0
 10
1550.0
 20
16250.0
 10
1550.0
 20
16750.0
 10
850.0
 20
16750.0
  0
TEXT
  5
B5
330
17
100
AcDbEntity
  8
A-TEXT-MED
100
AcDbText
 10
1200.0
 20
16500.0
 30
0.0
 40
260.0
  1
C3
  7
RV-TITLE
 72
1
 11
1200.0
 21
16500.0
 31
0.0
100
AcDbText
 73
2
  0
LWPOLYLINE
  5
B6
330
17
100
AcDbEntity
  8
A-CONT-MOD
100
AcDbPolyline
 90
4
 70
1
 10
2440.0
 20
4880.0
 10
4880.0
 20
4880.0
 10
4880.0
 20
17080.0
 10
2440.0
 20
17080.0
  0
LWPOLYLINE
  5
B7
330
17
100
AcDbEntity
  8
A-CONT-MOD
100
AcDbPolyline
 90
4
 70
1
 10
3310.0
 20
16250.0
 10
4010.0
 20
16250.0
 10
4010.0
 20
16750.0
 10
3310.0
 20
16750.0
  0
TEXT
  5
B8
330
17
100
AcDbEntity
  8
A-TEXT-MED
100
AcDbText
 10
3660.0
 20
16500.0
 30
0.0
 40
260.0
  1
C4
  7
RV-TITLE
 72
1
 11
3660.0
 21
16500.0
 31
0.0
100
AcDbText
 73
2
  0
LWPOLYLINE
  5
B9
330
17
100
AcDbEntity
  8
A-CONT-MOD
100
AcDbPolyline
 90
4
 70
1
 10
9760.0
 20
4880.0
 10
12200.0
 20
4880.0
 10
12200.0
 20
17080.0
 10
9760.0
 20
17080.0
  0
LWPOLYLINE
  5
BA
330
17
100
AcDbEntity
  8
A-CONT-MOD
100
AcDbPolyline
 90
4
 70
1
 10
10650.0
 20
16250.0
 10
11350.0
 20
16250.0
 10
11350.0
 20
16750.0
 10
10650.0
 20
16750.0
  0
TEXT
  5
BB
330
17
100
AcDbEntity
  8
A-TEXT-MED
100
AcDbText
 10
11000.0
 20
16500.0
 30
0.0
 40
260.0
  1
C5
  7
RV-TITLE
 72
1
 11
11000.0
 21
16500.0
 31
0.0
100
AcDbText
 73
2
  0
LWPOLYLINE
  5
BC
330
17
100
AcDbEntity
  8
A-CONT-MOD
100
AcDbPolyline
 90
4
 70
1
 10
7320.0
 20
4880.0
 10
9760.0
 20
4880.0
 10
9760.0
 20
17080.0
 10
7320.0
 20
17080.0
  0
LWPOLYLINE
  5
BD
330
17
100
AcDbEntity
  8
A-CONT-MOD
100
AcDbPolyline
 90
4
 70
1
 10
8190.0
 20
16250.0
 10
8890.0
 20
16250.0
 10
8890.0
 20
16750.0
 10
8190.0
 20
16750.0
  0
TEXT
  5
BE
330
17
100
AcDbEntity
  8
A-TEXT-MED
100
AcDbText
 10
8540.0
 20
16500.0
 30
0.0
 40
260.0
  1
C6
  7
RV-TITLE
 72
1
 11
8540.0
 21
16500.0
 31
0.0
100
AcDbText
 73
2
  0
LWPOLYLINE
  5
BF
330
17
100
AcDbEntity
  8
A-CONT-MOD
100
AcDbPolyline
 90
4
 70
1
 10
13700.0
 20
6880.0
 10
16140.0
 20
6880.0
 10
16140.0
 20
12980.0
 10
13700.0
 20
12980.0
  0
LWPOLYLINE
  5
C0
330
17
100
AcDbEntity
  8
A-CONT-MOD
100
AcDbPolyline
 90
4
 70
1
 10
14570.0
 20
12250.0
 10
15270.0
 20
12250.0
 10
15270.0
 20
12750.0
 10
14570.0
 20
12750.0
  0
TEXT
  5
C1
330
17
100
AcDbEntity
  8
A-TEXT-MED
100
AcDbText
 10
14920.0
 20
12500.0
 30
0.0
 40
260.0
  1
C7
  7
RV-TITLE
 72
1
 11
14920.0
 21
12500.0
 31
0.0
100
AcDbText
 73
2
  0
LWPOLYLINE
  5
C2
330
17
100
AcDbEntity
  8
A-WALL-EXT
100
AcDbPolyline
 90
12
 70
1
 10
-230.0
 20
-230.0
 10
12430.0
 20
-230.0
 10
12430.0
 20
17310.0
 10
9530.0
 20
17310.0
 10
9530.0
 20
17080.0
 10
7550.0
 20
17080.0
 10
7550.0
 20
5110.0
 10
4650.0
 20
5110.0
 10
4650.0
 20
17080.0
 10
2670.0
 20
17080.0
 10
2670.0
 20
17310.0
 10
-230.0
 20
17310.0
  0
LWPOLYLINE
  5
C3
330
17
100
AcDbEntity
  8
A-WALL-EXT
100
AcDbPolyline
 90
10
 70
1
 10
0.0
 20
0.0
 10
12200.0
 20
0.0
 10
12200.0
 20
17080.0
 10
9760.0
 20
17080.0
 10
7320.0
 20
17080.0
 10
7320.0
 20
4880.0
 10
4880.0
 20
4880.0
 10
4880.0
 20
17080.0
 10
2440.0
 20
17080.0
 10
0.0
 20
17080.0
  0
HATCH
  5
C4
330
17
100
AcDbEntity
  8
A-HATCH-WALL
 62
7
100
AcDbHatch
 10
0.0
 20
0.0
 30
0.0
210
0.0
220
0.0
230
1.0
  2
ANSI31
 70
0
 71
0
 91
2
 92
3
 72
0
 73
1
 93
12
 10
-230.0
 20
-230.0
 10
12430.0
 20
-230.0
 10
12430.0
 20
17310.0
 10
9530.0
 20
17310.0
 10
9530.0
 20
17080.0
 10
7550.0
 20
17080.0
 10
7550.0
 20
5110.0
 10
4650.0
 20
5110.0
 10
4650.0
 20
17080.0
 10
2670.0
 20
17080.0
 10
2670.0
 20
17310.0
 10
-230.0
 20
17310.0
 97
0
 92
2
 72
0
 73
1
 93
10
 10
0.0
 20
0.0
 10
12200.0
 20
0.0
 10
12200.0
 20
17080.0
 10
9760.0
 20
17080.0
 10
7320.0
 20
17080.0
 10
7320.0
 20
4880.0
 10
4880.0
 20
4880.0
 10
4880.0
 20
17080.0
 10
2440.0
 20
17080.0
 10
0.0
 20
17080.0
 97
0
 75
1
 76
1
 52
45.0
 41
30.0
 77
0
 78
1
 53
90.0
 43
0.0
 44
0.0
 45
-95.2500000014
 46
0.0
 79
0
 98
0
  0
LWPOLYLINE
  5
C5
330
17
100
AcDbEntity
  8
A-WALL-EXT
100
AcDbPolyline
 90
4
 70
1
 10
13470.0
 20
6650.0
 10
16370.0
 20
6650.0
 10
16370.0
 20
13210.0
 10
13470.0
 20
13210.0
  0
LWPOLYLINE
  5
C6
330
17
100
AcDbEntity
  8
A-WALL-EXT
100
AcDbPolyline
 90
4
 70
1
 10
13700.0
 20
6880.0
 10
16140.0
 20
6880.0
 10
16140.0
 20
12980.0
 10
13700.0
 20
12980.0
  0
HATCH
  5
C7
330
17
100
AcDbEntity
  8
A-HATCH-WALL
 62
7
100
AcDbHatch
 10
0.0
 20
0.0
 30
0.0
210
0.0
220
0.0
230
1.0
  2
ANSI31
 70
0
 71
0
 91
2
 92
3
 72
0
 73
1
 93
4
 10
13470.0
 20
6650.0
 10
16370.0
 20
6650.0
 10
16370.0
 20
13210.0
 10
13470.0
 20
13210.0
 97
0
 92
2
 72
0
 73
1
 93
4
 10
13700.0
 20
6880.0
 10
16140.0
 20
6880.0
 10
16140.0
 20
12980.0
 10
13700.0
 20
12980.0
 97
0
 75
1
 76
1
 52
45.0
 41
30.0
 77
0
 78
1
 53
90.0
 43
0.0
 44
0.0
 45
-95.2500000014
 46
0.0
 79
0
 98
0
  0
LINE
  5
C8
330
17
100
AcDbEntity
  8
A-WALL-INT
100
AcDbLine
 10
0.0
 20
2526.25
 30
0.0
 11
12200.0
 21
2526.25
 31
0.0
  0
LINE
  5
C9
330
17
100
AcDbEntity
  8
A-WALL-INT
100
AcDbLine
 10
0.0
 20
2353.75
 30
0.0
 11
12200.0
 21
2353.75
 31
0.0
  0
LINE
  5
CA
330
17
100
AcDbEntity
  8
A-WALL-INT
100
AcDbLine
 10
2942.5
 20
0.0
 30
0.0
 11
2942.5
 21
2440.0
 31
0.0
  0
LINE
  5
CB
330
17
100
AcDbEntity
  8
A-WALL-INT
100
AcDbLine
 10
3057.5
 20
0.0
 30
0.0
 11
3057.5
 21
2440.0
 31
0.0
  0
LINE
  5
CC
330
17
100
AcDbEntity
  8
A-WALL-INT
100
AcDbLine
 10
6042.5
 20
2440.0
 30
0.0
 11
6042.5
 21
4880.0
 31
0.0
  0
LINE
  5
CD
330
17
100
AcDbEntity
  8
A-WALL-INT
100
AcDbLine
 10
6157.5
 20
2440.0
 30
0.0
 11
6157.5
 21
4880.0
 31
0.0
  0
LINE
  5
CE
330
17
100
AcDbEntity
  8
A-WALL-INT
100
AcDbLine
 10
2353.75
 20
4880.0
 30
0.0
 11
2353.75
 21
17080.0
 31
0.0
  0
LINE
  5
CF
330
17
100
AcDbEntity
  8
A-WALL-INT
100
AcDbLine
 10
2526.25
 20
4880.0
 30
0.0
 11
2526.25
 21
17080.0
 31
0.0
  0
LINE
  5
D0
330
17
100
AcDbEntity
  8
A-WALL-INT
100
AcDbLine
 10
9673.75
 20
4880.0
 30
0.0
 11
9673.75
 21
17080.0
 31
0.0
  0
LINE
  5
D1
330
17
100
AcDbEntity
  8
A-WALL-INT
100
AcDbLine
 10
9846.25
 20
4880.0
 30
0.0
 11
9846.25
 21
17080.0
 31
0.0
  0
LINE
  5
D2
330
17
100
AcDbEntity
  8
A-WALL-INT
100
AcDbLine
 10
2440.0
 20
7557.5
 30
0.0
 11
4880.0
 21
7557.5
 31
0.0
  0
LINE
  5
D3
330
17
100
AcDbEntity
  8
A-WALL-INT
100
AcDbLine
 10
2440.0
 20
7442.5
 30
0.0
 11
4880.0
 21
7442.5
 31
0.0
  0
LINE
  5
D4
330
17
100
AcDbEntity
  8
A-WALL-INT
100
AcDbLine
 10
2440.0
 20
10037.5
 30
0.0
 11
4880.0
 21
10037.5
 31
0.0
  0
LINE
  5
D5
330
17
100
AcDbEntity
  8
A-WALL-INT
100
AcDbLine
 10
2440.0
 20
9922.5
 30
0.0
 11
4880.0
 21
9922.5
 31
0.0
  0
LINE
  5
D6
330
17
100
AcDbEntity
  8
A-WALL-INT
100
AcDbLine
 10
3602.5
 20
9980.0
 30
0.0
 11
3602.5
 21
12500.0
 31
0.0
  0
LINE
  5
D7
330
17
100
AcDbEntity
  8
A-WALL-INT
100
AcDbLine
 10
3717.5
 20
9980.0
 30
0.0
 11
3717.5
 21
12500.0
 31
0.0
  0
LINE
  5
D8
330
17
100
AcDbEntity
  8
A-WALL-INT
100
AcDbLine
 10
9760.0
 20
13737.5
 30
0.0
 11
12200.0
 21
13737.5
 31
0.0
  0
LINE
  5
D9
330
17
100
AcDbEntity
  8
A-WALL-INT
100
AcDbLine
 10
9760.0
 20
13622.5
 30
0.0
 11
12200.0
 21
13622.5
 31
0.0
  0
LINE
  5
DA
330
17
100
AcDbEntity
  8
A-WALL-INT
100
AcDbLine
 10
7320.0
 20
13737.5
 30
0.0
 11
9760.0
 21
13737.5
 31
0.0
  0
LINE
  5
DB
330
17
100
AcDbEntity
  8
A-WALL-INT
100
AcDbLine
 10
7320.0
 20
13622.5
 30
0.0
 11
9760.0
 21
13622.5
 31
0.0
  0
LINE
  5
DC
330
17
100
AcDbEntity
  8
A-WALL-INT
100
AcDbLine
 10
7320.0
 20
11257.5
 30
0.0
 11
9760.0
 21
11257.5
 31
0.0
  0
LINE
  5
DD
330
17
100
AcDbEntity
  8
A-WALL-INT
100
AcDbLine
 10
7320.0
 20
11142.5
 30
0.0
 11
9760.0
 21
11142.5
 31
0.0
  0
LINE
  5
DE
330
17
100
AcDbEntity
  8
A-WALL-INT
100
AcDbLine
 10
7320.0
 20
8457.5
 30
0.0
 11
9760.0
 21
8457.5
 31
0.0
  0
LINE
  5
DF
330
17
100
AcDbEntity
  8
A-WALL-INT
100
AcDbLine
 10
7320.0
 20
8342.5
 30
0.0
 11
9760.0
 21
8342.5
 31
0.0
  0
LINE
  5
E0
330
17
100
AcDbEntity
  8
A-WALL-INT
100
AcDbLine
 10
0.0
 20
10037.5
 30
0.0
 11
2440.0
 21
10037.5
 31
0.0
  0
LINE
  5
E1
330
17
100
AcDbEntity
  8
A-WALL-INT
100
AcDbLine
 10
0.0
 20
9922.5
 30
0.0
 11
2440.0
 21
9922.5
 31
0.0
  0
LINE
  5
E2
330
17
100
AcDbEntity
  8
A-DOOR
100
AcDbLine
 10
1500.0
 20
0.0
 30
0.0
 11
1500.0
 21
1100.0
 31
0.0
  0
ARC
  5
E3
330
17
100
AcDbEntity
  8
A-DOOR
100
AcDbCircle
 10
1500.0
 20
0.0
 30
0.0
 40
1100.0
100
AcDbArc
 50
0.0
 51
90.0
  0
LINE
  5
E4
330
17
100
AcDbEntity
  8
A-DOOR
100
AcDbLine
 10
3000.0
 20
1200.0
 30
0.0
 11
3900.0
 21
1200.0
 31
0.0
  0
ARC
  5
E5
330
17
100
AcDbEntity
  8
A-DOOR
100
AcDbCircle
 10
3000.0
 20
1200.0
 30
0.0
 40
900.0
100
AcDbArc
 50
0.0
 51
90.0
  0
LINE
  5
E6
330
17
100
AcDbEntity
  8
A-DOOR
100
AcDbLine
 10
2440.0
 20
9980.0
 30
0.0
 11
3340.0
 21
9980.0
 31
0.0
  0
ARC
  5
E7
330
17
100
AcDbEntity
  8
A-DOOR
100
AcDbCircle
 10
2440.0
 20
9980.0
 30
0.0
 40
900.0
100
AcDbArc
 50
270.0
 51
360.0
  0
LINE
  5
E8
330
17
100
AcDbEntity
  8
A-DOOR
100
AcDbLine
 10
3660.0
 20
9980.0
 30
0.0
 11
3660.0
 21
10780.0
 31
0.0
  0
ARC
  5
E9
330
17
100
AcDbEntity
  8
A-DOOR
100
AcDbCircle
 10
3660.0
 20
9980.0
 30
0.0
 40
800.0
100
AcDbArc
 50
0.0
 51
90.0
  0
LINE
  5
EA
330
17
100
AcDbEntity
  8
A-DOOR
100
AcDbLine
 10
3660.0
 20
11700.0
 30
0.0
 11
3660.0
 21
12500.0
 31
0.0
  0
ARC
  5
EB
330
17
100
AcDbEntity
  8
A-DOOR
100
AcDbCircle
 10
3660.0
 20
11700.0
 30
0.0
 40
800.0
100
AcDbArc
 50
0.0
 51
90.0
  0
LINE
  5
EC
330
17
100
AcDbEntity
  8
A-DOOR
100
AcDbLine
 10
11300.0
 20
13680.0
 30
0.0
 11
11300.0
 21
14580.0
 31
0.0
  0
ARC
  5
ED
330
17
100
AcDbEntity
  8
A-DOOR
100
AcDbCircle
 10
11300.0
 20
13680.0
 30
0.0
 40
900.0
100
AcDbArc
 50
180.0
 51
270.0
  0
LINE
  5
EE
330
17
100
AcDbEntity
  8
A-DOOR
100
AcDbLine
 10
8500.0
 20
13680.0
 30
0.0
 11
8500.0
 21
12880.0
 31
0.0
  0
ARC
  5
EF
330
17
100
AcDbEntity
  8
A-DOOR
100
AcDbCircle
 10
8500.0
 20
13680.0
 30
0.0
 40
800.0
100
AcDbArc
 50
90.0
 51
180.0
  0
LINE
  5
F0
330
17
100
AcDbEntity
  8
A-DOOR
100
AcDbLine
 10
8200.0
 20
8400.0
 30
0.0
 11
8200.0
 21
9100.0
 31
0.0
  0
ARC
  5
F1
330
17
100
AcDbEntity
  8
A-DOOR
100
AcDbCircle
 10
8200.0
 20
8400.0
 30
0.0
 40
700.0
100
AcDbArc
 50
180.0
 51
270.0
  0
LINE
  5
F2
330
17
100
AcDbEntity
  8
A-DOOR
100
AcDbLine
 10
14200.0
 20
6880.0
 30
0.0
 11
14200.0
 21
7780.0
 31
0.0
  0
ARC
  5
F3
330
17
100
AcDbEntity
  8
A-DOOR
100
AcDbCircle
 10
14200.0
 20
6880.0
 30
0.0
 40
900.0
100
AcDbArc
 50
0.0
 51
90.0
  0
CIRCLE
  5
F4
330
17
100
AcDbEntity
  8
A-TAG
100
AcDbCircle
 10
1500.0
 20
-500.0
 30
0.0
 40
320.0
  0
TEXT
  5
F5
330
17
100
AcDbEntity
  8
A-TAG
100
AcDbText
 10
1500.0
 20
-500.0
 30
0.0
 40
180.0
  1
D01
  7
RV-TITLE
 72
1
 11
1500.0
 21
-500.0
 31
0.0
100
AcDbText
 73
2
  0
CIRCLE
  5
F6
330
17
100
AcDbEntity
  8
A-TAG
100
AcDbCircle
 10
3450.0
 20
700.0
 30
0.0
 40
320.0
  0
TEXT
  5
F7
330
17
100
AcDbEntity
  8
A-TAG
100
AcDbText
 10
3450.0
 20
700.0
 30
0.0
 40
180.0
  1
D02
  7
RV-TITLE
 72
1
 11
3450.0
 21
700.0
 31
0.0
100
AcDbText
 73
2
  0
CIRCLE
  5
F8
330
17
100
AcDbEntity
  8
A-TAG
100
AcDbCircle
 10
2890.0
 20
9450.0
 30
0.0
 40
320.0
  0
TEXT
  5
F9
330
17
100
AcDbEntity
  8
A-TAG
100
AcDbText
 10
2890.0
 20
9450.0
 30
0.0
 40
180.0
  1
D03
  7
RV-TITLE
 72
1
 11
2890.0
 21
9450.0
 31
0.0
100
AcDbText
 73
2
  0
CIRCLE
  5
FA
330
17
100
AcDbEntity
  8
A-TAG
100
AcDbCircle
 10
3260.0
 20
10380.0
 30
0.0
 40
320.0
  0
TEXT
  5
FB
330
17
100
AcDbEntity
  8
A-TAG
100
AcDbText
 10
3260.0
 20
10380.0
 30
0.0
 40
180.0
  1
D04
  7
RV-TITLE
 72
1
 11
3260.0
 21
10380.0
 31
0.0
100
AcDbText
 73
2
  0
CIRCLE
  5
FC
330
17
100
AcDbEntity
  8
A-TAG
100
AcDbCircle
 10
3260.0
 20
12100.0
 30
0.0
 40
320.0
  0
TEXT
  5
FD
330
17
100
AcDbEntity
  8
A-TAG
100
AcDbText
 10
3260.0
 20
12100.0
 30
0.0
 40
180.0
  1
D05
  7
RV-TITLE
 72
1
 11
3260.0
 21
12100.0
 31
0.0
100
AcDbText
 73
2
  0
CIRCLE
  5
FE
330
17
100
AcDbEntity
  8
A-TAG
100
AcDbCircle
 10
10850.0
 20
14130.0
 30
0.0
 40
320.0
  0
TEXT
  5
FF
330
17
100
AcDbEntity
  8
A-TAG
100
AcDbText
 10
10850.0
 20
14130.0
 30
0.0
 40
180.0
  1
D06
  7
RV-TITLE
 72
1
 11
10850.0
 21
14130.0
 31
0.0
100
AcDbText
 73
2
  0
CIRCLE
  5
100
330
17
100
AcDbEntity
  8
A-TAG
100
AcDbCircle
 10
8050.0
 20
13280.0
 30
0.0
 40
320.0
  0
TEXT
  5
101
330
17
100
AcDbEntity
  8
A-TAG
100
AcDbText
 10
8050.0
 20
13280.0
 30
0.0
 40
180.0
  1
D07
  7
RV-TITLE
 72
1
 11
8050.0
 21
13280.0
 31
0.0
100
AcDbText
 73
2
  0
CIRCLE
  5
102
330
17
100
AcDbEntity
  8
A-TAG
100
AcDbCircle
 10
7800.0
 20
8800.0
 30
0.0
 40
320.0
  0
TEXT
  5
103
330
17
100
AcDbEntity
  8
A-TAG
100
AcDbText
 10
7800.0
 20
8800.0
 30
0.0
 40
180.0
  1
D08
  7
RV-TITLE
 72
1
 11
7800.0
 21
8800.0
 31
0.0
100
AcDbText
 73
2
  0
CIRCLE
  5
104
330
17
100
AcDbEntity
  8
A-TAG
100
AcDbCircle
 10
13700.0
 20
7330.0
 30
0.0
 40
320.0
  0
TEXT
  5
105
330
17
100
AcDbEntity
  8
A-TAG
100
AcDbText
 10
13700.0
 20
7330.0
 30
0.0
 40
180.0
  1
D09
  7
RV-TITLE
 72
1
 11
13700.0
 21
7330.0
 31
0.0
100
AcDbText
 73
2
  0
LINE
  5
106
330
17
100
AcDbEntity
  8
A-DOOR
100
AcDbLine
 10
4500.0
 20
-70.0
 30
0.0
 11
11700.0
 21
-70.0
 31
0.0
  0
LINE
  5
107
330
17
100
AcDbEntity
  8
A-DOOR
100
AcDbLine
 10
4500.0
 20
70.0
 30
0.0
 11
11700.0
 21
70.0
 31
0.0
  0
LINE
  5
108
330
17
100
AcDbEntity
  8
A-DOOR
100
AcDbLine
 10
4500.0
 20
35.0
 30
0.0
 11
8150.0
 21
35.0
 31
0.0
  0
LINE
  5
109
330
17
100
AcDbEntity
  8
A-DOOR
100
AcDbLine
 10
8050.0
 20
-35.0
 30
0.0
 11
11700.0
 21
-35.0
 31
0.0
  0
LINE
  5
10A
330
17
100
AcDbEntity
  8
A-DOOR
100
AcDbLine
 10
8300.0
 20
35.0
 30
0.0
 11
8080.0
 21
145.0
 31
0.0
  0
LINE
  5
10B
330
17
100
AcDbEntity
  8
A-DOOR
100
AcDbLine
 10
8300.0
 20
35.0
 30
0.0
 11
8080.0
 21
-75.0
 31
0.0
  0
CIRCLE
  5
10C
330
17
100
AcDbEntity
  8
A-TAG
100
AcDbCircle
 10
8100.0
 20
-800.0
 30
0.0
 40
320.0
  0
TEXT
  5
10D
330
17
100
AcDbEntity
  8
A-TAG
100
AcDbText
 10
8100.0
 20
-800.0
 30
0.0
 40
180.0
  1
D10
  7
RV-TITLE
 72
1
 11
8100.0
 21
-800.0
 31
0.0
100
AcDbText
 73
2
  0
LINE
  5
10E
330
17
100
AcDbEntity
  8
A-DOOR
100
AcDbLine
 10
800.0
 20
4810.0
 30
0.0
 11
3200.0
 21
4810.0
 31
0.0
  0
LINE
  5
10F
330
17
100
AcDbEntity
  8
A-DOOR
100
AcDbLine
 10
800.0
 20
4950.0
 30
0.0
 11
3200.0
 21
4950.0
 31
0.0
  0
LINE
  5
110
330
17
100
AcDbEntity
  8
A-DOOR
100
AcDbLine
 10
800.0
 20
4915.0
 30
0.0
 11
2050.0
 21
4915.0
 31
0.0
  0
LINE
  5
111
330
17
100
AcDbEntity
  8
A-DOOR
100
AcDbLine
 10
1950.0
 20
4845.0
 30
0.0
 11
3200.0
 21
4845.0
 31
0.0
  0
LINE
  5
112
330
17
100
AcDbEntity
  8
A-DOOR
100
AcDbLine
 10
2200.0
 20
4915.0
 30
0.0
 11
1980.0
 21
5025.0
 31
0.0
  0
LINE
  5
113
330
17
100
AcDbEntity
  8
A-DOOR
100
AcDbLine
 10
2200.0
 20
4915.0
 30
0.0
 11
1980.0
 21
4805.0
 31
0.0
  0
CIRCLE
  5
114
330
17
100
AcDbEntity
  8
A-TAG
100
AcDbCircle
 10
2000.0
 20
4080.0
 30
0.0
 40
320.0
  0
TEXT
  5
115
330
17
100
AcDbEntity
  8
A-TAG
100
AcDbText
 10
2000.0
 20
4080.0
 30
0.0
 40
180.0
  1
D11
  7
RV-TITLE
 72
1
 11
2000.0
 21
4080.0
 31
0.0
100
AcDbText
 73
2
  0
LINE
  5
116
330
17
100
AcDbEntity
  8
A-DOOR
100
AcDbLine
 10
8500.0
 20
4810.0
 30
0.0
 11
11400.0
 21
4810.0
 31
0.0
  0
LINE
  5
117
330
17
100
AcDbEntity
  8
A-DOOR
100
AcDbLine
 10
8500.0
 20
4950.0
 30
0.0
 11
11400.0
 21
4950.0
 31
0.0
  0
LINE
  5
118
330
17
100
AcDbEntity
  8
A-DOOR
100
AcDbLine
 10
8500.0
 20
4915.0
 30
0.0
 11
10000.0
 21
4915.0
 31
0.0
  0
LINE
  5
119
330
17
100
AcDbEntity
  8
A-DOOR
100
AcDbLine
 10
9900.0
 20
4845.0
 30
0.0
 11
11400.0
 21
4845.0
 31
0.0
  0
LINE
  5
11A
330
17
100
AcDbEntity
  8
A-DOOR
100
AcDbLine
 10
10150.0
 20
4915.0
 30
0.0
 11
9930.0
 21
5025.0
 31
0.0
  0
LINE
  5
11B
330
17
100
AcDbEntity
  8
A-DOOR
100
AcDbLine
 10
10150.0
 20
4915.0
 30
0.0
 11
9930.0
 21
4805.0
 31
0.0
  0
CIRCLE
  5
11C
330
17
100
AcDbEntity
  8
A-TAG
100
AcDbCircle
 10
9950.0
 20
4080.0
 30
0.0
 40
320.0
  0
TEXT
  5
11D
330
17
100
AcDbEntity
  8
A-TAG
100
AcDbText
 10
9950.0
 20
4080.0
 30
0.0
 40
180.0
  1
D12
  7
RV-TITLE
 72
1
 11
9950.0
 21
4080.0
 31
0.0
100
AcDbText
 73
2
  0
LINE
  5
11E
330
17
100
AcDbEntity
  8
A-WINDOW
100
AcDbLine
 10
0.0
 20
11800.0
 30
0.0
 11
0.0
 21
16400.0
 31
0.0
  0
LINE
  5
11F
330
17
100
AcDbEntity
  8
A-WINDOW
100
AcDbLine
 10
60.0
 20
11800.0
 30
0.0
 11
60.0
 21
16400.0
 31
0.0
  0
LINE
  5
120
330
17
100
AcDbEntity
  8
A-WINDOW
100
AcDbLine
 10
-60.0
 20
11800.0
 30
0.0
 11
-60.0
 21
16400.0
 31
0.0
  0
LINE
  5
121
330
17
100
AcDbEntity
  8
A-WINDOW
100
AcDbLine
 10
-315.0
 20
11650.0
 30
0.0
 11
-315.0
 21
16550.0
 31
0.0
  0
CIRCLE
  5
122
330
17
100
AcDbEntity
  8
A-TAG
100
AcDbCircle
 10
-1015.0
 20
14100.0
 30
0.0
 40
320.0
  0
TEXT
  5
123
330
17
100
AcDbEntity
  8
A-TAG
100
AcDbText
 10
-1015.0
 20
14100.0
 30
0.0
 40
180.0
  1
W01
  7
RV-TITLE
 72
1
 11
-1015.0
 21
14100.0
 31
0.0
100
AcDbText
 73
2
  0
LINE
  5
124
330
17
100
AcDbEntity
  8
A-WINDOW
100
AcDbLine
 10
2440.0
 20
11800.0
 30
0.0
 11
2440.0
 21
16400.0
 31
0.0
  0
LINE
  5
125
330
17
100
AcDbEntity
  8
A-WINDOW
100
AcDbLine
 10
2500.0
 20
11800.0
 30
0.0
 11
2500.0
 21
16400.0
 31
0.0
  0
LINE
  5
126
330
17
100
AcDbEntity
  8
A-WINDOW
100
AcDbLine
 10
2380.0
 20
11800.0
 30
0.0
 11
2380.0
 21
16400.0
 31
0.0
  0
LINE
  5
127
330
17
100
AcDbEntity
  8
A-WINDOW
100
AcDbLine
 10
2755.0
 20
11650.0
 30
0.0
 11
2755.0
 21
16550.0
 31
0.0
  0
CIRCLE
  5
128
330
17
100
AcDbEntity
  8
A-TAG
100
AcDbCircle
 10
3455.0
 20
14100.0
 30
0.0
 40
320.0
  0
TEXT
  5
129
330
17
100
AcDbEntity
  8
A-TAG
100
AcDbText
 10
3455.0
 20
14100.0
 30
0.0
 40
180.0
  1
W02
  7
RV-TITLE
 72
1
 11
3455.0
 21
14100.0
 31
0.0
100
AcDbText
 73
2
  0
LINE
  5
12A
330
17
100
AcDbEntity
  8
A-WINDOW
100
AcDbLine
 10
0.0
 20
10300.0
 30
0.0
 11
0.0
 21
11400.0
 31
0.0
  0
LINE
  5
12B
330
17
100
AcDbEntity
  8
A-WINDOW
100
AcDbLine
 10
60.0
 20
10300.0
 30
0.0
 11
60.0
 21
11400.0
 31
0.0
  0
LINE
  5
12C
330
17
100
AcDbEntity
  8
A-WINDOW
100
AcDbLine
 10
-60.0
 20
10300.0
 30
0.0
 11
-60.0
 21
11400.0
 31
0.0
  0
LINE
  5
12D
330
17
100
AcDbEntity
  8
A-WINDOW
100
AcDbLine
 10
-315.0
 20
10150.0
 30
0.0
 11
-315.0
 21
11550.0
 31
0.0
  0
CIRCLE
  5
12E
330
17
100
AcDbEntity
  8
A-TAG
100
AcDbCircle
 10
-1015.0
 20
10850.0
 30
0.0
 40
320.0
  0
TEXT
  5
12F
330
17
100
AcDbEntity
  8
A-TAG
100
AcDbText
 10
-1015.0
 20
10850.0
 30
0.0
 40
180.0
  1
W03
  7
RV-TITLE
 72
1
 11
-1015.0
 21
10850.0
 31
0.0
100
AcDbText
 73
2
  0
LINE
  5
130
330
17
100
AcDbEntity
  8
A-WINDOW
100
AcDbLine
 10
0.0
 20
7800.0
 30
0.0
 11
0.0
 21
9500.0
 31
0.0
  0
LINE
  5
131
330
17
100
AcDbEntity
  8
A-WINDOW
100
AcDbLine
 10
60.0
 20
7800.0
 30
0.0
 11
60.0
 21
9500.0
 31
0.0
  0
LINE
  5
132
330
17
100
AcDbEntity
  8
A-WINDOW
100
AcDbLine
 10
-60.0
 20
7800.0
 30
0.0
 11
-60.0
 21
9500.0
 31
0.0
  0
LINE
  5
133
330
17
100
AcDbEntity
  8
A-WINDOW
100
AcDbLine
 10
-315.0
 20
7650.0
 30
0.0
 11
-315.0
 21
9650.0
 31
0.0
  0
CIRCLE
  5
134
330
17
100
AcDbEntity
  8
A-TAG
100
AcDbCircle
 10
-1015.0
 20
8650.0
 30
0.0
 40
320.0
  0
TEXT
  5
135
330
17
100
AcDbEntity
  8
A-TAG
100
AcDbText
 10
-1015.0
 20
8650.0
 30
0.0
 40
180.0
  1
W04
  7
RV-TITLE
 72
1
 11
-1015.0
 21
8650.0
 31
0.0
100
AcDbText
 73
2
  0
LINE
  5
136
330
17
100
AcDbEntity
  8
A-WINDOW
100
AcDbLine
 10
12200.0
 20
14000.0
 30
0.0
 11
12200.0
 21
16400.0
 31
0.0
  0
LINE
  5
137
330
17
100
AcDbEntity
  8
A-WINDOW
100
AcDbLine
 10
12260.0
 20
14000.0
 30
0.0
 11
12260.0
 21
16400.0
 31
0.0
  0
LINE
  5
138
330
17
100
AcDbEntity
  8
A-WINDOW
100
AcDbLine
 10
12140.0
 20
14000.0
 30
0.0
 11
12140.0
 21
16400.0
 31
0.0
  0
LINE
  5
139
330
17
100
AcDbEntity
  8
A-WINDOW
100
AcDbLine
 10
12515.0
 20
13850.0
 30
0.0
 11
12515.0
 21
16550.0
 31
0.0
  0
CIRCLE
  5
13A
330
17
100
AcDbEntity
  8
A-TAG
100
AcDbCircle
 10
13215.0
 20
15200.0
 30
0.0
 40
320.0
  0
TEXT
  5
13B
330
17
100
AcDbEntity
  8
A-TAG
100
AcDbText
 10
13215.0
 20
15200.0
 30
0.0
 40
180.0
  1
W05
  7
RV-TITLE
 72
1
 11
13215.0
 21
15200.0
 31
0.0
100
AcDbText
 73
2
  0
LINE
  5
13C
330
17
100
AcDbEntity
  8
A-WINDOW
100
AcDbLine
 10
9760.0
 20
14200.0
 30
0.0
 11
9760.0
 21
16400.0
 31
0.0
  0
LINE
  5
13D
330
17
100
AcDbEntity
  8
A-WINDOW
100
AcDbLine
 10
9820.0
 20
14200.0
 30
0.0
 11
9820.0
 21
16400.0
 31
0.0
  0
LINE
  5
13E
330
17
100
AcDbEntity
  8
A-WINDOW
100
AcDbLine
 10
9700.0
 20
14200.0
 30
0.0
 11
9700.0
 21
16400.0
 31
0.0
  0
LINE
  5
13F
330
17
100
AcDbEntity
  8
A-WINDOW
100
AcDbLine
 10
9445.0
 20
14050.0
 30
0.0
 11
9445.0
 21
16550.0
 31
0.0
  0
CIRCLE
  5
140
330
17
100
AcDbEntity
  8
A-TAG
100
AcDbCircle
 10
8745.0
 20
15300.0
 30
0.0
 40
320.0
  0
TEXT
  5
141
330
17
100
AcDbEntity
  8
A-TAG
100
AcDbText
 10
8745.0
 20
15300.0
 30
0.0
 40
180.0
  1
W06
  7
RV-TITLE
 72
1
 11
8745.0
 21
15300.0
 31
0.0
100
AcDbText
 73
2
  0
LINE
  5
142
330
17
100
AcDbEntity
  8
A-WINDOW
100
AcDbLine
 10
7320.0
 20
9000.0
 30
0.0
 11
7320.0
 21
10800.0
 31
0.0
  0
LINE
  5
143
330
17
100
AcDbEntity
  8
A-WINDOW
100
AcDbLine
 10
7380.0
 20
9000.0
 30
0.0
 11
7380.0
 21
10800.0
 31
0.0
  0
LINE
  5
144
330
17
100
AcDbEntity
  8
A-WINDOW
100
AcDbLine
 10
7260.0
 20
9000.0
 30
0.0
 11
7260.0
 21
10800.0
 31
0.0
  0
LINE
  5
145
330
17
100
AcDbEntity
  8
A-WINDOW
100
AcDbLine
 10
7005.0
 20
8850.0
 30
0.0
 11
7005.0
 21
10950.0
 31
0.0
  0
CIRCLE
  5
146
330
17
100
AcDbEntity
  8
A-TAG
100
AcDbCircle
 10
6305.0
 20
9900.0
 30
0.0
 40
320.0
  0
TEXT
  5
147
330
17
100
AcDbEntity
  8
A-TAG
100
AcDbText
 10
6305.0
 20
9900.0
 30
0.0
 40
180.0
  1
W07
  7
RV-TITLE
 72
1
 11
6305.0
 21
9900.0
 31
0.0
100
AcDbText
 73
2
  0
LINE
  5
148
330
17
100
AcDbEntity
  8
A-WINDOW
100
AcDbLine
 10
100.0
 20
0.0
 30
0.0
 11
2900.0
 21
0.0
 31
0.0
  0
LINE
  5
149
330
17
100
AcDbEntity
  8
A-WINDOW
100
AcDbLine
 10
100.0
 20
60.0
 30
0.0
 11
2900.0
 21
60.0
 31
0.0
  0
LINE
  5
14A
330
17
100
AcDbEntity
  8
A-WINDOW
100
AcDbLine
 10
100.0
 20
-60.0
 30
0.0
 11
2900.0
 21
-60.0
 31
0.0
  0
LINE
  5
14B
330
17
100
AcDbEntity
  8
A-WINDOW
100
AcDbLine
 10
-50.0
 20
-315.0
 30
0.0
 11
3050.0
 21
-315.0
 31
0.0
  0
CIRCLE
  5
14C
330
17
100
AcDbEntity
  8
A-TAG
100
AcDbCircle
 10
1500.0
 20
-1015.0
 30
0.0
 40
320.0
  0
TEXT
  5
14D
330
17
100
AcDbEntity
  8
A-TAG
100
AcDbText
 10
1500.0
 20
-1015.0
 30
0.0
 40
180.0
  1
W08
  7
RV-TITLE
 72
1
 11
1500.0
 21
-1015.0
 31
0.0
100
AcDbText
 73
2
  0
LINE
  5
14E
330
17
100
AcDbEntity
  8
A-WINDOW
100
AcDbLine
 10
16140.0
 20
8000.0
 30
0.0
 11
16140.0
 21
11800.0
 31
0.0
  0
LINE
  5
14F
330
17
100
AcDbEntity
  8
A-WINDOW
100
AcDbLine
 10
16200.0
 20
8000.0
 30
0.0
 11
16200.0
 21
11800.0
 31
0.0
  0
LINE
  5
150
330
17
100
AcDbEntity
  8
A-WINDOW
100
AcDbLine
 10
16080.0
 20
8000.0
 30
0.0
 11
16080.0
 21
11800.0
 31
0.0
  0
LINE
  5
151
330
17
100
AcDbEntity
  8
A-WINDOW
100
AcDbLine
 10
16455.0
 20
7850.0
 30
0.0
 11
16455.0
 21
11950.0
 31
0.0
  0
CIRCLE
  5
152
330
17
100
AcDbEntity
  8
A-TAG
100
AcDbCircle
 10
17155.0
 20
9900.0
 30
0.0
 40
320.0
  0
TEXT
  5
153
330
17
100
AcDbEntity
  8
A-TAG
100
AcDbText
 10
17155.0
 20
9900.0
 30
0.0
 40
180.0
  1
W09
  7
RV-TITLE
 72
1
 11
17155.0
 21
9900.0
 31
0.0
100
AcDbText
 73
2
  0
LWPOLYLINE
  5
154
330
17
100
AcDbEntity
  8
A-GLAZE
100
AcDbPolyline
 90
4
 70
1
 10
4880.0
 20
12780.0
 10
5980.0
 20
12780.0
 10
5980.0
 20
14880.0
 10
4880.0
 20
14880.0
  0
LWPOLYLINE
  5
155
330
17
100
AcDbEntity
  8
A-GLAZE
100
AcDbPolyline
 90
4
 70
1
 10
6220.0
 20
12780.0
 10
7320.0
 20
12780.0
 10
7320.0
 20
14880.0
 10
6220.0
 20
14880.0
  0
LINE
  5
156
330
17
100
AcDbEntity
  8
A-GLAZE
100
AcDbLine
 10
5180.0
 20
12780.0
 30
0.0
 11
5180.0
 21
14880.0
 31
0.0
  0
LINE
  5
157
330
17
100
AcDbEntity
  8
A-GLAZE
100
AcDbLine
 10
5480.0
 20
12780.0
 30
0.0
 11
5480.0
 21
14880.0
 31
0.0
  0
LINE
  5
158
330
17
100
AcDbEntity
  8
A-GLAZE
100
AcDbLine
 10
5780.0
 20
12780.0
 30
0.0
 11
5780.0
 21
14880.0
 31
0.0
  0
LINE
  5
159
330
17
100
AcDbEntity
  8
A-GLAZE
100
AcDbLine
 10
6320.0
 20
12780.0
 30
0.0
 11
6320.0
 21
14880.0
 31
0.0
  0
LINE
  5
15A
330
17
100
AcDbEntity
  8
A-GLAZE
100
AcDbLine
 10
6620.0
 20
12780.0
 30
0.0
 11
6620.0
 21
14880.0
 31
0.0
  0
LINE
  5
15B
330
17
100
AcDbEntity
  8
A-GLAZE
100
AcDbLine
 10
6920.0
 20
12780.0
 30
0.0
 11
6920.0
 21
14880.0
 31
0.0
  0
LINE
  5
15C
330
17
100
AcDbEntity
  8
A-GLAZE
100
AcDbLine
 10
7220.0
 20
12780.0
 30
0.0
 11
7220.0
 21
14880.0
 31
0.0
  0
TEXT
  5
15D
330
17
100
AcDbEntity
  8
A-TEXT-SML
100
AcDbText
 10
5430.0
 20
13830.0
 30
0.0
 40
120.0
  1
GLAZED LINK
 50
90.0
  7
RV-ARCH
 72
1
 11
5430.0
 21
13830.0
 31
0.0
100
AcDbText
 73
2
  0
TEXT
  5
15E
330
17
100
AcDbEntity
  8
A-TEXT-SML
100
AcDbText
 10
6770.0
 20
13830.0
 30
0.0
 40
120.0
  1
GLAZED LINK
 50
90.0
  7
RV-ARCH
 72
1
 11
6770.0
 21
13830.0
 31
0.0
100
AcDbText
 73
2
  0
HATCH
  5
15F
330
17
100
AcDbEntity
  8
A-HATCH-COURT
 62
7
100
AcDbHatch
 10
0.0
 20
0.0
 30
0.0
210
0.0
220
0.0
230
1.0
  2
AR-BRSTD
 70
0
 71
0
 91
1
 92
3
 72
0
 73
1
 93
4
 10
4880.0
 20
4880.0
 10
7320.0
 20
4880.0
 10
7320.0
 20
17080.0
 10
4880.0
 20
17080.0
 97
0
 75
1
 76
1
 52
0.0
 41
80.0
 77
0
 78
2
 53
0.0
 43
0.0
 44
0.0
 45
0.0
 46
5419.344
 79
0
 53
90.0
 43
0.0
 44
0.0
 45
-8128.0
 46
5419.344
 79
2
 49
5419.344
 49
-5419.344
 98
0
  0
LWPOLYLINE
  5
160
330
17
100
AcDbEntity
  8
A-WATER
100
AcDbPolyline
 90
4
 70
1
 10
5380.0
 20
9000.0
 10
6820.0
 20
9000.0
 10
6820.0
 20
12000.0
 10
5380.0
 20
12000.0
  0
HATCH
  5
161
330
17
100
AcDbEntity
  8
A-WATER
 62
7
100
AcDbHatch
 10
0.0
 20
0.0
 30
0.0
210
0.0
220
0.0
230
1.0
  2
WAVE
 70
0
 71
0
 91
1
 92
3
 72
0
 73
1
 93
4
 10
5380.0
 20
9000.0
 10
6820.0
 20
9000.0
 10
6820.0
 20
12000.0
 10
5380.0
 20
12000.0
 97
0
 75
1
 76
1
 52
0.0
 41
40.0
 77
0
 78
1
 53
45.0
 43
0.0
 44
0.0
 45
-89.802561212
 46
89.802561212
 79
0
 98
0
  0
TEXT
  5
162
330
17
100
AcDbEntity
  8
A-TEXT-SML
100
AcDbText
 10
6100.0
 20
11600.0
 30
0.0
 40
120.0
  1
OPTIONAL
  7
RV-ARCH
 72
1
 11
6100.0
 21
11600.0
 31
0.0
100
AcDbText
 73
2
  0
TEXT
  5
163
330
17
100
AcDbEntity
  8
A-TEXT-SML
100
AcDbText
 10
6100.0
 20
10500.0
 30
0.0
 40
160.0
  1
PLUNGE POOL
 50
90.0
  7
RV-ARCH
 72
1
 11
6100.0
 21
10500.0
 31
0.0
100
AcDbText
 73
2
  0
TEXT
  5
164
330
17
100
AcDbEntity
  8
A-TEXT-SML
100
AcDbText
 10
6100.0
 20
9400.0
 30
0.0
 40
120.0
  1
1.4 x 3.0 m
  7
RV-ARCH
 72
1
 11
6100.0
 21
9400.0
 31
0.0
100
AcDbText
 73
2
  0
CIRCLE
  5
165
330
17
100
AcDbEntity
  8
A-COURT
100
AcDbCircle
 10
6700.0
 20
14500.0
 30
0.0
 40
900.0
  0
CIRCLE
  5
166
330
17
100
AcDbEntity
  8
A-COURT
100
AcDbCircle
 10
6700.0
 20
14500.0
 30
0.0
 40
630.0
  0
CIRCLE
  5
167
330
17
100
AcDbEntity
  8
A-COURT
100
AcDbCircle
 10
6700.0
 20
14500.0
 30
0.0
 40
360.0
  0
CIRCLE
  5
168
330
17
100
AcDbEntity
  8
A-COURT
100
AcDbCircle
 10
5500.0
 20
7000.0
 30
0.0
 40
900.0
  0
CIRCLE
  5
169
330
17
100
AcDbEntity
  8
A-COURT
100
AcDbCircle
 10
5500.0
 20
7000.0
 30
0.0
 40
630.0
  0
CIRCLE
  5
16A
330
17
100
AcDbEntity
  8
A-COURT
100
AcDbCircle
 10
5500.0
 20
7000.0
 30
0.0
 40
360.0
  0
LWPOLYLINE
  5
16B
330
17
100
AcDbEntity
  8
A-COURT
100
AcDbPolyline
 90
4
 70
1
 10
6020.0
 20
5400.0
 10
6180.0
 20
5400.0
 10
6180.0
 20
5900.0
 10
6020.0
 20
5900.0
  0
LWPOLYLINE
  5
16C
330
17
100
AcDbEntity
  8
A-COURT
100
AcDbPolyline
 90
4
 70
1
 10
6020.0
 20
6200.0
 10
6180.0
 20
6200.0
 10
6180.0
 20
6700.0
 10
6020.0
 20
6700.0
  0
LWPOLYLINE
  5
16D
330
17
100
AcDbEntity
  8
A-COURT
100
AcDbPolyline
 90
4
 70
1
 10
6020.0
 20
7000.0
 10
6180.0
 20
7000.0
 10
6180.0
 20
7500.0
 10
6020.0
 20
7500.0
  0
LWPOLYLINE
  5
16E
330
17
100
AcDbEntity
  8
A-COURT
100
AcDbPolyline
 90
4
 70
1
 10
6020.0
 20
7800.0
 10
6180.0
 20
7800.0
 10
6180.0
 20
8300.0
 10
6020.0
 20
8300.0
  0
LWPOLYLINE
  5
16F
330
17
100
AcDbEntity
  8
A-COURT
100
AcDbPolyline
 90
4
 70
1
 10
6020.0
 20
8600.0
 10
6180.0
 20
8600.0
 10
6180.0
 20
9100.0
 10
6020.0
 20
9100.0
  0
LWPOLYLINE
  5
170
330
17
100
AcDbEntity
  8
A-COURT
100
AcDbPolyline
 90
4
 70
1
 10
6020.0
 20
9400.0
 10
6180.0
 20
9400.0
 10
6180.0
 20
9900.0
 10
6020.0
 20
9900.0
  0
LWPOLYLINE
  5
171
330
17
100
AcDbEntity
  8
A-COURT
100
AcDbPolyline
 90
4
 70
1
 10
6020.0
 20
10200.0
 10
6180.0
 20
10200.0
 10
6180.0
 20
10700.0
 10
6020.0
 20
10700.0
  0
LWPOLYLINE
  5
172
330
17
100
AcDbEntity
  8
A-COURT
100
AcDbPolyline
 90
4
 70
1
 10
6020.0
 20
11000.0
 10
6180.0
 20
11000.0
 10
6180.0
 20
11500.0
 10
6020.0
 20
11500.0
  0
LWPOLYLINE
  5
173
330
17
100
AcDbEntity
  8
A-COURT
100
AcDbPolyline
 90
4
 70
1
 10
6020.0
 20
11800.0
 10
6180.0
 20
11800.0
 10
6180.0
 20
12300.0
 10
6020.0
 20
12300.0
  0
LWPOLYLINE
  5
174
330
17
100
AcDbEntity
  8
A-COURT
100
AcDbPolyline
 90
4
 70
1
 10
6020.0
 20
12600.0
 10
6180.0
 20
12600.0
 10
6180.0
 20
13100.0
 10
6020.0
 20
13100.0
  0
LWPOLYLINE
  5
175
330
17
100
AcDbEntity
  8
A-COURT
100
AcDbPolyline
 90
4
 70
1
 10
6020.0
 20
13400.0
 10
6180.0
 20
13400.0
 10
6180.0
 20
13900.0
 10
6020.0
 20
13900.0
  0
LWPOLYLINE
  5
176
330
17
100
AcDbEntity
  8
A-COURT
100
AcDbPolyline
 90
4
 70
1
 10
6020.0
 20
14200.0
 10
6180.0
 20
14200.0
 10
6180.0
 20
14700.0
 10
6020.0
 20
14700.0
  0
LWPOLYLINE
  5
177
330
17
100
AcDbEntity
  8
A-COURT
100
AcDbPolyline
 90
4
 70
1
 10
6020.0
 20
15000.0
 10
6180.0
 20
15000.0
 10
6180.0
 20
15500.0
 10
6020.0
 20
15500.0
  0
LWPOLYLINE
  5
178
330
17
100
AcDbEntity
  8
A-COURT
100
AcDbPolyline
 90
4
 70
1
 10
6020.0
 20
15800.0
 10
6180.0
 20
15800.0
 10
6180.0
 20
16300.0
 10
6020.0
 20
16300.0
  0
LWPOLYLINE
  5
179
330
17
100
AcDbEntity
  8
A-COURT
100
AcDbPolyline
 90
4
 70
1
 10
6020.0
 20
16600.0
 10
6180.0
 20
16600.0
 10
6180.0
 20
17100.0
 10
6020.0
 20
17100.0
  0
TEXT
  5
17A
330
17
100
AcDbEntity
  8
A-TEXT-LRG
100
AcDbText
 10
6100.0
 20
16400.0
 30
0.0
 40
220.0
  1
INTERNAL COURTYARD
  7
RV-TITLE
 72
1
 11
6100.0
 21
16400.0
 31
0.0
100
AcDbText
 73
2
  0
TEXT
  5
17B
330
17
100
AcDbEntity
  8
A-TEXT-SML
100
AcDbText
 10
6100.0
 20
16080.0
 30
0.0
 40
140.0
  1
(open to sky)
  7
RV-ARCH
 72
1
 11
6100.0
 21
16080.0
 31
0.0
100
AcDbText
 73
2
  0
LWPOLYLINE
  5
17C
330
17
100
AcDbEntity
  8
A-DECK
100
AcDbPolyline
 90
4
 70
1
 10
-1500.0
 20
-2400.0
 10
13700.0
 20
-2400.0
 10
13700.0
 20
0.0
 10
-1500.0
 20
0.0
  0
HATCH
  5
17D
330
17
100
AcDbEntity
  8
A-HATCH-DECK
 62
7
100
AcDbHatch
 10
0.0
 20
0.0
 30
0.0
210
0.0
220
0.0
230
1.0
  2
AR-PARQ1
 70
0
 71
0
 91
1
 92
3
 72
0
 73
1
 93
4
 10
-1500.0
 20
-2400.0
 10
13700.0
 20
-2400.0
 10
13700.0
 20
0.0
 10
-1500.0
 20
0.0
 97
0
 75
1
 76
1
 52
0.0
 41
40.0
 77
0
 78
14
 53
90.0
 43
0.0
 44
0.0
 45
-12192.0
 46
12192.0
 79
2
 49
12192.0
 49
-12192.0
 53
90.0
 43
2032.0
 44
0.0
 45
-12192.0
 46
12192.0
 79
2
 49
12192.0
 49
-12192.0
 53
90.0
 43
4064.0
 44
0.0
 45
-12192.0
 46
12192.0
 79
2
 49
12192.0
 49
-12192.0
 53
90.0
 43
6096.0
 44
0.0
 45
-12192.0
 46
12192.0
 79
2
 49
12192.0
 49
-12192.0
 53
90.0
 43
8128.0
 44
0.0
 45
-12192.0
 46
12192.0
 79
2
 49
12192.0
 49
-12192.0
 53
90.0
 43
10160.0
 44
0.0
 45
-12192.0
 46
12192.0
 79
2
 49
12192.0
 49
-12192.0
 53
90.0
 43
12192.0
 44
0.0
 45
-12192.0
 46
12192.0
 79
2
 49
12192.0
 49
-12192.0
 53
0.0
 43
0.0
 44
12192.0
 45
12192.0
 46
-12192.0
 79
2
 49
12192.0
 49
-12192.0
 53
0.0
 43
0.0
 44
14224.0
 45
12192.0
 46
-12192.0
 79
2
 49
12192.0
 49
-12192.0
 53
0.0
 43
0.0
 44
16256.0
 45
12192.0
 46
-12192.0
 79
2
 49
12192.0
 49
-12192.0
 53
0.0
 43
0.0
 44
18288.0
 45
12192.0
 46
-12192.0
 79
2
 49
12192.0
 49
-12192.0
 53
0.0
 43
0.0
 44
20320.0
 45
12192.0
 46
-12192.0
 79
2
 49
12192.0
 49
-12192.0
 53
0.0
 43
0.0
 44
22352.0
 45
12192.0
 46
-12192.0
 79
2
 49
12192.0
 49
-12192.0
 53
0.0
 43
0.0
 44
24384.0
 45
12192.0
 46
-12192.0
 79
2
 49
12192.0
 49
-12192.0
 98
0
  0
TEXT
  5
17E
330
17
100
AcDbEntity
  8
A-TEXT-LRG
100
AcDbText
 10
6100.0
 20
-1200.0
 30
0.0
 40
220.0
  1
COVERED VERANDAH
  7
RV-TITLE
 72
1
 11
6100.0
 21
-1200.0
 31
0.0
100
AcDbText
 73
2
  0
TEXT
  5
17F
330
17
100
AcDbEntity
  8
A-TEXT-SML
100
AcDbText
 10
6100.0
 20
-1700.0
 30
0.0
 40
130.0
  1
(forest-facing deck)
  7
RV-ARCH
 72
1
 11
6100.0
 21
-1700.0
 31
0.0
100
AcDbText
 73
2
  0
LWPOLYLINE
  5
180
330
17
100
AcDbEntity
  8
A-DECK
100
AcDbPolyline
 90
4
 70
1
 10
12300.0
 20
9300.0
 10
12650.0
 20
9300.0
 10
12650.0
 20
9700.0
 10
12300.0
 20
9700.0
  0
LWPOLYLINE
  5
181
330
17
100
AcDbEntity
  8
A-DECK
100
AcDbPolyline
 90
4
 70
1
 10
12800.0
 20
9300.0
 10
13150.0
 20
9300.0
 10
13150.0
 20
9700.0
 10
12800.0
 20
9700.0
  0
LWPOLYLINE
  5
182
330
17
100
AcDbEntity
  8
A-DECK
100
AcDbPolyline
 90
4
 70
1
 10
13300.0
 20
9300.0
 10
13650.0
 20
9300.0
 10
13650.0
 20
9700.0
 10
13300.0
 20
9700.0
  0
TEXT
  5
183
330
17
100
AcDbEntity
  8
A-TEXT-SML
100
AcDbText
 10
13000.0
 20
9100.0
 30
0.0
 40
120.0
  1
SERVICE WALKWAY
  7
RV-ARCH
 72
1
 11
13000.0
 21
9100.0
 31
0.0
100
AcDbText
 73
2
  0
LWPOLYLINE
  5
184
330
17
100
AcDbEntity
  8
A-FIX-WC
100
AcDbPolyline
 90
4
 70
1
 10
2630.0
 20
10580.0
 10
3070.0
 20
10580.0
 10
3070.0
 20
10720.0
 10
2630.0
 20
10720.0
  0
LWPOLYLINE
  5
185
330
17
100
AcDbEntity
  8
A-FIX-WC
100
AcDbPolyline
 90
18
 70
1
 10
3050.0
 20
10400.0
 10
3037.9385241571817
 20
10475.244431531648
 10
3003.2088886237957
 20
10541.413274131039
 10
2950.0
 20
10590.525588832577
 10
2884.729635533386
 20
10616.657705662687
 10
2815.270364466614
 20
10616.657705662687
 10
2750.0
 20
10590.525588832577
 10
2696.7911113762043
 20
10541.413274131039
 10
2662.0614758428183
 20
10475.244431531648
 10
2650.0
 20
10400.0
 10
2662.0614758428183
 20
10324.755568468352
 10
2696.7911113762043
 20
10258.586725868961
 10
2750.0
 20
10209.474411167423
 10
2815.270364466614
 20
10183.342294337313
 10
2884.729635533386
 20
10183.342294337313
 10
2950.0
 20
10209.474411167423
 10
3003.2088886237957
 20
10258.586725868961
 10
3037.9385241571817
 20
10324.755568468352
  0
LWPOLYLINE
  5
186
330
17
100
AcDbEntity
  8
A-FIX-WC
100
AcDbPolyline
 90
4
 70
1
 10
3700.0
 20
10250.0
 10
4750.0
 20
10250.0
 10
4750.0
 20
10550.0
 10
3700.0
 20
10550.0
  0
LWPOLYLINE
  5
187
330
17
100
AcDbEntity
  8
A-FIX-WC
100
AcDbPolyline
 90
18
 70
1
 10
4592.5
 20
10400.0
 10
4570.337038138821
 20
10435.912115049196
 10
4506.521332846224
 20
10467.492699017086
 10
4408.75
 20
10490.932667397366
 10
4288.815705292597
 20
10503.404814066282
 10
4161.184294707403
 20
10503.404814066282
 10
4041.25
 20
10490.932667397366
 10
3943.478667153776
 20
10467.492699017086
 10
3879.6629618611787
 20
10435.912115049196
 10
3857.5
 20
10400.0
 10
3879.6629618611787
 20
10364.087884950804
 10
3943.4786671537754
 20
10332.507300982914
 10
4041.25
 20
10309.067332602634
 10
4161.184294707403
 20
10296.595185933718
 10
4288.815705292597
 20
10296.595185933718
 10
4408.75
 20
10309.067332602634
 10
4506.521332846224
 20
10332.507300982914
 10
4570.337038138821
 20
10364.087884950804
  0
CIRCLE
  5
188
330
17
100
AcDbEntity
  8
A-FIX-WC
100
AcDbCircle
 10
4225.0
 20
10490.0
 30
0.0
 40
30.0
  0
LWPOLYLINE
  5
189
330
17
100
AcDbEntity
  8
A-FIX-WC
100
AcDbPolyline
 90
4
 70
1
 10
2700.0
 20
10900.0
 10
4800.0
 20
10900.0
 10
4800.0
 20
11700.0
 10
2700.0
 20
11700.0
  0
CIRCLE
  5
18A
330
17
100
AcDbEntity
  8
A-FIX-WC
100
AcDbCircle
 10
3750.0
 20
11300.0
 30
0.0
 40
70.0
  0
LINE
  5
18B
330
17
100
AcDbEntity
  8
A-FIX-WC
100
AcDbLine
 10
3600.0
 20
11300.0
 30
0.0
 11
3900.0
 21
11300.0
 31
0.0
  0
LINE
  5
18C
330
17
100
AcDbEntity
  8
A-FIX-WC
100
AcDbLine
 10
3750.0
 20
11150.0
 30
0.0
 11
3750.0
 21
11450.0
 31
0.0
  0
LINE
  5
18D
330
17
100
AcDbEntity
  8
A-FIX-WC
100
AcDbLine
 10
2800.0
 20
11000.0
 30
0.0
 11
3750.0
 21
11300.0
 31
0.0
  0
LINE
  5
18E
330
17
100
AcDbEntity
  8
A-FIX-WC
100
AcDbLine
 10
4700.0
 20
11000.0
 30
0.0
 11
3750.0
 21
11300.0
 31
0.0
  0
LINE
  5
18F
330
17
100
AcDbEntity
  8
A-FIX-WC
100
AcDbLine
 10
2800.0
 20
11600.0
 30
0.0
 11
3750.0
 21
11300.0
 31
0.0
  0
LINE
  5
190
330
17
100
AcDbEntity
  8
A-FIX-WC
100
AcDbLine
 10
4700.0
 20
11600.0
 30
0.0
 11
3750.0
 21
11300.0
 31
0.0
  0
CIRCLE
  5
191
330
17
100
AcDbEntity
  8
A-FIX-WC
100
AcDbCircle
 10
2900.0
 20
11300.0
 30
0.0
 40
120.0
  0
TEXT
  5
192
330
17
100
AcDbEntity
  8
A-TEXT-SML
100
AcDbText
 10
2850.0
 20
10300.0
 30
0.0
 40
110.0
  1
WC
  7
RV-ARCH
 72
1
 11
2850.0
 21
10300.0
 31
0.0
100
AcDbText
 73
2
  0
TEXT
  5
193
330
17
100
AcDbEntity
  8
A-TEXT-SML
100
AcDbText
 10
4225.0
 20
10120.0
 30
0.0
 40
110.0
  1
VANITY
  7
RV-ARCH
 72
1
 11
4225.0
 21
10120.0
 31
0.0
100
AcDbText
 73
2
  0
TEXT
  5
194
330
17
100
AcDbEntity
  8
A-TEXT-SML
100
AcDbText
 10
3750.0
 20
11300.0
 30
0.0
 40
140.0
  1
SHOWER
  7
RV-ARCH
 72
1
 11
3750.0
 21
11300.0
 31
0.0
100
AcDbText
 73
2
  0
LWPOLYLINE
  5
195
330
17
100
AcDbEntity
  8
A-FURN
100
AcDbPolyline
 90
4
 70
1
 10
2500.0
 20
10080.0
 10
2700.0
 20
10080.0
 10
2700.0
 20
12450.0
 10
2500.0
 20
12450.0
  0
LWPOLYLINE
  5
196
330
17
100
AcDbEntity
  8
A-FURN
100
AcDbPolyline
 90
4
 70
1
 10
3500.0
 20
10080.0
 10
3700.0
 20
10080.0
 10
3700.0
 20
12450.0
 10
3500.0
 20
12450.0
  0
LINE
  5
197
330
17
100
AcDbEntity
  8
A-FURN
100
AcDbLine
 10
2700.0
 20
10100.0
 30
0.0
 11
3500.0
 21
10100.0
 31
0.0
  0
LINE
  5
198
330
17
100
AcDbEntity
  8
A-FURN
100
AcDbLine
 10
2700.0
 20
10300.0
 30
0.0
 11
3500.0
 21
10300.0
 31
0.0
  0
LINE
  5
199
330
17
100
AcDbEntity
  8
A-FURN
100
AcDbLine
 10
2700.0
 20
10500.0
 30
0.0
 11
3500.0
 21
10500.0
 31
0.0
  0
LINE
  5
19A
330
17
100
AcDbEntity
  8
A-FURN
100
AcDbLine
 10
2700.0
 20
10700.0
 30
0.0
 11
3500.0
 21
10700.0
 31
0.0
  0
LINE
  5
19B
330
17
100
AcDbEntity
  8
A-FURN
100
AcDbLine
 10
2700.0
 20
10900.0
 30
0.0
 11
3500.0
 21
10900.0
 31
0.0
  0
LINE
  5
19C
330
17
100
AcDbEntity
  8
A-FURN
100
AcDbLine
 10
2700.0
 20
11100.0
 30
0.0
 11
3500.0
 21
11100.0
 31
0.0
  0
LINE
  5
19D
330
17
100
AcDbEntity
  8
A-FURN
100
AcDbLine
 10
2700.0
 20
11300.0
 30
0.0
 11
3500.0
 21
11300.0
 31
0.0
  0
LINE
  5
19E
330
17
100
AcDbEntity
  8
A-FURN
100
AcDbLine
 10
2700.0
 20
11500.0
 30
0.0
 11
3500.0
 21
11500.0
 31
0.0
  0
LINE
  5
19F
330
17
100
AcDbEntity
  8
A-FURN
100
AcDbLine
 10
2700.0
 20
11700.0
 30
0.0
 11
3500.0
 21
11700.0
 31
0.0
  0
LINE
  5
1A0
330
17
100
AcDbEntity
  8
A-FURN
100
AcDbLine
 10
2700.0
 20
11900.0
 30
0.0
 11
3500.0
 21
11900.0
 31
0.0
  0
LINE
  5
1A1
330
17
100
AcDbEntity
  8
A-FURN
100
AcDbLine
 10
2700.0
 20
12100.0
 30
0.0
 11
3500.0
 21
12100.0
 31
0.0
  0
LINE
  5
1A2
330
17
100
AcDbEntity
  8
A-FURN
100
AcDbLine
 10
2700.0
 20
12300.0
 30
0.0
 11
3500.0
 21
12300.0
 31
0.0
  0
TEXT
  5
1A3
330
17
100
AcDbEntity
  8
A-TEXT-SML
100
AcDbText
 10
3100.0
 20
11400.0
 30
0.0
 40
130.0
  1
WALK-IN
 50
90.0
  7
RV-ARCH
 72
1
 11
3100.0
 21
11400.0
 31
0.0
100
AcDbText
 73
2
  0
TEXT
  5
1A4
330
17
100
AcDbEntity
  8
A-TEXT-SML
100
AcDbText
 10
3100.0
 20
11050.0
 30
0.0
 40
130.0
  1
WARDROBE
 50
90.0
  7
RV-ARCH
 72
1
 11
3100.0
 21
11050.0
 31
0.0
100
AcDbText
 73
2
  0
LWPOLYLINE
  5
1A5
330
17
100
AcDbEntity
  8
A-FURN
100
AcDbPolyline
 90
4
 70
1
 10
2700.0
 20
7700.0
 10
4750.0
 20
7700.0
 10
4750.0
 20
8200.0
 10
2700.0
 20
8200.0
  0
LINE
  5
1A6
330
17
100
AcDbEntity
  8
A-FURN
100
AcDbLine
 10
2700.0
 20
8200.0
 30
0.0
 11
4750.0
 21
8200.0
 31
0.0
  0
LWPOLYLINE
  5
1A7
330
17
100
AcDbEntity
  8
A-FURN
100
AcDbPolyline
 90
4
 70
1
 10
2700.0
 20
8500.0
 10
3650.0
 20
8500.0
 10
3650.0
 20
9400.0
 10
2700.0
 20
9400.0
  0
LWPOLYLINE
  5
1A8
330
17
100
AcDbEntity
  8
A-FURN
100
AcDbPolyline
 90
4
 70
1
 10
3850.0
 20
8500.0
 10
4750.0
 20
8500.0
 10
4750.0
 20
9400.0
 10
3850.0
 20
9400.0
  0
TEXT
  5
1A9
330
17
100
AcDbEntity
  8
A-TEXT-SML
100
AcDbText
 10
3660.0
 20
8800.0
 30
0.0
 40
140.0
  1
LOUNGE
  7
RV-ARCH
 72
1
 11
3660.0
 21
8800.0
 31
0.0
100
AcDbText
 73
2
  0
LWPOLYLINE
  5
1AA
330
17
100
AcDbEntity
  8
A-FIX-WC
100
AcDbPolyline
 90
4
 70
1
 10
7380.0
 20
11530.0
 10
7820.0
 20
11530.0
 10
7820.0
 20
11670.0
 10
7380.0
 20
11670.0
  0
LWPOLYLINE
  5
1AB
330
17
100
AcDbEntity
  8
A-FIX-WC
100
AcDbPolyline
 90
18
 70
1
 10
7800.0
 20
11350.0
 10
7787.938524157182
 20
11425.244431531648
 10
7753.208888623795
 20
11491.413274131039
 10
7700.0
 20
11540.525588832577
 10
7634.7296355333865
 20
11566.657705662687
 10
7565.2703644666135
 20
11566.657705662687
 10
7500.0
 20
11540.525588832577
 10
7446.791111376205
 20
11491.413274131039
 10
7412.061475842818
 20
11425.244431531648
 10
7400.0
 20
11350.0
 10
7412.061475842818
 20
11274.755568468352
 10
7446.791111376205
 20
11208.586725868961
 10
7500.0
 20
11159.474411167423
 10
7565.2703644666135
 20
11133.342294337313
 10
7634.729635533386
 20
11133.342294337313
 10
7700.0
 20
11159.474411167423
 10
7753.208888623795
 20
11208.586725868961
 10
7787.938524157182
 20
11274.755568468352
  0
LWPOLYLINE
  5
1AC
330
17
100
AcDbEntity
  8
A-FIX-WC
100
AcDbPolyline
 90
4
 70
1
 10
8350.0
 20
11400.0
 10
9400.0
 20
11400.0
 10
9400.0
 20
11700.0
 10
8350.0
 20
11700.0
  0
LWPOLYLINE
  5
1AD
330
17
100
AcDbEntity
  8
A-FIX-WC
100
AcDbPolyline
 90
18
 70
1
 10
9242.5
 20
11550.0
 10
9220.337038138821
 20
11585.912115049196
 10
9156.521332846225
 20
11617.492699017086
 10
9058.75
 20
11640.932667397366
 10
8938.815705292596
 20
11653.404814066282
 10
8811.184294707404
 20
11653.404814066282
 10
8691.25
 20
11640.932667397366
 10
8593.478667153775
 20
11617.492699017086
 10
8529.662961861179
 20
11585.912115049196
 10
8507.5
 20
11550.0
 10
8529.662961861179
 20
11514.087884950804
 10
8593.478667153775
 20
11482.507300982914
 10
8691.25
 20
11459.067332602634
 10
8811.184294707404
 20
11446.595185933718
 10
8938.815705292596
 20
11446.595185933718
 10
9058.75
 20
11459.067332602634
 10
9156.521332846225
 20
11482.507300982914
 10
9220.337038138821
 20
11514.087884950804
  0
CIRCLE
  5
1AE
330
17
100
AcDbEntity
  8
A-FIX-WC
100
AcDbCircle
 10
8875.0
 20
11640.0
 30
0.0
 40
30.0
  0
LWPOLYLINE
  5
1AF
330
17
100
AcDbEntity
  8
A-FIX-WC
100
AcDbPolyline
 90
4
 70
1
 10
7500.0
 20
12200.0
 10
9650.0
 20
12200.0
 10
9650.0
 20
13500.0
 10
7500.0
 20
13500.0
  0
CIRCLE
  5
1B0
330
17
100
AcDbEntity
  8
A-FIX-WC
100
AcDbCircle
 10
8575.0
 20
12850.0
 30
0.0
 40
70.0
  0
LINE
  5
1B1
330
17
100
AcDbEntity
  8
A-FIX-WC
100
AcDbLine
 10
8425.0
 20
12850.0
 30
0.0
 11
8725.0
 21
12850.0
 31
0.0
  0
LINE
  5
1B2
330
17
100
AcDbEntity
  8
A-FIX-WC
100
AcDbLine
 10
8575.0
 20
12700.0
 30
0.0
 11
8575.0
 21
13000.0
 31
0.0
  0
LINE
  5
1B3
330
17
100
AcDbEntity
  8
A-FIX-WC
100
AcDbLine
 10
7600.0
 20
12300.0
 30
0.0
 11
8575.0
 21
12850.0
 31
0.0
  0
LINE
  5
1B4
330
17
100
AcDbEntity
  8
A-FIX-WC
100
AcDbLine
 10
9550.0
 20
12300.0
 30
0.0
 11
8575.0
 21
12850.0
 31
0.0
  0
LINE
  5
1B5
330
17
100
AcDbEntity
  8
A-FIX-WC
100
AcDbLine
 10
7600.0
 20
13400.0
 30
0.0
 11
8575.0
 21
12850.0
 31
0.0
  0
LINE
  5
1B6
330
17
100
AcDbEntity
  8
A-FIX-WC
100
AcDbLine
 10
9550.0
 20
13400.0
 30
0.0
 11
8575.0
 21
12850.0
 31
0.0
  0
CIRCLE
  5
1B7
330
17
100
AcDbEntity
  8
A-FIX-WC
100
AcDbCircle
 10
7700.0
 20
12850.0
 30
0.0
 40
120.0
  0
TEXT
  5
1B8
330
17
100
AcDbEntity
  8
A-TEXT-SML
100
AcDbText
 10
7600.0
 20
11200.0
 30
0.0
 40
110.0
  1
WC
  7
RV-ARCH
 72
1
 11
7600.0
 21
11200.0
 31
0.0
100
AcDbText
 73
2
  0
TEXT
  5
1B9
330
17
100
AcDbEntity
  8
A-TEXT-SML
100
AcDbText
 10
8875.0
 20
11240.0
 30
0.0
 40
110.0
  1
VANITY
  7
RV-ARCH
 72
1
 11
8875.0
 21
11240.0
 31
0.0
100
AcDbText
 73
2
  0
TEXT
  5
1BA
330
17
100
AcDbEntity
  8
A-TEXT-SML
100
AcDbText
 10
8540.0
 20
12850.0
 30
0.0
 40
140.0
  1
SHOWER
  7
RV-ARCH
 72
1
 11
8540.0
 21
12850.0
 31
0.0
100
AcDbText
 73
2
  0
LWPOLYLINE
  5
1BB
330
17
100
AcDbEntity
  8
A-FIX-WC
100
AcDbPolyline
 90
4
 70
1
 10
7380.0
 20
7730.0
 10
7820.0
 20
7730.0
 10
7820.0
 20
7870.0
 10
7380.0
 20
7870.0
  0
LWPOLYLINE
  5
1BC
330
17
100
AcDbEntity
  8
A-FIX-WC
100
AcDbPolyline
 90
18
 70
1
 10
7800.0
 20
7550.0
 10
7787.938524157182
 20
7625.244431531647
 10
7753.208888623795
 20
7691.413274131039
 10
7700.0
 20
7740.525588832576
 10
7634.7296355333865
 20
7766.657705662686
 10
7565.2703644666135
 20
7766.657705662686
 10
7500.0
 20
7740.525588832576
 10
7446.791111376205
 20
7691.413274131039
 10
7412.061475842818
 20
7625.244431531647
 10
7400.0
 20
7550.0
 10
7412.061475842818
 20
7474.755568468353
 10
7446.791111376205
 20
7408.586725868961
 10
7500.0
 20
7359.474411167424
 10
7565.2703644666135
 20
7333.342294337314
 10
7634.729635533386
 20
7333.342294337314
 10
7700.0
 20
7359.474411167424
 10
7753.208888623795
 20
7408.586725868961
 10
7787.938524157182
 20
7474.755568468353
  0
LWPOLYLINE
  5
1BD
330
17
100
AcDbEntity
  8
A-FIX-WC
100
AcDbPolyline
 90
4
 70
1
 10
8350.0
 20
7700.0
 10
9200.0
 20
7700.0
 10
9200.0
 20
8000.0
 10
8350.0
 20
8000.0
  0
LWPOLYLINE
  5
1BE
330
17
100
AcDbEntity
  8
A-FIX-WC
100
AcDbPolyline
 90
18
 70
1
 10
9072.5
 20
7850.0
 10
9054.558554683808
 20
7885.912115049196
 10
9002.898221827896
 20
7917.492699017087
 10
8923.75
 20
7940.9326673973665
 10
8826.660332855912
 20
7953.404814066282
 10
8723.339667144088
 20
7953.404814066282
 10
8626.25
 20
7940.9326673973665
 10
8547.101778172104
 20
7917.492699017087
 10
8495.441445316192
 20
7885.912115049196
 10
8477.5
 20
7850.0
 10
8495.441445316192
 20
7814.087884950804
 10
8547.101778172104
 20
7782.507300982913
 10
8626.25
 20
7759.0673326026335
 10
8723.339667144088
 20
7746.595185933718
 10
8826.660332855912
 20
7746.595185933718
 10
8923.75
 20
7759.0673326026335
 10
9002.898221827896
 20
7782.507300982913
 10
9054.558554683808
 20
7814.087884950804
  0
CIRCLE
  5
1BF
330
17
100
AcDbEntity
  8
A-FIX-WC
100
AcDbCircle
 10
8775.0
 20
7940.0
 30
0.0
 40
30.0
  0
TEXT
  5
1C0
330
17
100
AcDbEntity
  8
A-TEXT-SML
100
AcDbText
 10
8400.0
 20
7350.0
 30
0.0
 40
140.0
  1
POWDER
  7
RV-ARCH
 72
1
 11
8400.0
 21
7350.0
 31
0.0
100
AcDbText
 73
2
  0
LWPOLYLINE
  5
1C1
330
17
100
AcDbEntity
  8
A-FURN
100
AcDbPolyline
 90
4
 70
1
 10
7500.0
 20
10800.0
 10
9600.0
 20
10800.0
 10
9600.0
 20
11150.0
 10
7500.0
 20
11150.0
  0
LWPOLYLINE
  5
1C2
330
17
100
AcDbEntity
  8
A-FURN
100
AcDbPolyline
 90
4
 70
1
 10
8350.0
 20
10250.0
 10
8800.0
 20
10250.0
 10
8800.0
 20
10800.0
 10
8350.0
 20
10800.0
  0
LWPOLYLINE
  5
1C3
330
17
100
AcDbEntity
  8
A-FURN
100
AcDbPolyline
 90
4
 70
1
 10
7400.0
 20
8600.0
 10
7700.0
 20
8600.0
 10
7700.0
 20
11000.0
 10
7400.0
 20
11000.0
  0
LINE
  5
1C4
330
17
100
AcDbEntity
  8
A-FURN
100
AcDbLine
 10
7400.0
 20
8700.0
 30
0.0
 11
7700.0
 21
8700.0
 31
0.0
  0
LINE
  5
1C5
330
17
100
AcDbEntity
  8
A-FURN
100
AcDbLine
 10
7400.0
 20
8900.0
 30
0.0
 11
7700.0
 21
8900.0
 31
0.0
  0
LINE
  5
1C6
330
17
100
AcDbEntity
  8
A-FURN
100
AcDbLine
 10
7400.0
 20
9100.0
 30
0.0
 11
7700.0
 21
9100.0
 31
0.0
  0
LINE
  5
1C7
330
17
100
AcDbEntity
  8
A-FURN
100
AcDbLine
 10
7400.0
 20
9300.0
 30
0.0
 11
7700.0
 21
9300.0
 31
0.0
  0
LINE
  5
1C8
330
17
100
AcDbEntity
  8
A-FURN
100
AcDbLine
 10
7400.0
 20
9500.0
 30
0.0
 11
7700.0
 21
9500.0
 31
0.0
  0
LINE
  5
1C9
330
17
100
AcDbEntity
  8
A-FURN
100
AcDbLine
 10
7400.0
 20
9700.0
 30
0.0
 11
7700.0
 21
9700.0
 31
0.0
  0
LINE
  5
1CA
330
17
100
AcDbEntity
  8
A-FURN
100
AcDbLine
 10
7400.0
 20
9900.0
 30
0.0
 11
7700.0
 21
9900.0
 31
0.0
  0
LINE
  5
1CB
330
17
100
AcDbEntity
  8
A-FURN
100
AcDbLine
 10
7400.0
 20
10100.0
 30
0.0
 11
7700.0
 21
10100.0
 31
0.0
  0
LINE
  5
1CC
330
17
100
AcDbEntity
  8
A-FURN
100
AcDbLine
 10
7400.0
 20
10300.0
 30
0.0
 11
7700.0
 21
10300.0
 31
0.0
  0
LINE
  5
1CD
330
17
100
AcDbEntity
  8
A-FURN
100
AcDbLine
 10
7400.0
 20
10500.0
 30
0.0
 11
7700.0
 21
10500.0
 31
0.0
  0
LINE
  5
1CE
330
17
100
AcDbEntity
  8
A-FURN
100
AcDbLine
 10
7400.0
 20
10700.0
 30
0.0
 11
7700.0
 21
10700.0
 31
0.0
  0
LINE
  5
1CF
330
17
100
AcDbEntity
  8
A-FURN
100
AcDbLine
 10
7400.0
 20
10900.0
 30
0.0
 11
7700.0
 21
10900.0
 31
0.0
  0
TEXT
  5
1D0
330
17
100
AcDbEntity
  8
A-TEXT-SML
100
AcDbText
 10
8540.0
 20
9800.0
 30
0.0
 40
150.0
  1
STUDY
  7
RV-ARCH
 72
1
 11
8540.0
 21
9800.0
 31
0.0
100
AcDbText
 73
2
  0
TEXT
  5
1D1
330
17
100
AcDbEntity
  8
A-TEXT-SML
100
AcDbText
 10
8540.0
 20
10980.0
 30
0.0
 40
110.0
  1
DESK
  7
RV-ARCH
 72
1
 11
8540.0
 21
10980.0
 31
0.0
100
AcDbText
 73
2
  0
LWPOLYLINE
  5
1D2
330
17
100
AcDbEntity
  8
A-FIX-KIT
100
AcDbPolyline
 90
4
 70
1
 10
6100.0
 20
4300.0
 10
12000.0
 20
4300.0
 10
12000.0
 20
4780.0
 10
6100.0
 20
4780.0
  0
LWPOLYLINE
  5
1D3
330
17
100
AcDbEntity
  8
A-FIX-KIT
100
AcDbPolyline
 90
4
 70
1
 10
11400.0
 20
2640.0
 10
12000.0
 20
2640.0
 10
12000.0
 20
4300.0
 10
11400.0
 20
4300.0
  0
LWPOLYLINE
  5
1D4
330
17
100
AcDbEntity
  8
A-FIX-KIT
100
AcDbPolyline
 90
4
 70
1
 10
7400.0
 20
4380.0
 10
8000.0
 20
4380.0
 10
8000.0
 20
4720.0
 10
7400.0
 20
4720.0
  0
LWPOLYLINE
  5
1D5
330
17
100
AcDbEntity
  8
A-FIX-KIT
100
AcDbPolyline
 90
4
 70
1
 10
8100.0
 20
4380.0
 10
8700.0
 20
4380.0
 10
8700.0
 20
4720.0
 10
8100.0
 20
4720.0
  0
CIRCLE
  5
1D6
330
17
100
AcDbEntity
  8
A-FIX-KIT
100
AcDbCircle
 10
7700.0
 20
4550.0
 30
0.0
 40
50.0
  0
CIRCLE
  5
1D7
330
17
100
AcDbEntity
  8
A-FIX-KIT
100
AcDbCircle
 10
8400.0
 20
4550.0
 30
0.0
 40
50.0
  0
LWPOLYLINE
  5
1D8
330
17
100
AcDbEntity
  8
A-FIX-KIT
100
AcDbPolyline
 90
4
 70
1
 10
9500.0
 20
4380.0
 10
10800.0
 20
4380.0
 10
10800.0
 20
4720.0
 10
9500.0
 20
4720.0
  0
CIRCLE
  5
1D9
330
17
100
AcDbEntity
  8
A-FIX-KIT
100
AcDbCircle
 10
9750.0
 20
4470.0
 30
0.0
 40
100.0
  0
CIRCLE
  5
1DA
330
17
100
AcDbEntity
  8
A-FIX-KIT
100
AcDbCircle
 10
9750.0
 20
4630.0
 30
0.0
 40
100.0
  0
CIRCLE
  5
1DB
330
17
100
AcDbEntity
  8
A-FIX-KIT
100
AcDbCircle
 10
10550.0
 20
4470.0
 30
0.0
 40
100.0
  0
CIRCLE
  5
1DC
330
17
100
AcDbEntity
  8
A-FIX-KIT
100
AcDbCircle
 10
10550.0
 20
4630.0
 30
0.0
 40
100.0
  0
LWPOLYLINE
  5
1DD
330
17
100
AcDbEntity
  8
A-FIX-KIT
100
AcDbPolyline
 90
4
 70
1
 10
11400.0
 20
2640.0
 10
12000.0
 20
2640.0
 10
12000.0
 20
3540.0
 10
11400.0
 20
3540.0
  0
LINE
  5
1DE
330
17
100
AcDbEntity
  8
A-FIX-KIT
100
AcDbLine
 10
11400.0
 20
3090.0
 30
0.0
 11
12000.0
 21
3090.0
 31
0.0
  0
TEXT
  5
1DF
330
17
100
AcDbEntity
  8
A-TEXT-SML
100
AcDbText
 10
11700.0
 20
3090.0
 30
0.0
 40
120.0
  1
FRIDGE
 50
90.0
  7
RV-ARCH
 72
1
 11
11700.0
 21
3090.0
 31
0.0
100
AcDbText
 73
2
  0
LWPOLYLINE
  5
1E0
330
17
100
AcDbEntity
  8
A-FIX-KIT
100
AcDbPolyline
 90
4
 70
1
 10
7800.0
 20
3000.0
 10
10500.0
 20
3000.0
 10
10500.0
 20
3900.0
 10
7800.0
 20
3900.0
  0
TEXT
  5
1E1
330
17
100
AcDbEntity
  8
A-TEXT-SML
100
AcDbText
 10
9150.0
 20
3400.0
 30
0.0
 40
140.0
  1
ISLAND / BREAKFAST BAR
  7
RV-ARCH
 72
1
 11
9150.0
 21
3400.0
 31
0.0
100
AcDbText
 73
2
  0
TEXT
  5
1E2
330
17
100
AcDbEntity
  8
A-TEXT-SML
100
AcDbText
 10
7700.0
 20
4860.0
 30
0.0
 40
120.0
  1
SINK
  7
RV-ARCH
 72
1
 11
7700.0
 21
4860.0
 31
0.0
100
AcDbText
 73
2
  0
TEXT
  5
1E3
330
17
100
AcDbEntity
  8
A-TEXT-SML
100
AcDbText
 10
10150.0
 20
4860.0
 30
0.0
 40
120.0
  1
HOB
  7
RV-ARCH
 72
1
 11
10150.0
 21
4860.0
 31
0.0
100
AcDbText
 73
2
  0
LWPOLYLINE
  5
1E4
330
17
100
AcDbEntity
  8
A-FURN
100
AcDbPolyline
 90
4
 70
1
 10
3200.0
 20
200.0
 10
5300.0
 20
200.0
 10
5300.0
 20
1100.0
 10
3200.0
 20
1100.0
  0
LINE
  5
1E5
330
17
100
AcDbEntity
  8
A-FURN
100
AcDbLine
 10
3200.0
 20
1100.0
 30
0.0
 11
5300.0
 21
1100.0
 31
0.0
  0
LWPOLYLINE
  5
1E6
330
17
100
AcDbEntity
  8
A-FURN
100
AcDbPolyline
 90
4
 70
1
 10
5500.0
 20
200.0
 10
7100.0
 20
200.0
 10
7100.0
 20
1100.0
 10
5500.0
 20
1100.0
  0
LINE
  5
1E7
330
17
100
AcDbEntity
  8
A-FURN
100
AcDbLine
 10
5500.0
 20
1100.0
 30
0.0
 11
7100.0
 21
1100.0
 31
0.0
  0
LWPOLYLINE
  5
1E8
330
17
100
AcDbEntity
  8
A-FURN
100
AcDbPolyline
 90
4
 70
1
 10
8400.0
 20
200.0
 10
9700.0
 20
200.0
 10
9700.0
 20
1500.0
 10
8400.0
 20
1500.0
  0
LWPOLYLINE
  5
1E9
330
17
100
AcDbEntity
  8
A-FURN
100
AcDbPolyline
 90
4
 70
1
 10
10000.0
 20
200.0
 10
11500.0
 20
200.0
 10
11500.0
 20
1500.0
 10
10000.0
 20
1500.0
  0
LWPOLYLINE
  5
1EA
330
17
100
AcDbEntity
  8
A-FURN
100
AcDbPolyline
 90
4
 70
1
 10
5300.0
 20
1300.0
 10
7100.0
 20
1300.0
 10
7100.0
 20
2200.0
 10
5300.0
 20
2200.0
  0
LWPOLYLINE
  5
1EB
330
17
100
AcDbEntity
  8
A-FURN
100
AcDbPolyline
 90
4
 70
1
 10
7800.0
 20
1500.0
 10
11500.0
 20
1500.0
 10
11500.0
 20
2300.0
 10
7800.0
 20
2300.0
  0
LINE
  5
1EC
330
17
100
AcDbEntity
  8
A-FURN
100
AcDbLine
 10
7800.0
 20
2300.0
 30
0.0
 11
11500.0
 21
2300.0
 31
0.0
  0
TEXT
  5
1ED
330
17
100
AcDbEntity
  8
A-TEXT-SML
100
AcDbText
 10
4250.0
 20
650.0
 30
0.0
 40
130.0
  1
SOFA
  7
RV-ARCH
 72
1
 11
4250.0
 21
650.0
 31
0.0
100
AcDbText
 73
2
  0
TEXT
  5
1EE
330
17
100
AcDbEntity
  8
A-TEXT-SML
100
AcDbText
 10
9650.0
 20
1900.0
 30
0.0
 40
140.0
  1
TV
  7
RV-ARCH
 72
1
 11
9650.0
 21
1900.0
 31
0.0
100
AcDbText
 73
2
  0
LWPOLYLINE
  5
1EF
330
17
100
AcDbEntity
  8
A-FURN
100
AcDbPolyline
 90
4
 70
1
 10
1500.0
 20
2900.0
 10
4600.0
 20
2900.0
 10
4600.0
 20
4400.0
 10
1500.0
 20
4400.0
  0
LWPOLYLINE
  5
1F0
330
17
100
AcDbEntity
  8
A-FURN
100
AcDbPolyline
 90
4
 70
1
 10
1380.0
 20
4500.0
 10
1820.0
 20
4500.0
 10
1820.0
 20
4750.0
 10
1380.0
 20
4750.0
  0
LWPOLYLINE
  5
1F1
330
17
100
AcDbEntity
  8
A-FURN
100
AcDbPolyline
 90
4
 70
1
 10
1380.0
 20
2540.0
 10
1820.0
 20
2540.0
 10
1820.0
 20
2790.0
 10
1380.0
 20
2790.0
  0
LWPOLYLINE
  5
1F2
330
17
100
AcDbEntity
  8
A-FURN
100
AcDbPolyline
 90
4
 70
1
 10
2180.0
 20
4500.0
 10
2620.0
 20
4500.0
 10
2620.0
 20
4750.0
 10
2180.0
 20
4750.0
  0
LWPOLYLINE
  5
1F3
330
17
100
AcDbEntity
  8
A-FURN
100
AcDbPolyline
 90
4
 70
1
 10
2180.0
 20
2540.0
 10
2620.0
 20
2540.0
 10
2620.0
 20
2790.0
 10
2180.0
 20
2790.0
  0
LWPOLYLINE
  5
1F4
330
17
100
AcDbEntity
  8
A-FURN
100
AcDbPolyline
 90
4
 70
1
 10
3480.0
 20
4500.0
 10
3920.0
 20
4500.0
 10
3920.0
 20
4750.0
 10
3480.0
 20
4750.0
  0
LWPOLYLINE
  5
1F5
330
17
100
AcDbEntity
  8
A-FURN
100
AcDbPolyline
 90
4
 70
1
 10
3480.0
 20
2540.0
 10
3920.0
 20
2540.0
 10
3920.0
 20
2790.0
 10
3480.0
 20
2790.0
  0
LWPOLYLINE
  5
1F6
330
17
100
AcDbEntity
  8
A-FURN
100
AcDbPolyline
 90
4
 70
1
 10
4280.0
 20
4500.0
 10
4720.0
 20
4500.0
 10
4720.0
 20
4750.0
 10
4280.0
 20
4750.0
  0
LWPOLYLINE
  5
1F7
330
17
100
AcDbEntity
  8
A-FURN
100
AcDbPolyline
 90
4
 70
1
 10
4280.0
 20
2540.0
 10
4720.0
 20
2540.0
 10
4720.0
 20
2790.0
 10
4280.0
 20
2790.0
  0
TEXT
  5
1F8
330
17
100
AcDbEntity
  8
A-TEXT-SML
100
AcDbText
 10
3050.0
 20
3650.0
 30
0.0
 40
140.0
  1
DINING TABLE
  7
RV-ARCH
 72
1
 11
3050.0
 21
3650.0
 31
0.0
100
AcDbText
 73
2
  0
LWPOLYLINE
  5
1F9
330
17
100
AcDbEntity
  8
A-FURN
100
AcDbPolyline
 90
4
 70
1
 10
250.0
 20
11900.0
 10
2200.0
 20
11900.0
 10
2200.0
 20
14400.0
 10
250.0
 20
14400.0
  0
LINE
  5
1FA
330
17
100
AcDbEntity
  8
A-FURN
100
AcDbLine
 10
250.0
 20
14400.0
 30
0.0
 11
2200.0
 21
14400.0
 31
0.0
  0
LWPOLYLINE
  5
1FB
330
17
100
AcDbEntity
  8
A-FURN
100
AcDbPolyline
 90
4
 70
1
 10
350.0
 20
14100.0
 10
1100.0
 20
14100.0
 10
1100.0
 20
14380.0
 10
350.0
 20
14380.0
  0
LWPOLYLINE
  5
1FC
330
17
100
AcDbEntity
  8
A-FURN
100
AcDbPolyline
 90
4
 70
1
 10
1300.0
 20
14100.0
 10
2050.0
 20
14100.0
 10
2050.0
 20
14380.0
 10
1300.0
 20
14380.0
  0
TEXT
  5
1FD
330
17
100
AcDbEntity
  8
A-TEXT-SML
100
AcDbText
 10
1220.0
 20
13000.0
 30
0.0
 40
130.0
  1
KING BED 1800x2000
  7
RV-ARCH
 72
1
 11
1220.0
 21
13000.0
 31
0.0
100
AcDbText
 73
2
  0
LWPOLYLINE
  5
1FE
330
17
100
AcDbEntity
  8
A-FURN
100
AcDbPolyline
 90
4
 70
1
 10
100.0
 20
14600.0
 10
700.0
 20
14600.0
 10
700.0
 20
15200.0
 10
100.0
 20
15200.0
  0
LWPOLYLINE
  5
1FF
330
17
100
AcDbEntity
  8
A-FURN
100
AcDbPolyline
 90
4
 70
1
 10
1700.0
 20
14600.0
 10
2300.0
 20
14600.0
 10
2300.0
 20
15200.0
 10
1700.0
 20
15200.0
  0
LWPOLYLINE
  5
200
330
17
100
AcDbEntity
  8
A-FURN
100
AcDbPolyline
 90
4
 70
1
 10
9950.0
 20
14500.0
 10
12050.0
 20
14500.0
 10
12050.0
 20
16600.0
 10
9950.0
 20
16600.0
  0
LINE
  5
201
330
17
100
AcDbEntity
  8
A-FURN
100
AcDbLine
 10
9950.0
 20
16600.0
 30
0.0
 11
12050.0
 21
16600.0
 31
0.0
  0
LWPOLYLINE
  5
202
330
17
100
AcDbEntity
  8
A-FURN
100
AcDbPolyline
 90
4
 70
1
 10
10050.0
 20
16320.0
 10
10800.0
 20
16320.0
 10
10800.0
 20
16580.0
 10
10050.0
 20
16580.0
  0
LWPOLYLINE
  5
203
330
17
100
AcDbEntity
  8
A-FURN
100
AcDbPolyline
 90
4
 70
1
 10
11000.0
 20
16320.0
 10
11900.0
 20
16320.0
 10
11900.0
 20
16580.0
 10
11000.0
 20
16580.0
  0
TEXT
  5
204
330
17
100
AcDbEntity
  8
A-TEXT-SML
100
AcDbText
 10
11000.0
 20
15500.0
 30
0.0
 40
130.0
  1
QUEEN BED 1600x2000
  7
RV-ARCH
 72
1
 11
11000.0
 21
15500.0
 31
0.0
100
AcDbText
 73
2
  0
LWPOLYLINE
  5
205
330
17
100
AcDbEntity
  8
A-FURN
100
AcDbPolyline
 90
4
 70
1
 10
9760.0
 20
14000.0
 10
10200.0
 20
14000.0
 10
10200.0
 20
14400.0
 10
9760.0
 20
14400.0
  0
LWPOLYLINE
  5
206
330
17
100
AcDbEntity
  8
A-FURN
100
AcDbPolyline
 90
4
 70
1
 10
11700.0
 20
14000.0
 10
12200.0
 20
14000.0
 10
12200.0
 20
14400.0
 10
11700.0
 20
14400.0
  0
LWPOLYLINE
  5
207
330
17
100
AcDbEntity
  8
A-FURN
100
AcDbPolyline
 90
4
 70
1
 10
100.0
 20
10100.0
 10
2300.0
 20
10100.0
 10
2300.0
 20
10500.0
 10
100.0
 20
10500.0
  0
LINE
  5
208
330
17
100
AcDbEntity
  8
A-FURN
100
AcDbLine
 10
200.0
 20
10100.0
 30
0.0
 11
200.0
 21
10500.0
 31
0.0
  0
LINE
  5
209
330
17
100
AcDbEntity
  8
A-FURN
100
AcDbLine
 10
400.0
 20
10100.0
 30
0.0
 11
400.0
 21
10500.0
 31
0.0
  0
LINE
  5
20A
330
17
100
AcDbEntity
  8
A-FURN
100
AcDbLine
 10
600.0
 20
10100.0
 30
0.0
 11
600.0
 21
10500.0
 31
0.0
  0
LINE
  5
20B
330
17
100
AcDbEntity
  8
A-FURN
100
AcDbLine
 10
800.0
 20
10100.0
 30
0.0
 11
800.0
 21
10500.0
 31
0.0
  0
LINE
  5
20C
330
17
100
AcDbEntity
  8
A-FURN
100
AcDbLine
 10
1000.0
 20
10100.0
 30
0.0
 11
1000.0
 21
10500.0
 31
0.0
  0
LINE
  5
20D
330
17
100
AcDbEntity
  8
A-FURN
100
AcDbLine
 10
1200.0
 20
10100.0
 30
0.0
 11
1200.0
 21
10500.0
 31
0.0
  0
LINE
  5
20E
330
17
100
AcDbEntity
  8
A-FURN
100
AcDbLine
 10
1400.0
 20
10100.0
 30
0.0
 11
1400.0
 21
10500.0
 31
0.0
  0
LINE
  5
20F
330
17
100
AcDbEntity
  8
A-FURN
100
AcDbLine
 10
1600.0
 20
10100.0
 30
0.0
 11
1600.0
 21
10500.0
 31
0.0
  0
LINE
  5
210
330
17
100
AcDbEntity
  8
A-FURN
100
AcDbLine
 10
1800.0
 20
10100.0
 30
0.0
 11
1800.0
 21
10500.0
 31
0.0
  0
LINE
  5
211
330
17
100
AcDbEntity
  8
A-FURN
100
AcDbLine
 10
2000.0
 20
10100.0
 30
0.0
 11
2000.0
 21
10500.0
 31
0.0
  0
LINE
  5
212
330
17
100
AcDbEntity
  8
A-FURN
100
AcDbLine
 10
2200.0
 20
10100.0
 30
0.0
 11
2200.0
 21
10500.0
 31
0.0
  0
TEXT
  5
213
330
17
100
AcDbEntity
  8
A-TEXT-SML
100
AcDbText
 10
1200.0
 20
10300.0
 30
0.0
 40
130.0
  1
WARDROBE
  7
RV-ARCH
 72
1
 11
1200.0
 21
10300.0
 31
0.0
100
AcDbText
 73
2
  0
LWPOLYLINE
  5
214
330
17
100
AcDbEntity
  8
A-FURN
100
AcDbPolyline
 90
4
 70
1
 10
9900.0
 20
13800.0
 10
12100.0
 20
13800.0
 10
12100.0
 20
14200.0
 10
9900.0
 20
14200.0
  0
LINE
  5
215
330
17
100
AcDbEntity
  8
A-FURN
100
AcDbLine
 10
10000.0
 20
13800.0
 30
0.0
 11
10000.0
 21
14200.0
 31
0.0
  0
LINE
  5
216
330
17
100
AcDbEntity
  8
A-FURN
100
AcDbLine
 10
10200.0
 20
13800.0
 30
0.0
 11
10200.0
 21
14200.0
 31
0.0
  0
LINE
  5
217
330
17
100
AcDbEntity
  8
A-FURN
100
AcDbLine
 10
10400.0
 20
13800.0
 30
0.0
 11
10400.0
 21
14200.0
 31
0.0
  0
LINE
  5
218
330
17
100
AcDbEntity
  8
A-FURN
100
AcDbLine
 10
10600.0
 20
13800.0
 30
0.0
 11
10600.0
 21
14200.0
 31
0.0
  0
LINE
  5
219
330
17
100
AcDbEntity
  8
A-FURN
100
AcDbLine
 10
10800.0
 20
13800.0
 30
0.0
 11
10800.0
 21
14200.0
 31
0.0
  0
LINE
  5
21A
330
17
100
AcDbEntity
  8
A-FURN
100
AcDbLine
 10
11000.0
 20
13800.0
 30
0.0
 11
11000.0
 21
14200.0
 31
0.0
  0
LINE
  5
21B
330
17
100
AcDbEntity
  8
A-FURN
100
AcDbLine
 10
11200.0
 20
13800.0
 30
0.0
 11
11200.0
 21
14200.0
 31
0.0
  0
LINE
  5
21C
330
17
100
AcDbEntity
  8
A-FURN
100
AcDbLine
 10
11400.0
 20
13800.0
 30
0.0
 11
11400.0
 21
14200.0
 31
0.0
  0
LINE
  5
21D
330
17
100
AcDbEntity
  8
A-FURN
100
AcDbLine
 10
11600.0
 20
13800.0
 30
0.0
 11
11600.0
 21
14200.0
 31
0.0
  0
LINE
  5
21E
330
17
100
AcDbEntity
  8
A-FURN
100
AcDbLine
 10
11800.0
 20
13800.0
 30
0.0
 11
11800.0
 21
14200.0
 31
0.0
  0
LINE
  5
21F
330
17
100
AcDbEntity
  8
A-FURN
100
AcDbLine
 10
12000.0
 20
13800.0
 30
0.0
 11
12000.0
 21
14200.0
 31
0.0
  0
TEXT
  5
220
330
17
100
AcDbEntity
  8
A-TEXT-SML
100
AcDbText
 10
11000.0
 20
14000.0
 30
0.0
 40
130.0
  1
WARDROBE
  7
RV-ARCH
 72
1
 11
11000.0
 21
14000.0
 31
0.0
100
AcDbText
 73
2
  0
LINE
  5
221
330
17
100
AcDbEntity
  8
A-WALL-INT
100
AcDbLine
 10
15000.0
 20
6880.0
 30
0.0
 11
15000.0
 21
12980.0
 31
0.0
  0
TEXT
  5
222
330
17
100
AcDbEntity
  8
A-TEXT-MED
100
AcDbText
 10
14350.0
 20
11500.0
 30
0.0
 40
170.0
  1
UTILITY
 50
90.0
  7
RV-ARCH
 72
1
 11
14350.0
 21
11500.0
 31
0.0
100
AcDbText
 73
2
  0
TEXT
  5
223
330
17
100
AcDbEntity
  8
A-TEXT-MED
100
AcDbText
 10
15570.0
 20
11500.0
 30
0.0
 40
170.0
  1
STORE
 50
90.0
  7
RV-ARCH
 72
1
 11
15570.0
 21
11500.0
 31
0.0
100
AcDbText
 73
2
  0
LWPOLYLINE
  5
224
330
17
100
AcDbEntity
  8
A-FIX-KIT
100
AcDbPolyline
 90
4
 70
1
 10
13900.0
 20
7100.0
 10
14700.0
 20
7100.0
 10
14700.0
 20
8000.0
 10
13900.0
 20
8000.0
  0
CIRCLE
  5
225
330
17
100
AcDbEntity
  8
A-FIX-KIT
100
AcDbCircle
 10
14300.0
 20
7550.0
 30
0.0
 40
250.0
  0
TEXT
  5
226
330
17
100
AcDbEntity
  8
A-TEXT-SML
100
AcDbText
 10
14300.0
 20
7550.0
 30
0.0
 40
110.0
  1
WM
  7
RV-ARCH
 72
1
 11
14300.0
 21
7550.0
 31
0.0
100
AcDbText
 73
2
  0
LWPOLYLINE
  5
227
330
17
100
AcDbEntity
  8
A-FIX-KIT
100
AcDbPolyline
 90
4
 70
1
 10
13900.0
 20
8200.0
 10
14900.0
 20
8200.0
 10
14900.0
 20
8800.0
 10
13900.0
 20
8800.0
  0
LWPOLYLINE
  5
228
330
17
100
AcDbEntity
  8
A-FIX-KIT
100
AcDbPolyline
 90
4
 70
1
 10
14100.0
 20
8350.0
 10
14700.0
 20
8350.0
 10
14700.0
 20
8650.0
 10
14100.0
 20
8650.0
  0
TEXT
  5
229
330
17
100
AcDbEntity
  8
A-TEXT-SML
100
AcDbText
 10
14400.0
 20
8500.0
 30
0.0
 40
110.0
  1
SINK
  7
RV-ARCH
 72
1
 11
14400.0
 21
8500.0
 31
0.0
100
AcDbText
 73
2
  0
LWPOLYLINE
  5
22A
330
17
100
AcDbEntity
  8
A-FURN
100
AcDbPolyline
 90
4
 70
1
 10
15050.0
 20
7100.0
 10
16100.0
 20
7100.0
 10
16100.0
 20
7600.0
 10
15050.0
 20
7600.0
  0
LWPOLYLINE
  5
22B
330
17
100
AcDbEntity
  8
A-FURN
100
AcDbPolyline
 90
4
 70
1
 10
15050.0
 20
7800.0
 10
16100.0
 20
7800.0
 10
16100.0
 20
8300.0
 10
15050.0
 20
8300.0
  0
LWPOLYLINE
  5
22C
330
17
100
AcDbEntity
  8
A-FURN
100
AcDbPolyline
 90
4
 70
1
 10
15050.0
 20
8500.0
 10
16100.0
 20
8500.0
 10
16100.0
 20
9000.0
 10
15050.0
 20
9000.0
  0
TEXT
  5
22D
330
17
100
AcDbEntity
  8
A-TEXT-LRG
100
AcDbText
 10
1500.0
 20
1500.0
 30
0.0
 40
240.0
  1
ENTRY FOYER
  7
RV-TITLE
 72
1
 11
1500.0
 21
1500.0
 31
0.0
100
AcDbText
 73
2
  0
TEXT
  5
22E
330
17
100
AcDbEntity
  8
A-TEXT-LRG
100
AcDbText
 10
1500.0
 20
1200.0
 30
0.0
 40
140.0
  1
100 sq.ft
  7
RV-TITLE
 72
1
 11
1500.0
 21
1200.0
 31
0.0
100
AcDbText
 73
2
  0
TEXT
  5
22F
330
17
100
AcDbEntity
  8
A-TEXT-LRG
100
AcDbText
 10
7600.0
 20
1100.0
 30
0.0
 40
320.0
  1
LIVING ROOM
  7
RV-TITLE
 72
1
 11
7600.0
 21
1100.0
 31
0.0
100
AcDbText
 73
2
  0
TEXT
  5
230
330
17
100
AcDbEntity
  8
A-TEXT-LRG
100
AcDbText
 10
7600.0
 20
700.0
 30
0.0
 40
160.0
  1
280 sq.ft
  7
RV-TITLE
 72
1
 11
7600.0
 21
700.0
 31
0.0
100
AcDbText
 73
2
  0
TEXT
  5
231
330
17
100
AcDbEntity
  8
A-TEXT-LRG
100
AcDbText
 10
3050.0
 20
3850.0
 30
0.0
 40
280.0
  1
DINING AREA
  7
RV-TITLE
 72
1
 11
3050.0
 21
3850.0
 31
0.0
100
AcDbText
 73
2
  0
TEXT
  5
232
330
17
100
AcDbEntity
  8
A-TEXT-LRG
100
AcDbText
 10
3050.0
 20
3450.0
 30
0.0
 40
150.0
  1
200 sq.ft
  7
RV-TITLE
 72
1
 11
3050.0
 21
3450.0
 31
0.0
100
AcDbText
 73
2
  0
TEXT
  5
233
330
17
100
AcDbEntity
  8
A-TEXT-LRG
100
AcDbText
 10
9150.0
 20
3850.0
 30
0.0
 40
280.0
  1
OPEN KITCHEN
  7
RV-TITLE
 72
1
 11
9150.0
 21
3850.0
 31
0.0
100
AcDbText
 73
2
  0
TEXT
  5
234
330
17
100
AcDbEntity
  8
A-TEXT-LRG
100
AcDbText
 10
9150.0
 20
3450.0
 30
0.0
 40
150.0
  1
200 sq.ft
  7
RV-TITLE
 72
1
 11
9150.0
 21
3450.0
 31
0.0
100
AcDbText
 73
2
  0
TEXT
  5
235
330
17
100
AcDbEntity
  8
A-TEXT-LRG
100
AcDbText
 10
1220.0
 20
12700.0
 30
0.0
 40
280.0
  1
MASTER BEDROOM
  7
RV-TITLE
 72
1
 11
1220.0
 21
12700.0
 31
0.0
100
AcDbText
 73
2
  0
TEXT
  5
236
330
17
100
AcDbEntity
  8
A-TEXT-LRG
100
AcDbText
 10
1220.0
 20
12350.0
 30
0.0
 40
150.0
  1
300 sq.ft
  7
RV-TITLE
 72
1
 11
1220.0
 21
12350.0
 31
0.0
100
AcDbText
 73
2
  0
TEXT
  5
237
330
17
100
AcDbEntity
  8
A-TEXT-LRG
100
AcDbText
 10
3050.0
 20
11700.0
 30
0.0
 40
170.0
  1
MASTER
 50
90.0
  7
RV-TITLE
 72
1
 11
3050.0
 21
11700.0
 31
0.0
100
AcDbText
 73
2
  0
TEXT
  5
238
330
17
100
AcDbEntity
  8
A-TEXT-LRG
100
AcDbText
 10
3050.0
 20
11500.0
 30
0.0
 40
170.0
  1
BATH
 50
90.0
  7
RV-TITLE
 72
1
 11
3050.0
 21
11500.0
 31
0.0
100
AcDbText
 73
2
  0
TEXT
  5
239
330
17
100
AcDbEntity
  8
A-TEXT-LRG
100
AcDbText
 10
4400.0
 20
10800.0
 30
0.0
 40
130.0
  1
140 sq.ft
  7
RV-TITLE
 72
1
 11
4400.0
 21
10800.0
 31
0.0
100
AcDbText
 73
2
  0
TEXT
  5
23A
330
17
100
AcDbEntity
  8
A-TEXT-LRG
100
AcDbText
 10
3660.0
 20
8700.0
 30
0.0
 40
200.0
  1
PRIVATE
  7
RV-TITLE
 72
1
 11
3660.0
 21
8700.0
 31
0.0
100
AcDbText
 73
2
  0
TEXT
  5
23B
330
17
100
AcDbEntity
  8
A-TEXT-LRG
100
AcDbText
 10
3660.0
 20
8500.0
 30
0.0
 40
200.0
  1
LOUNGE
  7
RV-TITLE
 72
1
 11
3660.0
 21
8500.0
 31
0.0
100
AcDbText
 73
2
  0
TEXT
  5
23C
330
17
100
AcDbEntity
  8
A-TEXT-LRG
100
AcDbText
 10
3660.0
 20
8200.0
 30
0.0
 40
130.0
  1
110 sq.ft
  7
RV-TITLE
 72
1
 11
3660.0
 21
8200.0
 31
0.0
100
AcDbText
 73
2
  0
TEXT
  5
23D
330
17
100
AcDbEntity
  8
A-TEXT-LRG
100
AcDbText
 10
11000.0
 20
15300.0
 30
0.0
 40
280.0
  1
BEDROOM 2
  7
RV-TITLE
 72
1
 11
11000.0
 21
15300.0
 31
0.0
100
AcDbText
 73
2
  0
TEXT
  5
23E
330
17
100
AcDbEntity
  8
A-TEXT-LRG
100
AcDbText
 10
11000.0
 20
14950.0
 30
0.0
 40
150.0
  1
280 sq.ft
  7
RV-TITLE
 72
1
 11
11000.0
 21
14950.0
 31
0.0
100
AcDbText
 73
2
  0
TEXT
  5
23F
330
17
100
AcDbEntity
  8
A-TEXT-LRG
100
AcDbText
 10
8540.0
 20
12950.0
 30
0.0
 40
200.0
  1
BR2 BATH
  7
RV-TITLE
 72
1
 11
8540.0
 21
12950.0
 31
0.0
100
AcDbText
 73
2
  0
TEXT
  5
240
330
17
100
AcDbEntity
  8
A-TEXT-LRG
100
AcDbText
 10
8540.0
 20
12650.0
 30
0.0
 40
130.0
  1
110 sq.ft
  7
RV-TITLE
 72
1
 11
8540.0
 21
12650.0
 31
0.0
100
AcDbText
 73
2
  0
TEXT
  5
241
330
17
100
AcDbEntity
  8
A-TEXT-LRG
100
AcDbText
 10
8540.0
 20
10350.0
 30
0.0
 40
220.0
  1
FAMILY
  7
RV-TITLE
 72
1
 11
8540.0
 21
10350.0
 31
0.0
100
AcDbText
 73
2
  0
TEXT
  5
242
330
17
100
AcDbEntity
  8
A-TEXT-LRG
100
AcDbText
 10
8540.0
 20
10100.0
 30
0.0
 40
220.0
  1
LOUNGE
  7
RV-TITLE
 72
1
 11
8540.0
 21
10100.0
 31
0.0
100
AcDbText
 73
2
  0
TEXT
  5
243
330
17
100
AcDbEntity
  8
A-TEXT-LRG
100
AcDbText
 10
8540.0
 20
9800.0
 30
0.0
 40
150.0
  1
STUDY
  7
RV-TITLE
 72
1
 11
8540.0
 21
9800.0
 31
0.0
100
AcDbText
 73
2
  0
TEXT
  5
244
330
17
100
AcDbEntity
  8
A-TEXT-LRG
100
AcDbText
 10
8540.0
 20
9500.0
 30
0.0
 40
130.0
  1
140 sq.ft
  7
RV-TITLE
 72
1
 11
8540.0
 21
9500.0
 31
0.0
100
AcDbText
 73
2
  0
TEXT
  5
245
330
17
100
AcDbEntity
  8
A-TEXT-LRG
100
AcDbText
 10
8540.0
 20
7900.0
 30
0.0
 40
170.0
  1
POWDER
  7
RV-TITLE
 72
1
 11
8540.0
 21
7900.0
 31
0.0
100
AcDbText
 73
2
  0
TEXT
  5
246
330
17
100
AcDbEntity
  8
A-TEXT-LRG
100
AcDbText
 10
8540.0
 20
7650.0
 30
0.0
 40
110.0
  1
50 sq.ft
  7
RV-TITLE
 72
1
 11
8540.0
 21
7650.0
 31
0.0
100
AcDbText
 73
2
  0
TEXT
  5
247
330
17
100
AcDbEntity
  8
A-TEXT-LRG
100
AcDbText
 10
14900.0
 20
6300.0
 30
0.0
 40
200.0
  1
UTILITY + STORE
  7
RV-TITLE
 72
1
 11
14900.0
 21
6300.0
 31
0.0
100
AcDbText
 73
2
  0
TEXT
  5
248
330
17
100
AcDbEntity
  8
A-TEXT-LRG
100
AcDbText
 10
14900.0
 20
6000.0
 30
0.0
 40
130.0
  1
160 sq.ft
  7
RV-TITLE
 72
1
 11
14900.0
 21
6000.0
 31
0.0
100
AcDbText
 73
2
  0
DIMENSION
  5
249
330
17
100
AcDbEntity
  8
A-DIM
100
AcDbDimension
280
0
  2
*D1
  3
RV-DIM
 10
0.0
 20
-3200.0
 30
0.0
 11
6100.0
 21
-3070.0
 31
0.0
 70
32
 71
5
  1
12200
100
AcDbAlignedDimension
 13
0.0
 23
-230.0
 33
0.0
 14
12200.0
 24
-230.0
 34
0.0
 50
0.0
100
AcDbRotatedDimension
  0
DIMENSION
  5
258
330
17
100
AcDbEntity
  8
A-DIM
100
AcDbDimension
280
0
  2
*D2
  3
RV-DIM
 10
0.0
 20
-2000.0
 30
0.0
 11
1500.0
 21
-1870.0
 31
0.0
 70
32
 71
5
  1
<>
100
AcDbAlignedDimension
 13
0.0
 23
-230.0
 33
0.0
 14
3000.0
 24
-230.0
 34
0.0
 50
0.0
100
AcDbRotatedDimension
  0
DIMENSION
  5
267
330
17
100
AcDbEntity
  8
A-DIM
100
AcDbDimension
280
0
  2
*D3
  3
RV-DIM
 10
3000.0
 20
-2000.0
 30
0.0
 11
7600.0
 21
-1870.0
 31
0.0
 70
32
 71
5
  1
<>
100
AcDbAlignedDimension
 13
3000.0
 23
-230.0
 33
0.0
 14
12200.0
 24
-230.0
 34
0.0
 50
0.0
100
AcDbRotatedDimension
  0
DIMENSION
  5
276
330
17
100
AcDbEntity
  8
A-DIM
100
AcDbDimension
280
0
  2
*D4
  3
RV-DIM
 10
-3200.0
 20
0.0
 30
0.0
 11
-3330.0
 21
8540.0
 31
0.0
 70
32
 71
5
  1
17080
100
AcDbAlignedDimension
 13
-230.0
 23
0.0
 33
0.0
 14
-230.0
 24
17080.0
 34
0.0
 50
90.0
100
AcDbRotatedDimension
  0
DIMENSION
  5
285
330
17
100
AcDbEntity
  8
A-DIM
100
AcDbDimension
280
0
  2
*D5
  3
RV-DIM
 10
-2000.0
 20
0.0
 30
0.0
 11
-2130.0
 21
1220.0
 31
0.0
 70
32
 71
5
  1
<>
100
AcDbAlignedDimension
 13
-230.0
 23
0.0
 33
0.0
 14
-230.0
 24
2440.0
 34
0.0
 50
90.0
100
AcDbRotatedDimension
  0
DIMENSION
  5
294
330
17
100
AcDbEntity
  8
A-DIM
100
AcDbDimension
280
0
  2
*D6
  3
RV-DIM
 10
-2000.0
 20
2440.0
 30
0.0
 11
-2130.0
 21
3660.0
 31
0.0
 70
32
 71
5
  1
<>
100
AcDbAlignedDimension
 13
-230.0
 23
2440.0
 33
0.0
 14
-230.0
 24
4880.0
 34
0.0
 50
90.0
100
AcDbRotatedDimension
  0
DIMENSION
  5
2A3
330
17
100
AcDbEntity
  8
A-DIM
100
AcDbDimension
280
0
  2
*D7
  3
RV-DIM
 10
-2000.0
 20
4880.0
 30
0.0
 11
-2130.0
 21
7430.0
 31
0.0
 70
32
 71
5
  1
<>
100
AcDbAlignedDimension
 13
-230.0
 23
4880.0
 33
0.0
 14
-230.0
 24
9980.0
 34
0.0
 50
90.0
100
AcDbRotatedDimension
  0
DIMENSION
  5
2B2
330
17
100
AcDbEntity
  8
A-DIM
100
AcDbDimension
280
0
  2
*D8
  3
RV-DIM
 10
-2000.0
 20
9980.0
 30
0.0
 11
-2130.0
 21
13530.0
 31
0.0
 70
32
 71
5
  1
<>
100
AcDbAlignedDimension
 13
-230.0
 23
9980.0
 33
0.0
 14
-230.0
 24
17080.0
 34
0.0
 50
90.0
100
AcDbRotatedDimension
  0
DIMENSION
  5
2C1
330
17
100
AcDbEntity
  8
A-DIM
100
AcDbDimension
280
0
  2
*D9
  3
RV-DIM
 10
4880.0
 20
2000.0
 30
0.0
 11
6100.0
 21
2230.0
 31
0.0
 70
32
 71
5
  1
2440 (COURTYARD)
100
AcDbAlignedDimension
 13
4880.0
 23
17310.0
 33
0.0
 14
7320.0
 24
17310.0
 34
0.0
 50
0.0
100
AcDbRotatedDimension
  0
DIMENSION
  5
2D0
330
17
100
AcDbEntity
  8
A-DIM
100
AcDbDimension
280
0
  2
*D10
  3
RV-DIM
 10
2000.0
 20
0.0
 30
0.0
 11
1870.0
 21
8540.0
 31
0.0
 70
32
 71
5
  1
17080
100
AcDbAlignedDimension
 13
12430.0
 23
0.0
 33
0.0
 14
12430.0
 24
17080.0
 34
0.0
 50
90.0
100
AcDbRotatedDimension
  0
DIMENSION
  5
2DF
330
17
100
AcDbEntity
  8
A-DIM
100
AcDbDimension
280
0
  2
*D11
  3
RV-DIM
 10
1200.0
 20
4880.0
 30
0.0
 11
1070.0
 21
10980.0
 31
0.0
 70
32
 71
5
  1
12200
100
AcDbAlignedDimension
 13
4880.0
 23
4880.0
 33
0.0
 14
4880.0
 24
17080.0
 34
0.0
 50
90.0
100
AcDbRotatedDimension
  0
DIMENSION
  5
2EE
330
17
100
AcDbEntity
  8
A-DIM
100
AcDbDimension
280
0
  2
*D12
  3
RV-DIM
 10
13700.0
 20
-1500.0
 30
0.0
 11
14920.0
 21
-1370.0
 31
0.0
 70
32
 71
5
  1
2440
100
AcDbAlignedDimension
 13
13700.0
 23
6880.0
 33
0.0
 14
16140.0
 24
6880.0
 34
0.0
 50
0.0
100
AcDbRotatedDimension
  0
DIMENSION
  5
2FD
330
17
100
AcDbEntity
  8
A-DIM
100
AcDbDimension
280
0
  2
*D13
  3
RV-DIM
 10
1500.0
 20
6880.0
 30
0.0
 11
1370.0
 21
9930.0
 31
0.0
 70
32
 71
5
  1
6100
100
AcDbAlignedDimension
 13
16140.0
 23
6880.0
 33
0.0
 14
16140.0
 24
12980.0
 34
0.0
 50
90.0
100
AcDbRotatedDimension
  0
CIRCLE
  5
30C
330
17
100
AcDbEntity
  8
A-NORTH
100
AcDbCircle
 10
21000.0
 20
16500.0
 30
0.0
 40
1300.0
  0
LINE
  5
30D
330
17
100
AcDbEntity
  8
A-NORTH
100
AcDbLine
 10
22400.0
 20
16500.0
 30
0.0
 11
22650.0
 21
16500.0
 31
0.0
  0
LINE
  5
30E
330
17
100
AcDbEntity
  8
A-NORTH
100
AcDbLine
 10
21000.0
 20
17900.0
 30
0.0
 11
21000.0
 21
18150.0
 31
0.0
  0
LINE
  5
30F
330
17
100
AcDbEntity
  8
A-NORTH
100
AcDbLine
 10
19600.0
 20
16500.0
 30
0.0
 11
19350.0
 21
16500.0
 31
0.0
  0
LINE
  5
310
330
17
100
AcDbEntity
  8
A-NORTH
100
AcDbLine
 10
21000.0
 20
15100.0
 30
0.0
 11
21000.0
 21
14850.0
 31
0.0
  0
LWPOLYLINE
  5
311
330
17
100
AcDbEntity
  8
A-NORTH
100
AcDbPolyline
 90
4
 70
1
 10
21000.0
 20
15400.0
 10
20285.0
 20
16825.0
 10
21000.0
 20
17700.0
 10
21715.0
 20
16825.0
  0
HATCH
  5
312
330
17
100
AcDbEntity
  8
A-NORTH
 62
7
100
AcDbHatch
 10
0.0
 20
0.0
 30
0.0
210
0.0
220
0.0
230
1.0
  2
SOLID
 70
1
 71
0
 91
1
 92
3
 72
0
 73
1
 93
3
 10
21000.0
 20
15400.0
 10
21000.0
 20
17700.0
 10
21715.0
 20
16825.0
 97
0
 75
1
 76
1
 98
0
  0
TEXT
  5
313
330
17
100
AcDbEntity
  8
A-NORTH
100
AcDbText
 10
21000.0
 20
18400.0
 30
0.0
 40
400.0
  1
N
  7
RV-TITLE
 72
1
 11
21000.0
 21
18400.0
 31
0.0
100
AcDbText
 73
2
  0
LWPOLYLINE
  5
314
330
17
100
AcDbEntity
  8
A-SCALE
100
AcDbPolyline
 90
4
 70
1
 10
-1500.0
 20
-5500.0
 10
-500.0
 20
-5500.0
 10
-500.0
 20
-5280.0
 10
-1500.0
 20
-5280.0
  0
HATCH
  5
315
330
17
100
AcDbEntity
  8
A-SCALE
 62
7
100
AcDbHatch
 10
0.0
 20
0.0
 30
0.0
210
0.0
220
0.0
230
1.0
  2
SOLID
 70
1
 71
0
 91
1
 92
3
 72
0
 73
1
 93
4
 10
-1500.0
 20
-5500.0
 10
-500.0
 20
-5500.0
 10
-500.0
 20
-5280.0
 10
-1500.0
 20
-5280.0
 97
0
 75
1
 76
1
 98
0
  0
TEXT
  5
316
330
17
100
AcDbEntity
  8
A-SCALE
100
AcDbText
 10
-1500.0
 20
-5900.0
 30
0.0
 40
180.0
  1
0
  7
RV-ARCH
 72
1
 11
-1500.0
 21
-5900.0
 31
0.0
100
AcDbText
 73
2
  0
LWPOLYLINE
  5
317
330
17
100
AcDbEntity
  8
A-SCALE
100
AcDbPolyline
 90
4
 70
1
 10
-500.0
 20
-5500.0
 10
500.0
 20
-5500.0
 10
500.0
 20
-5280.0
 10
-500.0
 20
-5280.0
  0
TEXT
  5
318
330
17
100
AcDbEntity
  8
A-SCALE
100
AcDbText
 10
-500.0
 20
-5900.0
 30
0.0
 40
180.0
  1
1
  7
RV-ARCH
 72
1
 11
-500.0
 21
-5900.0
 31
0.0
100
AcDbText
 73
2
  0
LWPOLYLINE
  5
319
330
17
100
AcDbEntity
  8
A-SCALE
100
AcDbPolyline
 90
4
 70
1
 10
500.0
 20
-5500.0
 10
1500.0
 20
-5500.0
 10
1500.0
 20
-5280.0
 10
500.0
 20
-5280.0
  0
HATCH
  5
31A
330
17
100
AcDbEntity
  8
A-SCALE
 62
7
100
AcDbHatch
 10
0.0
 20
0.0
 30
0.0
210
0.0
220
0.0
230
1.0
  2
SOLID
 70
1
 71
0
 91
1
 92
3
 72
0
 73
1
 93
4
 10
500.0
 20
-5500.0
 10
1500.0
 20
-5500.0
 10
1500.0
 20
-5280.0
 10
500.0
 20
-5280.0
 97
0
 75
1
 76
1
 98
0
  0
TEXT
  5
31B
330
17
100
AcDbEntity
  8
A-SCALE
100
AcDbText
 10
500.0
 20
-5900.0
 30
0.0
 40
180.0
  1
2
  7
RV-ARCH
 72
1
 11
500.0
 21
-5900.0
 31
0.0
100
AcDbText
 73
2
  0
LWPOLYLINE
  5
31C
330
17
100
AcDbEntity
  8
A-SCALE
100
AcDbPolyline
 90
4
 70
1
 10
1500.0
 20
-5500.0
 10
2500.0
 20
-5500.0
 10
2500.0
 20
-5280.0
 10
1500.0
 20
-5280.0
  0
TEXT
  5
31D
330
17
100
AcDbEntity
  8
A-SCALE
100
AcDbText
 10
1500.0
 20
-5900.0
 30
0.0
 40
180.0
  1
3
  7
RV-ARCH
 72
1
 11
1500.0
 21
-5900.0
 31
0.0
100
AcDbText
 73
2
  0
LWPOLYLINE
  5
31E
330
17
100
AcDbEntity
  8
A-SCALE
100
AcDbPolyline
 90
4
 70
1
 10
2500.0
 20
-5500.0
 10
3500.0
 20
-5500.0
 10
3500.0
 20
-5280.0
 10
2500.0
 20
-5280.0
  0
HATCH
  5
31F
330
17
100
AcDbEntity
  8
A-SCALE
 62
7
100
AcDbHatch
 10
0.0
 20
0.0
 30
0.0
210
0.0
220
0.0
230
1.0
  2
SOLID
 70
1
 71
0
 91
1
 92
3
 72
0
 73
1
 93
4
 10
2500.0
 20
-5500.0
 10
3500.0
 20
-5500.0
 10
3500.0
 20
-5280.0
 10
2500.0
 20
-5280.0
 97
0
 75
1
 76
1
 98
0
  0
TEXT
  5
320
330
17
100
AcDbEntity
  8
A-SCALE
100
AcDbText
 10
2500.0
 20
-5900.0
 30
0.0
 40
180.0
  1
4
  7
RV-ARCH
 72
1
 11
2500.0
 21
-5900.0
 31
0.0
100
AcDbText
 73
2
  0
TEXT
  5
321
330
17
100
AcDbEntity
  8
A-SCALE
100
AcDbText
 10
3500.0
 20
-5900.0
 30
0.0
 40
180.0
  1
5
  7
RV-ARCH
 72
1
 11
3500.0
 21
-5900.0
 31
0.0
100
AcDbText
 73
2
  0
TEXT
  5
322
330
17
100
AcDbEntity
  8
A-SCALE
100
AcDbText
 10
1000.0
 20
-6350.0
 30
0.0
 40
240.0
  1
SCALE 1 : 100   (metres)
  7
RV-TITLE
 72
1
 11
1000.0
 21
-6350.0
 31
0.0
100
AcDbText
 73
2
  0
LWPOLYLINE
  5
323
330
17
100
AcDbEntity
  8
A-TITLE
100
AcDbPolyline
 90
4
 70
1
 10
60600.0
 20
-10500.0
 10
72600.0
 20
-10500.0
 10
72600.0
 20
5500.0
 10
60600.0
 20
5500.0
  0
LINE
  5
324
330
17
100
AcDbEntity
  8
A-TITLE
100
AcDbLine
 10
60600.0
 20
3300.0
 30
0.0
 11
72600.0
 21
3300.0
 31
0.0
  0
HATCH
  5
325
330
17
100
AcDbEntity
  8
A-TITLE
 62
7
100
AcDbHatch
 10
0.0
 20
0.0
 30
0.0
210
0.0
220
0.0
230
1.0
  2
SOLID
 70
1
 71
0
 91
1
 92
3
 72
0
 73
1
 93
4
 10
60600.0
 20
3300.0
 10
72600.0
 20
3300.0
 10
72600.0
 20
5500.0
 10
60600.0
 20
5500.0
 97
0
 75
1
 76
1
 98
0
  0
TEXT
  5
326
330
17
100
AcDbEntity
  8
A-TITLE
100
AcDbText
 10
66600.0
 20
4400.0
 30
0.0
 40
600.0
  1
RESERVE  VARDE
  7
RV-TITLE
 72
1
 11
66600.0
 21
4400.0
 31
0.0
100
AcDbText
 73
2
  0
LINE
  5
327
330
17
100
AcDbEntity
  8
A-TITLE
100
AcDbLine
 10
60600.0
 20
2150.0
 30
0.0
 11
72600.0
 21
2150.0
 31
0.0
  0
LINE
  5
328
330
17
100
AcDbEntity
  8
A-TITLE
100
AcDbLine
 10
65640.0
 20
3300.0
 30
0.0
 11
65640.0
 21
2150.0
 31
0.0
  0
TEXT
  5
329
330
17
100
AcDbEntity
  8
A-TITLE
100
AcDbText
 10
60850.0
 20
2725.0
 30
0.0
 40
200.0
  1
PROJECT
  7
RV-ARCH
 11
60850.0
 21
2725.0
 31
0.0
100
AcDbText
 73
2
  0
TEXT
  5
32A
330
17
100
AcDbEntity
  8
A-TITLE
100
AcDbText
 10
65890.0
 20
2725.0
 30
0.0
 40
240.0
  1
Reserva Verde Goa - South Goa
  7
RV-TITLE
 11
65890.0
 21
2725.0
 31
0.0
100
AcDbText
 73
2
  0
LINE
  5
32B
330
17
100
AcDbEntity
  8
A-TITLE
100
AcDbLine
 10
60600.0
 20
1000.0
 30
0.0
 11
72600.0
 21
1000.0
 31
0.0
  0
LINE
  5
32C
330
17
100
AcDbEntity
  8
A-TITLE
100
AcDbLine
 10
65640.0
 20
2150.0
 30
0.0
 11
65640.0
 21
1000.0
 31
0.0
  0
TEXT
  5
32D
330
17
100
AcDbEntity
  8
A-TITLE
100
AcDbText
 10
60850.0
 20
1575.0
 30
0.0
 40
200.0
  1
MODEL
  7
RV-ARCH
 11
60850.0
 21
1575.0
 31
0.0
100
AcDbText
 73
2
  0
TEXT
  5
32E
330
17
100
AcDbEntity
  8
A-TITLE
100
AcDbText
 10
65890.0
 20
1575.0
 30
0.0
 40
240.0
  1
2BHK Compact Modular Eco Estate
  7
RV-TITLE
 11
65890.0
 21
1575.0
 31
0.0
100
AcDbText
 73
2
  0
LINE
  5
32F
330
17
100
AcDbEntity
  8
A-TITLE
100
AcDbLine
 10
60600.0
 20
-150.0
 30
0.0
 11
72600.0
 21
-150.0
 31
0.0
  0
LINE
  5
330
330
17
100
AcDbEntity
  8
A-TITLE
100
AcDbLine
 10
65640.0
 20
1000.0
 30
0.0
 11
65640.0
 21
-150.0
 31
0.0
  0
TEXT
  5
331
330
17
100
AcDbEntity
  8
A-TITLE
100
AcDbText
 10
60850.0
 20
425.0
 30
0.0
 40
200.0
  1
BUILT-UP AREA
  7
RV-ARCH
 11
60850.0
 21
425.0
 31
0.0
100
AcDbText
 73
2
  0
TEXT
  5
332
330
17
100
AcDbEntity
  8
A-TITLE
100
AcDbText
 10
65890.0
 20
425.0
 30
0.0
 40
240.0
  1
2500 sq.ft (232 sq.m approx)
  7
RV-TITLE
 11
65890.0
 21
425.0
 31
0.0
100
AcDbText
 73
2
  0
LINE
  5
333
330
17
100
AcDbEntity
  8
A-TITLE
100
AcDbLine
 10
60600.0
 20
-1300.0
 30
0.0
 11
72600.0
 21
-1300.0
 31
0.0
  0
LINE
  5
334
330
17
100
AcDbEntity
  8
A-TITLE
100
AcDbLine
 10
65640.0
 20
-150.0
 30
0.0
 11
65640.0
 21
-1300.0
 31
0.0
  0
TEXT
  5
335
330
17
100
AcDbEntity
  8
A-TITLE
100
AcDbText
 10
60850.0
 20
-725.0
 30
0.0
 40
200.0
  1
FOOTPRINT
  7
RV-ARCH
 11
60850.0
 21
-725.0
 31
0.0
100
AcDbText
 73
2
  0
TEXT
  5
336
330
17
100
AcDbEntity
  8
A-TITLE
100
AcDbText
 10
65890.0
 20
-725.0
 30
0.0
 40
240.0
  1
6 x 40 ft HC + 1 x 20 ft Service
  7
RV-TITLE
 11
65890.0
 21
-725.0
 31
0.0
100
AcDbText
 73
2
  0
LINE
  5
337
330
17
100
AcDbEntity
  8
A-TITLE
100
AcDbLine
 10
60600.0
 20
-2450.0
 30
0.0
 11
72600.0
 21
-2450.0
 31
0.0
  0
LINE
  5
338
330
17
100
AcDbEntity
  8
A-TITLE
100
AcDbLine
 10
65640.0
 20
-1300.0
 30
0.0
 11
65640.0
 21
-2450.0
 31
0.0
  0
TEXT
  5
339
330
17
100
AcDbEntity
  8
A-TITLE
100
AcDbText
 10
60850.0
 20
-1875.0
 30
0.0
 40
200.0
  1
PLAN TYPE
  7
RV-ARCH
 11
60850.0
 21
-1875.0
 31
0.0
100
AcDbText
 73
2
  0
TEXT
  5
33A
330
17
100
AcDbEntity
  8
A-TITLE
100
AcDbText
 10
65890.0
 20
-1875.0
 30
0.0
 40
240.0
  1
U-Shape Courtyard, Ground Level
  7
RV-TITLE
 11
65890.0
 21
-1875.0
 31
0.0
100
AcDbText
 73
2
  0
LINE
  5
33B
330
17
100
AcDbEntity
  8
A-TITLE
100
AcDbLine
 10
60600.0
 20
-3600.0
 30
0.0
 11
72600.0
 21
-3600.0
 31
0.0
  0
LINE
  5
33C
330
17
100
AcDbEntity
  8
A-TITLE
100
AcDbLine
 10
65640.0
 20
-2450.0
 30
0.0
 11
65640.0
 21
-3600.0
 31
0.0
  0
TEXT
  5
33D
330
17
100
AcDbEntity
  8
A-TITLE
100
AcDbText
 10
60850.0
 20
-3025.0
 30
0.0
 40
200.0
  1
DRAWING
  7
RV-ARCH
 11
60850.0
 21
-3025.0
 31
0.0
100
AcDbText
 73
2
  0
TEXT
  5
33E
330
17
100
AcDbEntity
  8
A-TITLE
100
AcDbText
 10
65890.0
 20
-3025.0
 30
0.0
 40
240.0
  1
Concept Floor Plan
  7
RV-TITLE
 11
65890.0
 21
-3025.0
 31
0.0
100
AcDbText
 73
2
  0
LINE
  5
33F
330
17
100
AcDbEntity
  8
A-TITLE
100
AcDbLine
 10
60600.0
 20
-4750.0
 30
0.0
 11
72600.0
 21
-4750.0
 31
0.0
  0
LINE
  5
340
330
17
100
AcDbEntity
  8
A-TITLE
100
AcDbLine
 10
65640.0
 20
-3600.0
 30
0.0
 11
65640.0
 21
-4750.0
 31
0.0
  0
TEXT
  5
341
330
17
100
AcDbEntity
  8
A-TITLE
100
AcDbText
 10
60850.0
 20
-4175.0
 30
0.0
 40
200.0
  1
DRAWING NO.
  7
RV-ARCH
 11
60850.0
 21
-4175.0
 31
0.0
100
AcDbText
 73
2
  0
TEXT
  5
342
330
17
100
AcDbEntity
  8
A-TITLE
100
AcDbText
 10
65890.0
 20
-4175.0
 30
0.0
 40
240.0
  1
RV-2BHK-FP-01
  7
RV-TITLE
 11
65890.0
 21
-4175.0
 31
0.0
100
AcDbText
 73
2
  0
LINE
  5
343
330
17
100
AcDbEntity
  8
A-TITLE
100
AcDbLine
 10
60600.0
 20
-5900.0
 30
0.0
 11
72600.0
 21
-5900.0
 31
0.0
  0
LINE
  5
344
330
17
100
AcDbEntity
  8
A-TITLE
100
AcDbLine
 10
65640.0
 20
-4750.0
 30
0.0
 11
65640.0
 21
-5900.0
 31
0.0
  0
TEXT
  5
345
330
17
100
AcDbEntity
  8
A-TITLE
100
AcDbText
 10
60850.0
 20
-5325.0
 30
0.0
 40
200.0
  1
SCALE
  7
RV-ARCH
 11
60850.0
 21
-5325.0
 31
0.0
100
AcDbText
 73
2
  0
TEXT
  5
346
330
17
100
AcDbEntity
  8
A-TITLE
100
AcDbText
 10
65890.0
 20
-5325.0
 30
0.0
 40
240.0
  1
1 : 100
  7
RV-TITLE
 11
65890.0
 21
-5325.0
 31
0.0
100
AcDbText
 73
2
  0
LINE
  5
347
330
17
100
AcDbEntity
  8
A-TITLE
100
AcDbLine
 10
60600.0
 20
-7050.0
 30
0.0
 11
72600.0
 21
-7050.0
 31
0.0
  0
LINE
  5
348
330
17
100
AcDbEntity
  8
A-TITLE
100
AcDbLine
 10
65640.0
 20
-5900.0
 30
0.0
 11
65640.0
 21
-7050.0
 31
0.0
  0
TEXT
  5
349
330
17
100
AcDbEntity
  8
A-TITLE
100
AcDbText
 10
60850.0
 20
-6475.0
 30
0.0
 40
200.0
  1
REVISION
  7
RV-ARCH
 11
60850.0
 21
-6475.0
 31
0.0
100
AcDbText
 73
2
  0
TEXT
  5
34A
330
17
100
AcDbEntity
  8
A-TITLE
100
AcDbText
 10
65890.0
 20
-6475.0
 30
0.0
 40
240.0
  1
v2.0 (cleaned)
  7
RV-TITLE
 11
65890.0
 21
-6475.0
 31
0.0
100
AcDbText
 73
2
  0
LINE
  5
34B
330
17
100
AcDbEntity
  8
A-TITLE
100
AcDbLine
 10
60600.0
 20
-8200.0
 30
0.0
 11
72600.0
 21
-8200.0
 31
0.0
  0
LINE
  5
34C
330
17
100
AcDbEntity
  8
A-TITLE
100
AcDbLine
 10
65640.0
 20
-7050.0
 30
0.0
 11
65640.0
 21
-8200.0
 31
0.0
  0
TEXT
  5
34D
330
17
100
AcDbEntity
  8
A-TITLE
100
AcDbText
 10
60850.0
 20
-7625.0
 30
0.0
 40
200.0
  1
DATE
  7
RV-ARCH
 11
60850.0
 21
-7625.0
 31
0.0
100
AcDbText
 73
2
  0
TEXT
  5
34E
330
17
100
AcDbEntity
  8
A-TITLE
100
AcDbText
 10
65890.0
 20
-7625.0
 30
0.0
 40
240.0
  1
May 2026
  7
RV-TITLE
 11
65890.0
 21
-7625.0
 31
0.0
100
AcDbText
 73
2
  0
LINE
  5
34F
330
17
100
AcDbEntity
  8
A-TITLE
100
AcDbLine
 10
60600.0
 20
-9350.0
 30
0.0
 11
72600.0
 21
-9350.0
 31
0.0
  0
LINE
  5
350
330
17
100
AcDbEntity
  8
A-TITLE
100
AcDbLine
 10
65640.0
 20
-8200.0
 30
0.0
 11
65640.0
 21
-9350.0
 31
0.0
  0
TEXT
  5
351
330
17
100
AcDbEntity
  8
A-TITLE
100
AcDbText
 10
60850.0
 20
-8775.0
 30
0.0
 40
200.0
  1
DRAWN BY
  7
RV-ARCH
 11
60850.0
 21
-8775.0
 31
0.0
100
AcDbText
 73
2
  0
TEXT
  5
352
330
17
100
AcDbEntity
  8
A-TITLE
100
AcDbText
 10
65890.0
 20
-8775.0
 30
0.0
 40
240.0
  1
Reserve Varde Design Studio
  7
RV-TITLE
 11
65890.0
 21
-8775.0
 31
0.0
100
AcDbText
 73
2
  0
LINE
  5
353
330
17
100
AcDbEntity
  8
A-TITLE
100
AcDbLine
 10
60600.0
 20
-10500.0
 30
0.0
 11
72600.0
 21
-10500.0
 31
0.0
  0
LINE
  5
354
330
17
100
AcDbEntity
  8
A-TITLE
100
AcDbLine
 10
65640.0
 20
-9350.0
 30
0.0
 11
65640.0
 21
-10500.0
 31
0.0
  0
TEXT
  5
355
330
17
100
AcDbEntity
  8
A-TITLE
100
AcDbText
 10
60850.0
 20
-9925.0
 30
0.0
 40
200.0
  1
STATUS
  7
RV-ARCH
 11
60850.0
 21
-9925.0
 31
0.0
100
AcDbText
 73
2
  0
TEXT
  5
356
330
17
100
AcDbEntity
  8
A-TITLE
100
AcDbText
 10
65890.0
 20
-9925.0
 30
0.0
 40
240.0
  1
CONCEPT - For coordination only
  7
RV-TITLE
 11
65890.0
 21
-9925.0
 31
0.0
100
AcDbText
 73
2
  0
LWPOLYLINE
  5
357
330
17
100
AcDbEntity
  8
A-TITLE
100
AcDbPolyline
 90
4
 70
1
 10
60600.0
 20
7000.0
 10
72600.0
 20
7000.0
 10
72600.0
 20
17500.0
 10
60600.0
 20
17500.0
  0
HATCH
  5
358
330
17
100
AcDbEntity
  8
A-TITLE
 62
7
100
AcDbHatch
 10
0.0
 20
0.0
 30
0.0
210
0.0
220
0.0
230
1.0
  2
SOLID
 70
1
 71
0
 91
1
 92
3
 72
0
 73
1
 93
4
 10
60600.0
 20
16300.0
 10
72600.0
 20
16300.0
 10
72600.0
 20
17500.0
 10
60600.0
 20
17500.0
 97
0
 75
1
 76
1
 98
0
  0
TEXT
  5
359
330
17
100
AcDbEntity
  8
A-TITLE
100
AcDbText
 10
66600.0
 20
16900.0
 30
0.0
 40
400.0
  1
AREA  SCHEDULE
  7
RV-TITLE
 72
1
 11
66600.0
 21
16900.0
 31
0.0
100
AcDbText
 73
2
  0
LINE
  5
35A
330
17
100
AcDbEntity
  8
A-TITLE
100
AcDbLine
 10
60600.0
 20
15783.333333333334
 30
0.0
 11
72600.0
 21
15783.333333333334
 31
0.0
  0
LINE
  5
35B
330
17
100
AcDbEntity
  8
A-TITLE
100
AcDbLine
 10
68040.0
 20
16300.0
 30
0.0
 11
68040.0
 21
15783.333333333334
 31
0.0
  0
TEXT
  5
35C
330
17
100
AcDbEntity
  8
A-TITLE
100
AcDbText
 10
60850.0
 20
16041.666666666668
 30
0.0
 40
200.0
  1
Entry Foyer
  7
RV-ARCH
 11
60850.0
 21
16041.666666666668
 31
0.0
100
AcDbText
 73
2
  0
TEXT
  5
35D
330
17
100
AcDbEntity
  8
A-TITLE
100
AcDbText
 10
72350.0
 20
16041.666666666668
 30
0.0
 40
200.0
  1
100 sq.ft
  7
RV-ARCH
 72
2
 11
72350.0
 21
16041.666666666668
 31
0.0
100
AcDbText
 73
2
  0
LINE
  5
35E
330
17
100
AcDbEntity
  8
A-TITLE
100
AcDbLine
 10
60600.0
 20
15266.666666666668
 30
0.0
 11
72600.0
 21
15266.666666666668
 31
0.0
  0
LINE
  5
35F
330
17
100
AcDbEntity
  8
A-TITLE
100
AcDbLine
 10
68040.0
 20
15783.333333333334
 30
0.0
 11
68040.0
 21
15266.666666666668
 31
0.0
  0
TEXT
  5
360
330
17
100
AcDbEntity
  8
A-TITLE
100
AcDbText
 10
60850.0
 20
15525.0
 30
0.0
 40
200.0
  1
Living Room
  7
RV-ARCH
 11
60850.0
 21
15525.0
 31
0.0
100
AcDbText
 73
2
  0
TEXT
  5
361
330
17
100
AcDbEntity
  8
A-TITLE
100
AcDbText
 10
72350.0
 20
15525.0
 30
0.0
 40
200.0
  1
280 sq.ft
  7
RV-ARCH
 72
2
 11
72350.0
 21
15525.0
 31
0.0
100
AcDbText
 73
2
  0
LINE
  5
362
330
17
100
AcDbEntity
  8
A-TITLE
100
AcDbLine
 10
60600.0
 20
14750.0
 30
0.0
 11
72600.0
 21
14750.0
 31
0.0
  0
LINE
  5
363
330
17
100
AcDbEntity
  8
A-TITLE
100
AcDbLine
 10
68040.0
 20
15266.666666666666
 30
0.0
 11
68040.0
 21
14750.0
 31
0.0
  0
TEXT
  5
364
330
17
100
AcDbEntity
  8
A-TITLE
100
AcDbText
 10
60850.0
 20
15008.333333333332
 30
0.0
 40
200.0
  1
Dining Area
  7
RV-ARCH
 11
60850.0
 21
15008.333333333332
 31
0.0
100
AcDbText
 73
2
  0
TEXT
  5
365
330
17
100
AcDbEntity
  8
A-TITLE
100
AcDbText
 10
72350.0
 20
15008.333333333332
 30
0.0
 40
200.0
  1
200 sq.ft
  7
RV-ARCH
 72
2
 11
72350.0
 21
15008.333333333332
 31
0.0
100
AcDbText
 73
2
  0
LINE
  5
366
330
17
100
AcDbEntity
  8
A-TITLE
100
AcDbLine
 10
60600.0
 20
14233.333333333334
 30
0.0
 11
72600.0
 21
14233.333333333334
 31
0.0
  0
LINE
  5
367
330
17
100
AcDbEntity
  8
A-TITLE
100
AcDbLine
 10
68040.0
 20
14750.0
 30
0.0
 11
68040.0
 21
14233.333333333334
 31
0.0
  0
TEXT
  5
368
330
17
100
AcDbEntity
  8
A-TITLE
100
AcDbText
 10
60850.0
 20
14491.666666666668
 30
0.0
 40
200.0
  1
Open Kitchen
  7
RV-ARCH
 11
60850.0
 21
14491.666666666668
 31
0.0
100
AcDbText
 73
2
  0
TEXT
  5
369
330
17
100
AcDbEntity
  8
A-TITLE
100
AcDbText
 10
72350.0
 20
14491.666666666668
 30
0.0
 40
200.0
  1
200 sq.ft
  7
RV-ARCH
 72
2
 11
72350.0
 21
14491.666666666668
 31
0.0
100
AcDbText
 73
2
  0
LINE
  5
36A
330
17
100
AcDbEntity
  8
A-TITLE
100
AcDbLine
 10
60600.0
 20
13716.666666666668
 30
0.0
 11
72600.0
 21
13716.666666666668
 31
0.0
  0
LINE
  5
36B
330
17
100
AcDbEntity
  8
A-TITLE
100
AcDbLine
 10
68040.0
 20
14233.333333333334
 30
0.0
 11
68040.0
 21
13716.666666666668
 31
0.0
  0
TEXT
  5
36C
330
17
100
AcDbEntity
  8
A-TITLE
100
AcDbText
 10
60850.0
 20
13975.0
 30
0.0
 40
200.0
  1
Master Bedroom
  7
RV-ARCH
 11
60850.0
 21
13975.0
 31
0.0
100
AcDbText
 73
2
  0
TEXT
  5
36D
330
17
100
AcDbEntity
  8
A-TITLE
100
AcDbText
 10
72350.0
 20
13975.0
 30
0.0
 40
200.0
  1
300 sq.ft
  7
RV-ARCH
 72
2
 11
72350.0
 21
13975.0
 31
0.0
100
AcDbText
 73
2
  0
LINE
  5
36E
330
17
100
AcDbEntity
  8
A-TITLE
100
AcDbLine
 10
60600.0
 20
13200.000000000002
 30
0.0
 11
72600.0
 21
13200.000000000002
 31
0.0
  0
LINE
  5
36F
330
17
100
AcDbEntity
  8
A-TITLE
100
AcDbLine
 10
68040.0
 20
13716.666666666668
 30
0.0
 11
68040.0
 21
13200.000000000002
 31
0.0
  0
TEXT
  5
370
330
17
100
AcDbEntity
  8
A-TITLE
100
AcDbText
 10
60850.0
 20
13458.333333333336
 30
0.0
 40
200.0
  1
Master Wardrobe
  7
RV-ARCH
 11
60850.0
 21
13458.333333333336
 31
0.0
100
AcDbText
 73
2
  0
TEXT
  5
371
330
17
100
AcDbEntity
  8
A-TITLE
100
AcDbText
 10
72350.0
 20
13458.333333333336
 30
0.0
 40
200.0
  1
70 sq.ft
  7
RV-ARCH
 72
2
 11
72350.0
 21
13458.333333333336
 31
0.0
100
AcDbText
 73
2
  0
LINE
  5
372
330
17
100
AcDbEntity
  8
A-TITLE
100
AcDbLine
 10
60600.0
 20
12683.333333333334
 30
0.0
 11
72600.0
 21
12683.333333333334
 31
0.0
  0
LINE
  5
373
330
17
100
AcDbEntity
  8
A-TITLE
100
AcDbLine
 10
68040.0
 20
13200.0
 30
0.0
 11
68040.0
 21
12683.333333333334
 31
0.0
  0
TEXT
  5
374
330
17
100
AcDbEntity
  8
A-TITLE
100
AcDbText
 10
60850.0
 20
12941.666666666668
 30
0.0
 40
200.0
  1
Master Bathroom
  7
RV-ARCH
 11
60850.0
 21
12941.666666666668
 31
0.0
100
AcDbText
 73
2
  0
TEXT
  5
375
330
17
100
AcDbEntity
  8
A-TITLE
100
AcDbText
 10
72350.0
 20
12941.666666666668
 30
0.0
 40
200.0
  1
140 sq.ft
  7
RV-ARCH
 72
2
 11
72350.0
 21
12941.666666666668
 31
0.0
100
AcDbText
 73
2
  0
LINE
  5
376
330
17
100
AcDbEntity
  8
A-TITLE
100
AcDbLine
 10
60600.0
 20
12166.666666666668
 30
0.0
 11
72600.0
 21
12166.666666666668
 31
0.0
  0
LINE
  5
377
330
17
100
AcDbEntity
  8
A-TITLE
100
AcDbLine
 10
68040.0
 20
12683.333333333334
 30
0.0
 11
68040.0
 21
12166.666666666668
 31
0.0
  0
TEXT
  5
378
330
17
100
AcDbEntity
  8
A-TITLE
100
AcDbText
 10
60850.0
 20
12425.0
 30
0.0
 40
200.0
  1
Private Lounge
  7
RV-ARCH
 11
60850.0
 21
12425.0
 31
0.0
100
AcDbText
 73
2
  0
TEXT
  5
379
330
17
100
AcDbEntity
  8
A-TITLE
100
AcDbText
 10
72350.0
 20
12425.0
 30
0.0
 40
200.0
  1
110 sq.ft
  7
RV-ARCH
 72
2
 11
72350.0
 21
12425.0
 31
0.0
100
AcDbText
 73
2
  0
LINE
  5
37A
330
17
100
AcDbEntity
  8
A-TITLE
100
AcDbLine
 10
60600.0
 20
11650.000000000002
 30
0.0
 11
72600.0
 21
11650.000000000002
 31
0.0
  0
LINE
  5
37B
330
17
100
AcDbEntity
  8
A-TITLE
100
AcDbLine
 10
68040.0
 20
12166.666666666668
 30
0.0
 11
68040.0
 21
11650.000000000002
 31
0.0
  0
TEXT
  5
37C
330
17
100
AcDbEntity
  8
A-TITLE
100
AcDbText
 10
60850.0
 20
11908.333333333336
 30
0.0
 40
200.0
  1
Bedroom 2
  7
RV-ARCH
 11
60850.0
 21
11908.333333333336
 31
0.0
100
AcDbText
 73
2
  0
TEXT
  5
37D
330
17
100
AcDbEntity
  8
A-TITLE
100
AcDbText
 10
72350.0
 20
11908.333333333336
 30
0.0
 40
200.0
  1
280 sq.ft
  7
RV-ARCH
 72
2
 11
72350.0
 21
11908.333333333336
 31
0.0
100
AcDbText
 73
2
  0
LINE
  5
37E
330
17
100
AcDbEntity
  8
A-TITLE
100
AcDbLine
 10
60600.0
 20
11133.333333333334
 30
0.0
 11
72600.0
 21
11133.333333333334
 31
0.0
  0
LINE
  5
37F
330
17
100
AcDbEntity
  8
A-TITLE
100
AcDbLine
 10
68040.0
 20
11650.0
 30
0.0
 11
68040.0
 21
11133.333333333334
 31
0.0
  0
TEXT
  5
380
330
17
100
AcDbEntity
  8
A-TITLE
100
AcDbText
 10
60850.0
 20
11391.666666666668
 30
0.0
 40
200.0
  1
BR2 Bathroom
  7
RV-ARCH
 11
60850.0
 21
11391.666666666668
 31
0.0
100
AcDbText
 73
2
  0
TEXT
  5
381
330
17
100
AcDbEntity
  8
A-TITLE
100
AcDbText
 10
72350.0
 20
11391.666666666668
 30
0.0
 40
200.0
  1
110 sq.ft
  7
RV-ARCH
 72
2
 11
72350.0
 21
11391.666666666668
 31
0.0
100
AcDbText
 73
2
  0
LINE
  5
382
330
17
100
AcDbEntity
  8
A-TITLE
100
AcDbLine
 10
60600.0
 20
10616.666666666668
 30
0.0
 11
72600.0
 21
10616.666666666668
 31
0.0
  0
LINE
  5
383
330
17
100
AcDbEntity
  8
A-TITLE
100
AcDbLine
 10
68040.0
 20
11133.333333333334
 30
0.0
 11
68040.0
 21
10616.666666666668
 31
0.0
  0
TEXT
  5
384
330
17
100
AcDbEntity
  8
A-TITLE
100
AcDbText
 10
60850.0
 20
10875.0
 30
0.0
 40
200.0
  1
Family Lounge / Study
  7
RV-ARCH
 11
60850.0
 21
10875.0
 31
0.0
100
AcDbText
 73
2
  0
TEXT
  5
385
330
17
100
AcDbEntity
  8
A-TITLE
100
AcDbText
 10
72350.0
 20
10875.0
 30
0.0
 40
200.0
  1
140 sq.ft
  7
RV-ARCH
 72
2
 11
72350.0
 21
10875.0
 31
0.0
100
AcDbText
 73
2
  0
LINE
  5
386
330
17
100
AcDbEntity
  8
A-TITLE
100
AcDbLine
 10
60600.0
 20
10100.000000000002
 30
0.0
 11
72600.0
 21
10100.000000000002
 31
0.0
  0
LINE
  5
387
330
17
100
AcDbEntity
  8
A-TITLE
100
AcDbLine
 10
68040.0
 20
10616.666666666668
 30
0.0
 11
68040.0
 21
10100.000000000002
 31
0.0
  0
TEXT
  5
388
330
17
100
AcDbEntity
  8
A-TITLE
100
AcDbText
 10
60850.0
 20
10358.333333333336
 30
0.0
 40
200.0
  1
Powder Toilet
  7
RV-ARCH
 11
60850.0
 21
10358.333333333336
 31
0.0
100
AcDbText
 73
2
  0
TEXT
  5
389
330
17
100
AcDbEntity
  8
A-TITLE
100
AcDbText
 10
72350.0
 20
10358.333333333336
 30
0.0
 40
200.0
  1
50 sq.ft
  7
RV-ARCH
 72
2
 11
72350.0
 21
10358.333333333336
 31
0.0
100
AcDbText
 73
2
  0
LINE
  5
38A
330
17
100
AcDbEntity
  8
A-TITLE
100
AcDbLine
 10
60600.0
 20
9583.333333333334
 30
0.0
 11
72600.0
 21
9583.333333333334
 31
0.0
  0
LINE
  5
38B
330
17
100
AcDbEntity
  8
A-TITLE
100
AcDbLine
 10
68040.0
 20
10100.0
 30
0.0
 11
68040.0
 21
9583.333333333334
 31
0.0
  0
TEXT
  5
38C
330
17
100
AcDbEntity
  8
A-TITLE
100
AcDbText
 10
60850.0
 20
9841.666666666668
 30
0.0
 40
200.0
  1
Glass Corridors
  7
RV-ARCH
 11
60850.0
 21
9841.666666666668
 31
0.0
100
AcDbText
 73
2
  0
TEXT
  5
38D
330
17
100
AcDbEntity
  8
A-TITLE
100
AcDbText
 10
72350.0
 20
9841.666666666668
 30
0.0
 40
200.0
  1
180 sq.ft
  7
RV-ARCH
 72
2
 11
72350.0
 21
9841.666666666668
 31
0.0
100
AcDbText
 73
2
  0
LINE
  5
38E
330
17
100
AcDbEntity
  8
A-TITLE
100
AcDbLine
 10
60600.0
 20
9066.666666666668
 30
0.0
 11
72600.0
 21
9066.666666666668
 31
0.0
  0
LINE
  5
38F
330
17
100
AcDbEntity
  8
A-TITLE
100
AcDbLine
 10
68040.0
 20
9583.333333333334
 30
0.0
 11
68040.0
 21
9066.666666666668
 31
0.0
  0
TEXT
  5
390
330
17
100
AcDbEntity
  8
A-TITLE
100
AcDbText
 10
60850.0
 20
9325.0
 30
0.0
 40
200.0
  1
Utility + Store
  7
RV-ARCH
 11
60850.0
 21
9325.0
 31
0.0
100
AcDbText
 73
2
  0
TEXT
  5
391
330
17
100
AcDbEntity
  8
A-TITLE
100
AcDbText
 10
72350.0
 20
9325.0
 30
0.0
 40
200.0
  1
160 sq.ft
  7
RV-ARCH
 72
2
 11
72350.0
 21
9325.0
 31
0.0
100
AcDbText
 73
2
  0
LINE
  5
392
330
17
100
AcDbEntity
  8
A-TITLE
100
AcDbLine
 10
60600.0
 20
8550.000000000002
 30
0.0
 11
72600.0
 21
8550.000000000002
 31
0.0
  0
LINE
  5
393
330
17
100
AcDbEntity
  8
A-TITLE
100
AcDbLine
 10
68040.0
 20
9066.666666666668
 30
0.0
 11
68040.0
 21
8550.000000000002
 31
0.0
  0
TEXT
  5
394
330
17
100
AcDbEntity
  8
A-TITLE
100
AcDbText
 10
60850.0
 20
8808.333333333336
 30
0.0
 40
200.0
  1
Circulation
  7
RV-ARCH
 11
60850.0
 21
8808.333333333336
 31
0.0
100
AcDbText
 73
2
  0
TEXT
  5
395
330
17
100
AcDbEntity
  8
A-TITLE
100
AcDbText
 10
72350.0
 20
8808.333333333336
 30
0.0
 40
200.0
  1
80 sq.ft
  7
RV-ARCH
 72
2
 11
72350.0
 21
8808.333333333336
 31
0.0
100
AcDbText
 73
2
  0
LINE
  5
396
330
17
100
AcDbEntity
  8
A-TITLE
100
AcDbLine
 10
60600.0
 20
8033.333333333333
 30
0.0
 11
72600.0
 21
8033.333333333333
 31
0.0
  0
LINE
  5
397
330
17
100
AcDbEntity
  8
A-TITLE
100
AcDbLine
 10
68040.0
 20
8550.0
 30
0.0
 11
68040.0
 21
8033.333333333333
 31
0.0
  0
TEXT
  5
398
330
17
100
AcDbEntity
  8
A-TITLE
100
AcDbText
 10
60850.0
 20
8291.666666666666
 30
0.0
 40
200.0
  1
TOTAL BUILT-UP
  7
RV-TITLE
 11
60850.0
 21
8291.666666666666
 31
0.0
100
AcDbText
 73
2
  0
TEXT
  5
399
330
17
100
AcDbEntity
  8
A-TITLE
100
AcDbText
 10
72350.0
 20
8291.666666666666
 30
0.0
 40
200.0
  1
2500 sq.ft
  7
RV-TITLE
 72
2
 11
72350.0
 21
8291.666666666666
 31
0.0
100
AcDbText
 73
2
  0
LINE
  5
39A
330
17
100
AcDbEntity
  8
A-TITLE
100
AcDbLine
 10
68040.0
 20
8033.333333333334
 30
0.0
 11
68040.0
 21
7516.666666666667
 31
0.0
  0
TEXT
  5
39B
330
17
100
AcDbEntity
  8
A-TITLE
100
AcDbText
 10
60850.0
 20
7775.0
 30
0.0
 40
200.0
  1
Covered Verandah
  7
RV-ARCH
 11
60850.0
 21
7775.0
 31
0.0
100
AcDbText
 73
2
  0
TEXT
  5
39C
330
17
100
AcDbEntity
  8
A-TITLE
100
AcDbText
 10
72350.0
 20
7775.0
 30
0.0
 40
200.0
  1
200 sq.ft
  7
RV-ARCH
 72
2
 11
72350.0
 21
7775.0
 31
0.0
100
AcDbText
 73
2
  0
LINE
  5
39D
330
17
100
AcDbEntity
  8
A-TITLE
100
AcDbLine
 10
68040.0
 20
7516.666666666668
 30
0.0
 11
68040.0
 21
7000.000000000001
 31
0.0
  0
TEXT
  5
39E
330
17
100
AcDbEntity
  8
A-TITLE
100
AcDbText
 10
60850.0
 20
7258.333333333334
 30
0.0
 40
200.0
  1
Internal Courtyard
  7
RV-ARCH
 11
60850.0
 21
7258.333333333334
 31
0.0
100
AcDbText
 73
2
  0
TEXT
  5
39F
330
17
100
AcDbEntity
  8
A-TITLE
100
AcDbText
 10
72350.0
 20
7258.333333333334
 30
0.0
 40
200.0
  1
320 sq.ft (open)
  7
RV-ARCH
 72
2
 11
72350.0
 21
7258.333333333334
 31
0.0
100
AcDbText
 73
2
  0
HATCH
  5
3A0
330
17
100
AcDbEntity
  8
A-TITLE
 62
7
100
AcDbHatch
 10
0.0
 20
0.0
 30
0.0
210
0.0
220
0.0
230
1.0
  2
SOLID
 70
0
 71
0
 91
1
 92
3
 72
0
 73
1
 93
4
 10
60600.0
 20
8033.333333333333
 10
72600.0
 20
8033.333333333333
 10
72600.0
 20
8550.0
 10
60600.0
 20
8550.0
 97
0
 75
1
 76
1
 52
0.0
 41
8.0
 77
0
 78
1
 53
45.0
 43
0.0
 44
0.0
 45
-0.7071067808
 46
0.7071067808
 79
0
 98
0
  0
LWPOLYLINE
  5
3A1
330
17
100
AcDbEntity
  8
A-TITLE
100
AcDbPolyline
 90
4
 70
1
 10
60600.0
 20
19000.0
 10
72600.0
 20
19000.0
 10
72600.0
 20
31000.0
 10
60600.0
 20
31000.0
  0
HATCH
  5
3A2
330
17
100
AcDbEntity
  8
A-TITLE
 62
7
100
AcDbHatch
 10
0.0
 20
0.0
 30
0.0
210
0.0
220
0.0
230
1.0
  2
SOLID
 70
1
 71
0
 91
1
 92
3
 72
0
 73
1
 93
4
 10
60600.0
 20
29800.0
 10
72600.0
 20
29800.0
 10
72600.0
 20
31000.0
 10
60600.0
 20
31000.0
 97
0
 75
1
 76
1
 98
0
  0
TEXT
  5
3A3
330
17
100
AcDbEntity
  8
A-TITLE
100
AcDbText
 10
66600.0
 20
30400.0
 30
0.0
 40
400.0
  1
GENERAL  NOTES
  7
RV-TITLE
 72
1
 11
66600.0
 21
30400.0
 31
0.0
100
AcDbText
 73
2
  0
TEXT
  5
3A4
330
17
100
AcDbEntity
  8
A-TITLE
100
AcDbText
 10
60900.0
 20
29500.0
 30
0.0
 40
180.0
  1
1. All dimensions in millimetres unless noted otherwise.
  7
RV-ARCH
 11
60900.0
 21
29500.0
 31
0.0
100
AcDbText
 73
2
  0
TEXT
  5
3A5
330
17
100
AcDbEntity
  8
A-TITLE
100
AcDbText
 10
60900.0
 20
29220.0
 30
0.0
 40
180.0
  1
2. Containers: 6 x 40 ft High-Cube (12200 x 2440 mm) +
  7
RV-ARCH
 11
60900.0
 21
29220.0
 31
0.0
100
AcDbText
 73
2
  0
TEXT
  5
3A6
330
17
100
AcDbEntity
  8
A-TITLE
100
AcDbText
 10
60900.0
 20
28940.0
 30
0.0
 40
180.0
  1
   1 x 20 ft Standard (6100 x 2440 mm). NO stacking.
  7
RV-ARCH
 11
60900.0
 21
28940.0
 31
0.0
100
AcDbText
 73
2
  0
TEXT
  5
3A7
330
17
100
AcDbEntity
  8
A-TITLE
100
AcDbText
 10
60900.0
 20
28660.0
 30
0.0
 40
180.0
  1
3. Foundation: helical screw piles per structural design.
  7
RV-ARCH
 11
60900.0
 21
28660.0
 31
0.0
100
AcDbText
 73
2
  0
TEXT
  5
3A8
330
17
100
AcDbEntity
  8
A-TITLE
100
AcDbText
 10
60900.0
 20
28380.0
 30
0.0
 40
180.0
  1
   NO concrete slab. Containers float 450 mm above grade.
  7
RV-ARCH
 11
60900.0
 21
28380.0
 31
0.0
100
AcDbText
 73
2
  0
TEXT
  5
3A9
330
17
100
AcDbEntity
  8
A-TITLE
100
AcDbText
 10
60900.0
 20
28100.0
 30
0.0
 40
180.0
  1
4. Walls: 75 mm PUF insulated cladding on container exterior.
  7
RV-ARCH
 11
60900.0
 21
28100.0
 31
0.0
100
AcDbText
 73
2
  0
TEXT
  5
3AA
330
17
100
AcDbEntity
  8
A-TITLE
100
AcDbText
 10
60900.0
 20
27820.0
 30
0.0
 40
180.0
  1
   Interior partitions: 50 mm acoustic stud + plasterboard.
  7
RV-ARCH
 11
60900.0
 21
27820.0
 31
0.0
100
AcDbText
 73
2
  0
TEXT
  5
3AB
330
17
100
AcDbEntity
  8
A-TITLE
100
AcDbText
 10
60900.0
 20
27540.0
 30
0.0
 40
180.0
  1
5. Glazing: thermally-broken aluminium frames,
  7
RV-ARCH
 11
60900.0
 21
27540.0
 31
0.0
100
AcDbText
 73
2
  0
TEXT
  5
3AC
330
17
100
AcDbEntity
  8
A-TITLE
100
AcDbText
 10
60900.0
 20
27260.0
 30
0.0
 40
180.0
  1
   low-E double-glazed units throughout.
  7
RV-ARCH
 11
60900.0
 21
27260.0
 31
0.0
100
AcDbText
 73
2
  0
TEXT
  5
3AD
330
17
100
AcDbEntity
  8
A-TITLE
100
AcDbText
 10
60900.0
 20
26980.0
 30
0.0
 40
180.0
  1
6. Roof: corrugated standing-seam over container roof
  7
RV-ARCH
 11
60900.0
 21
26980.0
 31
0.0
100
AcDbText
 73
2
  0
TEXT
  5
3AE
330
17
100
AcDbEntity
  8
A-TITLE
100
AcDbText
 10
60900.0
 20
26700.0
 30
0.0
 40
180.0
  1
   with PUF insulation + ventilated cavity.
  7
RV-ARCH
 11
60900.0
 21
26700.0
 31
0.0
100
AcDbText
 73
2
  0
TEXT
  5
3AF
330
17
100
AcDbEntity
  8
A-TITLE
100
AcDbText
 10
60900.0
 20
26420.0
 30
0.0
 40
180.0
  1
7. All wet areas: 1:80 fall to drain, full waterproof
  7
RV-ARCH
 11
60900.0
 21
26420.0
 31
0.0
100
AcDbText
 73
2
  0
TEXT
  5
3B0
330
17
100
AcDbEntity
  8
A-TITLE
100
AcDbText
 10
60900.0
 20
26140.0
 30
0.0
 40
180.0
  1
   membrane up to 200 mm above finished floor.
  7
RV-ARCH
 11
60900.0
 21
26140.0
 31
0.0
100
AcDbText
 73
2
  0
TEXT
  5
3B1
330
17
100
AcDbEntity
  8
A-TITLE
100
AcDbText
 10
60900.0
 20
25860.0
 30
0.0
 40
180.0
  1
8. North orientation as shown by north arrow.
  7
RV-ARCH
 11
60900.0
 21
25860.0
 31
0.0
100
AcDbText
 73
2
  0
TEXT
  5
3B2
330
17
100
AcDbEntity
  8
A-TITLE
100
AcDbText
 10
60900.0
 20
25580.0
 30
0.0
 40
180.0
  1
9. Sheet: A1 (594 x 841 mm). Scale 1:100.
  7
RV-ARCH
 11
60900.0
 21
25580.0
 31
0.0
100
AcDbText
 73
2
  0
TEXT
  5
3B3
330
17
100
AcDbEntity
  8
A-TITLE
100
AcDbText
 10
60900.0
 20
25300.0
 30
0.0
 40
180.0
  1

  7
RV-ARCH
 11
60900.0
 21
25300.0
 31
0.0
100
AcDbText
 73
2
  0
TEXT
  5
3B4
330
17
100
AcDbEntity
  8
A-TITLE
100
AcDbText
 10
60900.0
 20
25020.0
 30
0.0
 40
180.0
  1
STATUS: CONCEPT DRAWING.
  7
RV-ARCH
 11
60900.0
 21
25020.0
 31
0.0
100
AcDbText
 73
2
  0
TEXT
  5
3B5
330
17
100
AcDbEntity
  8
A-TITLE
100
AcDbText
 10
60900.0
 20
24740.0
 30
0.0
 40
180.0
  1
Subject to final approvals, structural engineering,
  7
RV-ARCH
 11
60900.0
 21
24740.0
 31
0.0
100
AcDbText
 73
2
  0
TEXT
  5
3B6
330
17
100
AcDbEntity
  8
A-TITLE
100
AcDbText
 10
60900.0
 20
24460.0
 30
0.0
 40
180.0
  1
MEP coordination and Goa regulatory compliance.
  7
RV-ARCH
 11
60900.0
 21
24460.0
 31
0.0
100
AcDbText
 73
2
  0
LWPOLYLINE
  5
3B7
330
17
100
AcDbEntity
  8
A-TITLE
100
AcDbPolyline
 90
4
 70
1
 10
60600.0
 20
-10500.0
 10
72600.0
 20
-10500.0
 10
72600.0
 20
-7000.0
 10
60600.0
 20
-7000.0
  0
HATCH
  5
3B8
330
17
100
AcDbEntity
  8
A-TITLE
 62
7
100
AcDbHatch
 10
0.0
 20
0.0
 30
0.0
210
0.0
220
0.0
230
1.0
  2
SOLID
 70
1
 71
0
 91
1
 92
3
 72
0
 73
1
 93
4
 10
60600.0
 20
-7800.0
 10
72600.0
 20
-7800.0
 10
72600.0
 20
-7000.0
 10
60600.0
 20
-7000.0
 97
0
 75
1
 76
1
 98
0
  0
TEXT
  5
3B9
330
17
100
AcDbEntity
  8
A-TITLE
100
AcDbText
 10
66600.0
 20
-7400.0
 30
0.0
 40
240.0
  1
CONTAINER MODULE KEY
  7
RV-TITLE
 72
1
 11
66600.0
 21
-7400.0
 31
0.0
100
AcDbText
 73
2
  0
TEXT
  5
3BA
330
17
100
AcDbEntity
  8
A-TITLE
100
AcDbText
 10
60900.0
 20
-8100.0
 30
0.0
 40
180.0
  1
C1  Entry Foyer + Living Room       (40 ft HC)
  7
RV-ARCH
 11
60900.0
 21
-8100.0
 31
0.0
100
AcDbText
 73
2
  0
TEXT
  5
3BB
330
17
100
AcDbEntity
  8
A-TITLE
100
AcDbText
 10
60900.0
 20
-8420.0
 30
0.0
 40
180.0
  1
C2  Dining + Open Kitchen           (40 ft HC)
  7
RV-ARCH
 11
60900.0
 21
-8420.0
 31
0.0
100
AcDbText
 73
2
  0
TEXT
  5
3BC
330
17
100
AcDbEntity
  8
A-TITLE
100
AcDbText
 10
60900.0
 20
-8740.0
 30
0.0
 40
180.0
  1
C3  Master Bedroom                  (40 ft HC)
  7
RV-ARCH
 11
60900.0
 21
-8740.0
 31
0.0
100
AcDbText
 73
2
  0
TEXT
  5
3BD
330
17
100
AcDbEntity
  8
A-TITLE
100
AcDbText
 10
60900.0
 20
-9060.0
 30
0.0
 40
180.0
  1
C4  Master Wardrobe + Bath + Lounge (40 ft HC)
  7
RV-ARCH
 11
60900.0
 21
-9060.0
 31
0.0
100
AcDbText
 73
2
  0
TEXT
  5
3BE
330
17
100
AcDbEntity
  8
A-TITLE
100
AcDbText
 10
60900.0
 20
-9380.0
 30
0.0
 40
180.0
  1
C5  Bedroom 2                       (40 ft HC)
  7
RV-ARCH
 11
60900.0
 21
-9380.0
 31
0.0
100
AcDbText
 73
2
  0
TEXT
  5
3BF
330
17
100
AcDbEntity
  8
A-TITLE
100
AcDbText
 10
60900.0
 20
-9700.0
 30
0.0
 40
180.0
  1
C6  BR2 Bath + Study + Powder       (40 ft HC)
  7
RV-ARCH
 11
60900.0
 21
-9700.0
 31
0.0
100
AcDbText
 73
2
  0
TEXT
  5
3C0
330
17
100
AcDbEntity
  8
A-TITLE
100
AcDbText
 10
60900.0
 20
-10020.0
 30
0.0
 40
180.0
  1
C7  Utility + Store (Detached)      (20 ft STD)
  7
RV-ARCH
 11
60900.0
 21
-10020.0
 31
0.0
100
AcDbText
 73
2
  0
ENDSEC
  0
SECTION
  2
OBJECTS
  0
DICTIONARY
  5
A
330
0
100
AcDbDictionary
281
1
  3
ACAD_COLOR
350
B
  3
ACAD_GROUP
350
C
  3
ACAD_LAYOUT
350
D
  3
ACAD_MATERIAL
350
E
  3
ACAD_MLEADERSTYLE
350
F
  3
ACAD_MLINESTYLE
350
10
  3
ACAD_PLOTSETTINGS
350
11
  3
ACAD_PLOTSTYLENAME
350
12
  3
ACAD_SCALELIST
350
14
  3
ACAD_TABLESTYLE
350
15
  3
ACAD_VISUALSTYLE
350
16
  3
EZDXF_META
350
2D
  0
DICTIONARY
  5
B
330
A
100
AcDbDictionary
281
1
  0
DICTIONARY
  5
C
330
A
100
AcDbDictionary
281
1
  0
DICTIONARY
  5
D
330
A
100
AcDbDictionary
281
1
  3
Model
350
1A
  3
Layout1
350
1E
  0
DICTIONARY
  5
E
330
A
100
AcDbDictionary
281
1
  3
ByBlock
350
1F
  3
ByLayer
350
20
  3
Global
350
21
  0
DICTIONARY
  5
F
330
A
100
AcDbDictionary
281
1
  3
Standard
350
2C
  0
DICTIONARY
  5
10
330
A
100
AcDbDictionary
281
1
  3
Standard
350
22
  0
DICTIONARY
  5
11
330
A
100
AcDbDictionary
281
1
  0
ACDBDICTIONARYWDFLT
  5
12
330
A
100
AcDbDictionary
281
1
  3
Normal
350
13
100
AcDbDictionaryWithDefault
340
13
  0
ACDBPLACEHOLDER
  5
13
330
12
  0
DICTIONARY
  5
14
330
A
100
AcDbDictionary
281
1
  0
DICTIONARY
  5
15
330
A
100
AcDbDictionary
281
1
  0
DICTIONARY
  5
16
330
A
100
AcDbDictionary
281
1
  3
2dWireframe
350
5A
  3
Basic
350
5B
  3
Brighten
350
5C
  3
ColorChange
350
5D
  3
Conceptual
350
5E
  3
Dim
350
5F
  3
EdgeColorOff
350
60
  3
Facepattern
350
61
  3
Flat
350
62
  3
FlatWithEdges
350
63
  3
Gouraud
350
64
  3
GouraudWithEdges
350
65
  3
Hidden
350
66
  3
JitterOff
350
67
  3
Linepattern
350
68
  3
Modeling
350
69
  3
OverhangOff
350
6A
  3
Realistic
350
6B
  3
Shaded
350
6C
  3
Shaded with edges
350
6D
  3
Shades of Gray
350
6E
  3
Sketchy
350
6F
  3
Thicken
350
70
  3
Wireframe
350
71
  3
X-Ray
350
72
  0
LAYOUT
  5
1A
330
D
100
AcDbPlotSettings
  1

  4
A3
  6

 40
7.5
 41
20.0
 42
7.5
 43
20.0
 44
420.0
 45
297.0
 46
0.0
 47
0.0
 48
0.0
 49
0.0
140
0.0
141
0.0
142
1.0
143
1.0
 70
1024
 72
1
 73
0
 74
5
  7

 75
16
 76
0
 77
2
 78
300
147
1.0
148
0.0
149
0.0
100
AcDbLayout
  1
Model
 70
1
 71
0
 10
0.0
 20
0.0
 11
420.0
 21
297.0
 12
0.0
 22
0.0
 32
0.0
 14
1e+20
 24
1e+20
 34
1e+20
 15
-1e+20
 25
-1e+20
 35
-1e+20
146
0.0
 13
0.0
 23
0.0
 33
0.0
 16
1.0
 26
0.0
 36
0.0
 17
0.0
 27
1.0
 37
0.0
 76
1
330
17
  0
LAYOUT
  5
1E
330
D
100
AcDbPlotSettings
  1

  4
A3
  6

 40
7.5
 41
20.0
 42
7.5
 43
20.0
 44
420.0
 45
297.0
 46
0.0
 47
0.0
 48
0.0
 49
0.0
140
0.0
141
0.0
142
1.0
143
1.0
 70
0
 72
1
 73
0
 74
5
  7

 75
16
 76
0
 77
2
 78
300
147
1.0
148
0.0
149
0.0
100
AcDbLayout
  1
Layout1
 70
1
 71
1
 10
0.0
 20
0.0
 11
420.0
 21
297.0
 12
0.0
 22
0.0
 32
0.0
 14
1e+20
 24
1e+20
 34
1e+20
 15
-1e+20
 25
-1e+20
 35
-1e+20
146
0.0
 13
0.0
 23
0.0
 33
0.0
 16
1.0
 26
0.0
 36
0.0
 17
0.0
 27
1.0
 37
0.0
 76
1
330
1B
  0
MATERIAL
  5
1F
102
{ACAD_REACTORS
330
E
102
}
330
E
100
AcDbMaterial
  1
ByBlock
  2

 70
0
 40
1.0
 71
1
 41
1.0
 91
-1023410177
 42
1.0
 72
1
  3

 73
1
 74
1
 75
1
 44
0.5
 73
0
 45
1.0
 46
1.0
 77
1
  4

 78
1
 79
1
170
1
 48
1.0
171
1
  6

172
1
173
1
174
1
140
1.0
141
1.0
175
1
  7

176
1
177
1
178
1
143
1.0
179
1
  8

270
1
271
1
272
1
145
1.0
146
1.0
273
1
  9

274
1
275
1
276
1
 42
1.0
 72
1
  3

 73
1
 74
1
 75
1
 94
63
  0
MATERIAL
  5
20
102
{ACAD_REACTORS
330
E
102
}
330
E
100
AcDbMaterial
  1
ByLayer
  2

 70
0
 40
1.0
 71
1
 41
1.0
 91
-1023410177
 42
1.0
 72
1
  3

 73
1
 74
1
 75
1
 44
0.5
 73
0
 45
1.0
 46
1.0
 77
1
  4

 78
1
 79
1
170
1
 48
1.0
171
1
  6

172
1
173
1
174
1
140
1.0
141
1.0
175
1
  7

176
1
177
1
178
1
143
1.0
179
1
  8

270
1
271
1
272
1
145
1.0
146
1.0
273
1
  9

274
1
275
1
276
1
 42
1.0
 72
1
  3

 73
1
 74
1
 75
1
 94
63
  0
MATERIAL
  5
21
102
{ACAD_REACTORS
330
E
102
}
330
E
100
AcDbMaterial
  1
Global
  2

 70
0
 40
1.0
 71
1
 41
1.0
 91
-1023410177
 42
1.0
 72
1
  3

 73
1
 74
1
 75
1
 44
0.5
 73
0
 45
1.0
 46
1.0
 77
1
  4

 78
1
 79
1
170
1
 48
1.0
171
1
  6

172
1
173
1
174
1
140
1.0
141
1.0
175
1
  7

176
1
177
1
178
1
143
1.0
179
1
  8

270
1
271
1
272
1
145
1.0
146
1.0
273
1
  9

274
1
275
1
276
1
 42
1.0
 72
1
  3

 73
1
 74
1
 75
1
 94
63
  0
MLINESTYLE
  5
22
102
{ACAD_REACTORS
330
10
102
}
330
10
100
AcDbMlineStyle
  2
Standard
 70
0
  3

 62
256
 51
90.0
 52
90.0
 71
2
 49
0.5
 62
256
  6
BYLAYER
 49
-0.5
 62
256
  6
BYLAYER
  0
MLEADERSTYLE
  5
2C
102
{ACAD_REACTORS
330
F
102
}
330
F
100
AcDbMLeaderStyle
179
2
170
2
171
1
172
0
 90
2
 40
0.0
 41
0.0
173
1
 91
-1056964608
 92
-2
290
1
 42
2.0
291
1
 43
8.0
  3
Standard
 44
4.0
300

342
29
174
1
175
1
176
0
178
1
 93
-1056964608
 45
4.0
292
0
297
0
 46
4.0
 94
-1056964608
 47
1.0
 49
1.0
140
1.0
294
1
141
0.0
177
0
142
1.0
295
0
296
0
143
3.75
271
0
272
9
273
9
  0
DICTIONARY
  5
2D
330
A
100
AcDbDictionary
280
1
281
1
  3
CREATED_BY_EZDXF
350
2E
  3
WRITTEN_BY_EZDXF
350
3C4
  0
DICTIONARYVAR
  5
2E
330
2D
100
DictionaryVariables
280
0
  1
1.4.4 @ 2026-05-20T07:03:39.934148+00:00
  0
VISUALSTYLE
  5
5A
102
{ACAD_REACTORS
330
16
102
}
330
16
100
AcDbVisualStyle
  2
2dWireframe
 70
4
177
3
291
0
 70
58
 90
2
176
1
 90
2
176
1
 90
0
176
1
 90
0
176
1
 40
0.6
176
1
 40
30.0
176
1
 62
7
420
16777215
176
1
 90
1
176
1
 90
4
176
1
 62
7
176
1
 62
257
176
1
 90
1
176
1
 90
1
176
1
 40
1.0
176
1
 90
8
176
1
 62
7
176
1
 40
1.0
176
1
 90
1
176
1
 90
6
176
1
 90
2
176
1
 62
7
176
1
 90
5
176
1
 90
0
176
1
 90
0
176
1
290
0
176
1
 90
1
176
1
 40
0.0
176
1
 90
0
176
1
290
1
176
1
290
1
176
1
290
0
176
1
290
0
176
1
290
0
176
1
290
0
176
1
290
0
176
1
290
0
176
1
290
0
176
1
 90
50
176
1
 40
0.0
176
1
 40
1.0
176
1
 90
0
176
1
 62
18
420
0
176
1
 90
50
176
1
 90
3
176
1
 62
5
420
255
176
1
290
0
176
1
 90
50
176
1
 90
50
176
1
 90
50
176
1
290
0
176
1
 90
50
176
1
 62
256
176
0
 40
1.0
176
0
 90
2
176
1
  1
strokes_ogs.tif
176
1
290
0
176
1
 40
1.0
176
1
 40
1.0
176
1
  0
VISUALSTYLE
  5
5B
102
{ACAD_REACTORS
330
16
102
}
330
16
100
AcDbVisualStyle
  2
Basic
 70
7
177
3
291
1
 70
58
 90
2
176
1
 90
2
176
1
 90
0
176
1
 90
1
176
1
 40
0.6
176
1
 40
30.0
176
1
 62
7
420
16777215
176
1
 90
1
176
1
 90
4
176
1
 62
7
176
1
 62
257
176
1
 90
1
176
1
 90
1
176
1
 40
1.0
176
1
 90
8
176
1
 62
7
176
1
 40
1.0
176
1
 90
1
176
1
 90
6
176
1
 90
2
176
1
 62
7
176
1
 90
5
176
1
 90
0
176
1
 90
0
176
1
290
0
176
1
 90
1
176
1
 40
0.0
176
1
 90
0
176
1
290
0
176
1
290
1
176
1
290
1
176
1
290
0
176
1
290
0
176
1
290
0
176
1
290
0
176
1
290
0
176
1
290
0
176
1
 90
50
176
1
 40
0.0
176
1
 40
1.0
176
1
 90
0
176
1
 62
18
420
0
176
1
 90
50
176
1
 90
3
176
1
 62
5
420
255
176
1
290
0
176
1
 90
50
176
1
 90
50
176
1
 90
50
176
1
290
0
176
1
 90
50
176
1
 62
256
176
0
 40
1.0
176
0
 90
2
176
1
  1
strokes_ogs.tif
176
1
290
0
176
1
 40
1.0
176
1
 40
1.0
176
1
  0
VISUALSTYLE
  5
5C
102
{ACAD_REACTORS
330
16
102
}
330
16
100
AcDbVisualStyle
  2
Brighten
 70
12
177
3
291
1
 70
58
 90
2
176
1
 90
2
176
1
 90
0
176
1
 90
2
176
1
 40
0.6
176
1
 40
30.0
176
1
 62
7
420
16777215
176
1
 90
1
176
1
 90
4
176
1
 62
7
176
1
 62
257
176
1
 90
1
176
1
 90
1
176
1
 40
1.0
176
1
 90
8
176
1
 62
7
176
1
 40
1.0
176
1
 90
1
176
1
 90
6
176
1
 90
2
176
1
 62
7
176
1
 90
5
176
1
 90
0
176
1
 90
0
176
1
290
0
176
1
 90
1
176
1
 40
0.0
176
1
 90
0
176
1
290
0
176
1
290
1
176
1
290
1
176
1
290
0
176
1
290
0
176
1
290
0
176
1
290
0
176
1
290
0
176
1
290
0
176
1
 90
50
176
1
 40
0.0
176
1
 40
1.0
176
1
 90
0
176
1
 62
18
420
0
176
1
 90
50
176
1
 90
3
176
1
 62
5
420
255
176
1
290
0
176
1
 90
50
176
1
 90
50
176
1
 90
50
176
1
290
0
176
1
 90
50
176
1
 62
256
176
0
 40
1.0
176
0
 90
2
176
1
  1
strokes_ogs.tif
176
1
290
0
176
1
 40
1.0
176
1
 40
1.0
176
1
  0
VISUALSTYLE
  5
5D
102
{ACAD_REACTORS
330
16
102
}
330
16
100
AcDbVisualStyle
  2
ColorChange
 70
16
177
3
291
1
 70
58
 90
2
176
1
 90
2
176
1
 90
0
176
1
 90
2
176
1
 40
0.6
176
1
 40
30.0
176
1
 62
7
420
16777215
176
1
 90
1
176
1
 90
4
176
1
 62
7
176
1
 62
257
176
1
 90
1
176
1
 90
1
176
1
 40
1.0
176
1
 90
8
176
1
 62
7
176
1
 40
1.0
176
1
 90
1
176
1
 90
6
176
1
 90
2
176
1
 62
7
176
1
 90
5
176
1
 90
0
176
1
 90
0
176
1
290
0
176
1
 90
1
176
1
 40
0.0
176
1
 90
0
176
1
290
0
176
1
290
1
176
1
290
1
176
1
290
0
176
1
290
0
176
1
290
0
176
1
290
0
176
1
290
0
176
1
290
0
176
1
 90
50
176
1
 40
0.0
176
1
 40
1.0
176
1
 90
0
176
1
 62
18
420
0
176
1
 90
50
176
1
 90
3
176
1
 62
5
420
255
176
1
290
0
176
1
 90
50
176
1
 90
50
176
1
 90
50
176
1
290
0
176
1
 90
50
176
1
 62
256
176
0
 40
1.0
176
0
 90
2
176
1
  1
strokes_ogs.tif
176
1
290
0
176
1
 40
1.0
176
1
 40
1.0
176
1
  0
VISUALSTYLE
  5
5E
102
{ACAD_REACTORS
330
16
102
}
330
16
100
AcDbVisualStyle
  2
Conceptual
 70
9
177
3
291
0
 70
58
 90
2
176
1
 90
2
176
1
 90
0
176
1
 90
3
176
1
 40
0.6
176
1
 40
30.0
176
1
 62
7
420
16777215
176
1
 90
1
176
1
 90
4
176
1
 62
7
176
1
 62
257
176
1
 90
1
176
1
 90
1
176
1
 40
1.0
176
1
 90
8
176
1
 62
7
176
1
 40
1.0
176
1
 90
1
176
1
 90
6
176
1
 90
2
176
1
 62
7
176
1
 90
5
176
1
 90
0
176
1
 90
0
176
1
290
0
176
1
 90
1
176
1
 40
0.0
176
1
 90
0
176
1
290
0
176
1
290
1
176
1
290
1
176
1
290
0
176
1
290
0
176
1
290
0
176
1
290
0
176
1
290
0
176
1
290
0
176
1
 90
50
176
1
 40
0.0
176
1
 40
1.0
176
1
 90
0
176
1
 62
18
420
0
176
1
 90
50
176
1
 90
3
176
1
 62
5
420
255
176
1
290
0
176
1
 90
50
176
1
 90
50
176
1
 90
50
176
1
290
0
176
1
 90
50
176
1
 62
256
176
0
 40
1.0
176
0
 90
2
176
1
  1
strokes_ogs.tif
176
1
290
0
176
1
 40
1.0
176
1
 40
1.0
176
1
  0
VISUALSTYLE
  5
5F
102
{ACAD_REACTORS
330
16
102
}
330
16
100
AcDbVisualStyle
  2
Dim
 70
11
177
3
291
1
 70
58
 90
2
176
1
 90
2
176
1
 90
0
176
1
 90
2
176
1
 40
0.6
176
1
 40
30.0
176
1
 62
7
420
16777215
176
1
 90
1
176
1
 90
4
176
1
 62
7
176
1
 62
257
176
1
 90
1
176
1
 90
1
176
1
 40
1.0
176
1
 90
8
176
1
 62
7
176
1
 40
1.0
176
1
 90
1
176
1
 90
6
176
1
 90
2
176
1
 62
7
176
1
 90
5
176
1
 90
0
176
1
 90
0
176
1
290
0
176
1
 90
1
176
1
 40
0.0
176
1
 90
0
176
1
290
0
176
1
290
1
176
1
290
1
176
1
290
0
176
1
290
0
176
1
290
0
176
1
290
0
176
1
290
0
176
1
290
0
176
1
 90
50
176
1
 40
0.0
176
1
 40
1.0
176
1
 90
0
176
1
 62
18
420
0
176
1
 90
50
176
1
 90
3
176
1
 62
5
420
255
176
1
290
0
176
1
 90
50
176
1
 90
50
176
1
 90
50
176
1
290
0
176
1
 90
50
176
1
 62
256
176
0
 40
1.0
176
0
 90
2
176
1
  1
strokes_ogs.tif
176
1
290
0
176
1
 40
1.0
176
1
 40
1.0
176
1
  0
VISUALSTYLE
  5
60
102
{ACAD_REACTORS
330
16
102
}
330
16
100
AcDbVisualStyle
  2
EdgeColorOff
 70
22
177
3
291
1
 70
58
 90
2
176
1
 90
2
176
1
 90
0
176
1
 90
2
176
1
 40
0.6
176
1
 40
30.0
176
1
 62
7
420
16777215
176
1
 90
1
176
1
 90
4
176
1
 62
7
176
1
 62
257
176
1
 90
1
176
1
 90
1
176
1
 40
1.0
176
1
 90
8
176
1
 62
7
176
1
 40
1.0
176
1
 90
1
176
1
 90
6
176
1
 90
2
176
1
 62
7
176
1
 90
5
176
1
 90
0
176
1
 90
0
176
1
290
0
176
1
 90
1
176
1
 40
0.0
176
1
 90
0
176
1
290
0
176
1
290
1
176
1
290
1
176
1
290
0
176
1
290
0
176
1
290
0
176
1
290
0
176
1
290
0
176
1
290
0
176
1
 90
50
176
1
 40
0.0
176
1
 40
1.0
176
1
 90
0
176
1
 62
18
420
0
176
1
 90
50
176
1
 90
3
176
1
 62
5
420
255
176
1
290
0
176
1
 90
50
176
1
 90
50
176
1
 90
50
176
1
290
0
176
1
 90
50
176
1
 62
256
176
0
 40
1.0
176
0
 90
2
176
1
  1
strokes_ogs.tif
176
1
290
0
176
1
 40
1.0
176
1
 40
1.0
176
1
  0
VISUALSTYLE
  5
61
102
{ACAD_REACTORS
330
16
102
}
330
16
100
AcDbVisualStyle
  2
Facepattern
 70
15
177
3
291
1
 70
58
 90
2
176
1
 90
2
176
1
 90
0
176
1
 90
2
176
1
 40
0.6
176
1
 40
30.0
176
1
 62
7
420
16777215
176
1
 90
1
176
1
 90
4
176
1
 62
7
176
1
 62
257
176
1
 90
1
176
1
 90
1
176
1
 40
1.0
176
1
 90
8
176
1
 62
7
176
1
 40
1.0
176
1
 90
1
176
1
 90
6
176
1
 90
2
176
1
 62
7
176
1
 90
5
176
1
 90
0
176
1
 90
0
176
1
290
0
176
1
 90
1
176
1
 40
0.0
176
1
 90
0
176
1
290
0
176
1
290
1
176
1
290
1
176
1
290
0
176
1
290
0
176
1
290
0
176
1
290
0
176
1
290
0
176
1
290
0
176
1
 90
50
176
1
 40
0.0
176
1
 40
1.0
176
1
 90
0
176
1
 62
18
420
0
176
1
 90
50
176
1
 90
3
176
1
 62
5
420
255
176
1
290
0
176
1
 90
50
176
1
 90
50
176
1
 90
50
176
1
290
0
176
1
 90
50
176
1
 62
256
176
0
 40
1.0
176
0
 90
2
176
1
  1
strokes_ogs.tif
176
1
290
0
176
1
 40
1.0
176
1
 40
1.0
176
1
  0
VISUALSTYLE
  5
62
102
{ACAD_REACTORS
330
16
102
}
330
16
100
AcDbVisualStyle
  2
Flat
 70
0
177
3
291
1
 70
58
 90
2
176
1
 90
2
176
1
 90
0
176
1
 90
2
176
1
 40
0.6
176
1
 40
30.0
176
1
 62
7
420
16777215
176
1
 90
1
176
1
 90
4
176
1
 62
7
176
1
 62
257
176
1
 90
1
176
1
 90
1
176
1
 40
1.0
176
1
 90
8
176
1
 62
7
176
1
 40
1.0
176
1
 90
1
176
1
 90
6
176
1
 90
2
176
1
 62
7
176
1
 90
5
176
1
 90
0
176
1
 90
0
176
1
290
0
176
1
 90
1
176
1
 40
0.0
176
1
 90
0
176
1
290
0
176
1
290
1
176
1
290
1
176
1
290
0
176
1
290
0
176
1
290
0
176
1
290
0
176
1
290
0
176
1
290
0
176
1
 90
50
176
1
 40
0.0
176
1
 40
1.0
176
1
 90
0
176
1
 62
18
420
0
176
1
 90
50
176
1
 90
3
176
1
 62
5
420
255
176
1
290
0
176
1
 90
50
176
1
 90
50
176
1
 90
50
176
1
290
0
176
1
 90
50
176
1
 62
256
176
0
 40
1.0
176
0
 90
2
176
1
  1
strokes_ogs.tif
176
1
290
0
176
1
 40
1.0
176
1
 40
1.0
176
1
  0
VISUALSTYLE
  5
63
102
{ACAD_REACTORS
330
16
102
}
330
16
100
AcDbVisualStyle
  2
FlatWithEdges
 70
1
177
3
291
1
 70
58
 90
2
176
1
 90
2
176
1
 90
0
176
1
 90
2
176
1
 40
0.6
176
1
 40
30.0
176
1
 62
7
420
16777215
176
1
 90
1
176
1
 90
4
176
1
 62
7
176
1
 62
257
176
1
 90
1
176
1
 90
1
176
1
 40
1.0
176
1
 90
8
176
1
 62
7
176
1
 40
1.0
176
1
 90
1
176
1
 90
6
176
1
 90
2
176
1
 62
7
176
1
 90
5
176
1
 90
0
176
1
 90
0
176
1
290
0
176
1
 90
1
176
1
 40
0.0
176
1
 90
0
176
1
290
0
176
1
290
1
176
1
290
1
176
1
290
0
176
1
290
0
176
1
290
0
176
1
290
0
176
1
290
0
176
1
290
0
176
1
 90
50
176
1
 40
0.0
176
1
 40
1.0
176
1
 90
0
176
1
 62
18
420
0
176
1
 90
50
176
1
 90
3
176
1
 62
5
420
255
176
1
290
0
176
1
 90
50
176
1
 90
50
176
1
 90
50
176
1
290
0
176
1
 90
50
176
1
 62
256
176
0
 40
1.0
176
0
 90
2
176
1
  1
strokes_ogs.tif
176
1
290
0
176
1
 40
1.0
176
1
 40
1.0
176
1
  0
VISUALSTYLE
  5
64
102
{ACAD_REACTORS
330
16
102
}
330
16
100
AcDbVisualStyle
  2
Gouraud
 70
2
177
3
291
1
 70
58
 90
2
176
1
 90
2
176
1
 90
0
176
1
 90
2
176
1
 40
0.6
176
1
 40
30.0
176
1
 62
7
420
16777215
176
1
 90
1
176
1
 90
4
176
1
 62
7
176
1
 62
257
176
1
 90
1
176
1
 90
1
176
1
 40
1.0
176
1
 90
8
176
1
 62
7
176
1
 40
1.0
176
1
 90
1
176
1
 90
6
176
1
 90
2
176
1
 62
7
176
1
 90
5
176
1
 90
0
176
1
 90
0
176
1
290
0
176
1
 90
1
176
1
 40
0.0
176
1
 90
0
176
1
290
0
176
1
290
1
176
1
290
1
176
1
290
0
176
1
290
0
176
1
290
0
176
1
290
0
176
1
290
0
176
1
290
0
176
1
 90
50
176
1
 40
0.0
176
1
 40
1.0
176
1
 90
0
176
1
 62
18
420
0
176
1
 90
50
176
1
 90
3
176
1
 62
5
420
255
176
1
290
0
176
1
 90
50
176
1
 90
50
176
1
 90
50
176
1
290
0
176
1
 90
50
176
1
 62
256
176
0
 40
1.0
176
0
 90
2
176
1
  1
strokes_ogs.tif
176
1
290
0
176
1
 40
1.0
176
1
 40
1.0
176
1
  0
VISUALSTYLE
  5
65
102
{ACAD_REACTORS
330
16
102
}
330
16
100
AcDbVisualStyle
  2
GouraudWithEdges
 70
3
177
3
291
1
 70
58
 90
2
176
1
 90
2
176
1
 90
0
176
1
 90
2
176
1
 40
0.6
176
1
 40
30.0
176
1
 62
7
420
16777215
176
1
 90
1
176
1
 90
4
176
1
 62
7
176
1
 62
257
176
1
 90
1
176
1
 90
1
176
1
 40
1.0
176
1
 90
8
176
1
 62
7
176
1
 40
1.0
176
1
 90
1
176
1
 90
6
176
1
 90
2
176
1
 62
7
176
1
 90
5
176
1
 90
0
176
1
 90
0
176
1
290
0
176
1
 90
1
176
1
 40
0.0
176
1
 90
0
176
1
290
0
176
1
290
1
176
1
290
1
176
1
290
0
176
1
290
0
176
1
290
0
176
1
290
0
176
1
290
0
176
1
290
0
176
1
 90
50
176
1
 40
0.0
176
1
 40
1.0
176
1
 90
0
176
1
 62
18
420
0
176
1
 90
50
176
1
 90
3
176
1
 62
5
420
255
176
1
290
0
176
1
 90
50
176
1
 90
50
176
1
 90
50
176
1
290
0
176
1
 90
50
176
1
 62
256
176
0
 40
1.0
176
0
 90
2
176
1
  1
strokes_ogs.tif
176
1
290
0
176
1
 40
1.0
176
1
 40
1.0
176
1
  0
VISUALSTYLE
  5
66
102
{ACAD_REACTORS
330
16
102
}
330
16
100
AcDbVisualStyle
  2
Hidden
 70
6
177
3
291
0
 70
58
 90
2
176
1
 90
2
176
1
 90
0
176
1
 90
1
176
1
 40
0.6
176
1
 40
30.0
176
1
 62
7
420
16777215
176
1
 90
1
176
1
 90
4
176
1
 62
7
176
1
 62
257
176
1
 90
1
176
1
 90
1
176
1
 40
1.0
176
1
 90
8
176
1
 62
7
176
1
 40
1.0
176
1
 90
1
176
1
 90
6
176
1
 90
2
176
1
 62
7
176
1
 90
5
176
1
 90
0
176
1
 90
0
176
1
290
0
176
1
 90
1
176
1
 40
0.0
176
1
 90
0
176
1
290
0
176
1
290
1
176
1
290
1
176
1
290
0
176
1
290
0
176
1
290
0
176
1
290
0
176
1
290
0
176
1
290
0
176
1
 90
50
176
1
 40
0.0
176
1
 40
1.0
176
1
 90
0
176
1
 62
18
420
0
176
1
 90
50
176
1
 90
3
176
1
 62
5
420
255
176
1
290
0
176
1
 90
50
176
1
 90
50
176
1
 90
50
176
1
290
0
176
1
 90
50
176
1
 62
256
176
0
 40
1.0
176
0
 90
2
176
1
  1
strokes_ogs.tif
176
1
290
0
176
1
 40
1.0
176
1
 40
1.0
176
1
  0
VISUALSTYLE
  5
67
102
{ACAD_REACTORS
330
16
102
}
330
16
100
AcDbVisualStyle
  2
JitterOff
 70
20
177
3
291
1
 70
58
 90
2
176
1
 90
2
176
1
 90
0
176
1
 90
2
176
1
 40
0.6
176
1
 40
30.0
176
1
 62
7
420
16777215
176
1
 90
1
176
1
 90
4
176
1
 62
7
176
1
 62
257
176
1
 90
1
176
1
 90
1
176
1
 40
1.0
176
1
 90
8
176
1
 62
7
176
1
 40
1.0
176
1
 90
1
176
1
 90
6
176
1
 90
2
176
1
 62
7
176
1
 90
5
176
1
 90
0
176
1
 90
0
176
1
290
0
176
1
 90
1
176
1
 40
0.0
176
1
 90
0
176
1
290
0
176
1
290
1
176
1
290
1
176
1
290
0
176
1
290
0
176
1
290
0
176
1
290
0
176
1
290
0
176
1
290
0
176
1
 90
50
176
1
 40
0.0
176
1
 40
1.0
176
1
 90
0
176
1
 62
18
420
0
176
1
 90
50
176
1
 90
3
176
1
 62
5
420
255
176
1
290
0
176
1
 90
50
176
1
 90
50
176
1
 90
50
176
1
290
0
176
1
 90
50
176
1
 62
256
176
0
 40
1.0
176
0
 90
2
176
1
  1
strokes_ogs.tif
176
1
290
0
176
1
 40
1.0
176
1
 40
1.0
176
1
  0
VISUALSTYLE
  5
68
102
{ACAD_REACTORS
330
16
102
}
330
16
100
AcDbVisualStyle
  2
Linepattern
 70
14
177
3
291
1
 70
58
 90
2
176
1
 90
2
176
1
 90
0
176
1
 90
2
176
1
 40
0.6
176
1
 40
30.0
176
1
 62
7
420
16777215
176
1
 90
1
176
1
 90
4
176
1
 62
7
176
1
 62
257
176
1
 90
1
176
1
 90
1
176
1
 40
1.0
176
1
 90
8
176
1
 62
7
176
1
 40
1.0
176
1
 90
1
176
1
 90
6
176
1
 90
2
176
1
 62
7
176
1
 90
5
176
1
 90
0
176
1
 90
0
176
1
290
0
176
1
 90
1
176
1
 40
0.0
176
1
 90
0
176
1
290
0
176
1
290
1
176
1
290
1
176
1
290
0
176
1
290
0
176
1
290
0
176
1
290
0
176
1
290
0
176
1
290
0
176
1
 90
50
176
1
 40
0.0
176
1
 40
1.0
176
1
 90
0
176
1
 62
18
420
0
176
1
 90
50
176
1
 90
3
176
1
 62
5
420
255
176
1
290
0
176
1
 90
50
176
1
 90
50
176
1
 90
50
176
1
290
0
176
1
 90
50
176
1
 62
256
176
0
 40
1.0
176
0
 90
2
176
1
  1
strokes_ogs.tif
176
1
290
0
176
1
 40
1.0
176
1
 40
1.0
176
1
  0
VISUALSTYLE
  5
69
102
{ACAD_REACTORS
330
16
102
}
330
16
100
AcDbVisualStyle
  2
Modeling
 70
10
177
3
291
0
 70
58
 90
2
176
1
 90
2
176
1
 90
0
176
1
 90
2
176
1
 40
0.6
176
1
 40
30.0
176
1
 62
7
420
16777215
176
1
 90
1
176
1
 90
4
176
1
 62
7
176
1
 62
257
176
1
 90
1
176
1
 90
1
176
1
 40
1.0
176
1
 90
8
176
1
 62
7
176
1
 40
1.0
176
1
 90
1
176
1
 90
6
176
1
 90
2
176
1
 62
7
176
1
 90
5
176
1
 90
0
176
1
 90
0
176
1
290
0
176
1
 90
1
176
1
 40
0.0
176
1
 90
0
176
1
290
0
176
1
290
1
176
1
290
1
176
1
290
0
176
1
290
0
176
1
290
0
176
1
290
0
176
1
290
0
176
1
290
0
176
1
 90
50
176
1
 40
0.0
176
1
 40
1.0
176
1
 90
0
176
1
 62
18
420
0
176
1
 90
50
176
1
 90
3
176
1
 62
5
420
255
176
1
290
0
176
1
 90
50
176
1
 90
50
176
1
 90
50
176
1
290
0
176
1
 90
50
176
1
 62
256
176
0
 40
1.0
176
0
 90
2
176
1
  1
strokes_ogs.tif
176
1
290
0
176
1
 40
1.0
176
1
 40
1.0
176
1
  0
VISUALSTYLE
  5
6A
102
{ACAD_REACTORS
330
16
102
}
330
16
100
AcDbVisualStyle
  2
OverhangOff
 70
21
177
3
291
1
 70
58
 90
2
176
1
 90
2
176
1
 90
0
176
1
 90
2
176
1
 40
0.6
176
1
 40
30.0
176
1
 62
7
420
16777215
176
1
 90
1
176
1
 90
4
176
1
 62
7
176
1
 62
257
176
1
 90
1
176
1
 90
1
176
1
 40
1.0
176
1
 90
8
176
1
 62
7
176
1
 40
1.0
176
1
 90
1
176
1
 90
6
176
1
 90
2
176
1
 62
7
176
1
 90
5
176
1
 90
0
176
1
 90
0
176
1
290
0
176
1
 90
1
176
1
 40
0.0
176
1
 90
0
176
1
290
0
176
1
290
1
176
1
290
1
176
1
290
0
176
1
290
0
176
1
290
0
176
1
290
0
176
1
290
0
176
1
290
0
176
1
 90
50
176
1
 40
0.0
176
1
 40
1.0
176
1
 90
0
176
1
 62
18
420
0
176
1
 90
50
176
1
 90
3
176
1
 62
5
420
255
176
1
290
0
176
1
 90
50
176
1
 90
50
176
1
 90
50
176
1
290
0
176
1
 90
50
176
1
 62
256
176
0
 40
1.0
176
0
 90
2
176
1
  1
strokes_ogs.tif
176
1
290
0
176
1
 40
1.0
176
1
 40
1.0
176
1
  0
VISUALSTYLE
  5
6B
102
{ACAD_REACTORS
330
16
102
}
330
16
100
AcDbVisualStyle
  2
Realistic
 70
8
177
3
291
0
 70
58
 90
2
176
1
 90
2
176
1
 90
0
176
1
 90
2
176
1
 40
0.6
176
1
 40
30.0
176
1
 62
7
420
16777215
176
1
 90
1
176
1
 90
4
176
1
 62
7
176
1
 62
257
176
1
 90
1
176
1
 90
1
176
1
 40
1.0
176
1
 90
8
176
1
 62
7
176
1
 40
1.0
176
1
 90
1
176
1
 90
6
176
1
 90
2
176
1
 62
7
176
1
 90
5
176
1
 90
0
176
1
 90
0
176
1
290
0
176
1
 90
1
176
1
 40
0.0
176
1
 90
0
176
1
290
0
176
1
290
1
176
1
290
1
176
1
290
0
176
1
290
0
176
1
290
0
176
1
290
0
176
1
290
0
176
1
290
0
176
1
 90
50
176
1
 40
0.0
176
1
 40
1.0
176
1
 90
0
176
1
 62
18
420
0
176
1
 90
50
176
1
 90
3
176
1
 62
5
420
255
176
1
290
0
176
1
 90
50
176
1
 90
50
176
1
 90
50
176
1
290
0
176
1
 90
50
176
1
 62
256
176
0
 40
1.0
176
0
 90
2
176
1
  1
strokes_ogs.tif
176
1
290
0
176
1
 40
1.0
176
1
 40
1.0
176
1
  0
VISUALSTYLE
  5
6C
102
{ACAD_REACTORS
330
16
102
}
330
16
100
AcDbVisualStyle
  2
Shaded
 70
27
177
3
291
0
 70
58
 90
2
176
1
 90
2
176
1
 90
0
176
1
 90
2
176
1
 40
0.6
176
1
 40
30.0
176
1
 62
7
420
16777215
176
1
 90
1
176
1
 90
4
176
1
 62
7
176
1
 62
257
176
1
 90
1
176
1
 90
1
176
1
 40
1.0
176
1
 90
8
176
1
 62
7
176
1
 40
1.0
176
1
 90
1
176
1
 90
6
176
1
 90
2
176
1
 62
7
176
1
 90
5
176
1
 90
0
176
1
 90
0
176
1
290
0
176
1
 90
1
176
1
 40
0.0
176
1
 90
0
176
1
290
0
176
1
290
1
176
1
290
1
176
1
290
0
176
1
290
0
176
1
290
0
176
1
290
0
176
1
290
0
176
1
290
0
176
1
 90
50
176
1
 40
0.0
176
1
 40
1.0
176
1
 90
0
176
1
 62
18
420
0
176
1
 90
50
176
1
 90
3
176
1
 62
5
420
255
176
1
290
0
176
1
 90
50
176
1
 90
50
176
1
 90
50
176
1
290
0
176
1
 90
50
176
1
 62
256
176
0
 40
1.0
176
0
 90
2
176
1
  1
strokes_ogs.tif
176
1
290
0
176
1
 40
1.0
176
1
 40
1.0
176
1
  0
VISUALSTYLE
  5
6D
102
{ACAD_REACTORS
330
16
102
}
330
16
100
AcDbVisualStyle
  2
Shaded with edges
 70
26
177
3
291
0
 70
58
 90
2
176
1
 90
2
176
1
 90
0
176
1
 90
2
176
1
 40
0.6
176
1
 40
30.0
176
1
 62
7
420
16777215
176
1
 90
1
176
1
 90
4
176
1
 62
7
176
1
 62
257
176
1
 90
1
176
1
 90
1
176
1
 40
1.0
176
1
 90
8
176
1
 62
7
176
1
 40
1.0
176
1
 90
1
176
1
 90
6
176
1
 90
2
176
1
 62
7
176
1
 90
5
176
1
 90
0
176
1
 90
0
176
1
290
0
176
1
 90
1
176
1
 40
0.0
176
1
 90
0
176
1
290
0
176
1
290
1
176
1
290
1
176
1
290
0
176
1
290
0
176
1
290
0
176
1
290
0
176
1
290
0
176
1
290
0
176
1
 90
50
176
1
 40
0.0
176
1
 40
1.0
176
1
 90
0
176
1
 62
18
420
0
176
1
 90
50
176
1
 90
3
176
1
 62
5
420
255
176
1
290
0
176
1
 90
50
176
1
 90
50
176
1
 90
50
176
1
290
0
176
1
 90
50
176
1
 62
256
176
0
 40
1.0
176
0
 90
2
176
1
  1
strokes_ogs.tif
176
1
290
0
176
1
 40
1.0
176
1
 40
1.0
176
1
  0
VISUALSTYLE
  5
6E
102
{ACAD_REACTORS
330
16
102
}
330
16
100
AcDbVisualStyle
  2
Shades of Gray
 70
23
177
3
291
0
 70
58
 90
2
176
1
 90
2
176
1
 90
0
176
1
 90
2
176
1
 40
0.6
176
1
 40
30.0
176
1
 62
7
420
16777215
176
1
 90
1
176
1
 90
4
176
1
 62
7
176
1
 62
257
176
1
 90
1
176
1
 90
1
176
1
 40
1.0
176
1
 90
8
176
1
 62
7
176
1
 40
1.0
176
1
 90
1
176
1
 90
6
176
1
 90
2
176
1
 62
7
176
1
 90
5
176
1
 90
0
176
1
 90
0
176
1
290
0
176
1
 90
1
176
1
 40
0.0
176
1
 90
0
176
1
290
0
176
1
290
1
176
1
290
1
176
1
290
0
176
1
290
0
176
1
290
0
176
1
290
0
176
1
290
0
176
1
290
0
176
1
 90
50
176
1
 40
0.0
176
1
 40
1.0
176
1
 90
0
176
1
 62
18
420
0
176
1
 90
50
176
1
 90
3
176
1
 62
5
420
255
176
1
290
0
176
1
 90
50
176
1
 90
50
176
1
 90
50
176
1
290
0
176
1
 90
50
176
1
 62
256
176
0
 40
1.0
176
0
 90
2
176
1
  1
strokes_ogs.tif
176
1
290
0
176
1
 40
1.0
176
1
 40
1.0
176
1
  0
VISUALSTYLE
  5
6F
102
{ACAD_REACTORS
330
16
102
}
330
16
100
AcDbVisualStyle
  2
Sketchy
 70
24
177
3
291
0
 70
58
 90
2
176
1
 90
2
176
1
 90
0
176
1
 90
1
176
1
 40
0.6
176
1
 40
30.0
176
1
 62
7
420
16777215
176
1
 90
1
176
1
 90
4
176
1
 62
7
176
1
 62
257
176
1
 90
1
176
1
 90
1
176
1
 40
1.0
176
1
 90
8
176
1
 62
7
176
1
 40
1.0
176
1
 90
1
176
1
 90
6
176
1
 90
2
176
1
 62
7
176
1
 90
5
176
1
 90
0
176
1
 90
0
176
1
290
0
176
1
 90
1
176
1
 40
0.0
176
1
 90
0
176
1
290
0
176
1
290
1
176
1
290
1
176
1
290
0
176
1
290
0
176
1
290
0
176
1
290
0
176
1
290
0
176
1
290
0
176
1
 90
50
176
1
 40
0.0
176
1
 40
1.0
176
1
 90
0
176
1
 62
18
420
0
176
1
 90
50
176
1
 90
3
176
1
 62
5
420
255
176
1
290
0
176
1
 90
50
176
1
 90
50
176
1
 90
50
176
1
290
0
176
1
 90
50
176
1
 62
256
176
0
 40
1.0
176
0
 90
2
176
1
  1
strokes_ogs.tif
176
1
290
0
176
1
 40
1.0
176
1
 40
1.0
176
1
  0
VISUALSTYLE
  5
70
102
{ACAD_REACTORS
330
16
102
}
330
16
100
AcDbVisualStyle
  2
Thicken
 70
13
177
3
291
1
 70
58
 90
2
176
1
 90
2
176
1
 90
0
176
1
 90
2
176
1
 40
0.6
176
1
 40
30.0
176
1
 62
7
420
16777215
176
1
 90
1
176
1
 90
4
176
1
 62
7
176
1
 62
257
176
1
 90
1
176
1
 90
1
176
1
 40
1.0
176
1
 90
8
176
1
 62
7
176
1
 40
1.0
176
1
 90
1
176
1
 90
6
176
1
 90
2
176
1
 62
7
176
1
 90
5
176
1
 90
0
176
1
 90
0
176
1
290
0
176
1
 90
1
176
1
 40
0.0
176
1
 90
0
176
1
290
0
176
1
290
1
176
1
290
1
176
1
290
0
176
1
290
0
176
1
290
0
176
1
290
0
176
1
290
0
176
1
290
0
176
1
 90
50
176
1
 40
0.0
176
1
 40
1.0
176
1
 90
0
176
1
 62
18
420
0
176
1
 90
50
176
1
 90
3
176
1
 62
5
420
255
176
1
290
0
176
1
 90
50
176
1
 90
50
176
1
 90
50
176
1
290
0
176
1
 90
50
176
1
 62
256
176
0
 40
1.0
176
0
 90
2
176
1
  1
strokes_ogs.tif
176
1
290
0
176
1
 40
1.0
176
1
 40
1.0
176
1
  0
VISUALSTYLE
  5
71
102
{ACAD_REACTORS
330
16
102
}
330
16
100
AcDbVisualStyle
  2
Wireframe
 70
5
177
3
291
0
 70
58
 90
2
176
1
 90
2
176
1
 90
0
176
1
 90
0
176
1
 40
0.6
176
1
 40
30.0
176
1
 62
7
420
16777215
176
1
 90
1
176
1
 90
4
176
1
 62
7
176
1
 62
257
176
1
 90
1
176
1
 90
1
176
1
 40
1.0
176
1
 90
8
176
1
 62
7
176
1
 40
1.0
176
1
 90
1
176
1
 90
6
176
1
 90
2
176
1
 62
7
176
1
 90
5
176
1
 90
0
176
1
 90
0
176
1
290
0
176
1
 90
1
176
1
 40
0.0
176
1
 90
0
176
1
290
0
176
1
290
1
176
1
290
1
176
1
290
0
176
1
290
0
176
1
290
0
176
1
290
0
176
1
290
0
176
1
290
0
176
1
 90
50
176
1
 40
0.0
176
1
 40
1.0
176
1
 90
0
176
1
 62
18
420
0
176
1
 90
50
176
1
 90
3
176
1
 62
5
420
255
176
1
290
0
176
1
 90
50
176
1
 90
50
176
1
 90
50
176
1
290
0
176
1
 90
50
176
1
 62
256
176
0
 40
1.0
176
0
 90
2
176
1
  1
strokes_ogs.tif
176
1
290
0
176
1
 40
1.0
176
1
 40
1.0
176
1
  0
VISUALSTYLE
  5
72
102
{ACAD_REACTORS
330
16
102
}
330
16
100
AcDbVisualStyle
  2
X-Ray
 70
25
177
3
291
0
 70
58
 90
2
176
1
 90
2
176
1
 90
0
176
1
 90
2
176
1
 40
0.5
176
1
 40
30.0
176
1
 62
7
420
16777215
176
1
 90
1
176
1
 90
4
176
1
 62
7
176
1
 62
257
176
1
 90
1
176
1
 90
1
176
1
 40
1.0
176
1
 90
8
176
1
 62
7
176
1
 40
1.0
176
1
 90
1
176
1
 90
6
176
1
 90
2
176
1
 62
7
176
1
 90
5
176
1
 90
0
176
1
 90
0
176
1
290
0
176
1
 90
1
176
1
 40
0.0
176
1
 90
0
176
1
290
0
176
1
290
1
176
1
290
1
176
1
290
0
176
1
290
0
176
1
290
0
176
1
290
0
176
1
290
0
176
1
290
0
176
1
 90
50
176
1
 40
0.0
176
1
 40
1.0
176
1
 90
0
176
1
 62
18
420
0
176
1
 90
50
176
1
 90
3
176
1
 62
5
420
255
176
1
290
0
176
1
 90
50
176
1
 90
50
176
1
 90
50
176
1
290
0
176
1
 90
50
176
1
 62
256
176
0
 40
1.0
176
0
 90
2
176
1
  1
strokes_ogs.tif
176
1
290
0
176
1
 40
1.0
176
1
 40
1.0
176
1
  0
DICTIONARYVAR
  5
3C4
330
2D
100
DictionaryVariables
280
0
  1
1.4.4 @ 2026-05-20T07:03:39.964572+00:00
  0
ENDSEC
  0
EOF
