<svg xmlns="http://www.w3.org/2000/svg" viewBox="0 0 1200 900" width="1200" height="900" font-family="Georgia, 'Times New Roman', serif">
<defs>
  <pattern id="plantHatch" patternUnits="userSpaceOnUse" width="14" height="14" patternTransform="rotate(45)">
    <rect width="14" height="14" fill="#2E5944"/>
    <line x1="0" y1="0" x2="0" y2="14" stroke="#3F7257" stroke-width="1.5" opacity="0.45"/>
  </pattern>
  <pattern id="plantHatch2" patternUnits="userSpaceOnUse" width="20" height="20">
    <rect width="20" height="20" fill="#2E5944"/>
    <circle cx="5" cy="5" r="2" fill="#3F7257" opacity="0.6"/>
    <circle cx="15" cy="15" r="2.5" fill="#3F7257" opacity="0.55"/>
    <circle cx="15" cy="5" r="1.6" fill="#3F7257" opacity="0.45"/>
    <circle cx="5" cy="15" r="1.6" fill="#3F7257" opacity="0.45"/>
  </pattern>
  <pattern id="drivewayPat" patternUnits="userSpaceOnUse" width="8" height="8">
    <rect width="8" height="8" fill="#D9CDA8"/>
    <circle cx="2" cy="2" r="0.6" fill="#A89870"/>
    <circle cx="6" cy="6" r="0.6" fill="#A89870"/>
  </pattern>
  <pattern id="bufferPat" patternUnits="userSpaceOnUse" width="22" height="22">
    <rect width="22" height="22" fill="#1F3A2E"/>
    <circle cx="11" cy="11" r="6" fill="#3F7257" opacity="0.55"/>
    <circle cx="11" cy="11" r="3.5" fill="#16291F" opacity="0.7"/>
  </pattern>
  <pattern id="waterPat" patternUnits="userSpaceOnUse" width="10" height="10">
    <rect width="10" height="10" fill="#7FA9C9"/>
    <path d="M0 5 Q 2.5 3, 5 5 T 10 5" stroke="#FBF8F1" stroke-width="0.6" fill="none" opacity="0.7"/>
  </pattern>
  <linearGradient id="cardShadow" x1="0" y1="0" x2="0" y2="1">
    <stop offset="0" stop-color="#2A2A2A" stop-opacity="0.18"/>
    <stop offset="1" stop-color="#2A2A2A" stop-opacity="0"/>
  </linearGradient>
</defs>

<rect x="0" y="0" width="1200" height="900" fill="#F4EDDD" stroke="none" stroke-width="0" rx="0"/>
<rect x="20" y="20" width="1160" height="860" fill="#FBF8F1" stroke="#C7B97A" stroke-width="1" rx="8"/>
<text x="600" y="60" fill="#1F3A2E" font-size="18" font-weight="700" text-anchor="middle" letter-spacing="3">RESERVA VERDE GOA · 1-ACRE SITE PLAN</text>
<text x="600" y="82" fill="#B08A3E" font-size="13" font-weight="400" text-anchor="middle" letter-spacing="0" font-style="italic">3BHK · Premium Modular Agro Estate  ·  3,500 Sq.Ft Built-up  ·  1 Acre Eco-Plantation Estate</text>
<line x1="60" y1="95" x2="1140" y2="95" stroke="#B08A3E" stroke-width="0.6"/>
<rect x="80" y="110" width="700" height="700" fill="url(#bufferPat)" stroke="#1F3A2E" stroke-width="2.5" rx="4"/><rect x="174.23076923076923" y="204.23076923076923" width="511.53846153846155" height="511.53846153846155" fill="url(#plantHatch2)" stroke="#16291F" stroke-width="1.2" rx="0"/><text x="673.7692307692307" y="226.23076923076923" fill="#FBF8F1" font-size="11" font-weight="700" text-anchor="end" letter-spacing="1">PLANTATION  PREMIUM MIX  MANGO · COCONUT · SPICE</text><rect x="408.125" y="641.7307692307693" width="43.75" height="168.26923076923077" fill="url(#drivewayPat)" stroke="#E8DFC4" stroke-width="0.5" rx="0"/><rect x="463.65384615384613" y="507.1153846153846" width="94.23076923076923" height="121.15384615384616" fill="#D9CDA8" stroke="#2A2A2A" stroke-width="0.6" rx="0"/><text x="510.7692307692308" y="567.6923076923076" fill="#2A2A2A" font-size="12" font-weight="700" text-anchor="middle" letter-spacing="0">P</text><text x="510.7692307692308" y="608.0769230769231" fill="#2A2A2A" font-size="8" font-weight="400" text-anchor="middle" letter-spacing="0">2-3 cars</text><rect x="261.7307692307692" y="274.9038461538462" width="134.6153846153846" height="26.923076923076923" fill="#FBF8F1" stroke="#1F3A2E" stroke-width="1.4" rx="0"/><text x="329.03846153846155" y="292.36538461538464" fill="#1F3A2E" font-size="10" font-weight="700" text-anchor="middle" letter-spacing="0">MASTER BR</text><rect x="396.3461538461538" y="274.9038461538462" width="134.6153846153846" height="26.923076923076923" fill="#FBF8F1" stroke="#1F3A2E" stroke-width="1.4" rx="0"/><text x="463.65384615384613" y="292.36538461538464" fill="#1F3A2E" font-size="10" font-weight="700" text-anchor="middle" letter-spacing="0">BEDROOM 2</text><rect x="530.9615384615385" y="274.9038461538462" width="26.923076923076923" height="134.6153846153846" fill="#FBF8F1" stroke="#1F3A2E" stroke-width="1.4" rx="0"/><g transform="translate(544.4230769230769, 342.2115384615385) rotate(-90)"><text text-anchor="middle" font-size="10" font-weight="700" fill="#1F3A2E">BEDROOM 3</text></g><rect x="261.7307692307692" y="348.94230769230774" width="134.6153846153846" height="26.923076923076923" fill="#FBF8F1" stroke="#1F3A2E" stroke-width="1.4" rx="0"/><text x="329.03846153846155" y="366.4038461538462" fill="#1F3A2E" font-size="10" font-weight="700" text-anchor="middle" letter-spacing="0">LIVING</text><rect x="396.3461538461538" y="348.94230769230774" width="134.6153846153846" height="26.923076923076923" fill="#FBF8F1" stroke="#1F3A2E" stroke-width="1.4" rx="0"/><text x="463.65384615384613" y="366.4038461538462" fill="#1F3A2E" font-size="9" font-weight="700" text-anchor="middle" letter-spacing="0">DINING / KITCHEN (40 ft)</text><rect x="530.9615384615385" y="348.94230769230774" width="26.923076923076923" height="134.6153846153846" fill="#FBF8F1" stroke="#1F3A2E" stroke-width="1.4" rx="0"/><g transform="translate(544.4230769230769, 416.25000000000006) rotate(-90)"><text text-anchor="middle" font-size="10" font-weight="700" fill="#1F3A2E">FAMILY LOUNGE</text></g><rect x="194.4230769230769" y="348.94230769230774" width="67.3076923076923" height="26.923076923076923" fill="#E8DFC4" stroke="#1F3A2E" stroke-width="1.2" rx="0"/><text x="228.07692307692307" y="366.4038461538462" fill="#1F3A2E" font-size="9" font-weight="700" text-anchor="middle" letter-spacing="0">UTILITY</text><rect x="194.4230769230769" y="274.9038461538462" width="67.3076923076923" height="26.923076923076923" fill="#E8DFC4" stroke="#1F3A2E" stroke-width="1.2" rx="0"/><text x="228.07692307692307" y="292.36538461538464" fill="#1F3A2E" font-size="9" font-weight="700" text-anchor="middle" letter-spacing="0">STUDY</text><rect x="281.9230769230769" y="301.8269230769231" width="228.84615384615384" height="47.11538461538461" fill="#E8DFC4" stroke="#B08A3E" stroke-width="1" rx="0"/><text x="396.3461538461538" y="328.3846153846154" fill="#B08A3E" font-size="10" font-weight="700" text-anchor="middle" letter-spacing="1">COURTYARD / GLASS SPINE</text><rect x="255" y="376.86538461538464" width="282.6923076923077" height="33.65384615384615" fill="#C9B07A" stroke="#8B6F3A" stroke-width="0.9" rx="0"/><text x="396.3461538461538" y="397.0576923076923" fill="#2A2A2A" font-size="9" font-weight="700" text-anchor="middle" letter-spacing="1">COVERED VERANDAH + WELLNESS DECK</text><rect x="244.90384615384616" y="422.9807692307693" width="302.88461538461536" height="67.3076923076923" fill="#D4D8B6" stroke="#3F7257" stroke-width="0.8" rx="0"/><text x="396.3461538461538" y="456.6346153846154" fill="#1F3A2E" font-size="10" font-weight="700" text-anchor="middle" letter-spacing="1">YOGA LAWN · FIREPIT · OUTDOOR DINING</text><circle cx="719.4230769230769" cy="184.03846153846155" r="11" fill="#7FA9C9" stroke="#1F3A2E" stroke-width="1"/><text x="719.4230769230769" y="237.8846153846154" fill="#1F3A2E" font-size="9" font-weight="700" text-anchor="middle" letter-spacing="0">RWH x2</text><rect x="645.3846153846154" y="426.34615384615387" width="60.57692307692308" height="60.57692307692308" fill="#3F7257" stroke="#1F3A2E" stroke-width="1"/><text x="675.6730769230769" y="507.11538461538464" fill="#1F3A2E" font-size="8" font-weight="700" text-anchor="middle" letter-spacing="0">GREYWATER BED</text><rect x="130.48076923076923" y="692.2115384615385" width="60.57692307692308" height="33.65384615384615" fill="#B08A3E" opacity="0.7" stroke="#1F3A2E" stroke-width="0.8"/><text x="160.76923076923077" y="742.6923076923077" fill="#1F3A2E" font-size="8" font-weight="700" text-anchor="middle" letter-spacing="0">COMPOST</text><rect x="611.7307692307693" y="692.2115384615385" width="100.96153846153847" height="47.11538461538461" fill="#E8DFC4" stroke="#1F3A2E" stroke-width="1"/><text x="662.2115384615386" y="725.8653846153846" fill="#1F3A2E" font-size="8" font-weight="700" text-anchor="middle" letter-spacing="0">SOLAR / UTIL</text><rect x="130.48076923076923" y="160.48076923076923" width="60.57692307692308" height="40.38461538461539" fill="#F4EDDD" stroke="#1F3A2E" stroke-width="1"/><text x="160.76923076923077" y="224.4230769230769" fill="#1F3A2E" font-size="8" font-weight="700" text-anchor="middle" letter-spacing="0">BIO-SEPTIC</text><rect x="147.30769230769232" y="177.30769230769232" width="565.3846153846154" height="565.3846153846154" fill="none" stroke="#E8DFC4" stroke-width="3" stroke-dasharray="2,4" opacity="0.7"/><rect x="40" y="830" width="1120" height="26" fill="#3A3A3A" stroke="none" stroke-width="0" rx="0"/><text x="600" y="848" text-anchor="middle" fill="#FBF8F1" font-size="10" font-style="italic" letter-spacing="2">ACCESS ROAD</text><rect x="400" y="804" width="60" height="12" fill="#B08A3E" stroke="#1F3A2E" stroke-width="1.5" rx="0"/><text x="430" y="826" fill="#1F3A2E" font-size="11" font-weight="700" text-anchor="middle" letter-spacing="1">GATE</text><circle cx="455.27112003966874" cy="230.9422910903044" r="7.930506257103454" fill="#3F7257" stroke="#16291F" stroke-width="0.6" opacity="0.85"/><circle cx="519.7511279862699" cy="647.4930561087833" r="5.490640521415727" fill="#3F7257" stroke="#16291F" stroke-width="0.6" opacity="0.85"/><circle cx="581.3037792289704" cy="229.95009361008297" r="6.903266349684546" fill="#3F7257" stroke="#16291F" stroke-width="0.6" opacity="0.85"/><circle cx="156.81781932971148" cy="238.17856390010337" r="5.200358530761972" fill="#3F7257" stroke="#16291F" stroke-width="0.6" opacity="0.85"/><circle cx="454.38928671177234" cy="710.5743533218329" r="7.120502879682286" fill="#3F7257" stroke="#16291F" stroke-width="0.6" opacity="0.85"/><circle cx="622.1568898696066" cy="346.1580153108357" r="7.355551834852202" fill="#3F7257" stroke="#16291F" stroke-width="0.6" opacity="0.85"/><circle cx="404.93892213891934" cy="569.3454695535744" r="5.123434118477238" fill="#3F7257" stroke="#16291F" stroke-width="0.6" opacity="0.85"/><circle cx="344.54292303225384" cy="687.9886185788725" r="5.282731526996547" fill="#3F7257" stroke="#16291F" stroke-width="0.6" opacity="0.85"/><circle cx="267.22684961750844" cy="725.6131629637582" r="6.400841852892308" fill="#3F7257" stroke="#16291F" stroke-width="0.6" opacity="0.85"/><circle cx="352.94601921891297" cy="190.45018602621778" r="5.930947932820998" fill="#3F7257" stroke="#16291F" stroke-width="0.6" opacity="0.85"/><circle cx="549.6784212528862" cy="536.9313769109469" r="6.385306377186591" fill="#3F7257" stroke="#16291F" stroke-width="0.6" opacity="0.85"/><circle cx="568.0476025842348" cy="586.4856262534063" r="7.8245549072936615" fill="#3F7257" stroke="#16291F" stroke-width="0.6" opacity="0.85"/><circle cx="456.5756399348965" cy="651.5334886835738" r="5.28209302197855" fill="#3F7257" stroke="#16291F" stroke-width="0.6" opacity="0.85"/><circle cx="177.974198661478" cy="422.2844405787832" r="7.453894983616171" fill="#3F7257" stroke="#16291F" stroke-width="0.6" opacity="0.85"/><circle cx="591.9578403963237" cy="715.9323665777015" r="6.793291916634724" fill="#3F7257" stroke="#16291F" stroke-width="0.6" opacity="0.85"/><circle cx="312.0329169256259" cy="237.5412409704771" r="7.286956754000402" fill="#3F7257" stroke="#16291F" stroke-width="0.6" opacity="0.85"/><circle cx="587.2139318057514" cy="632.882717009123" r="5.75283609144335" fill="#3F7257" stroke="#16291F" stroke-width="0.6" opacity="0.85"/><circle cx="263.23978452216164" cy="670.2978355465898" r="6.131227569382729" fill="#3F7257" stroke="#16291F" stroke-width="0.6" opacity="0.85"/><circle cx="703.730469755403" cy="606.6640335522565" r="7.83209077669035" fill="#3F7257" stroke="#16291F" stroke-width="0.6" opacity="0.85"/><circle cx="563.2011713396698" cy="243.29328723407622" r="5.492973046018497" fill="#3F7257" stroke="#16291F" stroke-width="0.6" opacity="0.85"/><circle cx="487.7419316844736" cy="668.1339713179345" r="5.119660248302931" fill="#3F7257" stroke="#16291F" stroke-width="0.6" opacity="0.85"/><circle cx="493.3814572181942" cy="232.07771984468434" r="5.814542802981482" fill="#3F7257" stroke="#16291F" stroke-width="0.6" opacity="0.85"/><circle cx="229.6902483730878" cy="555.2239935378857" r="6.646538380747594" fill="#3F7257" stroke="#16291F" stroke-width="0.6" opacity="0.85"/><circle cx="670.160358267856" cy="404.26989175552757" r="6.083462537338417" fill="#3F7257" stroke="#16291F" stroke-width="0.6" opacity="0.85"/><circle cx="200.58722268605885" cy="717.865296714898" r="7.137115247316915" fill="#3F7257" stroke="#16291F" stroke-width="0.6" opacity="0.85"/><g transform="translate(960,110)">
    <rect x="0" y="0" width="200" height="146" fill="#FBF8F1" stroke="#B08A3E" stroke-width="1" rx="4" opacity="0.97"/>
    <text x="12" y="16" fill="#1F3A2E" font-size="11" font-weight="700">LEGEND</text><rect x="12" y="24" width="14" height="10" fill="url(#plantHatch2)" stroke="#2A2A2A" stroke-width="0.6"/><text x="32" y="33" fill="#2A2A2A" font-size="10">Plantation zone (premium mix)</text><rect x="12" y="42" width="14" height="10" fill="url(#bufferPat)" stroke="#2A2A2A" stroke-width="0.6"/><text x="32" y="51" fill="#2A2A2A" font-size="10">Landscape buffer</text><rect x="12" y="60" width="14" height="10" fill="#FBF8F1" stroke="#1F3A2E" stroke-width="0.6"/><text x="32" y="69" fill="#2A2A2A" font-size="10">Container module (40 / 20 ft)</text><rect x="12" y="78" width="14" height="10" fill="#E8DFC4" stroke="#2A2A2A" stroke-width="0.6"/><text x="32" y="87" fill="#2A2A2A" font-size="10">Courtyard / glass spine</text><rect x="12" y="96" width="14" height="10" fill="#C9B07A" stroke="#2A2A2A" stroke-width="0.6"/><text x="32" y="105" fill="#2A2A2A" font-size="10">Covered verandah / wellness deck</text><rect x="12" y="114" width="14" height="10" fill="#3F7257" stroke="#2A2A2A" stroke-width="0.6"/><text x="32" y="123" fill="#2A2A2A" font-size="10">Greywater reed bed</text><rect x="12" y="132" width="14" height="10" fill="#7FA9C9" stroke="#2A2A2A" stroke-width="0.6"/><text x="32" y="141" fill="#2A2A2A" font-size="10">RWH / water feature</text></g><g transform="translate(1130,800)">
    <circle cx="0" cy="0" r="22" fill="#FBF8F1" stroke="#1F3A2E" stroke-width="1.2"/>
    <polygon points="0,-18 6,8 0,3 -6,8" fill="#1F3A2E"/>
    <polygon points="0,-18 0,3 -6,8" fill="#B08A3E"/>
    <text x="0" y="-26" text-anchor="middle" fill="#1F3A2E" font-size="11" font-weight="700">N</text>
  </g><g transform="translate(70,840)">
    <rect x="0" y="0" width="67.3076923076923" height="6" fill="#1F3A2E" stroke="#1F3A2E"/>
    <rect x="67.3076923076923" y="0" width="67.3076923076923" height="6" fill="#FBF8F1" stroke="#1F3A2E"/>
    <rect x="134.6153846153846" y="0" width="67.3076923076923" height="6" fill="#1F3A2E" stroke="#1F3A2E"/>
    <text x="0" y="22" fill="#2A2A2A" font-size="10" text-anchor="middle">0</text>
    <text x="67.3076923076923" y="22" fill="#2A2A2A" font-size="10" text-anchor="middle">20</text>
    <text x="134.6153846153846" y="22" fill="#2A2A2A" font-size="10" text-anchor="middle">40</text>
    <text x="201.9230769230769" y="22" fill="#2A2A2A" font-size="10" text-anchor="middle">60 ft</text>
  </g><g transform="translate(70,110)">
    <rect x="0" y="0" width="270" height="74" fill="#FBF8F1" stroke="#B08A3E" stroke-width="1.5" rx="4"/>
    <text x="14" y="22" fill="#1F3A2E" font-size="13" font-weight="700" letter-spacing="2">RESERVA VERDE GOA</text>
    <line x1="14" y1="30" x2="256" y2="30" stroke="#B08A3E" stroke-width="0.8"/>
    <text x="14" y="48" fill="#2A2A2A" font-size="12" font-weight="700">3BHK · 3 BR + 3 ATT + POWDER</text>
    <text x="14" y="65" fill="#2A2A2A" font-size="11" font-style="italic">3,500 Sq.Ft  ·  1 Acre Plantation Estate</text>
  </g></svg>