<svg xmlns="http://www.w3.org/2000/svg" viewBox="0 0 1200 900" width="1200" height="900" font-family="Georgia, 'Times New Roman', serif">
<defs>
  <pattern id="plantHatch" patternUnits="userSpaceOnUse" width="14" height="14" patternTransform="rotate(45)">
    <rect width="14" height="14" fill="#2E5944"/>
    <line x1="0" y1="0" x2="0" y2="14" stroke="#3F7257" stroke-width="1.5" opacity="0.45"/>
  </pattern>
  <pattern id="plantHatch2" patternUnits="userSpaceOnUse" width="20" height="20">
    <rect width="20" height="20" fill="#2E5944"/>
    <circle cx="5" cy="5" r="2" fill="#3F7257" opacity="0.6"/>
    <circle cx="15" cy="15" r="2.5" fill="#3F7257" opacity="0.55"/>
    <circle cx="15" cy="5" r="1.6" fill="#3F7257" opacity="0.45"/>
    <circle cx="5" cy="15" r="1.6" fill="#3F7257" opacity="0.45"/>
  </pattern>
  <pattern id="drivewayPat" patternUnits="userSpaceOnUse" width="8" height="8">
    <rect width="8" height="8" fill="#D9CDA8"/>
    <circle cx="2" cy="2" r="0.6" fill="#A89870"/>
    <circle cx="6" cy="6" r="0.6" fill="#A89870"/>
  </pattern>
  <pattern id="bufferPat" patternUnits="userSpaceOnUse" width="22" height="22">
    <rect width="22" height="22" fill="#1F3A2E"/>
    <circle cx="11" cy="11" r="6" fill="#3F7257" opacity="0.55"/>
    <circle cx="11" cy="11" r="3.5" fill="#16291F" opacity="0.7"/>
  </pattern>
  <pattern id="waterPat" patternUnits="userSpaceOnUse" width="10" height="10">
    <rect width="10" height="10" fill="#7FA9C9"/>
    <path d="M0 5 Q 2.5 3, 5 5 T 10 5" stroke="#FBF8F1" stroke-width="0.6" fill="none" opacity="0.7"/>
  </pattern>
  <linearGradient id="cardShadow" x1="0" y1="0" x2="0" y2="1">
    <stop offset="0" stop-color="#2A2A2A" stop-opacity="0.18"/>
    <stop offset="1" stop-color="#2A2A2A" stop-opacity="0"/>
  </linearGradient>
</defs>

<rect x="0" y="0" width="1200" height="900" fill="#F4EDDD" stroke="none" stroke-width="0" rx="0"/>
<rect x="20" y="20" width="1160" height="860" fill="#FBF8F1" stroke="#C7B97A" stroke-width="1" rx="8"/>
<text x="600" y="60" fill="#1F3A2E" font-size="18" font-weight="700" text-anchor="middle" letter-spacing="3">RESERVA VERDE GOA · 1-ACRE SITE PLAN</text>
<text x="600" y="82" fill="#B08A3E" font-size="13" font-weight="400" text-anchor="middle" letter-spacing="0" font-style="italic">4BHK · Signature Ground-Level Modular Luxury Estate  ·  4,500 Sq.Ft Built-up  ·  1 Acre Eco-Plantation Estate</text>
<line x1="60" y1="95" x2="1140" y2="95" stroke="#B08A3E" stroke-width="0.6"/>
<rect x="80" y="110" width="700" height="700" fill="url(#bufferPat)" stroke="#1F3A2E" stroke-width="2.5" rx="4"/><rect x="167.5" y="197.5" width="525" height="525" fill="url(#plantHatch2)" stroke="#16291F" stroke-width="1.2" rx="0"/><text x="680.5" y="219.5" fill="#FBF8F1" font-size="11" font-weight="700" text-anchor="end" letter-spacing="1">PLANTATION  CURATED  MANGO · CASHEW · COCONUT · ORCHARD</text><rect x="406.4423076923077" y="608.0769230769231" width="47.11538461538461" height="201.92307692307693" fill="url(#drivewayPat)" stroke="#E8DFC4" stroke-width="0.5" rx="0"/><rect x="355.96153846153845" y="446.53846153846155" width="148.07692307692307" height="134.6153846153846" fill="#D9CDA8" stroke="#2A2A2A" stroke-width="0.6" rx="0"/><text x="430" y="513.8461538461538" fill="#1F3A2E" font-size="10" font-weight="700" text-anchor="middle" letter-spacing="1">ARRIVAL</text><text x="430" y="557.5961538461538" fill="#2A2A2A" font-size="8" font-weight="400" text-anchor="middle" letter-spacing="0">3 cars + cart</text><rect x="352.5961538461538" y="385.96153846153845" width="154.80769230769232" height="134.6153846153846" fill="#E8DFC4" stroke="#B08A3E" stroke-width="1.2" rx="0"/><rect x="382.88461538461536" y="419.61538461538464" width="94.23076923076923" height="67.3076923076923" fill="url(#waterPat)" stroke="#1F3A2E" stroke-width="0.8" rx="0"/><text x="430" y="456.2692307692308" fill="#1F3A2E" font-size="9" font-weight="700" text-anchor="middle" letter-spacing="0">REFLECTIVE</text><text x="430" y="467.2692307692308" fill="#1F3A2E" font-size="9" font-weight="700" text-anchor="middle" letter-spacing="0">POOL</text><circle cx="490.5769230769231" cy="402.78846153846155" r="7" fill="#3F7257" stroke="#16291F" stroke-width="0.6" opacity="0.85"/><rect x="315.57692307692304" y="385.96153846153845" width="26.923076923076923" height="134.6153846153846" fill="#FBF8F1" stroke="#1F3A2E" stroke-width="1.4" rx="0"/><g transform="translate(329.0384615384615, 419.61538461538464) rotate(-90)"><text text-anchor="middle" font-size="10" font-weight="700" fill="#1F3A2E">MASTER SUITE</text></g><g transform="translate(329.0384615384615, 486.9230769230769) rotate(-90)"><text text-anchor="middle" font-size="9" font-weight="700" fill="#1F3A2E">W/IN WARDROBE + BATH</text></g><rect x="248.26923076923072" y="379.2307692307692" width="67.3076923076923" height="148.07692307692307" fill="#E8E0BD" stroke="#B08A3E" stroke-width="0.9" rx="0"/><g transform="translate(281.9230769230769, 453.2692307692308) rotate(-90)"><text text-anchor="middle" font-size="9" font-weight="700" fill="#1F3A2E">PRIVATE GARDEN COURT</text></g><rect x="228.0769230769231" y="348.9423076923077" width="134.6153846153846" height="26.923076923076923" fill="#FBF8F1" stroke="#1F3A2E" stroke-width="1.4" rx="0"/><text x="295.3846153846154" y="366.40384615384613" fill="#1F3A2E" font-size="10" font-weight="700" text-anchor="middle" letter-spacing="0">BEDROOM 4</text><rect x="362.69230769230774" y="348.9423076923077" width="134.6153846153846" height="26.923076923076923" fill="#FBF8F1" stroke="#1F3A2E" stroke-width="1.4" rx="0"/><text x="430" y="366.40384615384613" fill="#1F3A2E" font-size="10" font-weight="700" text-anchor="middle" letter-spacing="0">BEDROOM 3</text><rect x="497.3076923076923" y="348.9423076923077" width="134.6153846153846" height="26.923076923076923" fill="#FBF8F1" stroke="#1F3A2E" stroke-width="1.4" rx="0"/><text x="564.6153846153846" y="366.40384615384613" fill="#1F3A2E" font-size="10" font-weight="700" text-anchor="middle" letter-spacing="0">BEDROOM 2</text><rect x="160.76923076923077" y="348.9423076923077" width="67.3076923076923" height="26.923076923076923" fill="#E8DFC4" stroke="#1F3A2E" stroke-width="1.2" rx="0"/><text x="194.42307692307693" y="366.40384615384613" fill="#1F3A2E" font-size="9" font-weight="700" text-anchor="middle" letter-spacing="0">STUDY</text><rect x="517.5" y="385.96153846153845" width="26.923076923076923" height="67.3076923076923" fill="#FBF8F1" stroke="#1F3A2E" stroke-width="1.4" rx="0"/><g transform="translate(530.9615384615385, 410.1923076923077) rotate(-90)"><text text-anchor="middle" font-size="9" font-weight="700" fill="#1F3A2E">FAMILY LOUNGE</text></g><rect x="517.5" y="453.2692307692308" width="26.923076923076923" height="67.3076923076923" fill="#FBF8F1" stroke="#1F3A2E" stroke-width="1.4" rx="0"/><g transform="translate(530.9615384615385, 477.5) rotate(-90)"><text text-anchor="middle" font-size="10" font-weight="700" fill="#1F3A2E">GRAND LIVING</text></g><rect x="544.4230769230769" y="385.96153846153845" width="26.923076923076923" height="67.3076923076923" fill="#E8DFC4" stroke="#1F3A2E" stroke-width="1.2" rx="0"/><g transform="translate(557.8846153846154, 419.6153846153846) rotate(-90)"><text text-anchor="middle" font-size="8" font-weight="700" fill="#1F3A2E">POWDER/STORAGE</text></g><rect x="295.3846153846154" y="530.6730769230769" width="134.6153846153846" height="26.923076923076923" fill="#FBF8F1" stroke="#1F3A2E" stroke-width="1.4" rx="0"/><text x="362.69230769230774" y="548.1346153846154" fill="#1F3A2E" font-size="10" font-weight="700" text-anchor="middle" letter-spacing="0">FORMAL DINING</text><rect x="430" y="530.6730769230769" width="134.6153846153846" height="26.923076923076923" fill="#FBF8F1" stroke="#1F3A2E" stroke-width="1.4" rx="0"/><text x="497.3076923076923" y="548.1346153846154" fill="#1F3A2E" font-size="9" font-weight="700" text-anchor="middle" letter-spacing="0">OPEN KITCHEN (40 ft)</text><rect x="564.6153846153846" y="530.6730769230769" width="67.3076923076923" height="26.923076923076923" fill="#E8DFC4" stroke="#1F3A2E" stroke-width="1.2" rx="0"/><text x="598.2692307692308" y="548.1346153846154" fill="#1F3A2E" font-size="9" font-weight="700" text-anchor="middle" letter-spacing="0">DIRTY KIT.</text><line x1="342.49999999999994" y1="453.2692307692308" x2="352.5961538461538" y2="453.2692307692308" stroke="#B08A3E" stroke-width="1.5" stroke-dasharray="2,3"/><line x1="430" y1="375.8653846153846" x2="430" y2="385.96153846153845" stroke="#B08A3E" stroke-width="1.5" stroke-dasharray="2,3"/><line x1="517.5" y1="453.2692307692308" x2="507.4038461538462" y2="453.2692307692308" stroke="#B08A3E" stroke-width="1.5" stroke-dasharray="2,3"/><line x1="430" y1="520.5769230769231" x2="430" y2="530.6730769230769" stroke="#B08A3E" stroke-width="1.5" stroke-dasharray="2,3"/><rect x="228.0769230769231" y="558.5961538461538" width="471.15384615384613" height="40.38461538461539" fill="#C9B07A" stroke="#8B6F3A" stroke-width="0.9" rx="0"/><text x="463.6538461538462" y="581.1538461538461" fill="#2A2A2A" font-size="9" font-weight="700" text-anchor="middle" letter-spacing="1">VERANDAH · YOGA / WELLNESS DECK · OUTDOOR DINING</text><rect x="584.8076923076923" y="412.88461538461536" width="114.42307692307692" height="47.11538461538461" fill="url(#waterPat)" stroke="#1F3A2E" stroke-width="1" rx="0"/><text x="642.0192307692307" y="457.2692307692308" fill="#1F3A2E" font-size="9" font-weight="700" text-anchor="middle" letter-spacing="0">POOL (opt.)</text><rect x="201.15384615384616" y="604.7115384615385" width="525" height="67.3076923076923" fill="#D4D8B6" stroke="#3F7257" stroke-width="0.8" rx="0"/><text x="463.6538461538462" y="638.3653846153845" fill="#1F3A2E" font-size="10" font-weight="700" text-anchor="middle" letter-spacing="1">LAWN · FIREPIT · MEDITATION CORNER</text><circle cx="719.4230769230769" cy="184.03846153846155" r="11" fill="#7FA9C9" stroke="#1F3A2E" stroke-width="1"/><circle cx="658.8461538461538" cy="184.03846153846155" r="9" fill="#7FA9C9" stroke="#1F3A2E" stroke-width="1"/><text x="685.7692307692307" y="244.6153846153846" fill="#1F3A2E" font-size="9" font-weight="700" text-anchor="middle" letter-spacing="0">RWH x2 (40k L)</text><rect x="638.6538461538462" y="412.88461538461536" width="74.03846153846153" height="74.03846153846153" fill="#3F7257" stroke="#1F3A2E" stroke-width="1"/><text x="675.6730769230769" y="510.4807692307692" fill="#1F3A2E" font-size="8" font-weight="700" text-anchor="middle" letter-spacing="0">GREYWATER WETLAND</text><rect x="130.48076923076923" y="160.48076923076923" width="74.03846153846153" height="47.11538461538461" fill="#F4EDDD" stroke="#1F3A2E" stroke-width="1"/><text x="167.5" y="237.8846153846154" fill="#1F3A2E" font-size="8" font-weight="700" text-anchor="middle" letter-spacing="0">BIO-SEPTIC + LEACH</text><rect x="130.48076923076923" y="675.3846153846154" width="74.03846153846153" height="40.38461538461539" fill="#B08A3E" opacity="0.7" stroke="#1F3A2E" stroke-width="0.8"/><text x="167.5" y="729.2307692307693" fill="#1F3A2E" font-size="8" font-weight="700" text-anchor="middle" letter-spacing="0">COMPOST</text><rect x="611.7307692307693" y="692.2115384615385" width="100.96153846153847" height="47.11538461538461" fill="#E8DFC4" stroke="#1F3A2E" stroke-width="1"/><text x="662.2115384615386" y="725.8653846153846" fill="#1F3A2E" font-size="8" font-weight="700" text-anchor="middle" letter-spacing="0">SOLAR + EV</text><rect x="147.30769230769232" y="177.30769230769232" width="565.3846153846154" height="565.3846153846154" fill="none" stroke="#E8DFC4" stroke-width="3" stroke-dasharray="2,4" opacity="0.7"/><rect x="40" y="830" width="1120" height="26" fill="#3A3A3A" stroke="none" stroke-width="0" rx="0"/><text x="600" y="848" text-anchor="middle" fill="#FBF8F1" font-size="10" font-style="italic" letter-spacing="2">ACCESS ROAD</text><rect x="400" y="804" width="60" height="12" fill="#B08A3E" stroke="#1F3A2E" stroke-width="1.5" rx="0"/><text x="430" y="826" fill="#1F3A2E" font-size="11" font-weight="700" text-anchor="middle" letter-spacing="1">GATE</text><circle cx="485.1399222522944" cy="311.1097966341588" r="6.636626148340753" fill="#3F7257" stroke="#16291F" stroke-width="0.6" opacity="0.85"/><circle cx="395.94695224237444" cy="294.6628793668524" r="7.180868532775132" fill="#3F7257" stroke="#16291F" stroke-width="0.6" opacity="0.85"/><circle cx="633.7468246200149" cy="273.39475435929336" r="5.974823850463125" fill="#3F7257" stroke="#16291F" stroke-width="0.6" opacity="0.85"/><circle cx="694.2162744694888" cy="388.0664591034831" r="5.387348502916168" fill="#3F7257" stroke="#16291F" stroke-width="0.6" opacity="0.85"/><circle cx="161.3806818847468" cy="471.35674471609724" r="8.288429411235693" fill="#3F7257" stroke="#16291F" stroke-width="0.6" opacity="0.85"/><circle cx="222.09185406251305" cy="716.5962817001982" r="5.571510764539929" fill="#3F7257" stroke="#16291F" stroke-width="0.6" opacity="0.85"/><circle cx="442.2572224490931" cy="275.05778760858436" r="7.788282922914658" fill="#3F7257" stroke="#16291F" stroke-width="0.6" opacity="0.85"/><circle cx="605.367622515665" cy="181.52144944235417" r="5.067327400207845" fill="#3F7257" stroke="#16291F" stroke-width="0.6" opacity="0.85"/><circle cx="339.7715682149086" cy="720.7948560130624" r="6.291060901366355" fill="#3F7257" stroke="#16291F" stroke-width="0.6" opacity="0.85"/><circle cx="171.6215480193912" cy="698.527811898256" r="5.5007470977627815" fill="#3F7257" stroke="#16291F" stroke-width="0.6" opacity="0.85"/><circle cx="561.5386729183349" cy="714.5956057582237" r="7.501994089984285" fill="#3F7257" stroke="#16291F" stroke-width="0.6" opacity="0.85"/><circle cx="199.5826638374141" cy="500.01368845450696" r="5.443916607387127" fill="#3F7257" stroke="#16291F" stroke-width="0.6" opacity="0.85"/><circle cx="205.09315710520588" cy="359.14542678913807" r="8.224638711893494" fill="#3F7257" stroke="#16291F" stroke-width="0.6" opacity="0.85"/><circle cx="291.14301500534964" cy="224.13598041409023" r="8.421396998546939" fill="#3F7257" stroke="#16291F" stroke-width="0.6" opacity="0.85"/><circle cx="287.2387306290344" cy="184.37454846938593" r="5.466709199757029" fill="#3F7257" stroke="#16291F" stroke-width="0.6" opacity="0.85"/><circle cx="297.0135156396376" cy="695.3080931580239" r="6.686245804024304" fill="#3F7257" stroke="#16291F" stroke-width="0.6" opacity="0.85"/><circle cx="359.64685850668695" cy="290.6432675919052" r="5.954032150059414" fill="#3F7257" stroke="#16291F" stroke-width="0.6" opacity="0.85"/><circle cx="225.2172200938573" cy="695.4189815780489" r="8.118476417468159" fill="#3F7257" stroke="#16291F" stroke-width="0.6" opacity="0.85"/><circle cx="252.266286159797" cy="742.6882897662697" r="8.990800613101381" fill="#3F7257" stroke="#16291F" stroke-width="0.6" opacity="0.85"/><circle cx="417.20593104844124" cy="272.0625807261388" r="7.068893828862155" fill="#3F7257" stroke="#16291F" stroke-width="0.6" opacity="0.85"/><circle cx="181.6379589822616" cy="274.8834244388908" r="5.698256997544864" fill="#3F7257" stroke="#16291F" stroke-width="0.6" opacity="0.85"/><circle cx="639.6685379235655" cy="734.3802094091657" r="6.9141751980846085" fill="#3F7257" stroke="#16291F" stroke-width="0.6" opacity="0.85"/><g transform="translate(960,110)">
    <rect x="0" y="0" width="200" height="164" fill="#FBF8F1" stroke="#B08A3E" stroke-width="1" rx="4" opacity="0.97"/>
    <text x="12" y="16" fill="#1F3A2E" font-size="11" font-weight="700">LEGEND</text><rect x="12" y="24" width="14" height="10" fill="url(#plantHatch2)" stroke="#2A2A2A" stroke-width="0.6"/><text x="32" y="33" fill="#2A2A2A" font-size="10">Plantation + orchard</text><rect x="12" y="42" width="14" height="10" fill="url(#bufferPat)" stroke="#2A2A2A" stroke-width="0.6"/><text x="32" y="51" fill="#2A2A2A" font-size="10">Landscape buffer</text><rect x="12" y="60" width="14" height="10" fill="#FBF8F1" stroke="#1F3A2E" stroke-width="0.6"/><text x="32" y="69" fill="#2A2A2A" font-size="10">Container module (40 / 20 ft)</text><rect x="12" y="78" width="14" height="10" fill="#E8DFC4" stroke="#2A2A2A" stroke-width="0.6"/><text x="32" y="87" fill="#2A2A2A" font-size="10">Courtyard / glass spine / service</text><rect x="12" y="96" width="14" height="10" fill="#C9B07A" stroke="#2A2A2A" stroke-width="0.6"/><text x="32" y="105" fill="#2A2A2A" font-size="10">Wellness / outdoor dining deck</text><rect x="12" y="114" width="14" height="10" fill="url(#waterPat)" stroke="#2A2A2A" stroke-width="0.6"/><text x="32" y="123" fill="#2A2A2A" font-size="10">Reflective pool / swimming pool</text><rect x="12" y="132" width="14" height="10" fill="#3F7257" stroke="#2A2A2A" stroke-width="0.6"/><text x="32" y="141" fill="#2A2A2A" font-size="10">Greywater wetland</text><rect x="12" y="150" width="14" height="10" fill="#E8E0BD" stroke="#2A2A2A" stroke-width="0.6"/><text x="32" y="159" fill="#2A2A2A" font-size="10">Private garden court</text></g><g transform="translate(1130,800)">
    <circle cx="0" cy="0" r="22" fill="#FBF8F1" stroke="#1F3A2E" stroke-width="1.2"/>
    <polygon points="0,-18 6,8 0,3 -6,8" fill="#1F3A2E"/>
    <polygon points="0,-18 0,3 -6,8" fill="#B08A3E"/>
    <text x="0" y="-26" text-anchor="middle" fill="#1F3A2E" font-size="11" font-weight="700">N</text>
  </g><g transform="translate(70,840)">
    <rect x="0" y="0" width="67.3076923076923" height="6" fill="#1F3A2E" stroke="#1F3A2E"/>
    <rect x="67.3076923076923" y="0" width="67.3076923076923" height="6" fill="#FBF8F1" stroke="#1F3A2E"/>
    <rect x="134.6153846153846" y="0" width="67.3076923076923" height="6" fill="#1F3A2E" stroke="#1F3A2E"/>
    <text x="0" y="22" fill="#2A2A2A" font-size="10" text-anchor="middle">0</text>
    <text x="67.3076923076923" y="22" fill="#2A2A2A" font-size="10" text-anchor="middle">20</text>
    <text x="134.6153846153846" y="22" fill="#2A2A2A" font-size="10" text-anchor="middle">40</text>
    <text x="201.9230769230769" y="22" fill="#2A2A2A" font-size="10" text-anchor="middle">60 ft</text>
  </g><g transform="translate(70,110)">
    <rect x="0" y="0" width="270" height="74" fill="#FBF8F1" stroke="#B08A3E" stroke-width="1.5" rx="4"/>
    <text x="14" y="22" fill="#1F3A2E" font-size="13" font-weight="700" letter-spacing="2">RESERVA VERDE GOA</text>
    <line x1="14" y1="30" x2="256" y2="30" stroke="#B08A3E" stroke-width="0.8"/>
    <text x="14" y="48" fill="#2A2A2A" font-size="12" font-weight="700">4BHK · 4 BR + 4 ATT + POWDER + STAFF</text>
    <text x="14" y="65" fill="#2A2A2A" font-size="11" font-style="italic">4,500 Sq.Ft  ·  1 Acre Plantation Estate</text>
  </g></svg>