<svg xmlns="http://www.w3.org/2000/svg" viewBox="0 0 1200 900" width="1200" height="900" font-family="Georgia, 'Times New Roman', serif">
<defs>
  <pattern id="plantHatch" patternUnits="userSpaceOnUse" width="14" height="14" patternTransform="rotate(45)">
    <rect width="14" height="14" fill="#2E5944"/>
    <line x1="0" y1="0" x2="0" y2="14" stroke="#3F7257" stroke-width="1.5" opacity="0.45"/>
  </pattern>
  <pattern id="plantHatch2" patternUnits="userSpaceOnUse" width="20" height="20">
    <rect width="20" height="20" fill="#2E5944"/>
    <circle cx="5" cy="5" r="2" fill="#3F7257" opacity="0.6"/>
    <circle cx="15" cy="15" r="2.5" fill="#3F7257" opacity="0.55"/>
    <circle cx="15" cy="5" r="1.6" fill="#3F7257" opacity="0.45"/>
    <circle cx="5" cy="15" r="1.6" fill="#3F7257" opacity="0.45"/>
  </pattern>
  <pattern id="drivewayPat" patternUnits="userSpaceOnUse" width="8" height="8">
    <rect width="8" height="8" fill="#D9CDA8"/>
    <circle cx="2" cy="2" r="0.6" fill="#A89870"/>
    <circle cx="6" cy="6" r="0.6" fill="#A89870"/>
  </pattern>
  <pattern id="bufferPat" patternUnits="userSpaceOnUse" width="22" height="22">
    <rect width="22" height="22" fill="#1F3A2E"/>
    <circle cx="11" cy="11" r="6" fill="#3F7257" opacity="0.55"/>
    <circle cx="11" cy="11" r="3.5" fill="#16291F" opacity="0.7"/>
  </pattern>
  <pattern id="waterPat" patternUnits="userSpaceOnUse" width="10" height="10">
    <rect width="10" height="10" fill="#7FA9C9"/>
    <path d="M0 5 Q 2.5 3, 5 5 T 10 5" stroke="#FBF8F1" stroke-width="0.6" fill="none" opacity="0.7"/>
  </pattern>
  <linearGradient id="cardShadow" x1="0" y1="0" x2="0" y2="1">
    <stop offset="0" stop-color="#2A2A2A" stop-opacity="0.18"/>
    <stop offset="1" stop-color="#2A2A2A" stop-opacity="0"/>
  </linearGradient>
</defs>

<rect x="0" y="0" width="1200" height="900" fill="#F4EDDD" stroke="none" stroke-width="0" rx="0"/>
<rect x="20" y="20" width="1160" height="860" fill="#FBF8F1" stroke="#C7B97A" stroke-width="1" rx="8"/>
<text x="600" y="60" fill="#1F3A2E" font-size="18" font-weight="700" text-anchor="middle" letter-spacing="3">RESERVA VERDE GOA · 1-ACRE SITE PLAN</text>
<text x="600" y="82" fill="#B08A3E" font-size="13" font-weight="400" text-anchor="middle" letter-spacing="0" font-style="italic">Fully Customisable Ground-Level Modular Eco Estate  ·  Customisable Built-up · 1 Acre  ·  1 Acre Eco-Plantation Estate</text>
<line x1="60" y1="95" x2="1140" y2="95" stroke="#B08A3E" stroke-width="0.6"/>
<rect x="80" y="110" width="700" height="700" fill="url(#bufferPat)" stroke="#1F3A2E" stroke-width="2.5" rx="4"/><rect x="174.23076923076923" y="204.23076923076923" width="511.53846153846155" height="511.53846153846155" fill="url(#plantHatch2)" stroke="#16291F" stroke-width="1.2" rx="0"/><text x="673.7692307692307" y="226.23076923076923" fill="#FBF8F1" font-size="11" font-weight="700" text-anchor="end" letter-spacing="1">PLANTATION  BUYER-SELECTED PROFILE</text><rect x="295.38461538461536" y="251.34615384615384" width="269.2307692307692" height="188.46153846153845" fill="none" stroke="#B08A3E" stroke-width="1.5" rx="0"/><text x="430" y="453.80769230769226" fill="#B08A3E" font-size="9" font-weight="400" text-anchor="middle" letter-spacing="0" font-style="italic">FRONT placement</text><rect x="214.6153846153846" y="365.7692307692308" width="269.2307692307692" height="188.46153846153845" fill="none" stroke="#B08A3E" stroke-width="1.5" rx="0"/><text x="349.2307692307692" y="357.7692307692308" fill="#B08A3E" font-size="9" font-weight="400" text-anchor="middle" letter-spacing="0" font-style="italic">SIDE placement</text><rect x="295.38461538461536" y="480.19230769230774" width="269.2307692307692" height="188.46153846153845" fill="none" stroke="#B08A3E" stroke-width="1.5" rx="0"/><text x="430" y="472.19230769230774" fill="#B08A3E" font-size="9" font-weight="400" text-anchor="middle" letter-spacing="0" font-style="italic">REAR placement</text><rect x="430" y="426.3461538461538" width="269.2307692307692" height="269.2307692307692" fill="none" stroke="#B08A3E" stroke-width="1.5" rx="0"/><text x="564.6153846153846" y="729.2307692307693" fill="#B08A3E" font-size="9" font-weight="400" text-anchor="middle" letter-spacing="0" font-style="italic">COURTYARD-CENTRIC</text><rect x="295.38461538461536" y="365.7692307692308" width="269.2307692307692" height="188.46153846153845" fill="#FBF8F1" stroke="#1F3A2E" stroke-width="2" rx="0"/><rect x="369.4230769230769" y="433.0769230769231" width="121.15384615384616" height="67.3076923076923" fill="#E8DFC4" stroke="#B08A3E" stroke-width="1.2" rx="0"/><text x="430" y="383.7692307692308" fill="#1F3A2E" font-size="11" font-weight="700" text-anchor="middle" letter-spacing="1">MODULAR ECO HOME — CENTRE PLACEMENT (hero variant)</text><text x="430" y="470.09615384615387" fill="#B08A3E" font-size="10" font-weight="700" text-anchor="middle" letter-spacing="0">INTERIOR COURTYARD</text><text x="430" y="546.2307692307693" fill="#2A2A2A" font-size="9" font-weight="400" text-anchor="middle" letter-spacing="0" font-style="italic">1–4 BHK · custom built-up · ground-level modular containers only</text><rect x="408.125" y="675.3846153846154" width="43.75" height="134.6153846153846" fill="url(#drivewayPat)" stroke="#E8DFC4" stroke-width="0.5" rx="0"/><rect x="40" y="830" width="1120" height="26" fill="#3A3A3A" stroke="none" stroke-width="0" rx="0"/><text x="600" y="848" text-anchor="middle" fill="#FBF8F1" font-size="10" font-style="italic" letter-spacing="2">ACCESS ROAD</text><rect x="400" y="804" width="60" height="12" fill="#B08A3E" stroke="#1F3A2E" stroke-width="1.5" rx="0"/><text x="430" y="826" fill="#1F3A2E" font-size="11" font-weight="700" text-anchor="middle" letter-spacing="1">GATE</text><circle cx="719.4230769230769" cy="184.03846153846155" r="11" fill="#7FA9C9" stroke="#1F3A2E" stroke-width="1"/><text x="719.4230769230769" y="237.8846153846154" fill="#1F3A2E" font-size="9" font-weight="700" text-anchor="middle" letter-spacing="0">RWH</text><rect x="645.3846153846154" y="160.48076923076923" width="47.11538461538461" height="47.11538461538461" fill="#E8DFC4" stroke="#1F3A2E" stroke-width="1"/><text x="668.9423076923076" y="244.6153846153846" fill="#1F3A2E" font-size="8" font-weight="700" text-anchor="middle" letter-spacing="0">RP</text><rect x="130.48076923076923" y="160.48076923076923" width="67.3076923076923" height="40.38461538461539" fill="#F4EDDD" stroke="#1F3A2E" stroke-width="1"/><text x="164.1346153846154" y="231.15384615384616" fill="#1F3A2E" font-size="8" font-weight="700" text-anchor="middle" letter-spacing="0">BIO-SEPTIC</text><rect x="611.7307692307693" y="692.2115384615385" width="100.96153846153847" height="47.11538461538461" fill="#E8DFC4" stroke="#1F3A2E" stroke-width="1"/><text x="662.2115384615386" y="725.8653846153846" fill="#1F3A2E" font-size="8" font-weight="700" text-anchor="middle" letter-spacing="0">SOLAR / UTIL</text><rect x="147.30769230769232" y="177.30769230769232" width="565.3846153846154" height="565.3846153846154" fill="none" stroke="#E8DFC4" stroke-width="3" stroke-dasharray="2,4" opacity="0.7"/><circle cx="549.0307108637072" cy="668.5658354464974" r="7.402457708307294" fill="#3F7257" stroke="#16291F" stroke-width="0.6" opacity="0.85"/><circle cx="625.3818289031648" cy="644.3933785851298" r="7.958357083805596" fill="#3F7257" stroke="#16291F" stroke-width="0.6" opacity="0.85"/><circle cx="217.61177202962617" cy="607.015370346335" r="6.797751760350626" fill="#3F7257" stroke="#16291F" stroke-width="0.6" opacity="0.85"/><circle cx="186.3546381034319" cy="432.8645152228154" r="7.61796858556884" fill="#3F7257" stroke="#16291F" stroke-width="0.6" opacity="0.85"/><circle cx="505.70893919373657" cy="261.5763371116677" r="7.642639064062358" fill="#3F7257" stroke="#16291F" stroke-width="0.6" opacity="0.85"/><circle cx="147.48992464759553" cy="269.91511717117646" r="7.032780951662258" fill="#3F7257" stroke="#16291F" stroke-width="0.6" opacity="0.85"/><circle cx="529.4760251371492" cy="349.0516687564109" r="6.430189825730868" fill="#3F7257" stroke="#16291F" stroke-width="0.6" opacity="0.85"/><circle cx="271.1186942950767" cy="482.6826800697256" r="7.280979314259406" fill="#3F7257" stroke="#16291F" stroke-width="0.6" opacity="0.85"/><circle cx="188.9834093227696" cy="389.2598313577796" r="7.409843743573308" fill="#3F7257" stroke="#16291F" stroke-width="0.6" opacity="0.85"/><circle cx="629.4216842745409" cy="668.8084581456803" r="5.26190128540445" fill="#3F7257" stroke="#16291F" stroke-width="0.6" opacity="0.85"/><circle cx="283.63469991257296" cy="697.6734676427868" r="5.489960551134531" fill="#3F7257" stroke="#16291F" stroke-width="0.6" opacity="0.85"/><circle cx="619.1901859889349" cy="347.0815540131671" r="5.561612265094755" fill="#3F7257" stroke="#16291F" stroke-width="0.6" opacity="0.85"/><circle cx="386.5837964826992" cy="708.4023223571794" r="7.050563168013209" fill="#3F7257" stroke="#16291F" stroke-width="0.6" opacity="0.85"/><circle cx="593.0036807417728" cy="607.0524073128815" r="6.2568439395719055" fill="#3F7257" stroke="#16291F" stroke-width="0.6" opacity="0.85"/><circle cx="690.0864721624368" cy="378.9242613196213" r="7.816795243176021" fill="#3F7257" stroke="#16291F" stroke-width="0.6" opacity="0.85"/><circle cx="551.1120087760069" cy="187.89711908293677" r="7.9049494052206315" fill="#3F7257" stroke="#16291F" stroke-width="0.6" opacity="0.85"/><circle cx="556.1989673837029" cy="193.6438377461077" r="7.836141812063155" fill="#3F7257" stroke="#16291F" stroke-width="0.6" opacity="0.85"/><circle cx="184.10159457096245" cy="422.72038283922024" r="6.621104941547961" fill="#3F7257" stroke="#16291F" stroke-width="0.6" opacity="0.85"/><circle cx="651.5079456915946" cy="584.0536909852927" r="7.878341316234985" fill="#3F7257" stroke="#16291F" stroke-width="0.6" opacity="0.85"/><circle cx="684.7917641140573" cy="700.1355417847828" r="6.491786495780877" fill="#3F7257" stroke="#16291F" stroke-width="0.6" opacity="0.85"/><circle cx="188.49976367993156" cy="298.4090008166728" r="7.388017512448307" fill="#3F7257" stroke="#16291F" stroke-width="0.6" opacity="0.85"/><circle cx="277.0400230995127" cy="322.5306888194598" r="5.382157334887621" fill="#3F7257" stroke="#16291F" stroke-width="0.6" opacity="0.85"/><circle cx="194.25144325975288" cy="516.5503330589825" r="6.361536492999052" fill="#3F7257" stroke="#16291F" stroke-width="0.6" opacity="0.85"/><circle cx="467.690147791523" cy="353.032351370326" r="5.1229159231157695" fill="#3F7257" stroke="#16291F" stroke-width="0.6" opacity="0.85"/><circle cx="177.06460237056643" cy="404.76763817658065" r="6.035835577005429" fill="#3F7257" stroke="#16291F" stroke-width="0.6" opacity="0.85"/><circle cx="279.3353032710903" cy="415.9085047630425" r="6.619769883291406" fill="#3F7257" stroke="#16291F" stroke-width="0.6" opacity="0.85"/><circle cx="331.85011091612097" cy="740.0169108827331" r="6.217341586930207" fill="#3F7257" stroke="#16291F" stroke-width="0.6" opacity="0.85"/><circle cx="407.7706939275013" cy="613.9986389704782" r="6.673250762672312" fill="#3F7257" stroke="#16291F" stroke-width="0.6" opacity="0.85"/><circle cx="430.9086607179908" cy="675.278175117041" r="6.456906955584985" fill="#3F7257" stroke="#16291F" stroke-width="0.6" opacity="0.85"/><circle cx="437.23658540018795" cy="244.65043743486555" r="7.563948731788874" fill="#3F7257" stroke="#16291F" stroke-width="0.6" opacity="0.85"/><circle cx="414.56652546537873" cy="179.64765764217208" r="6.547392839605535" fill="#3F7257" stroke="#16291F" stroke-width="0.6" opacity="0.85"/><g transform="translate(960,110)">
    <rect x="0" y="0" width="200" height="128" fill="#FBF8F1" stroke="#B08A3E" stroke-width="1" rx="4" opacity="0.97"/>
    <text x="12" y="16" fill="#1F3A2E" font-size="11" font-weight="700">LEGEND</text><rect x="12" y="24" width="14" height="10" fill="url(#plantHatch2)" stroke="#2A2A2A" stroke-width="0.6"/><text x="32" y="33" fill="#2A2A2A" font-size="10">Plantation (buyer-selected)</text><rect x="12" y="42" width="14" height="10" fill="url(#bufferPat)" stroke="#2A2A2A" stroke-width="0.6"/><text x="32" y="51" fill="#2A2A2A" font-size="10">Landscape buffer</text><rect x="12" y="60" width="14" height="10" fill="#FBF8F1" stroke="#1F3A2E" stroke-width="0.6"/><text x="32" y="69" fill="#2A2A2A" font-size="10">HERO home (solid)</text><rect x="12" y="78" width="14" height="10" fill="none" stroke="#B08A3E" stroke-width="0.6"/><text x="32" y="87" fill="#2A2A2A" font-size="10">Ghost placement options (dashed)</text><rect x="12" y="96" width="14" height="10" fill="#E8DFC4" stroke="#2A2A2A" stroke-width="0.6"/><text x="32" y="105" fill="#2A2A2A" font-size="10">Courtyard / service</text><rect x="12" y="114" width="14" height="10" fill="#7FA9C9" stroke="#2A2A2A" stroke-width="0.6"/><text x="32" y="123" fill="#2A2A2A" font-size="10">RWH / water features</text></g><g transform="translate(1130,800)">
    <circle cx="0" cy="0" r="22" fill="#FBF8F1" stroke="#1F3A2E" stroke-width="1.2"/>
    <polygon points="0,-18 6,8 0,3 -6,8" fill="#1F3A2E"/>
    <polygon points="0,-18 0,3 -6,8" fill="#B08A3E"/>
    <text x="0" y="-26" text-anchor="middle" fill="#1F3A2E" font-size="11" font-weight="700">N</text>
  </g><g transform="translate(70,840)">
    <rect x="0" y="0" width="67.3076923076923" height="6" fill="#1F3A2E" stroke="#1F3A2E"/>
    <rect x="67.3076923076923" y="0" width="67.3076923076923" height="6" fill="#FBF8F1" stroke="#1F3A2E"/>
    <rect x="134.6153846153846" y="0" width="67.3076923076923" height="6" fill="#1F3A2E" stroke="#1F3A2E"/>
    <text x="0" y="22" fill="#2A2A2A" font-size="10" text-anchor="middle">0</text>
    <text x="67.3076923076923" y="22" fill="#2A2A2A" font-size="10" text-anchor="middle">20</text>
    <text x="134.6153846153846" y="22" fill="#2A2A2A" font-size="10" text-anchor="middle">40</text>
    <text x="201.9230769230769" y="22" fill="#2A2A2A" font-size="10" text-anchor="middle">60 ft</text>
  </g><g transform="translate(70,110)">
    <rect x="0" y="0" width="270" height="74" fill="#FBF8F1" stroke="#B08A3E" stroke-width="1.5" rx="4"/>
    <text x="14" y="22" fill="#1F3A2E" font-size="13" font-weight="700" letter-spacing="2">RESERVA VERDE GOA</text>
    <line x1="14" y1="30" x2="256" y2="30" stroke="#B08A3E" stroke-width="0.8"/>
    <text x="14" y="48" fill="#2A2A2A" font-size="12" font-weight="700">CUSTOMISABLE  ·  BUYER-CONFIGURED</text>
    <text x="14" y="65" fill="#2A2A2A" font-size="11" font-style="italic">1 Acre  ·  1 Acre Plantation Estate</text>
  </g></svg>