<svg xmlns="http://www.w3.org/2000/svg" viewBox="0 0 1200 900" width="1200" height="900" font-family="Georgia, 'Times New Roman', serif">
<defs>
  <pattern id="plantHatch" patternUnits="userSpaceOnUse" width="14" height="14" patternTransform="rotate(45)">
    <rect width="14" height="14" fill="#2E5944"/>
    <line x1="0" y1="0" x2="0" y2="14" stroke="#3F7257" stroke-width="1.5" opacity="0.45"/>
  </pattern>
  <pattern id="plantHatch2" patternUnits="userSpaceOnUse" width="20" height="20">
    <rect width="20" height="20" fill="#2E5944"/>
    <circle cx="5" cy="5" r="2" fill="#3F7257" opacity="0.6"/>
    <circle cx="15" cy="15" r="2.5" fill="#3F7257" opacity="0.55"/>
    <circle cx="15" cy="5" r="1.6" fill="#3F7257" opacity="0.45"/>
    <circle cx="5" cy="15" r="1.6" fill="#3F7257" opacity="0.45"/>
  </pattern>
  <pattern id="drivewayPat" patternUnits="userSpaceOnUse" width="8" height="8">
    <rect width="8" height="8" fill="#D9CDA8"/>
    <circle cx="2" cy="2" r="0.6" fill="#A89870"/>
    <circle cx="6" cy="6" r="0.6" fill="#A89870"/>
  </pattern>
  <pattern id="bufferPat" patternUnits="userSpaceOnUse" width="22" height="22">
    <rect width="22" height="22" fill="#1F3A2E"/>
    <circle cx="11" cy="11" r="6" fill="#3F7257" opacity="0.55"/>
    <circle cx="11" cy="11" r="3.5" fill="#16291F" opacity="0.7"/>
  </pattern>
  <pattern id="waterPat" patternUnits="userSpaceOnUse" width="10" height="10">
    <rect width="10" height="10" fill="#7FA9C9"/>
    <path d="M0 5 Q 2.5 3, 5 5 T 10 5" stroke="#FBF8F1" stroke-width="0.6" fill="none" opacity="0.7"/>
  </pattern>
  <linearGradient id="cardShadow" x1="0" y1="0" x2="0" y2="1">
    <stop offset="0" stop-color="#2A2A2A" stop-opacity="0.18"/>
    <stop offset="1" stop-color="#2A2A2A" stop-opacity="0"/>
  </linearGradient>
</defs>

<rect x="0" y="0" width="1200" height="900" fill="#F4EDDD" stroke="none" stroke-width="0" rx="0"/>
<rect x="20" y="20" width="1160" height="860" fill="#FBF8F1" stroke="#C7B97A" stroke-width="1" rx="8"/>
<text x="600" y="60" fill="#1F3A2E" font-size="18" font-weight="700" text-anchor="middle" letter-spacing="3">RESERVA VERDE GOA · 1-ACRE SITE PLAN</text>
<text x="600" y="82" fill="#B08A3E" font-size="13" font-weight="400" text-anchor="middle" letter-spacing="0" font-style="italic">2BHK · Compact Luxury Modular Eco Estate  ·  2,500 Sq.Ft Built-up  ·  1 Acre Eco-Plantation Estate</text>
<line x1="60" y1="95" x2="1140" y2="95" stroke="#B08A3E" stroke-width="0.6"/>
<rect x="80" y="110" width="700" height="700" fill="url(#bufferPat)" stroke="#1F3A2E" stroke-width="2.5" rx="4"/><rect x="174.23076923076923" y="204.23076923076923" width="511.53846153846155" height="511.53846153846155" fill="url(#plantHatch2)" stroke="#16291F" stroke-width="1.2" rx="0"/><text x="673.7692307692307" y="226.23076923076923" fill="#FBF8F1" font-size="11" font-weight="700" text-anchor="end" letter-spacing="1">PLANTATION  CASHEW · MANGO · COCONUT · SPICE</text><rect x="409.8076923076923" y="688.8461538461538" width="40.38461538461539" height="121.15384615384616" fill="url(#drivewayPat)" stroke="#E8DFC4" stroke-width="0.5" rx="0"/><rect x="456.9230769230769" y="567.6923076923076" width="67.3076923076923" height="121.15384615384616" fill="#D9CDA8" stroke="#2A2A2A" stroke-width="0.6" rx="0"/><text x="490.57692307692304" y="628.2692307692307" fill="#2A2A2A" font-size="12" font-weight="700" text-anchor="middle" letter-spacing="0">P</text><text x="490.57692307692304" y="668.6538461538461" fill="#2A2A2A" font-size="8" font-weight="400" text-anchor="middle" letter-spacing="0">2 cars</text><rect x="362.6923076923077" y="422.9807692307692" width="134.6153846153846" height="26.923076923076923" fill="#FBF8F1" stroke="#1F3A2E" stroke-width="1.4" rx="0"/><text x="430" y="439.4423076923077" fill="#1F3A2E" font-size="10" font-weight="700" text-anchor="middle" letter-spacing="0">LIVING (40 ft module)</text><rect x="335.7692307692308" y="419.6153846153846" width="26.923076923076923" height="134.6153846153846" fill="#FBF8F1" stroke="#1F3A2E" stroke-width="1.4" rx="0"/><g transform="translate(349.2307692307692, 486.9230769230769) rotate(-90)"><text text-anchor="middle" font-size="10" font-weight="700" fill="#1F3A2E">MASTER BR</text></g><rect x="497.3076923076923" y="419.6153846153846" width="26.923076923076923" height="134.6153846153846" fill="#FBF8F1" stroke="#1F3A2E" stroke-width="1.4" rx="0"/><g transform="translate(510.7692307692308, 453.2692307692308) rotate(-90)"><text text-anchor="middle" font-size="10" font-weight="700" fill="#1F3A2E">BR 2</text></g><g transform="translate(510.7692307692308, 520.5769230769231) rotate(-90)"><text text-anchor="middle" font-size="10" font-weight="700" fill="#1F3A2E">KITCHEN</text></g><rect x="362.6923076923077" y="540.7692307692307" width="134.6153846153846" height="26.923076923076923" fill="#FBF8F1" stroke="#1F3A2E" stroke-width="1.4" rx="0"/><text x="430" y="557.2307692307692" fill="#1F3A2E" font-size="10" font-weight="700" text-anchor="middle" letter-spacing="0">DINING / FAMILY LOUNGE</text><rect x="268.46153846153845" y="473.46153846153845" width="67.3076923076923" height="26.923076923076923" fill="#E8DFC4" stroke="#1F3A2E" stroke-width="1.2" rx="0" opacity="0.95"/><text x="302.11538461538464" y="490.9230769230769" fill="#1F3A2E" font-size="9" font-weight="700" text-anchor="middle" letter-spacing="0">UTILITY</text><rect x="524.2307692307693" y="433.0769230769231" width="67.3076923076923" height="26.923076923076923" fill="#E8DFC4" stroke="#1F3A2E" stroke-width="1.2" rx="0" opacity="0.95"/><text x="557.8846153846155" y="449.53846153846155" fill="#1F3A2E" font-size="9" font-weight="700" text-anchor="middle" letter-spacing="0">POWDER</text><rect x="362.6923076923077" y="448.22115384615387" width="134.6153846153846" height="77.40384615384616" fill="#E8DFC4" stroke="#B08A3E" stroke-width="1" rx="0" opacity="0.9"/><text x="430" y="488.9230769230769" fill="#B08A3E" font-size="10" font-weight="700" text-anchor="middle" letter-spacing="1">COURTYARD</text><circle cx="430" cy="500.9230769230769" r="8" fill="#7FA9C9" stroke="#1F3A2E" stroke-width="0.6"/><rect x="355.96153846153845" y="568.6923076923076" width="148.07692307692307" height="26.923076923076923" fill="#C9B07A" stroke="#8B6F3A" stroke-width="0.9" rx="0" opacity="0.9"/><text x="430" y="584.5192307692307" fill="#2A2A2A" font-size="9" font-weight="700" text-anchor="middle" letter-spacing="1">COVERED VERANDAH</text><rect x="335.7692307692308" y="298.46153846153845" width="188.46153846153845" height="67.3076923076923" fill="#D4D8B6" stroke="#3F7257" stroke-width="0.8" rx="0"/><text x="430" y="332.1153846153846" fill="#1F3A2E" font-size="10" font-weight="700" text-anchor="middle" letter-spacing="1">YOGA LAWN · FIREPIT · SIT-OUT</text><circle cx="712.6923076923077" cy="184.03846153846155" r="10" fill="#7FA9C9" stroke="#1F3A2E" stroke-width="1"/><text x="712.6923076923077" y="224.4230769230769" fill="#1F3A2E" font-size="9" font-weight="700" text-anchor="middle" letter-spacing="0">RWH</text><rect x="645.3846153846154" y="160.48076923076923" width="14" height="14" fill="#E8DFC4" stroke="#1F3A2E" stroke-width="1"/><text x="652.3846153846154" y="244.6153846153846" fill="#1F3A2E" font-size="8" font-weight="700" text-anchor="middle" letter-spacing="0">RP</text><rect x="130.48076923076923" y="160.48076923076923" width="18" height="12" fill="#F4EDDD" stroke="#1F3A2E" stroke-width="1"/><text x="139.48076923076923" y="204.23076923076923" fill="#1F3A2E" font-size="8" font-weight="700" text-anchor="middle" letter-spacing="0">BIO-SEPTIC</text><rect x="130.48076923076923" y="709.0384615384615" width="20" height="12" fill="#B08A3E" opacity="0.7" stroke="#1F3A2E" stroke-width="0.8"/><text x="140.48076923076923" y="742.6923076923077" fill="#1F3A2E" font-size="8" font-weight="700" text-anchor="middle" letter-spacing="0">COMPOST</text><rect x="628.5576923076923" y="692.2115384615385" width="28" height="14" fill="#E8DFC4" stroke="#1F3A2E" stroke-width="1"/><text x="642.5576923076923" y="725.8653846153846" fill="#1F3A2E" font-size="8" font-weight="700" text-anchor="middle" letter-spacing="0">SOLAR / UTIL</text><rect x="147.30769230769232" y="177.30769230769232" width="565.3846153846154" height="565.3846153846154" fill="none" stroke="#E8DFC4" stroke-width="3" stroke-dasharray="2,4" opacity="0.7"/><rect x="40" y="830" width="1120" height="26" fill="#3A3A3A" stroke="none" stroke-width="0" rx="0"/><text x="600" y="848" text-anchor="middle" fill="#FBF8F1" font-size="10" font-style="italic" letter-spacing="2">ACCESS ROAD</text><rect x="400" y="804" width="60" height="12" fill="#B08A3E" stroke="#1F3A2E" stroke-width="1.5" rx="0"/><text x="430" y="826" fill="#1F3A2E" font-size="11" font-weight="700" text-anchor="middle" letter-spacing="1">GATE</text><circle cx="630.7229002255019" cy="457.2692265277556" r="6.787456716386281" fill="#3F7257" stroke="#16291F" stroke-width="0.6" opacity="0.85"/><circle cx="600.6446880068465" cy="502.71679200997164" r="7.589548889897413" fill="#3F7257" stroke="#16291F" stroke-width="0.6" opacity="0.85"/><circle cx="357.80121413302015" cy="669.2177443472299" r="6.880047606681176" fill="#3F7257" stroke="#16291F" stroke-width="0.6" opacity="0.85"/><circle cx="539.7716854541316" cy="267.74166071507" r="5.379105468917491" fill="#3F7257" stroke="#16291F" stroke-width="0.6" opacity="0.85"/><circle cx="291.69241913163984" cy="687.173549410752" r="7.043848289870434" fill="#3F7257" stroke="#16291F" stroke-width="0.6" opacity="0.85"/><circle cx="443.44084998826355" cy="280.98590720651436" r="7.822983626283957" fill="#3F7257" stroke="#16291F" stroke-width="0.6" opacity="0.85"/><circle cx="352.48682526199195" cy="660.0480363436309" r="5.062274639221923" fill="#3F7257" stroke="#16291F" stroke-width="0.6" opacity="0.85"/><circle cx="214.21233440638554" cy="592.7993182148762" r="6.773198798150653" fill="#3F7257" stroke="#16291F" stroke-width="0.6" opacity="0.85"/><circle cx="292.0184373038713" cy="338.7177235988897" r="6.022904172332454" fill="#3F7257" stroke="#16291F" stroke-width="0.6" opacity="0.85"/><circle cx="248.90706042628315" cy="199.206362998557" r="7.056129050373806" fill="#3F7257" stroke="#16291F" stroke-width="0.6" opacity="0.85"/><circle cx="287.7992658708438" cy="359.4672865718591" r="7.888365605318456" fill="#3F7257" stroke="#16291F" stroke-width="0.6" opacity="0.85"/><circle cx="321.70875331435184" cy="628.2156297488455" r="6.897026349654357" fill="#3F7257" stroke="#16291F" stroke-width="0.6" opacity="0.85"/><circle cx="674.2949411580169" cy="689.8486279260921" r="7.274305022249295" fill="#3F7257" stroke="#16291F" stroke-width="0.6" opacity="0.85"/><circle cx="488.51816780206894" cy="284.646984739877" r="6.304999389299679" fill="#3F7257" stroke="#16291F" stroke-width="0.6" opacity="0.85"/><circle cx="329.37972326032855" cy="257.44906902735835" r="6.5645189113732965" fill="#3F7257" stroke="#16291F" stroke-width="0.6" opacity="0.85"/><circle cx="333.58239859988515" cy="689.8516752014584" r="7.412565270823266" fill="#3F7257" stroke="#16291F" stroke-width="0.6" opacity="0.85"/><circle cx="416.45624283145986" cy="667.3031415330189" r="6.804891792166333" fill="#3F7257" stroke="#16291F" stroke-width="0.6" opacity="0.85"/><circle cx="428.9270211914652" cy="181.43264464354948" r="7.565535298584688" fill="#3F7257" stroke="#16291F" stroke-width="0.6" opacity="0.85"/><circle cx="424.22097550037887" cy="302.8957767160691" r="6.686106896980009" fill="#3F7257" stroke="#16291F" stroke-width="0.6" opacity="0.85"/><circle cx="187.6004352951411" cy="370.2756817862348" r="6.983917327830865" fill="#3F7257" stroke="#16291F" stroke-width="0.6" opacity="0.85"/><circle cx="649.5179274024159" cy="295.5270249590849" r="7.953179776976894" fill="#3F7257" stroke="#16291F" stroke-width="0.6" opacity="0.85"/><circle cx="701.7901798615933" cy="388.71556919761" r="6.967409615351299" fill="#3F7257" stroke="#16291F" stroke-width="0.6" opacity="0.85"/><g transform="translate(960,110)">
    <rect x="0" y="0" width="200" height="146" fill="#FBF8F1" stroke="#B08A3E" stroke-width="1" rx="4" opacity="0.97"/>
    <text x="12" y="16" fill="#1F3A2E" font-size="11" font-weight="700">LEGEND</text><rect x="12" y="24" width="14" height="10" fill="url(#plantHatch2)" stroke="#2A2A2A" stroke-width="0.6"/><text x="32" y="33" fill="#2A2A2A" font-size="10">Plantation zone (cashew/mango/coconut)</text><rect x="12" y="42" width="14" height="10" fill="url(#bufferPat)" stroke="#2A2A2A" stroke-width="0.6"/><text x="32" y="51" fill="#2A2A2A" font-size="10">Landscape buffer (privacy trees)</text><rect x="12" y="60" width="14" height="10" fill="#FBF8F1" stroke="#1F3A2E" stroke-width="0.6"/><text x="32" y="69" fill="#2A2A2A" font-size="10">Container module (40 ft / 20 ft)</text><rect x="12" y="78" width="14" height="10" fill="#E8DFC4" stroke="#2A2A2A" stroke-width="0.6"/><text x="32" y="87" fill="#2A2A2A" font-size="10">Courtyard / utility / sit-out</text><rect x="12" y="96" width="14" height="10" fill="#C9B07A" stroke="#2A2A2A" stroke-width="0.6"/><text x="32" y="105" fill="#2A2A2A" font-size="10">Covered verandah / deck</text><rect x="12" y="114" width="14" height="10" fill="#7FA9C9" stroke="#2A2A2A" stroke-width="0.6"/><text x="32" y="123" fill="#2A2A2A" font-size="10">Water feature / RWH</text><rect x="12" y="132" width="14" height="10" fill="url(#drivewayPat)" stroke="#2A2A2A" stroke-width="0.6"/><text x="32" y="141" fill="#2A2A2A" font-size="10">Driveway / parking</text></g><g transform="translate(1130,800)">
    <circle cx="0" cy="0" r="22" fill="#FBF8F1" stroke="#1F3A2E" stroke-width="1.2"/>
    <polygon points="0,-18 6,8 0,3 -6,8" fill="#1F3A2E"/>
    <polygon points="0,-18 0,3 -6,8" fill="#B08A3E"/>
    <text x="0" y="-26" text-anchor="middle" fill="#1F3A2E" font-size="11" font-weight="700">N</text>
  </g><g transform="translate(70,840)">
    <rect x="0" y="0" width="67.3076923076923" height="6" fill="#1F3A2E" stroke="#1F3A2E"/>
    <rect x="67.3076923076923" y="0" width="67.3076923076923" height="6" fill="#FBF8F1" stroke="#1F3A2E"/>
    <rect x="134.6153846153846" y="0" width="67.3076923076923" height="6" fill="#1F3A2E" stroke="#1F3A2E"/>
    <text x="0" y="22" fill="#2A2A2A" font-size="10" text-anchor="middle">0</text>
    <text x="67.3076923076923" y="22" fill="#2A2A2A" font-size="10" text-anchor="middle">20</text>
    <text x="134.6153846153846" y="22" fill="#2A2A2A" font-size="10" text-anchor="middle">40</text>
    <text x="201.9230769230769" y="22" fill="#2A2A2A" font-size="10" text-anchor="middle">60 ft</text>
  </g><g transform="translate(70,110)">
    <rect x="0" y="0" width="270" height="74" fill="#FBF8F1" stroke="#B08A3E" stroke-width="1.5" rx="4"/>
    <text x="14" y="22" fill="#1F3A2E" font-size="13" font-weight="700" letter-spacing="2">RESERVA VERDE GOA</text>
    <line x1="14" y1="30" x2="256" y2="30" stroke="#B08A3E" stroke-width="0.8"/>
    <text x="14" y="48" fill="#2A2A2A" font-size="12" font-weight="700">2BHK · 2 BR + 2 ATT + POWDER</text>
    <text x="14" y="65" fill="#2A2A2A" font-size="11" font-style="italic">2,500 Sq.Ft  ·  1 Acre Plantation Estate</text>
  </g></svg>